<svg width="53" height="12" viewBox="0 0 53 12" fill="none" xmlns="http://www.w3.org/2000/svg">
<path d="M9.45801 5.98926C9.45801 7.61621 9.05013 8.88086 8.23438 9.7832C7.42318 10.6855 6.27246 11.1367 4.78223 11.1367C3.27376 11.1367 2.11393 10.6901 1.30273 9.79688C0.496094 8.89909 0.0927734 7.62533 0.0927734 5.97559C0.0927734 4.32585 0.498372 3.05892 1.30957 2.1748C2.12533 1.29069 3.28743 0.848633 4.7959 0.848633C6.28158 0.848633 7.43001 1.29753 8.24121 2.19531C9.05241 3.0931 9.45801 4.35775 9.45801 5.98926ZM1.8291 5.98926C1.8291 7.21973 2.07747 8.15397 2.57422 8.79199C3.07096 9.42546 3.80697 9.74219 4.78223 9.74219C5.75293 9.74219 6.48438 9.42773 6.97656 8.79883C7.47331 8.16992 7.72168 7.2334 7.72168 5.98926C7.72168 4.76335 7.47559 3.83366 6.9834 3.2002C6.49577 2.56673 5.7666 2.25 4.7959 2.25C3.81608 2.25 3.07552 2.56673 2.57422 3.2002C2.07747 3.83366 1.8291 4.76335 1.8291 5.98926ZM17.1143 3.43945V4.69727H14.6533V11H13.04V4.69727H10.5791V3.43945H17.1143ZM22.9111 9.46191L23 9.13379C23.1868 8.45475 23.3486 7.93294 23.4854 7.56836L25.1807 3.43945H27.3203V11H25.8369V4.89551L25.7139 5.30566C25.5088 6.03939 25.3356 6.57943 25.1943 6.92578L23.54 11H22.3232L20.6689 6.89844C20.4411 6.30599 20.2314 5.63835 20.04 4.89551V11H18.5703V3.43945H20.6963L22.3369 7.44531C22.4827 7.81445 22.6742 8.48665 22.9111 9.46191ZM32.9189 11.1367C31.7432 11.1367 30.8226 10.7949 30.1572 10.1113C29.4964 9.42318 29.166 8.47754 29.166 7.27441C29.166 6.03939 29.4736 5.06868 30.0889 4.3623C30.7041 3.65592 31.5495 3.30273 32.625 3.30273C33.623 3.30273 34.4115 3.60579 34.9902 4.21191C35.569 4.81803 35.8584 5.65202 35.8584 6.71387V7.58203H30.8203C30.8431 8.31576 31.0413 8.88086 31.415 9.27734C31.7887 9.66927 32.3151 9.86523 32.9941 9.86523C33.4408 9.86523 33.8555 9.82422 34.2383 9.74219C34.6257 9.6556 35.0404 9.51432 35.4824 9.31836V10.624C35.0905 10.8109 34.694 10.943 34.293 11.0205C33.8919 11.098 33.4339 11.1367 32.9189 11.1367ZM32.625 4.51953C32.1146 4.51953 31.7044 4.68132 31.3945 5.00488C31.0892 5.32845 30.9069 5.80013 30.8477 6.41992H34.2793C34.2702 5.79557 34.1198 5.32389 33.8281 5.00488C33.5365 4.68132 33.1354 4.51953 32.625 4.51953ZM39.29 3.43945V6.47461H42.8516V3.43945H44.458V11H42.8516V7.73926H39.29V11H37.6836V3.43945H39.29ZM51.4922 11L51.1709 9.94727H51.1162C50.7516 10.4076 50.3848 10.722 50.0156 10.8906C49.6465 11.0547 49.1725 11.1367 48.5938 11.1367C47.8509 11.1367 47.2699 10.9362 46.8506 10.5352C46.4359 10.1341 46.2285 9.56673 46.2285 8.83301C46.2285 8.05371 46.5179 7.46582 47.0967 7.06934C47.6755 6.67285 48.5573 6.45638 49.7422 6.41992L51.0479 6.37891V5.97559C51.0479 5.49251 50.9339 5.13249 50.7061 4.89551C50.4827 4.65397 50.1341 4.5332 49.6602 4.5332C49.2728 4.5332 48.9014 4.59017 48.5459 4.7041C48.1904 4.81803 47.8486 4.95247 47.5205 5.10742L47.001 3.95898C47.4111 3.74479 47.86 3.58301 48.3477 3.47363C48.8353 3.3597 49.2956 3.30273 49.7285 3.30273C50.6901 3.30273 51.4147 3.51237 51.9023 3.93164C52.3945 4.35091 52.6406 5.00944 52.6406 5.90723V11H51.4922ZM49.0996 9.90625C49.6829 9.90625 50.1501 9.74447 50.501 9.4209C50.8564 9.09277 51.0342 8.63477 51.0342 8.04688V7.39062L50.0635 7.43164C49.307 7.45898 48.7555 7.58659 48.4092 7.81445C48.0674 8.03776 47.8965 8.38184 47.8965 8.84668C47.8965 9.18392 47.9967 9.44596 48.1973 9.63281C48.3978 9.8151 48.6986 9.90625 49.0996 9.90625Z" fill="#CACACB"/>
</svg>
