<svg width="56" height="56" viewBox="0 0 56 56" fill="none" xmlns="http://www.w3.org/2000/svg">
<path d="M19.4286 6.56555H13.7143C12.1988 6.56555 10.7453 7.17707 9.67368 8.26559C8.60204 9.35411 8 10.8305 8 12.3699V47.1957C8 48.7351 8.60204 50.2114 9.67368 51.3C10.7453 52.3885 12.1988 53 13.7143 53H42.2857C43.8012 53 45.2547 52.3885 46.3263 51.3C47.398 50.2114 48 48.7351 48 47.1957V12.3699C48 10.8305 47.398 9.35411 46.3263 8.26559C45.2547 7.17707 43.8012 6.56555 42.2857 6.56555H36.5714M34.5667 24.0002C34.1742 23.2669 33.6039 22.6625 32.9169 22.2515C32.2299 21.8404 31.4521 21.6384 30.6667 21.6668H26.3333C25.1841 21.6668 24.0819 22.1585 23.2692 23.0337C22.4566 23.9088 22 25.0958 22 26.3335C22 27.5712 22.4566 28.7582 23.2692 29.6333C24.0819 30.5085 25.1841 31.0002 26.3333 31.0002H30.6667C31.8159 31.0002 32.9181 31.4918 33.7308 32.367C34.5435 33.2422 35 34.4292 35 35.6668C35 36.9045 34.5435 38.0915 33.7308 38.9667C32.9181 39.8418 31.8159 40.3335 30.6667 40.3335H26.3333C25.5479 40.362 24.7701 40.1599 24.0831 39.7489C23.3961 39.3379 22.8258 38.7334 22.4333 38.0002M28.5 17.0001V21.6668M28.5 40.3334V45.0001M23.4286 3H33.0612C34.8646 3 36.3265 4.55921 36.3265 6.48258C36.3265 8.40596 34.8646 9.96517 33.0612 9.96517H23.4286C21.6252 9.96517 20.1633 8.40596 20.1633 6.48258C20.1633 4.55921 21.6252 3 23.4286 3Z" stroke="#D0B07C" stroke-width="2.7" stroke-linecap="round" stroke-linejoin="round"/>
</svg>
