<svg width="56" height="56" viewBox="0 0 56 56" fill="none" xmlns="http://www.w3.org/2000/svg">
<path d="M28 7.70584H22.4444C21.7077 7.70584 21.0012 7.99092 20.4803 8.49838C19.9593 9.00583 19.6667 9.69408 19.6667 10.4117C19.6667 11.847 19.0813 13.2235 18.0395 14.2384C16.9976 15.2533 15.5845 15.8235 14.1111 15.8235H8.55556C7.08213 15.8235 5.66905 16.3937 4.62718 17.4086C3.58532 18.4235 3 19.8 3 21.2353V45.5882C3 47.0235 3.58532 48.4 4.62718 49.4149C5.66905 50.4298 7.08213 51 8.55556 51H47.4444C48.9179 51 50.3309 50.4298 51.3728 49.4149C52.4147 48.4 53 47.0235 53 45.5882V26.647M36.3333 13.1177H44.6667M44.6667 13.1177H53M44.6667 13.1177V5M44.6667 13.1177V21.2353M35.8125 32.0588C35.8125 36.5421 32.6024 40.1765 28 40.1765C23.3976 40.1765 20.1875 36.5421 20.1875 32.0588C20.1875 27.5755 23.3976 23.9411 28 23.9411C32.6024 23.9411 35.8125 27.5755 35.8125 32.0588Z" stroke="#D0B07C" stroke-width="2.7" stroke-linecap="round" stroke-linejoin="round"/>
</svg>
