<svg width="56" height="56" viewBox="0 0 56 56" fill="none" xmlns="http://www.w3.org/2000/svg">
<path d="M6.18492 38.8185C5.7873 39.4492 5.97626 40.2828 6.60697 40.6805C7.23768 41.0781 8.0713 40.8891 8.46892 40.2584L6.18492 38.8185ZM20.5926 18.4963L21.7346 19.2162L20.5926 18.4963ZM22.1196 18.3646L23.1214 17.4597L22.1196 18.3646ZM33.3024 30.7455L34.3043 29.8407L33.3024 30.7455ZM34.9714 30.2096L36.3127 30.362C36.3143 30.3481 36.3157 30.3341 36.3168 30.3201L34.9714 30.2096ZM36.6538 9.73077L37.834 9.07515C37.6205 8.691 37.2335 8.43476 36.7965 8.38833C36.3595 8.34189 35.9273 8.51106 35.6379 8.84179L36.6538 9.73077ZM37.8776 14.7133C38.2397 15.3651 39.0616 15.5999 39.7133 15.2378C40.3651 14.8757 40.5999 14.0538 40.2378 13.4021L37.8776 14.7133ZM32.2725 12.6879C31.7815 13.2491 31.8384 14.1019 32.3995 14.5929C32.9606 15.0839 33.8135 15.027 34.3044 14.4659L32.2725 12.6879ZM51.4383 8.25644C51.6861 8.95963 52.4571 9.32876 53.1603 9.08093C53.8635 8.83309 54.2326 8.06214 53.9848 7.35895L51.4383 8.25644ZM50.1154 5.88462L50.1736 4.53587C50.1542 4.53503 50.1348 4.53462 50.1154 4.53462V5.88462ZM46.2692 11.6538V13.0038V11.6538ZM50.1154 17.4231V18.7731V17.4231ZM46.2692 17.4231L46.211 18.7718C46.2304 18.7727 46.2498 18.7731 46.2692 18.7731V17.4231ZM44.9463 15.0513C44.6985 14.3481 43.9275 13.9789 43.2243 14.2268C42.5211 14.4746 42.152 15.2456 42.3998 15.9487L44.9463 15.0513ZM49.5423 3C49.5423 2.25442 48.9379 1.65 48.1923 1.65C47.4467 1.65 46.8423 2.25442 46.8423 3H49.5423ZM46.8423 5.88462C46.8423 6.6302 47.4467 7.23462 48.1923 7.23462C48.9379 7.23462 49.5423 6.6302 49.5423 5.88462H46.8423ZM49.5423 17.4231C49.5423 16.6775 48.9379 16.0731 48.1923 16.0731C47.4467 16.0731 46.8423 16.6775 46.8423 17.4231H49.5423ZM46.8423 20.3077C46.8423 21.0533 47.4467 21.6577 48.1923 21.6577C48.9379 21.6577 49.5423 21.0533 49.5423 20.3077H46.8423ZM3.96154 47.6192H11.6538V44.9192H3.96154V47.6192ZM11.2654 47.2308V52.0385H13.9654V47.2308H11.2654ZM11.6538 51.65H3.96154V54.35H11.6538V51.65ZM4.35 52.0385V47.2308H1.65V52.0385H4.35ZM3.96154 51.65C4.17608 51.65 4.35 51.8239 4.35 52.0385H1.65C1.65 53.3151 2.68491 54.35 3.96154 54.35V51.65ZM11.2654 52.0385C11.2654 51.8239 11.4393 51.65 11.6538 51.65V54.35C12.9305 54.35 13.9654 53.3151 13.9654 52.0385H11.2654ZM11.6538 47.6192C11.4393 47.6192 11.2654 47.4453 11.2654 47.2308H13.9654C13.9654 45.9541 12.9305 44.9192 11.6538 44.9192V47.6192ZM3.96154 44.9192C2.68491 44.9192 1.65 45.9541 1.65 47.2308H4.35C4.35 47.4453 4.17608 47.6192 3.96154 47.6192V44.9192ZM17.4231 36.0808H25.1154V33.3808H17.4231V36.0808ZM24.7269 35.6923V52.0385H27.4269V35.6923H24.7269ZM25.1154 51.65H17.4231V54.35H25.1154V51.65ZM17.8115 52.0385V35.6923H15.1115V52.0385H17.8115ZM17.4231 51.65C17.6376 51.65 17.8115 51.8239 17.8115 52.0385H15.1115C15.1115 53.3151 16.1464 54.35 17.4231 54.35V51.65ZM24.7269 52.0385C24.7269 51.8239 24.9008 51.65 25.1154 51.65V54.35C26.392 54.35 27.4269 53.3151 27.4269 52.0385H24.7269ZM25.1154 36.0808C24.9008 36.0808 24.7269 35.9069 24.7269 35.6923H27.4269C27.4269 34.4157 26.392 33.3808 25.1154 33.3808V36.0808ZM17.4231 33.3808C16.1465 33.3808 15.1115 34.4157 15.1115 35.6923H17.8115C17.8115 35.9069 17.6376 36.0808 17.4231 36.0808V33.3808ZM30.8846 39.9269H38.5769V37.2269H30.8846V39.9269ZM38.1885 39.5385V52.0385H40.8885V39.5385H38.1885ZM38.5769 51.65H30.8846V54.35H38.5769V51.65ZM31.2731 52.0385V39.5385H28.5731V52.0385H31.2731ZM30.8846 51.65C31.0992 51.65 31.2731 51.8239 31.2731 52.0385H28.5731C28.5731 53.3151 29.608 54.35 30.8846 54.35V51.65ZM38.1885 52.0385C38.1885 51.8239 38.3624 51.65 38.5769 51.65V54.35C39.8536 54.35 40.8885 53.3151 40.8885 52.0385H38.1885ZM38.5769 39.9269C38.3624 39.9269 38.1885 39.753 38.1885 39.5385H40.8885C40.8885 38.2618 39.8535 37.2269 38.5769 37.2269V39.9269ZM30.8846 37.2269C29.608 37.2269 28.5731 38.2618 28.5731 39.5385H31.2731C31.2731 39.753 31.0992 39.9269 30.8846 39.9269V37.2269ZM44.3462 26.4654H52.0385V23.7654H44.3462V26.4654ZM51.65 26.0769V52.0385H54.35V26.0769H51.65ZM52.0385 51.65H44.3462V54.35H52.0385V51.65ZM44.7346 52.0385V26.0769H42.0346V52.0385H44.7346ZM44.3462 51.65C44.5607 51.65 44.7346 51.8239 44.7346 52.0385H42.0346C42.0346 53.3151 43.0695 54.35 44.3462 54.35V51.65ZM51.65 52.0385C51.65 51.8239 51.8239 51.65 52.0385 51.65V54.35C53.3151 54.35 54.35 53.3151 54.35 52.0385H51.65ZM52.0385 26.4654C51.8239 26.4654 51.65 26.2915 51.65 26.0769H54.35C54.35 24.8003 53.3151 23.7654 52.0385 23.7654V26.4654ZM44.3462 23.7654C43.0695 23.7654 42.0346 24.8003 42.0346 26.0769H44.7346C44.7346 26.2915 44.5607 26.4654 44.3462 26.4654V23.7654ZM8.46892 40.2584L21.7346 19.2162L19.4506 17.7763L6.18492 38.8185L8.46892 40.2584ZM21.1178 19.2694L32.3006 31.6504L34.3043 29.8407L23.1214 17.4597L21.1178 19.2694ZM36.3168 30.3201L37.9993 9.84131L35.3084 9.62023L33.6259 30.0991L36.3168 30.3201ZM35.4737 10.3864L37.8776 14.7133L40.2378 13.4021L37.834 9.07515L35.4737 10.3864ZM35.6379 8.84179L32.2725 12.6879L34.3044 14.4659L37.6698 10.6198L35.6379 8.84179ZM32.3006 31.6504C33.6348 33.1276 36.088 32.3399 36.3127 30.362L33.63 30.0572C33.6678 29.7248 34.08 29.5924 34.3043 29.8407L32.3006 31.6504ZM21.7346 19.2162C21.5974 19.4339 21.2903 19.4604 21.1178 19.2694L23.1214 17.4597C22.095 16.3233 20.2673 16.4809 19.4506 17.7763L21.7346 19.2162ZM53.9848 7.35895C53.7038 6.56177 53.1907 5.86691 52.5115 5.36379L50.9044 7.5334C51.1505 7.71572 51.3365 7.96754 51.4383 8.25644L53.9848 7.35895ZM52.5115 5.36379C51.8323 4.86068 51.0181 4.57233 50.1736 4.53587L50.0571 7.23336C50.3632 7.24657 50.6583 7.35107 50.9044 7.5334L52.5115 5.36379ZM50.1154 4.53462H46.2692V7.23462H50.1154V4.53462ZM46.2692 4.53462C45.1461 4.53462 44.069 4.98076 43.2749 5.77491L45.1841 7.68409C45.4719 7.3963 45.8622 7.23462 46.2692 7.23462V4.53462ZM43.2749 5.77491C42.4808 6.56905 42.0346 7.64614 42.0346 8.76923H44.7346C44.7346 8.36223 44.8963 7.97189 45.1841 7.68409L43.2749 5.77491ZM42.0346 8.76923C42.0346 9.89232 42.4808 10.9694 43.2749 11.7636L45.1841 9.85437C44.8963 9.56657 44.7346 9.17623 44.7346 8.76923H42.0346ZM43.2749 11.7636C44.069 12.5577 45.1461 13.0038 46.2692 13.0038V10.3038C45.8622 10.3038 45.4719 10.1422 45.1841 9.85437L43.2749 11.7636ZM46.2692 13.0038H50.1154V10.3038H46.2692V13.0038ZM50.1154 13.0038C50.5224 13.0038 50.9127 13.1655 51.2005 13.4533L53.1097 11.5441C52.3156 10.75 51.2385 10.3038 50.1154 10.3038V13.0038ZM51.2005 13.4533C51.4883 13.7411 51.65 14.1315 51.65 14.5385H54.35C54.35 13.4154 53.9039 12.3383 53.1097 11.5441L51.2005 13.4533ZM51.65 14.5385C51.65 14.9455 51.4883 15.3358 51.2005 15.6236L53.1097 17.5328C53.9039 16.7386 54.35 15.6615 54.35 14.5385H51.65ZM51.2005 15.6236C50.9127 15.9114 50.5224 16.0731 50.1154 16.0731V18.7731C51.2385 18.7731 52.3156 18.3269 53.1097 17.5328L51.2005 15.6236ZM50.1154 16.0731H46.2692V18.7731H50.1154V16.0731ZM46.3275 16.0743C46.0214 16.0611 45.7264 15.9566 45.4802 15.7743L43.8731 17.9439C44.5523 18.447 45.3665 18.7354 46.211 18.7718L46.3275 16.0743ZM45.4802 15.7743C45.2341 15.592 45.0481 15.3402 44.9463 15.0513L42.3998 15.9487C42.6808 16.7459 43.1939 17.4408 43.8731 17.9439L45.4802 15.7743ZM46.8423 3V5.88462H49.5423V3H46.8423ZM46.8423 17.4231V20.3077H49.5423V17.4231H46.8423Z" fill="#D0B07C"/>
</svg>
