<svg width="56" height="56" viewBox="0 0 56 56" fill="none" xmlns="http://www.w3.org/2000/svg">
<path d="M19.5823 28L24.9233 33.5556L35.6052 22.4444M27.5938 3C33.8315 8.74049 41.9729 11.7294 50.2929 11.3333C51.5042 15.6195 51.8748 20.1152 51.3827 24.5533C50.8907 28.9914 49.546 33.2813 47.4285 37.1681C45.311 41.055 42.464 44.4594 39.0567 47.1791C35.6493 49.8988 31.7511 51.8783 27.5938 53C23.4364 51.8783 19.5382 49.8988 16.1308 47.1791C12.7235 44.4594 9.87646 41.055 7.75899 37.1681C5.64153 33.2813 4.29682 28.9914 3.80476 24.5533C3.3127 20.1152 3.68334 15.6195 4.89465 11.3333C13.2146 11.7294 21.356 8.74049 27.5938 3Z" stroke="#D0B07C" stroke-width="2.7" stroke-linecap="round" stroke-linejoin="round"/>
</svg>
