<svg width="56" height="56" viewBox="0 0 56 56" fill="none" xmlns="http://www.w3.org/2000/svg">
<path d="M31.0312 3V13.5263C31.0312 14.2243 31.3078 14.8936 31.8001 15.3871C32.2924 15.8806 32.9601 16.1579 33.6562 16.1579H44.1562M31.0312 3H12.6563C11.2639 3 9.92851 3.55451 8.94394 4.54154C7.95937 5.52858 7.40625 6.86728 7.40625 8.26316V45.1053C7.40625 46.5011 7.95937 47.8398 8.94394 48.8269C9.92851 49.8139 11.2639 50.3684 12.6563 50.3684H25.7813M31.0312 3L44.1562 16.1579M44.1562 16.1579L44.1563 28M42.8438 46.4211L49.4062 53M44.1562 41.1579C44.1562 44.7914 41.2181 47.7368 37.5937 47.7368C33.9694 47.7368 31.0312 44.7914 31.0312 41.1579C31.0312 37.5244 33.9694 34.5789 37.5937 34.5789C41.2181 34.5789 44.1562 37.5244 44.1562 41.1579Z" stroke="#D0B07C" stroke-width="2.7" stroke-linecap="round" stroke-linejoin="round"/>
</svg>
