<svg width="56" height="56" viewBox="0 0 56 56" fill="none" xmlns="http://www.w3.org/2000/svg">
<path d="M22.1225 31.8567V29.8666C22.1225 28.811 22.5354 27.7987 23.2702 27.0523C24.005 26.3059 25.0017 25.8865 26.0409 25.8865H29.9593C30.9985 25.8865 31.9951 26.3059 32.73 27.0523C33.4648 27.7987 33.8776 28.811 33.8776 29.8666V31.8567M19.4286 6.56653H13.7143C12.1988 6.56653 10.7453 7.17805 9.67368 8.26657C8.60204 9.35509 8 10.8314 8 12.3708V47.1967C8 48.7361 8.60204 50.2124 9.67368 51.3009C10.7453 52.3895 12.1988 53.001 13.7143 53.001H42.2857C43.8012 53.001 45.2547 52.3895 46.3263 51.3009C47.398 50.2124 48 48.7361 48 47.1967V12.3708C48 10.8314 47.398 9.35509 46.3263 8.26657C45.2547 7.17805 43.8012 6.56653 42.2857 6.56653H36.5714M14.2857 37.8268H42.6939M14.2857 42.8019H41.7143M14.2849 47.7771H22.8563M30.9389 18.9214C30.9389 20.57 29.6231 21.9064 28.0001 21.9064C26.377 21.9064 25.0613 20.57 25.0613 18.9214C25.0613 17.2727 26.377 15.9363 28.0001 15.9363C29.6231 15.9363 30.9389 17.2727 30.9389 18.9214ZM23.4286 3.00098H33.0612C34.8646 3.00098 36.3265 4.56018 36.3265 6.48356C36.3265 8.40694 34.8646 9.96614 33.0612 9.96614H23.4286C21.6252 9.96614 20.1633 8.40694 20.1633 6.48356C20.1633 4.56018 21.6252 3.00098 23.4286 3.00098Z" stroke="#D0B07C" stroke-width="2.7" stroke-linecap="round" stroke-linejoin="round"/>
</svg>
