<svg width="68" height="56" viewBox="0 0 68 56" fill="none" xmlns="http://www.w3.org/2000/svg">
<g clip-path="url(#clip0)">
<path fill-rule="evenodd" clip-rule="evenodd" d="M2.10828 8.31761L65.7615 8.3176V3.91077L2.10828 3.91078V8.31761ZM0.889992 10.4569L66.9798 10.4569C67.4705 10.4569 67.8698 10.0518 67.8698 9.55381V2.67456C67.8698 2.17661 67.4705 1.77148 66.9798 1.77148L0.889992 1.77149C0.399253 1.77149 0 2.17662 0 2.67457V9.55382C0 10.0518 0.399253 10.4569 0.889992 10.4569Z" fill="#D0B07C"/>
<path fill-rule="evenodd" clip-rule="evenodd" d="M4.21668 45.6199H63.653V10.4681L4.21668 10.4681V45.6199ZM2.99839 47.7591L64.8713 47.7591C65.362 47.7591 65.7613 47.354 65.7613 46.8561V9.23169C65.7613 8.73374 65.362 8.32861 64.8713 8.32861L2.99839 8.32862C2.50765 8.32862 2.1084 8.73374 2.1084 9.2317L2.1084 46.8561C2.1084 47.354 2.50765 47.7591 2.99839 47.7591Z" fill="#D0B07C"/>
<path fill-rule="evenodd" clip-rule="evenodd" d="M2.10828 49.5574H65.934V47.7592H2.10828V49.5574ZM0.889992 51.6967H67.1523C67.643 51.6967 68.0422 51.2916 68.0422 50.7937V46.5227C68.0422 46.0248 67.643 45.6196 67.1523 45.6196H0.889992C0.399253 45.6196 0 46.0248 0 46.5227V50.7937C0 51.2916 0.399253 51.6967 0.889992 51.6967Z" fill="#D0B07C"/>
<path fill-rule="evenodd" clip-rule="evenodd" d="M31.7577 52.6641H36.246V51.6969H31.7577V52.6641ZM30.5394 54.8034H37.4643C37.955 54.8034 38.3543 54.3983 38.3543 53.9003V50.4607C38.3543 49.9627 37.955 49.5576 37.4643 49.5576H30.5394C30.0487 49.5576 29.6494 49.9627 29.6494 50.4607V53.9003C29.6494 54.3983 30.0487 54.8034 30.5394 54.8034Z" fill="#D0B07C"/>
<path d="M53.6933 43.4286H58.8242H60.8202L60.8202 15.9568C60.8202 15.3653 60.3734 14.8857 59.8222 14.8857H52.6953C52.1441 14.8857 51.6973 15.3653 51.6973 15.9568L51.6973 43.4286H53.6933ZM53.6933 17.0279H58.8242L58.8242 41.2864H53.6933L53.6933 17.0279Z" fill="#D0B07C"/>
<path d="M42.289 43.4286H47.4199H49.4159L49.4159 23.7571C49.4159 23.1656 48.9691 22.686 48.4179 22.686H41.291C40.7398 22.686 40.293 23.1656 40.293 23.7571L40.293 43.4286H42.289ZM42.289 24.8282H47.4199L47.4199 41.2864H42.289L42.289 24.8282Z" fill="#D0B07C"/>
<path d="M30.8857 43.4289H36.0166H38.0126L38.0126 34.1717C38.0126 33.5801 37.5658 33.1006 37.0146 33.1006H29.8877C29.3365 33.1006 28.8896 33.5801 28.8896 34.1717V43.4289H30.8857ZM30.8857 35.2428H36.0166L36.0166 41.2867H30.8857L30.8857 35.2428Z" fill="#D0B07C"/>
<path d="M15.5473 15.6623C14.2755 15.9613 13.1058 16.6001 12.1595 17.5123C11.2131 18.4245 10.5246 19.5769 10.1653 20.8499C9.80607 22.123 9.78914 23.4704 10.1163 24.7524C10.4434 26.0343 11.1028 27.2042 12.0259 28.1405C12.949 29.0769 14.1023 29.7457 15.3661 30.0775C16.6299 30.4094 17.9582 30.3922 19.2133 30.0278C20.4684 29.6634 21.6045 28.965 22.5037 28.005C23.403 27.0451 24.0327 25.8586 24.3275 24.5686C24.3275 24.3499 24.2419 24.1401 24.0894 23.9855C23.937 23.8308 23.7302 23.7439 23.5145 23.7439H17.9862C17.555 23.7439 17.1414 23.5702 16.8365 23.2608C16.5316 22.9515 16.3603 22.532 16.3603 22.0946V16.322C16.3502 16.2243 16.3211 16.1296 16.2746 16.0434C16.2281 15.9572 16.1653 15.8812 16.0897 15.8199C16.014 15.7585 15.9271 15.713 15.834 15.6859C15.7409 15.6589 15.6435 15.6508 15.5473 15.6623Z" stroke="#D0B07C" stroke-width="2.7" stroke-linecap="round" stroke-linejoin="round"/>
<path d="M19.7666 15.6572C20.8197 16.0335 21.7761 16.6446 22.5656 17.4457C23.355 18.2467 23.9573 19.2173 24.3281 20.2858H20.596C20.376 20.2858 20.1651 20.1971 20.0095 20.0393C19.854 19.8815 19.7666 19.6674 19.7666 19.4442V15.6572Z" stroke="#D0B07C" stroke-width="2.7" stroke-linecap="round" stroke-linejoin="round"/>
</g>
<defs>
<clipPath id="clip0">
<rect width="68" height="56" fill="white"/>
</clipPath>
</defs>
</svg>
