<svg width="98" height="56" viewBox="0 0 98 56" fill="none" xmlns="http://www.w3.org/2000/svg">
<path fill-rule="evenodd" clip-rule="evenodd" d="M16.0911 50.3572H23.9944C24.4403 50.3572 24.8029 49.9646 24.8029 49.4818V42.8135C24.8029 42.3307 24.4403 41.938 23.9944 41.938H16.0911C15.6453 41.938 15.2827 42.3307 15.2827 42.8135V49.4818C15.2828 49.9646 15.6453 50.3572 16.0911 50.3572ZM22.8878 48.2835H17.1978V44.0118H22.8878V48.2835Z" fill="#D0B07C"/>
<path fill-rule="evenodd" clip-rule="evenodd" d="M34.4941 31.8571C34.0124 31.8571 33.6204 31.4326 33.6204 30.9111V30.7294C33.6204 30.2076 34.0124 29.7834 34.4941 29.7834H35.7463V15.8956C34.9127 15.1868 34.3765 14.086 34.3765 12.8511V7.6947C36.0811 5.45847 37.7945 3.23135 39.5039 1H58.496C60.2055 3.23135 61.9189 5.45847 63.6235 7.6947V12.8511C63.6235 14.086 63.0873 15.1868 62.2537 15.8956V29.7834H63.5059C63.9876 29.7834 64.3796 30.2076 64.3796 30.7294V30.9111C64.3796 31.4328 63.9876 31.8571 63.5059 31.8571H50.073V39.5714H53.0621C53.508 39.5714 53.8706 39.9641 53.8706 40.4469V42.8977H69.3667V39.0385C68.5332 38.3296 67.9969 37.2289 67.9969 35.994V30.8376C69.7016 28.6013 71.4149 26.3742 73.1244 24.1429H92.1165C93.8259 26.3742 95.5393 28.6013 97.244 30.8376V35.994C97.244 37.2289 96.7077 38.3296 95.8741 39.0385V52.9263H97.1263C97.6081 52.9263 98 53.3505 98 53.8723V54.054C98 54.5756 97.6081 55 97.1263 55H68.1145C67.6328 55 67.2409 54.5755 67.2409 54.054V53.8723C67.2409 53.3505 67.6328 52.9263 68.1145 52.9263H69.3667V44.9714H53.8706V47.1152C53.8706 47.598 53.508 47.9906 53.0621 47.9906H45.1588C44.713 47.9906 44.3505 47.598 44.3504 47.1152V44.9714H28.6333V52.9263H29.8855C30.3672 52.9263 30.7591 53.3505 30.7591 53.8723V54.054C30.7591 54.5756 30.3672 55 29.8855 55H0.873655C0.391913 55 0 54.5755 0 54.054V53.8723C0 53.3505 0.391913 52.9263 0.873655 52.9263H2.12586V39.0385C1.29231 38.3296 0.756037 37.2289 0.756037 35.994V30.8376C2.46069 28.6013 4.17405 26.3742 5.88351 24.1429H24.8756C26.5851 26.3742 28.2984 28.6013 30.0031 30.8376V35.994C30.0031 37.2289 29.4668 38.3296 28.6333 39.0385V42.8977H44.3504V40.4469C44.3504 39.9641 44.713 39.5714 45.1588 39.5714H48.1501V31.8571H34.4941ZM41.2358 8.73929H36.2917L36.2916 12.851C36.2916 13.8417 37.0371 14.6477 37.9531 14.6477H39.5742C40.4904 14.6477 41.2358 13.8417 41.2358 12.851V8.73929ZM48.0599 8.73929H43.1159L43.1157 12.851C43.1157 13.8417 43.8613 14.6477 44.7773 14.6477H46.3984C47.3147 14.6477 48.0599 13.8417 48.0599 12.851V8.73929ZM40.3982 3.07357H43.4142L41.669 6.66556H37.6479C37.9298 6.29738 38.2119 5.92942 38.4939 5.56143L38.4946 5.56057L38.4953 5.55971L38.4972 5.55713L38.4981 5.55596C39.1314 4.72972 39.7649 3.90327 40.3982 3.07357ZM45.2945 3.07357H48.0599L48.0601 6.66556H43.5493L45.2945 3.07357ZM45.0729 29.7832H41.4918V23.6935V20.8689H45.0729V29.7832ZM60.0469 16.7214C60.1451 16.7214 60.2423 16.7169 60.3386 16.7084V29.7832H46.988V19.6706C46.988 19.3681 46.8453 19.1006 46.6291 18.9435C46.4908 18.8441 46.3454 18.7974 46.1794 18.7952H40.3851C39.9391 18.7952 39.5765 19.1878 39.5765 19.6706V23.6933V29.7832H37.6614V16.7084C37.7577 16.7169 37.8549 16.7214 37.9531 16.7214H39.5742C40.5984 16.7214 41.5233 16.2538 42.1758 15.5052C42.8284 16.2538 43.7533 16.7214 44.7773 16.7214H46.3984C47.4226 16.7214 48.3475 16.254 49 15.5052C49.6525 16.254 50.5774 16.7214 51.6016 16.7214H53.2227C54.2467 16.7214 55.1715 16.2538 55.8242 15.5052C56.4767 16.2538 57.4016 16.7214 58.4258 16.7214H60.0469ZM52.7057 3.07357H49.9402L49.9401 6.66556H54.4509L52.7057 3.07357ZM57.602 3.07357H54.5859L56.3311 6.66556H60.3523C60.0701 6.29709 59.7878 5.92885 59.5055 5.56057L59.5049 5.55971L59.5029 5.55713L59.502 5.55596C58.8687 4.72972 58.2353 3.90327 57.602 3.07357ZM49.9402 8.73929H54.8843L54.8844 12.851C54.8844 13.8417 54.1389 14.6477 53.2229 14.6477H51.6017C50.6854 14.6477 49.9402 13.8417 49.9402 12.851V8.73929ZM56.7644 8.73929H61.7084L61.7086 12.851C61.7086 13.8417 60.963 14.6477 60.047 14.6477H58.4259C57.5097 14.6477 56.7644 13.8417 56.7644 12.851V8.73929ZM51.9555 45.9169H46.2655V41.6452H51.9555V45.9169ZM7.61535 31.8822H2.67129L2.67114 35.9938C2.67114 36.9846 3.41666 37.7906 4.33268 37.7906H5.95381C6.86998 37.7906 7.61535 36.9846 7.61535 35.9938V31.8822ZM14.4395 31.8822H9.49545L9.4953 35.9938C9.4953 36.9846 10.2408 37.7906 11.1568 37.7906H12.778C13.6943 37.7906 14.4395 36.9846 14.4395 35.9938V31.8822ZM6.77774 26.2164H9.79378L8.04857 29.8084H4.02744C4.31011 29.4393 4.59285 29.0704 4.87561 28.7015L4.87632 28.7006C5.51007 27.8738 6.14398 27.0467 6.77774 26.2164ZM11.674 26.2164H14.4395L14.4397 29.8084H9.92882L11.674 26.2164ZM11.4525 52.9261H7.87132V46.8363V44.0118H11.4525V52.9261ZM26.4264 39.8643C26.5247 39.8643 26.6219 39.8597 26.7182 39.8513V52.9261H13.3676V42.8135C13.3676 42.5109 13.2249 42.2435 13.0087 42.0864C12.8704 41.987 12.7249 41.9403 12.559 41.938H6.76468C6.31869 41.938 5.95606 42.3307 5.95606 42.8135V46.8362V52.9261H4.04096V39.8513C4.13725 39.8597 4.23444 39.8643 4.33268 39.8643H5.95381C6.97798 39.8643 7.90286 39.3967 8.5554 38.6481C9.20794 39.3967 10.1328 39.8643 11.1568 39.8643H12.778C13.8021 39.8643 14.727 39.3968 15.3796 38.6481C16.0321 39.3968 16.957 39.8643 17.9812 39.8643H19.6023C20.6263 39.8643 21.551 39.3967 22.2037 38.6481C22.8563 39.3967 23.7811 39.8643 24.8053 39.8643H26.4264ZM19.0852 26.2164H16.3198L16.3196 29.8084H20.8304L19.0852 26.2164ZM23.9815 26.2164H20.9655L22.7107 29.8084H26.7318C26.4494 29.4396 26.1668 29.071 25.8843 28.7023L25.8836 28.7015L25.8829 28.7006L25.8819 28.6993C25.2485 27.8729 24.6149 27.0463 23.9815 26.2164ZM16.3198 31.8822H21.2638L21.264 35.9938C21.264 36.9846 20.5184 37.7906 19.6024 37.7906H17.9813C17.065 37.7906 16.3198 36.9846 16.3198 35.9938V31.8822ZM23.1439 31.8822H28.088L28.0881 35.9938C28.0881 36.9846 27.3426 37.7906 26.4266 37.7906H24.8055C23.8893 37.7906 23.1439 36.9846 23.1439 35.9938V31.8822ZM74.8562 31.8822H69.9122L69.912 35.9938C69.912 36.9846 70.6575 37.7906 71.5736 37.7906H73.1947C74.1109 37.7906 74.8562 36.9846 74.8562 35.9938V31.8822ZM81.6804 31.8822H76.7363L76.7362 35.9938C76.7362 36.9846 77.4817 37.7906 78.3977 37.7906H80.0188C80.9352 37.7906 81.6804 36.9846 81.6804 35.9938V31.8822ZM74.0186 26.2164H77.0347L75.2894 29.8084H71.2683C71.5504 29.4401 71.8326 29.072 72.1147 28.7039L72.1154 28.703L72.116 28.7022L72.1167 28.7013L72.1173 28.7005C72.751 27.8737 73.3849 27.0467 74.0186 26.2164ZM78.9149 26.2164H81.6804L81.6805 29.8084H77.1697L78.9149 26.2164ZM78.6933 52.9261H75.1122V46.8363V44.0118H78.6933V52.9261ZM93.6673 39.8643C93.7656 39.8643 93.8627 39.8597 93.959 39.8513V52.9261H80.6084V42.8135C80.6084 42.5109 80.4657 42.2435 80.2496 42.0864C80.1112 41.987 79.9658 41.9403 79.7998 41.938H74.0056C73.5596 41.938 73.1969 42.3307 73.1969 42.8135V46.8362V52.9261H71.2818V39.8513C71.3781 39.8597 71.4753 39.8643 71.5736 39.8643H73.1947C74.2189 39.8643 75.1437 39.3967 75.7963 38.6481C76.4488 39.3967 77.3737 39.8643 78.3977 39.8643H80.0188C81.043 39.8643 81.9679 39.3968 82.6204 38.6481C83.273 39.3968 84.1979 39.8643 85.222 39.8643H86.8432C87.8672 39.8643 88.7919 39.3967 89.4446 38.6481C90.0971 39.3967 91.022 39.8643 92.0462 39.8643H93.6673ZM86.3261 26.2164H83.5606L83.5605 29.8084H88.0713L86.3261 26.2164ZM91.2224 26.2164H88.2064L89.9516 29.8084H93.9727C93.6894 29.4385 93.4061 29.0689 93.1227 28.6992C92.4893 27.8728 91.8558 27.0462 91.2224 26.2164ZM83.5606 31.8822H88.5047L88.5048 35.9938C88.5048 36.9846 87.7593 37.7906 86.8433 37.7906H85.2222C84.3059 37.7906 83.5606 36.9846 83.5606 35.9938V31.8822ZM90.3848 31.8822H95.3289L95.329 35.9938C95.329 36.9846 94.5835 37.7906 93.6675 37.7906H92.0463C91.1302 37.7906 90.3848 36.9846 90.3848 35.9938V31.8822Z" fill="#D0B07C"/>
<path fill-rule="evenodd" clip-rule="evenodd" d="M83.332 50.3572H91.2353C91.6812 50.3572 92.0438 49.9646 92.0438 49.4818V42.8135C92.0438 42.3307 91.6812 41.938 91.2353 41.938H83.332C82.8862 41.938 82.5236 42.3307 82.5236 42.8135V49.4818C82.5237 49.9646 82.8862 50.3572 83.332 50.3572ZM90.1287 48.2835H84.4387V44.0118H90.1287V48.2835Z" fill="#D0B07C"/>
<path fill-rule="evenodd" clip-rule="evenodd" d="M49.7116 27.2144H57.6149C58.0607 27.2144 58.4234 26.8217 58.4234 26.3389V19.6706C58.4234 19.1878 58.0607 18.7952 57.6149 18.7952H49.7116C49.2657 18.7952 48.9031 19.1878 48.9031 19.6706V26.3389C48.9033 26.8217 49.2657 27.2144 49.7116 27.2144ZM56.5082 25.1406H50.8182V20.8689H56.5082V25.1406Z" fill="#D0B07C"/>
</svg>
