<svg width="56" height="56" viewBox="0 0 56 56" fill="none" xmlns="http://www.w3.org/2000/svg">
<path d="M8.39508 35.4807C7.6787 35.6873 7.26548 36.4356 7.47212 37.1519C7.67876 37.8683 8.42701 38.2815 9.14339 38.0749L8.39508 35.4807ZM52.0385 3.04785L53.3668 2.80688C53.2982 2.4286 53.0715 2.09751 52.7437 1.89668C52.4158 1.69585 52.0179 1.64432 51.6497 1.75503L52.0385 3.04785ZM51.6717 8.58924C51.8048 9.32285 52.5074 9.80967 53.241 9.67659C53.9746 9.54351 54.4614 8.84091 54.3283 8.1073L51.6717 8.58924ZM46.842 3.2006C46.128 3.41528 45.7233 4.16814 45.9379 4.88214C46.1526 5.59615 46.9055 6.00093 47.6195 5.78624L46.842 3.2006ZM3.96154 47.7649H11.6538V45.0649H3.96154V47.7649ZM11.2654 47.3786V52.1972H13.9654V47.3786H11.2654ZM11.6538 51.8109H3.96154V54.5109H11.6538V51.8109ZM4.35 52.1972V47.3786H1.65V52.1972H4.35ZM3.96154 51.8109C4.17895 51.8109 4.35 51.9867 4.35 52.1972H1.65C1.65 53.4721 2.68204 54.5109 3.96154 54.5109V51.8109ZM11.2654 52.1972C11.2654 51.9867 11.4364 51.8109 11.6538 51.8109V54.5109C12.9333 54.5109 13.9654 53.4721 13.9654 52.1972H11.2654ZM11.6538 47.7649C11.4364 47.7649 11.2654 47.5891 11.2654 47.3786H13.9654C13.9654 46.1037 12.9333 45.0649 11.6538 45.0649V47.7649ZM3.96154 45.0649C2.68204 45.0649 1.65 46.1037 1.65 47.3786H4.35C4.35 47.5891 4.17895 47.7649 3.96154 47.7649V45.0649ZM17.4231 42.9463H25.1154V40.2463H17.4231V42.9463ZM24.7269 42.56V52.1972H27.4269V42.56H24.7269ZM25.1154 51.8109H17.4231V54.5109H25.1154V51.8109ZM17.8115 52.1972V42.56H15.1115V52.1972H17.8115ZM17.4231 51.8109C17.6405 51.8109 17.8115 51.9867 17.8115 52.1972H15.1115C15.1115 53.4721 16.1436 54.5109 17.4231 54.5109V51.8109ZM24.7269 52.1972C24.7269 51.9867 24.898 51.8109 25.1154 51.8109V54.5109C26.3949 54.5109 27.4269 53.4721 27.4269 52.1972H24.7269ZM25.1154 42.9463C24.898 42.9463 24.7269 42.7705 24.7269 42.56H27.4269C27.4269 41.2851 26.3949 40.2463 25.1154 40.2463V42.9463ZM17.4231 40.2463C16.1436 40.2463 15.1115 41.2851 15.1115 42.56H17.8115C17.8115 42.7705 17.6405 42.9463 17.4231 42.9463V40.2463ZM30.8846 35.2366H38.5769V32.5366H30.8846V35.2366ZM38.1885 34.8504V52.1972H40.8885V34.8504H38.1885ZM38.5769 51.8109H30.8846V54.5109H38.5769V51.8109ZM31.2731 52.1972V34.8504H28.5731V52.1972H31.2731ZM30.8846 51.8109C31.102 51.8109 31.2731 51.9867 31.2731 52.1972H28.5731C28.5731 53.4721 29.6051 54.5109 30.8846 54.5109V51.8109ZM38.1885 52.1972C38.1885 51.9867 38.3595 51.8109 38.5769 51.8109V54.5109C39.8564 54.5109 40.8885 53.4721 40.8885 52.1972H38.1885ZM38.5769 35.2366C38.3595 35.2366 38.1885 35.0608 38.1885 34.8504H40.8885C40.8885 33.5754 39.8564 32.5366 38.5769 32.5366V35.2366ZM30.8846 32.5366C29.6051 32.5366 28.5731 33.5754 28.5731 34.8504H31.2731C31.2731 35.0608 31.102 35.2366 30.8846 35.2366V32.5366ZM44.3462 28.4907H52.0385V25.7907H44.3462V28.4907ZM51.65 28.1044V52.1972H54.35V28.1044H51.65ZM52.0385 51.8109H44.3462V54.5109H52.0385V51.8109ZM44.7346 52.1972V28.1044H42.0346V52.1972H44.7346ZM44.3462 51.8109C44.5636 51.8109 44.7346 51.9867 44.7346 52.1972H42.0346C42.0346 53.4721 43.0667 54.5109 44.3462 54.5109V51.8109ZM51.65 52.1972C51.65 51.9867 51.821 51.8109 52.0385 51.8109V54.5109C53.318 54.5109 54.35 53.4721 54.35 52.1972H51.65ZM52.0385 28.4907C51.821 28.4907 51.65 28.3148 51.65 28.1044H54.35C54.35 26.8294 53.318 25.7907 52.0385 25.7907V28.4907ZM44.3462 25.7907C43.0667 25.7907 42.0346 26.8294 42.0346 28.1044H44.7346C44.7346 28.3148 44.5636 28.4907 44.3462 28.4907V25.7907ZM9.14339 38.0749C20.7285 34.7331 28.9759 31.2013 35.7317 25.9246C42.4927 20.6438 47.657 13.696 53.2181 3.70439L50.8589 2.39131C45.3786 12.2378 40.4248 18.833 34.0697 23.7967C27.7095 28.7645 19.843 32.1785 8.39508 35.4807L9.14339 38.0749ZM50.7101 3.28882L51.6717 8.58924L54.3283 8.1073L53.3668 2.80688L50.7101 3.28882ZM51.6497 1.75503L46.842 3.2006L47.6195 5.78624L52.4272 4.34068L51.6497 1.75503Z" fill="#D0B07C"/>
</svg>
