<svg width="78" height="56" viewBox="0 0 78 56" fill="none" xmlns="http://www.w3.org/2000/svg">
<path d="M2.20144 30.7147L3.55139 30.7027L3.55139 30.7026L2.20144 30.7147ZM2.03205 11.8789L0.682102 11.8911L0.682102 11.8911L2.03205 11.8789ZM5.4386 6.07005L5.30857 7.41378L5.32263 7.41513L5.33671 7.4162L5.4386 6.07005ZM13.0265 7.29867L12.6828 8.60417L12.6828 8.60417L13.0265 7.29867ZM16.7178 15.1315L18.0428 15.39L18.0428 15.3899L16.7178 15.1315ZM12.6823 30.1364L11.4002 29.7138L11.4002 29.7138L12.6823 30.1364ZM13.4323 29.6564C12.8843 29.1509 12.0302 29.1853 11.5247 29.7334C11.0192 30.2814 11.0536 31.1355 11.6017 31.641L13.4323 29.6564ZM38.5407 49.984L38.4309 51.3295L38.5407 49.984ZM34.7472 39.3889C34.2123 38.8695 33.3576 38.882 32.8382 39.4169C32.3188 39.9518 32.3313 40.8065 32.8662 41.3259L34.7472 39.3889ZM43.477 48.9607L43.7024 47.6297L43.6891 47.6274L43.6758 47.6255L43.477 48.9607ZM41.1987 36.408C40.6638 35.8886 39.8091 35.9011 39.2897 36.436C38.7703 36.9709 38.7828 37.8256 39.3177 38.345L41.1987 36.408ZM49.9285 45.9798L50.1539 44.6488L50.1406 44.6465L50.1273 44.6446L49.9285 45.9798ZM45.9882 31.9063C45.4813 31.3595 44.6272 31.3271 44.0804 31.834C43.5336 32.3408 43.5012 33.195 44.008 33.7418L45.9882 31.9063ZM56.2423 42.6392L56.4676 41.3082L56.4234 41.3007L56.3788 41.2962L56.2423 42.6392ZM59.4879 37.4241L58.3473 38.1462L58.3475 38.1464L59.4879 37.4241ZM57.0923 34.5573L58.1025 33.6617L58.1023 33.6615L57.0923 34.5573ZM40.5238 19.994L41.3645 18.9377L40.6998 18.4088L39.9353 18.7791L40.5238 19.994ZM35.537 21.4718L35.5666 20.1221L34.9478 20.1086L34.5337 20.5685L35.537 21.4718ZM25.915 21.2327L24.5653 21.2604V21.2605L25.915 21.2327ZM37.4064 9.64674L37.6705 10.9707L37.6705 10.9707L37.4064 9.64674ZM56.3575 15.0421L56.1331 16.3733L56.3575 15.0421ZM75.7846 32.9268L74.438 33.0227V33.0227L75.7846 32.9268ZM74.4458 14.1362L75.7924 14.0403V14.0403L74.4458 14.1362ZM70.5851 8.60961L70.7911 9.94379L70.8051 9.94164L70.819 9.93919L70.5851 8.60961ZM63.1193 10.4229L62.6751 9.14808L62.6751 9.14809L63.1193 10.4229ZM60.0665 18.5179L61.3667 18.1545L61.3666 18.1544L60.0665 18.5179ZM65.2901 33.1632L66.5345 32.6397L66.5345 32.6397L65.2901 33.1632ZM70.7076 36.839L70.6033 35.493L70.6029 35.4931L70.7076 36.839ZM72.4325 36.7047L72.3277 35.3588L72.3275 35.3588L72.4325 36.7047ZM17.3855 13.4473H32.4322V10.7473H17.3855V13.4473ZM3.55139 30.7026C3.52315 27.5634 3.49492 24.424 3.46669 21.2847C3.43846 18.1453 3.41023 15.006 3.38199 11.8668L0.682102 11.8911C0.710334 15.0303 0.738566 18.1696 0.766798 21.309C0.79503 24.4483 0.823262 27.5877 0.851494 30.7269L3.55139 30.7026ZM3.38199 11.8668C3.36991 10.5208 3.33785 9.54882 3.35466 8.75733C3.37198 7.94164 3.44432 7.5894 3.51224 7.43664C3.51421 7.43218 3.46105 7.43616 3.59782 7.4031C3.86062 7.33959 4.35608 7.32161 5.30857 7.41378L5.56862 4.72633C4.60219 4.63281 3.70654 4.59909 2.96353 4.77867C2.09449 4.9887 1.42082 5.4946 1.04507 6.33978C0.735255 7.03665 0.672642 7.88176 0.655268 8.70002C0.637379 9.54248 0.670883 10.6411 0.682102 11.8911L3.38199 11.8668ZM5.33671 7.4162C7.97455 7.61586 10.4252 8.00972 12.6828 8.60417L13.3703 5.99317C10.9326 5.3513 8.31774 4.93411 5.54049 4.7239L5.33671 7.4162ZM12.6828 8.60417C14.1949 9.0023 15.1245 9.28777 15.7095 9.56685C16.2565 9.82784 16.2625 9.96956 16.2644 9.97541C16.309 10.1168 16.3277 10.4448 16.1486 11.3516C16.0651 11.7751 15.9544 12.2582 15.8213 12.8518C15.69 13.4371 15.5419 14.1087 15.3928 14.873L18.0428 15.3899C18.1846 14.6633 18.3261 14.021 18.4558 13.4426C18.5837 12.8725 18.7053 12.3419 18.7975 11.8745C18.9702 10.9997 19.1151 10.0376 18.8393 9.16319C18.5207 8.15323 17.7597 7.55343 16.872 7.12996C16.0223 6.72458 14.8495 6.38264 13.3703 5.99316L12.6828 8.60417ZM15.3928 14.873C14.4013 19.9554 12.9985 24.8651 11.4002 29.7138L13.9645 30.5591C15.5846 25.6444 17.0227 20.6194 18.0428 15.39L15.3928 14.873ZM11.4002 29.7138C11.0383 30.8118 10.7674 31.8025 10.6174 32.2783C10.4202 32.9039 10.3479 32.9186 10.4059 32.867C10.5181 32.7674 10.5772 32.8442 10.0454 32.8711C9.50999 32.8982 8.80696 32.8711 7.57607 32.8711V35.5711C8.65578 35.5711 9.55984 35.5992 10.182 35.5676C10.8077 35.536 11.5749 35.4403 12.1995 34.8853C12.7699 34.3783 13.0145 33.6547 13.1925 33.0901C13.4177 32.3757 13.5804 31.7242 13.9645 30.559L11.4002 29.7138ZM7.57607 32.8711C7.57494 32.8711 7.57381 32.8711 7.57269 32.8711C7.57156 32.8711 7.57043 32.8711 7.56931 32.8711C7.56818 32.8711 7.56705 32.8711 7.56593 32.8711C7.5648 32.8711 7.56367 32.8711 7.56255 32.8711C7.56142 32.8711 7.56029 32.8711 7.55917 32.8711C7.55804 32.8711 7.55691 32.8711 7.55579 32.8711C7.55466 32.8711 7.55353 32.8711 7.5524 32.8711C7.55128 32.8711 7.55015 32.8711 7.54902 32.8711C7.5479 32.8711 7.54677 32.8711 7.54564 32.8711C7.54452 32.8711 7.54339 32.8711 7.54226 32.8711C7.54114 32.8711 7.54001 32.8711 7.53888 32.8711C7.53776 32.8711 7.53663 32.8711 7.5355 32.8711C7.53438 32.8711 7.53325 32.8711 7.53212 32.8711C7.531 32.8711 7.52987 32.8711 7.52874 32.8711C7.52762 32.8711 7.52649 32.8711 7.52536 32.8711C7.52424 32.8711 7.52311 32.8711 7.52198 32.8711C7.52086 32.8711 7.51973 32.8711 7.5186 32.8711C7.51748 32.8711 7.51635 32.8711 7.51522 32.8711C7.5141 32.8711 7.51297 32.8711 7.51184 32.8711C7.51072 32.8711 7.50959 32.8711 7.50846 32.8711C7.50734 32.8711 7.50621 32.8711 7.50508 32.8711C7.50396 32.8711 7.50283 32.8711 7.5017 32.8711C7.50058 32.8711 7.49945 32.8711 7.49832 32.8711C7.4972 32.8711 7.49607 32.8711 7.49494 32.8711C7.49382 32.8711 7.49269 32.8711 7.49156 32.8711C7.49044 32.8711 7.48931 32.8711 7.48818 32.8711C7.48706 32.8711 7.48593 32.8711 7.4848 32.8711C7.48368 32.8711 7.48255 32.8711 7.48142 32.8711C7.4803 32.8711 7.47917 32.8711 7.47804 32.8711C7.47692 32.8711 7.47579 32.8711 7.47466 32.8711C7.47354 32.8711 7.47241 32.8711 7.47128 32.8711C7.47016 32.8711 7.46903 32.8711 7.4679 32.8711C7.46678 32.8711 7.46565 32.8711 7.46452 32.8711C7.4634 32.8711 7.46227 32.8711 7.46114 32.8711C7.46002 32.8711 7.45889 32.8711 7.45776 32.8711C7.45664 32.8711 7.45551 32.8711 7.45438 32.8711C7.45326 32.8711 7.45213 32.8711 7.451 32.8711C7.44988 32.8711 7.44875 32.8711 7.44762 32.8711C7.4465 32.8711 7.44537 32.8711 7.44424 32.8711C7.44312 32.8711 7.44199 32.8711 7.44086 32.8711C7.43974 32.8711 7.43861 32.8711 7.43748 32.8711C7.43636 32.8711 7.43523 32.8711 7.4341 32.8711C7.43298 32.8711 7.43185 32.8711 7.43073 32.8711C7.4296 32.8711 7.42847 32.8711 7.42735 32.8711C7.42622 32.8711 7.42509 32.8711 7.42397 32.8711C7.42284 32.8711 7.42171 32.8711 7.42059 32.8711C7.41946 32.8711 7.41833 32.8711 7.41721 32.8711C7.41608 32.8711 7.41495 32.8711 7.41383 32.8711C7.4127 32.8711 7.41157 32.8711 7.41045 32.8711C7.40932 32.8711 7.40819 32.8711 7.40707 32.8711C7.40594 32.8711 7.40481 32.8711 7.40369 32.8711C7.40256 32.8711 7.40143 32.8711 7.40031 32.8711C7.39918 32.8711 7.39805 32.8711 7.39693 32.8711C7.3958 32.8711 7.39467 32.8711 7.39355 32.8711C7.39242 32.8711 7.39129 32.8711 7.39017 32.8711C7.38904 32.8711 7.38791 32.8711 7.38679 32.8711C7.38566 32.8711 7.38453 32.8711 7.38341 32.8711C7.38228 32.8711 7.38115 32.8711 7.38003 32.8711C7.3789 32.8711 7.37777 32.8711 7.37665 32.8711C7.37552 32.8711 7.37439 32.8711 7.37327 32.8711C7.37214 32.8711 7.37102 32.8711 7.36989 32.8711C7.36876 32.8711 7.36764 32.8711 7.36651 32.8711C7.36538 32.8711 7.36426 32.8711 7.36313 32.8711C7.362 32.8711 7.36088 32.8711 7.35975 32.8711C7.35862 32.8711 7.3575 32.8711 7.35637 32.8711C7.35524 32.8711 7.35412 32.8711 7.35299 32.8711C7.35186 32.8711 7.35074 32.8711 7.34961 32.8711C7.34848 32.8711 7.34736 32.8711 7.34623 32.8711C7.3451 32.8711 7.34398 32.8711 7.34285 32.8711C7.34172 32.8711 7.3406 32.8711 7.33947 32.8711C7.33834 32.8711 7.33722 32.8711 7.33609 32.8711C7.33496 32.8711 7.33384 32.8711 7.33271 32.8711C7.33159 32.8711 7.33046 32.8711 7.32933 32.8711C7.32821 32.8711 7.32708 32.8711 7.32595 32.8711C7.32483 32.8711 7.3237 32.8711 7.32257 32.8711C7.32145 32.8711 7.32032 32.8711 7.31919 32.8711C7.31807 32.8711 7.31694 32.8711 7.31581 32.8711C7.31469 32.8711 7.31356 32.8711 7.31243 32.8711C7.31131 32.8711 7.31018 32.8711 7.30905 32.8711C7.30793 32.8711 7.3068 32.8711 7.30567 32.8711C7.30455 32.8711 7.30342 32.8711 7.3023 32.8711C7.30117 32.8711 7.30004 32.8711 7.29892 32.8711C7.29779 32.8711 7.29666 32.8711 7.29554 32.8711C7.29441 32.8711 7.29328 32.8711 7.29216 32.8711C7.29103 32.8711 7.2899 32.8711 7.28878 32.8711C7.28765 32.8711 7.28652 32.8711 7.2854 32.8711C7.28427 32.8711 7.28314 32.8711 7.28202 32.8711C7.28089 32.8711 7.27976 32.8711 7.27864 32.8711C7.27751 32.8711 7.27638 32.8711 7.27526 32.8711C7.27413 32.8711 7.27301 32.8711 7.27188 32.8711C7.27075 32.8711 7.26963 32.8711 7.2685 32.8711C7.26737 32.8711 7.26625 32.8711 7.26512 32.8711C7.26399 32.8711 7.26287 32.8711 7.26174 32.8711C7.26061 32.8711 7.25949 32.8711 7.25836 32.8711C7.25723 32.8711 7.25611 32.8711 7.25498 32.8711C7.25385 32.8711 7.25273 32.8711 7.2516 32.8711C7.25047 32.8711 7.24935 32.8711 7.24822 32.8711C7.2471 32.8711 7.24597 32.8711 7.24484 32.8711C7.24372 32.8711 7.24259 32.8711 7.24146 32.8711C7.24034 32.8711 7.23921 32.8711 7.23808 32.8711C7.23696 32.8711 7.23583 32.8711 7.2347 32.8711C7.23358 32.8711 7.23245 32.8711 7.23132 32.8711C7.2302 32.8711 7.22907 32.8711 7.22795 32.8711C7.22682 32.8711 7.22569 32.8711 7.22457 32.8711C7.22344 32.8711 7.22231 32.8711 7.22119 32.8711C7.22006 32.8711 7.21893 32.8711 7.21781 32.8711C7.21668 32.8711 7.21555 32.8711 7.21443 32.8711C7.2133 32.8711 7.21217 32.8711 7.21105 32.8711C7.20992 32.8711 7.2088 32.8711 7.20767 32.8711C7.20654 32.8711 7.20542 32.8711 7.20429 32.8711C7.20316 32.8711 7.20204 32.8711 7.20091 32.8711C7.19978 32.8711 7.19866 32.8711 7.19753 32.8711C7.1964 32.8711 7.19528 32.8711 7.19415 32.8711C7.19302 32.8711 7.1919 32.8711 7.19077 32.8711C7.18964 32.8711 7.18852 32.8711 7.18739 32.8711C7.18627 32.8711 7.18514 32.8711 7.18401 32.8711C7.18289 32.8711 7.18176 32.8711 7.18063 32.8711C7.17951 32.8711 7.17838 32.8711 7.17725 32.8711C7.17613 32.8711 7.175 32.8711 7.17387 32.8711C7.17275 32.8711 7.17162 32.8711 7.1705 32.8711C7.16937 32.8711 7.16824 32.8711 7.16712 32.8711C7.16599 32.8711 7.16486 32.8711 7.16374 32.8711C7.16261 32.8711 7.16148 32.8711 7.16036 32.8711C7.15923 32.8711 7.1581 32.8711 7.15698 32.8711C7.15585 32.8711 7.15473 32.8711 7.1536 32.8711C7.15247 32.8711 7.15135 32.8711 7.15022 32.8711C7.14909 32.8711 7.14797 32.8711 7.14684 32.8711C7.14571 32.8711 7.14459 32.8711 7.14346 32.8711C7.14233 32.8711 7.14121 32.8711 7.14008 32.8711C7.13895 32.8711 7.13783 32.8711 7.1367 32.8711C7.13558 32.8711 7.13445 32.8711 7.13332 32.8711C7.1322 32.8711 7.13107 32.8711 7.12994 32.8711C7.12882 32.8711 7.12769 32.8711 7.12656 32.8711C7.12544 32.8711 7.12431 32.8711 7.12318 32.8711C7.12206 32.8711 7.12093 32.8711 7.11981 32.8711C7.11868 32.8711 7.11755 32.8711 7.11643 32.8711C7.1153 32.8711 7.11417 32.8711 7.11305 32.8711C7.11192 32.8711 7.11079 32.8711 7.10967 32.8711C7.10854 32.8711 7.10741 32.8711 7.10629 32.8711C7.10516 32.8711 7.10404 32.8711 7.10291 32.8711C7.10178 32.8711 7.10066 32.8711 7.09953 32.8711C7.0984 32.8711 7.09728 32.8711 7.09615 32.8711C7.09502 32.8711 7.0939 32.8711 7.09277 32.8711C7.09164 32.8711 7.09052 32.8711 7.08939 32.8711C7.08827 32.8711 7.08714 32.8711 7.08601 32.8711C7.08489 32.8711 7.08376 32.8711 7.08263 32.8711C7.08151 32.8711 7.08038 32.8711 7.07925 32.8711C7.07813 32.8711 7.077 32.8711 7.07588 32.8711C7.07475 32.8711 7.07362 32.8711 7.0725 32.8711C7.07137 32.8711 7.07024 32.8711 7.06912 32.8711C7.06799 32.8711 7.06686 32.8711 7.06574 32.8711C7.06461 32.8711 7.06349 32.8711 7.06236 32.8711C7.06123 32.8711 7.06011 32.8711 7.05898 32.8711C7.05785 32.8711 7.05673 32.8711 7.0556 32.8711C7.05447 32.8711 7.05335 32.8711 7.05222 32.8711C7.05109 32.8711 7.04997 32.8711 7.04884 32.8711C7.04772 32.8711 7.04659 32.8711 7.04546 32.8711C7.04434 32.8711 7.04321 32.8711 7.04208 32.8711C7.04096 32.8711 7.03983 32.8711 7.0387 32.8711C7.03758 32.8711 7.03645 32.8711 7.03533 32.8711C7.0342 32.8711 7.03307 32.8711 7.03195 32.8711C7.03082 32.8711 7.02969 32.8711 7.02857 32.8711C7.02744 32.8711 7.02631 32.8711 7.02519 32.8711C7.02406 32.8711 7.02293 32.8711 7.02181 32.8711C7.02068 32.8711 7.01956 32.8711 7.01843 32.8711C7.0173 32.8711 7.01618 32.8711 7.01505 32.8711C7.01392 32.8711 7.0128 32.8711 7.01167 32.8711C7.01055 32.8711 7.00942 32.8711 7.00829 32.8711C7.00717 32.8711 7.00604 32.8711 7.00491 32.8711C7.00379 32.8711 7.00266 32.8711 7.00153 32.8711C7.00041 32.8711 6.99928 32.8711 6.99816 32.8711C6.99703 32.8711 6.9959 32.8711 6.99478 32.8711C6.99365 32.8711 6.99252 32.8711 6.9914 32.8711C6.99027 32.8711 6.98914 32.8711 6.98802 32.8711C6.98689 32.8711 6.98576 32.8711 6.98464 32.8711C6.98351 32.8711 6.98239 32.8711 6.98126 32.8711C6.98013 32.8711 6.97901 32.8711 6.97788 32.8711C6.97675 32.8711 6.97563 32.8711 6.9745 32.8711C6.97338 32.8711 6.97225 32.8711 6.97112 32.8711C6.97 32.8711 6.96887 32.8711 6.96774 32.8711C6.96662 32.8711 6.96549 32.8711 6.96436 32.8711C6.96324 32.8711 6.96211 32.8711 6.96099 32.8711C6.95986 32.8711 6.95873 32.8711 6.95761 32.8711C6.95648 32.8711 6.95535 32.8711 6.95423 32.8711C6.9531 32.8711 6.95197 32.8711 6.95085 32.8711C6.94972 32.8711 6.9486 32.8711 6.94747 32.8711C6.94634 32.8711 6.94522 32.8711 6.94409 32.8711C6.94296 32.8711 6.94184 32.8711 6.94071 32.8711C6.93959 32.8711 6.93846 32.8711 6.93733 32.8711C6.93621 32.8711 6.93508 32.8711 6.93395 32.8711C6.93283 32.8711 6.9317 32.8711 6.93057 32.8711C6.92945 32.8711 6.92832 32.8711 6.9272 32.8711C6.92607 32.8711 6.92494 32.8711 6.92382 32.8711C6.92269 32.8711 6.92156 32.8711 6.92044 32.8711C6.91931 32.8711 6.91819 32.8711 6.91706 32.8711C6.91593 32.8711 6.91481 32.8711 6.91368 32.8711C6.91255 32.8711 6.91143 32.8711 6.9103 32.8711C6.90917 32.8711 6.90805 32.8711 6.90692 32.8711C6.9058 32.8711 6.90467 32.8711 6.90354 32.8711C6.90242 32.8711 6.90129 32.8711 6.90016 32.8711C6.89904 32.8711 6.89791 32.8711 6.89679 32.8711C6.89566 32.8711 6.89453 32.8711 6.89341 32.8711C6.89228 32.8711 6.89115 32.8711 6.89003 32.8711C6.8889 32.8711 6.88777 32.8711 6.88665 32.8711C6.88552 32.8711 6.8844 32.8711 6.88327 32.8711C6.88214 32.8711 6.88102 32.8711 6.87989 32.8711C6.87876 32.8711 6.87764 32.8711 6.87651 32.8711C6.87539 32.8711 6.87426 32.8711 6.87313 32.8711C6.87201 32.8711 6.87088 32.8711 6.86975 32.8711C6.86863 32.8711 6.8675 32.8711 6.86637 32.8711C6.86525 32.8711 6.86412 32.8711 6.863 32.8711C6.86187 32.8711 6.86074 32.8711 6.85962 32.8711C6.85849 32.8711 6.85736 32.8711 6.85624 32.8711C6.85511 32.8711 6.85399 32.8711 6.85286 32.8711C6.85173 32.8711 6.85061 32.8711 6.84948 32.8711C6.84835 32.8711 6.84723 32.8711 6.8461 32.8711C6.84498 32.8711 6.84385 32.8711 6.84272 32.8711C6.8416 32.8711 6.84047 32.8711 6.83934 32.8711C6.83822 32.8711 6.83709 32.8711 6.83597 32.8711C6.83484 32.8711 6.83371 32.8711 6.83259 32.8711C6.83146 32.8711 6.83033 32.8711 6.82921 32.8711C6.82808 32.8711 6.82695 32.8711 6.82583 32.8711C6.8247 32.8711 6.82358 32.8711 6.82245 32.8711C6.82132 32.8711 6.8202 32.8711 6.81907 32.8711C6.81794 32.8711 6.81682 32.8711 6.81569 32.8711C6.81457 32.8711 6.81344 32.8711 6.81231 32.8711C6.81119 32.8711 6.81006 32.8711 6.80893 32.8711C6.80781 32.8711 6.80668 32.8711 6.80556 32.8711C6.80443 32.8711 6.8033 32.8711 6.80218 32.8711C6.80105 32.8711 6.79992 32.8711 6.7988 32.8711C6.79767 32.8711 6.79655 32.8711 6.79542 32.8711C6.79429 32.8711 6.79317 32.8711 6.79204 32.8711C6.79091 32.8711 6.78979 32.8711 6.78866 32.8711C6.78754 32.8711 6.78641 32.8711 6.78528 32.8711C6.78416 32.8711 6.78303 32.8711 6.7819 32.8711C6.78078 32.8711 6.77965 32.8711 6.77853 32.8711C6.7774 32.8711 6.77627 32.8711 6.77515 32.8711C6.77402 32.8711 6.77289 32.8711 6.77177 32.8711C6.77064 32.8711 6.76952 32.8711 6.76839 32.8711C6.76726 32.8711 6.76614 32.8711 6.76501 32.8711C6.76388 32.8711 6.76276 32.8711 6.76163 32.8711C6.76051 32.8711 6.75938 32.8711 6.75825 32.8711C6.75713 32.8711 6.756 32.8711 6.75487 32.8711C6.75375 32.8711 6.75262 32.8711 6.7515 32.8711C6.75037 32.8711 6.74924 32.8711 6.74812 32.8711C6.74699 32.8711 6.74586 32.8711 6.74474 32.8711C6.74361 32.8711 6.74249 32.8711 6.74136 32.8711C6.74023 32.8711 6.73911 32.8711 6.73798 32.8711C6.73685 32.8711 6.73573 32.8711 6.7346 32.8711C6.73348 32.8711 6.73235 32.8711 6.73122 32.8711C6.7301 32.8711 6.72897 32.8711 6.72784 32.8711C6.72672 32.8711 6.72559 32.8711 6.72447 32.8711C6.72334 32.8711 6.72221 32.8711 6.72109 32.8711C6.71996 32.8711 6.71883 32.8711 6.71771 32.8711C6.71658 32.8711 6.71546 32.8711 6.71433 32.8711C6.7132 32.8711 6.71208 32.8711 6.71095 32.8711C6.70982 32.8711 6.7087 32.8711 6.70757 32.8711C6.70645 32.8711 6.70532 32.8711 6.70419 32.8711C6.70307 32.8711 6.70194 32.8711 6.70081 32.8711C6.69969 32.8711 6.69856 32.8711 6.69744 32.8711C6.69631 32.8711 6.69518 32.8711 6.69406 32.8711C6.69293 32.8711 6.6918 32.8711 6.69068 32.8711C6.68955 32.8711 6.68843 32.8711 6.6873 32.8711C6.68617 32.8711 6.68505 32.8711 6.68392 32.8711C6.6828 32.8711 6.68167 32.8711 6.68054 32.8711C6.67942 32.8711 6.67829 32.8711 6.67716 32.8711C6.67604 32.8711 6.67491 32.8711 6.67379 32.8711C6.67266 32.8711 6.67153 32.8711 6.67041 32.8711C6.66928 32.8711 6.66815 32.8711 6.66703 32.8711C6.6659 32.8711 6.66478 32.8711 6.66365 32.8711C6.66252 32.8711 6.6614 32.8711 6.66027 32.8711C6.65914 32.8711 6.65802 32.8711 6.65689 32.8711C6.65577 32.8711 6.65464 32.8711 6.65351 32.8711C6.65239 32.8711 6.65126 32.8711 6.65013 32.8711C6.64901 32.8711 6.64788 32.8711 6.64676 32.8711C6.64563 32.8711 6.6445 32.8711 6.64338 32.8711C6.64225 32.8711 6.64113 32.8711 6.64 32.8711C6.63887 32.8711 6.63775 32.8711 6.63662 32.8711C6.63549 32.8711 6.63437 32.8711 6.63324 32.8711C6.63212 32.8711 6.63099 32.8711 6.62986 32.8711C6.62874 32.8711 6.62761 32.8711 6.62648 32.8711C6.62536 32.8711 6.62423 32.8711 6.62311 32.8711C6.62198 32.8711 6.62085 32.8711 6.61973 32.8711C6.6186 32.8711 6.61748 32.8711 6.61635 32.8711C6.61522 32.8711 6.6141 32.8711 6.61297 32.8711C6.61184 32.8711 6.61072 32.8711 6.60959 32.8711C6.60847 32.8711 6.60734 32.8711 6.60621 32.8711C6.60509 32.8711 6.60396 32.8711 6.60283 32.8711C6.60171 32.8711 6.60058 32.8711 6.59946 32.8711C6.59833 32.8711 6.5972 32.8711 6.59608 32.8711C6.59495 32.8711 6.59382 32.8711 6.5927 32.8711C6.59157 32.8711 6.59045 32.8711 6.58932 32.8711C6.58819 32.8711 6.58707 32.8711 6.58594 32.8711C6.58482 32.8711 6.58369 32.8711 6.58256 32.8711C6.58144 32.8711 6.58031 32.8711 6.57918 32.8711C6.57806 32.8711 6.57693 32.8711 6.57581 32.8711C6.57468 32.8711 6.57355 32.8711 6.57243 32.8711C6.5713 32.8711 6.57018 32.8711 6.56905 32.8711C6.56792 32.8711 6.5668 32.8711 6.56567 32.8711C6.56454 32.8711 6.56342 32.8711 6.56229 32.8711C6.56117 32.8711 6.56004 32.8711 6.55891 32.8711C6.55779 32.8711 6.55666 32.8711 6.55553 32.8711C6.55441 32.8711 6.55328 32.8711 6.55216 32.8711C6.55103 32.8711 6.5499 32.8711 6.54878 32.8711C6.54765 32.8711 6.54653 32.8711 6.5454 32.8711C6.54427 32.8711 6.54315 32.8711 6.54202 32.8711C6.54089 32.8711 6.53977 32.8711 6.53864 32.8711C6.53752 32.8711 6.53639 32.8711 6.53526 32.8711C6.53414 32.8711 6.53301 32.8711 6.53189 32.8711C6.53076 32.8711 6.52963 32.8711 6.52851 32.8711C6.52738 32.8711 6.52625 32.8711 6.52513 32.8711C6.524 32.8711 6.52288 32.8711 6.52175 32.8711C6.52062 32.8711 6.5195 32.8711 6.51837 32.8711C6.51724 32.8711 6.51612 32.8711 6.51499 32.8711C6.51387 32.8711 6.51274 32.8711 6.51161 32.8711C6.51049 32.8711 6.50936 32.8711 6.50824 32.8711C6.50711 32.8711 6.50598 32.8711 6.50486 32.8711C6.50373 32.8711 6.5026 32.8711 6.50148 32.8711C6.50035 32.8711 6.49923 32.8711 6.4981 32.8711C6.49697 32.8711 6.49585 32.8711 6.49472 32.8711C6.4936 32.8711 6.49247 32.8711 6.49134 32.8711C6.49022 32.8711 6.48909 32.8711 6.48796 32.8711C6.48684 32.8711 6.48571 32.8711 6.48459 32.8711C6.48346 32.8711 6.48233 32.8711 6.48121 32.8711C6.48008 32.8711 6.47896 32.8711 6.47783 32.8711C6.4767 32.8711 6.47558 32.8711 6.47445 32.8711C6.47332 32.8711 6.4722 32.8711 6.47107 32.8711C6.46995 32.8711 6.46882 32.8711 6.46769 32.8711C6.46657 32.8711 6.46544 32.8711 6.46432 32.8711C6.46319 32.8711 6.46206 32.8711 6.46094 32.8711C6.45981 32.8711 6.45868 32.8711 6.45756 32.8711C6.45643 32.8711 6.45531 32.8711 6.45418 32.8711C6.45305 32.8711 6.45193 32.8711 6.4508 32.8711C6.44968 32.8711 6.44855 32.8711 6.44742 32.8711C6.4463 32.8711 6.44517 32.8711 6.44404 32.8711C6.44292 32.8711 6.44179 32.8711 6.44067 32.8711C6.43954 32.8711 6.43841 32.8711 6.43729 32.8711C6.43616 32.8711 6.43504 32.8711 6.43391 32.8711C6.43278 32.8711 6.43166 32.8711 6.43053 32.8711C6.4294 32.8711 6.42828 32.8711 6.42715 32.8711C6.42603 32.8711 6.4249 32.8711 6.42377 32.8711C6.42265 32.8711 6.42152 32.8711 6.4204 32.8711C6.41927 32.8711 6.41814 32.8711 6.41702 32.8711C6.41589 32.8711 6.41477 32.8711 6.41364 32.8711C6.41251 32.8711 6.41139 32.8711 6.41026 32.8711C6.40913 32.8711 6.40801 32.8711 6.40688 32.8711C6.40576 32.8711 6.40463 32.8711 6.4035 32.8711C6.40238 32.8711 6.40125 32.8711 6.40013 32.8711C6.399 32.8711 6.39787 32.8711 6.39675 32.8711C6.39562 32.8711 6.39449 32.8711 6.39337 32.8711C6.39224 32.8711 6.39112 32.8711 6.38999 32.8711C6.38886 32.8711 6.38774 32.8711 6.38661 32.8711C6.38549 32.8711 6.38436 32.8711 6.38323 32.8711C6.38211 32.8711 6.38098 32.8711 6.37986 32.8711C6.37873 32.8711 6.3776 32.8711 6.37648 32.8711C6.37535 32.8711 6.37422 32.8711 6.3731 32.8711C6.37197 32.8711 6.37085 32.8711 6.36972 32.8711C6.36859 32.8711 6.36747 32.8711 6.36634 32.8711C6.36522 32.8711 6.36409 32.8711 6.36296 32.8711C6.36184 32.8711 6.36071 32.8711 6.35958 32.8711C6.35846 32.8711 6.35733 32.8711 6.35621 32.8711C6.35508 32.8711 6.35395 32.8711 6.35283 32.8711C6.3517 32.8711 6.35058 32.8711 6.34945 32.8711C6.34832 32.8711 6.3472 32.8711 6.34607 32.8711C6.34495 32.8711 6.34382 32.8711 6.34269 32.8711C6.34157 32.8711 6.34044 32.8711 6.33931 32.8711C6.33819 32.8711 6.33706 32.8711 6.33594 32.8711C6.33481 32.8711 6.33368 32.8711 6.33256 32.8711C6.33143 32.8711 6.33031 32.8711 6.32918 32.8711C6.32805 32.8711 6.32693 32.8711 6.3258 32.8711C6.32468 32.8711 6.32355 32.8711 6.32242 32.8711C6.3213 32.8711 6.32017 32.8711 6.31904 32.8711C6.31792 32.8711 6.31679 32.8711 6.31567 32.8711C6.31454 32.8711 6.31341 32.8711 6.31229 32.8711C6.31116 32.8711 6.31004 32.8711 6.30891 32.8711C6.30778 32.8711 6.30666 32.8711 6.30553 32.8711C6.30441 32.8711 6.30328 32.8711 6.30215 32.8711C6.30103 32.8711 6.2999 32.8711 6.29877 32.8711C6.29765 32.8711 6.29652 32.8711 6.2954 32.8711C6.29427 32.8711 6.29314 32.8711 6.29202 32.8711C6.29089 32.8711 6.28977 32.8711 6.28864 32.8711C6.28751 32.8711 6.28639 32.8711 6.28526 32.8711C6.28413 32.8711 6.28301 32.8711 6.28188 32.8711C6.28076 32.8711 6.27963 32.8711 6.2785 32.8711C6.27738 32.8711 6.27625 32.8711 6.27513 32.8711C6.274 32.8711 6.27287 32.8711 6.27175 32.8711C6.27062 32.8711 6.2695 32.8711 6.26837 32.8711C6.26724 32.8711 6.26612 32.8711 6.26499 32.8711C6.26386 32.8711 6.26274 32.8711 6.26161 32.8711C6.26049 32.8711 6.25936 32.8711 6.25823 32.8711C6.25711 32.8711 6.25598 32.8711 6.25486 32.8711C6.25373 32.8711 6.2526 32.8711 6.25148 32.8711C6.25035 32.8711 6.24923 32.8711 6.2481 32.8711C6.24697 32.8711 6.24585 32.8711 6.24472 32.8711C6.2436 32.8711 6.24247 32.8711 6.24134 32.8711C6.24022 32.8711 6.23909 32.8711 6.23796 32.8711C6.23684 32.8711 6.23571 32.8711 6.23459 32.8711C6.23346 32.8711 6.23233 32.8711 6.23121 32.8711C6.23008 32.8711 6.22896 32.8711 6.22783 32.8711C6.2267 32.8711 6.22558 32.8711 6.22445 32.8711C6.22333 32.8711 6.2222 32.8711 6.22107 32.8711C6.21995 32.8711 6.21882 32.8711 6.2177 32.8711C6.21657 32.8711 6.21544 32.8711 6.21432 32.8711C6.21319 32.8711 6.21206 32.8711 6.21094 32.8711C6.20981 32.8711 6.20869 32.8711 6.20756 32.8711C6.20643 32.8711 6.20531 32.8711 6.20418 32.8711C6.20306 32.8711 6.20193 32.8711 6.2008 32.8711C6.19968 32.8711 6.19855 32.8711 6.19743 32.8711C6.1963 32.8711 6.19517 32.8711 6.19405 32.8711C6.19292 32.8711 6.19179 32.8711 6.19067 32.8711C6.18954 32.8711 6.18842 32.8711 6.18729 32.8711C6.18616 32.8711 6.18504 32.8711 6.18391 32.8711C6.18279 32.8711 6.18166 32.8711 6.18053 32.8711C6.17941 32.8711 6.17828 32.8711 6.17716 32.8711C6.17603 32.8711 6.1749 32.8711 6.17378 32.8711C6.17265 32.8711 6.17153 32.8711 6.1704 32.8711C6.16927 32.8711 6.16815 32.8711 6.16702 32.8711C6.16589 32.8711 6.16477 32.8711 6.16364 32.8711C6.16252 32.8711 6.16139 32.8711 6.16026 32.8711C6.15914 32.8711 6.15801 32.8711 6.15689 32.8711C6.15576 32.8711 6.15463 32.8711 6.15351 32.8711C6.15238 32.8711 6.15126 32.8711 6.15013 32.8711C6.149 32.8711 6.14788 32.8711 6.14675 32.8711C6.14563 32.8711 6.1445 32.8711 6.14337 32.8711C6.14225 32.8711 6.14112 32.8711 6.14 32.8711C6.13887 32.8711 6.13774 32.8711 6.13662 32.8711C6.13549 32.8711 6.13436 32.8711 6.13324 32.8711C6.13211 32.8711 6.13099 32.8711 6.12986 32.8711C6.12873 32.8711 6.12761 32.8711 6.12648 32.8711C6.12536 32.8711 6.12423 32.8711 6.1231 32.8711C6.12198 32.8711 6.12085 32.8711 6.11973 32.8711C6.1186 32.8711 6.11747 32.8711 6.11635 32.8711C6.11522 32.8711 6.1141 32.8711 6.11297 32.8711C6.11184 32.8711 6.11072 32.8711 6.10959 32.8711C6.10846 32.8711 6.10734 32.8711 6.10621 32.8711C6.10509 32.8711 6.10396 32.8711 6.10283 32.8711C6.10171 32.8711 6.10058 32.8711 6.09946 32.8711C6.09833 32.8711 6.0972 32.8711 6.09608 32.8711C6.09495 32.8711 6.09383 32.8711 6.0927 32.8711C6.09157 32.8711 6.09045 32.8711 6.08932 32.8711C6.0882 32.8711 6.08707 32.8711 6.08594 32.8711C6.08482 32.8711 6.08369 32.8711 6.08256 32.8711C6.08144 32.8711 6.08031 32.8711 6.07919 32.8711C6.07806 32.8711 6.07693 32.8711 6.07581 32.8711C6.07468 32.8711 6.07356 32.8711 6.07243 32.8711C6.0713 32.8711 6.07018 32.8711 6.06905 32.8711C6.06793 32.8711 6.0668 32.8711 6.06567 32.8711C6.06455 32.8711 6.06342 32.8711 6.0623 32.8711C6.06117 32.8711 6.06004 32.8711 6.05892 32.8711C6.05779 32.8711 6.05666 32.8711 6.05554 32.8711C6.05441 32.8711 6.05329 32.8711 6.05216 32.8711C6.05103 32.8711 6.04991 32.8711 6.04878 32.8711C6.04766 32.8711 6.04653 32.8711 6.0454 32.8711C6.04428 32.8711 6.04315 32.8711 6.04203 32.8711C6.0409 32.8711 6.03977 32.8711 6.03865 32.8711C6.03752 32.8711 6.0364 32.8711 6.03527 32.8711C6.03414 32.8711 6.03302 32.8711 6.03189 32.8711C6.03077 32.8711 6.02964 32.8711 6.02851 32.8711C6.02739 32.8711 6.02626 32.8711 6.02514 32.8711C6.02401 32.8711 6.02288 32.8711 6.02176 32.8711C6.02063 32.8711 6.0195 32.8711 6.01838 32.8711C6.01725 32.8711 6.01613 32.8711 6.015 32.8711C6.01387 32.8711 6.01275 32.8711 6.01162 32.8711C6.0105 32.8711 6.00937 32.8711 6.00824 32.8711C6.00712 32.8711 6.00599 32.8711 6.00487 32.8711C6.00374 32.8711 6.00261 32.8711 6.00149 32.8711C6.00036 32.8711 5.99924 32.8711 5.99811 32.8711C5.99698 32.8711 5.99586 32.8711 5.99473 32.8711C5.99361 32.8711 5.99248 32.8711 5.99135 32.8711C5.99023 32.8711 5.9891 32.8711 5.98797 32.8711C5.98685 32.8711 5.98572 32.8711 5.9846 32.8711C5.98347 32.8711 5.98234 32.8711 5.98122 32.8711C5.98009 32.8711 5.97897 32.8711 5.97784 32.8711C5.97671 32.8711 5.97559 32.8711 5.97446 32.8711C5.97334 32.8711 5.97221 32.8711 5.97108 32.8711C5.96996 32.8711 5.96883 32.8711 5.96771 32.8711C5.96658 32.8711 5.96545 32.8711 5.96433 32.8711C5.9632 32.8711 5.96207 32.8711 5.96095 32.8711C5.95982 32.8711 5.9587 32.8711 5.95757 32.8711C5.95644 32.8711 5.95532 32.8711 5.95419 32.8711C5.95307 32.8711 5.95194 32.8711 5.95081 32.8711C5.94969 32.8711 5.94856 32.8711 5.94744 32.8711C5.94631 32.8711 5.94518 32.8711 5.94406 32.8711C5.94293 32.8711 5.94181 32.8711 5.94068 32.8711C5.93955 32.8711 5.93843 32.8711 5.9373 32.8711C5.93618 32.8711 5.93505 32.8711 5.93392 32.8711C5.9328 32.8711 5.93167 32.8711 5.93055 32.8711C5.92942 32.8711 5.92829 32.8711 5.92717 32.8711C5.92604 32.8711 5.92491 32.8711 5.92379 32.8711C5.92266 32.8711 5.92154 32.8711 5.92041 32.8711C5.91928 32.8711 5.91816 32.8711 5.91703 32.8711C5.91591 32.8711 5.91478 32.8711 5.91365 32.8711C5.91253 32.8711 5.9114 32.8711 5.91028 32.8711C5.90915 32.8711 5.90802 32.8711 5.9069 32.8711C5.90577 32.8711 5.90465 32.8711 5.90352 32.8711C5.90239 32.8711 5.90127 32.8711 5.90014 32.8711C5.89902 32.8711 5.89789 32.8711 5.89676 32.8711C5.89564 32.8711 5.89451 32.8711 5.89339 32.8711C5.89226 32.8711 5.89113 32.8711 5.89001 32.8711C5.88888 32.8711 5.88775 32.8711 5.88663 32.8711C5.8855 32.8711 5.88438 32.8711 5.88325 32.8711C5.88212 32.8711 5.881 32.8711 5.87987 32.8711C5.87875 32.8711 5.87762 32.8711 5.87649 32.8711C5.87537 32.8711 5.87424 32.8711 5.87312 32.8711C5.87199 32.8711 5.87086 32.8711 5.86974 32.8711C5.86861 32.8711 5.86749 32.8711 5.86636 32.8711C5.86523 32.8711 5.86411 32.8711 5.86298 32.8711C5.86186 32.8711 5.86073 32.8711 5.8596 32.8711C5.85848 32.8711 5.85735 32.8711 5.85623 32.8711C5.8551 32.8711 5.85397 32.8711 5.85285 32.8711C5.85172 32.8711 5.85059 32.8711 5.84947 32.8711C5.84834 32.8711 5.84722 32.8711 5.84609 32.8711V35.5711C5.84722 35.5711 5.84834 35.5711 5.84947 35.5711C5.85059 35.5711 5.85172 35.5711 5.85285 35.5711C5.85397 35.5711 5.8551 35.5711 5.85623 35.5711C5.85735 35.5711 5.85848 35.5711 5.8596 35.5711C5.86073 35.5711 5.86186 35.5711 5.86298 35.5711C5.86411 35.5711 5.86523 35.5711 5.86636 35.5711C5.86749 35.5711 5.86861 35.5711 5.86974 35.5711C5.87086 35.5711 5.87199 35.5711 5.87312 35.5711C5.87424 35.5711 5.87537 35.5711 5.87649 35.5711C5.87762 35.5711 5.87875 35.5711 5.87987 35.5711C5.881 35.5711 5.88212 35.5711 5.88325 35.5711C5.88438 35.5711 5.8855 35.5711 5.88663 35.5711C5.88775 35.5711 5.88888 35.5711 5.89001 35.5711C5.89113 35.5711 5.89226 35.5711 5.89339 35.5711C5.89451 35.5711 5.89564 35.5711 5.89676 35.5711C5.89789 35.5711 5.89902 35.5711 5.90014 35.5711C5.90127 35.5711 5.90239 35.5711 5.90352 35.5711C5.90465 35.5711 5.90577 35.5711 5.9069 35.5711C5.90802 35.5711 5.90915 35.5711 5.91028 35.5711C5.9114 35.5711 5.91253 35.5711 5.91365 35.5711C5.91478 35.5711 5.91591 35.5711 5.91703 35.5711C5.91816 35.5711 5.91928 35.5711 5.92041 35.5711C5.92154 35.5711 5.92266 35.5711 5.92379 35.5711C5.92491 35.5711 5.92604 35.5711 5.92717 35.5711C5.92829 35.5711 5.92942 35.5711 5.93055 35.5711C5.93167 35.5711 5.9328 35.5711 5.93392 35.5711C5.93505 35.5711 5.93618 35.5711 5.9373 35.5711C5.93843 35.5711 5.93955 35.5711 5.94068 35.5711C5.94181 35.5711 5.94293 35.5711 5.94406 35.5711C5.94518 35.5711 5.94631 35.5711 5.94744 35.5711C5.94856 35.5711 5.94969 35.5711 5.95081 35.5711C5.95194 35.5711 5.95307 35.5711 5.95419 35.5711C5.95532 35.5711 5.95644 35.5711 5.95757 35.5711C5.9587 35.5711 5.95982 35.5711 5.96095 35.5711C5.96207 35.5711 5.9632 35.5711 5.96433 35.5711C5.96545 35.5711 5.96658 35.5711 5.96771 35.5711C5.96883 35.5711 5.96996 35.5711 5.97108 35.5711C5.97221 35.5711 5.97334 35.5711 5.97446 35.5711C5.97559 35.5711 5.97671 35.5711 5.97784 35.5711C5.97897 35.5711 5.98009 35.5711 5.98122 35.5711C5.98234 35.5711 5.98347 35.5711 5.9846 35.5711C5.98572 35.5711 5.98685 35.5711 5.98797 35.5711C5.9891 35.5711 5.99023 35.5711 5.99135 35.5711C5.99248 35.5711 5.99361 35.5711 5.99473 35.5711C5.99586 35.5711 5.99698 35.5711 5.99811 35.5711C5.99924 35.5711 6.00036 35.5711 6.00149 35.5711C6.00261 35.5711 6.00374 35.5711 6.00487 35.5711C6.00599 35.5711 6.00712 35.5711 6.00824 35.5711C6.00937 35.5711 6.0105 35.5711 6.01162 35.5711C6.01275 35.5711 6.01387 35.5711 6.015 35.5711C6.01613 35.5711 6.01725 35.5711 6.01838 35.5711C6.0195 35.5711 6.02063 35.5711 6.02176 35.5711C6.02288 35.5711 6.02401 35.5711 6.02514 35.5711C6.02626 35.5711 6.02739 35.5711 6.02851 35.5711C6.02964 35.5711 6.03077 35.5711 6.03189 35.5711C6.03302 35.5711 6.03414 35.5711 6.03527 35.5711C6.0364 35.5711 6.03752 35.5711 6.03865 35.5711C6.03977 35.5711 6.0409 35.5711 6.04203 35.5711C6.04315 35.5711 6.04428 35.5711 6.0454 35.5711C6.04653 35.5711 6.04766 35.5711 6.04878 35.5711C6.04991 35.5711 6.05103 35.5711 6.05216 35.5711C6.05329 35.5711 6.05441 35.5711 6.05554 35.5711C6.05666 35.5711 6.05779 35.5711 6.05892 35.5711C6.06004 35.5711 6.06117 35.5711 6.0623 35.5711C6.06342 35.5711 6.06455 35.5711 6.06567 35.5711C6.0668 35.5711 6.06793 35.5711 6.06905 35.5711C6.07018 35.5711 6.0713 35.5711 6.07243 35.5711C6.07356 35.5711 6.07468 35.5711 6.07581 35.5711C6.07693 35.5711 6.07806 35.5711 6.07919 35.5711C6.08031 35.5711 6.08144 35.5711 6.08256 35.5711C6.08369 35.5711 6.08482 35.5711 6.08594 35.5711C6.08707 35.5711 6.0882 35.5711 6.08932 35.5711C6.09045 35.5711 6.09157 35.5711 6.0927 35.5711C6.09383 35.5711 6.09495 35.5711 6.09608 35.5711C6.0972 35.5711 6.09833 35.5711 6.09946 35.5711C6.10058 35.5711 6.10171 35.5711 6.10283 35.5711C6.10396 35.5711 6.10509 35.5711 6.10621 35.5711C6.10734 35.5711 6.10846 35.5711 6.10959 35.5711C6.11072 35.5711 6.11184 35.5711 6.11297 35.5711C6.1141 35.5711 6.11522 35.5711 6.11635 35.5711C6.11747 35.5711 6.1186 35.5711 6.11973 35.5711C6.12085 35.5711 6.12198 35.5711 6.1231 35.5711C6.12423 35.5711 6.12536 35.5711 6.12648 35.5711C6.12761 35.5711 6.12873 35.5711 6.12986 35.5711C6.13099 35.5711 6.13211 35.5711 6.13324 35.5711C6.13436 35.5711 6.13549 35.5711 6.13662 35.5711C6.13774 35.5711 6.13887 35.5711 6.14 35.5711C6.14112 35.5711 6.14225 35.5711 6.14337 35.5711C6.1445 35.5711 6.14563 35.5711 6.14675 35.5711C6.14788 35.5711 6.149 35.5711 6.15013 35.5711C6.15126 35.5711 6.15238 35.5711 6.15351 35.5711C6.15463 35.5711 6.15576 35.5711 6.15689 35.5711C6.15801 35.5711 6.15914 35.5711 6.16026 35.5711C6.16139 35.5711 6.16252 35.5711 6.16364 35.5711C6.16477 35.5711 6.16589 35.5711 6.16702 35.5711C6.16815 35.5711 6.16927 35.5711 6.1704 35.5711C6.17153 35.5711 6.17265 35.5711 6.17378 35.5711C6.1749 35.5711 6.17603 35.5711 6.17716 35.5711C6.17828 35.5711 6.17941 35.5711 6.18053 35.5711C6.18166 35.5711 6.18279 35.5711 6.18391 35.5711C6.18504 35.5711 6.18616 35.5711 6.18729 35.5711C6.18842 35.5711 6.18954 35.5711 6.19067 35.5711C6.19179 35.5711 6.19292 35.5711 6.19405 35.5711C6.19517 35.5711 6.1963 35.5711 6.19743 35.5711C6.19855 35.5711 6.19968 35.5711 6.2008 35.5711C6.20193 35.5711 6.20306 35.5711 6.20418 35.5711C6.20531 35.5711 6.20643 35.5711 6.20756 35.5711C6.20869 35.5711 6.20981 35.5711 6.21094 35.5711C6.21206 35.5711 6.21319 35.5711 6.21432 35.5711C6.21544 35.5711 6.21657 35.5711 6.2177 35.5711C6.21882 35.5711 6.21995 35.5711 6.22107 35.5711C6.2222 35.5711 6.22333 35.5711 6.22445 35.5711C6.22558 35.5711 6.2267 35.5711 6.22783 35.5711C6.22896 35.5711 6.23008 35.5711 6.23121 35.5711C6.23233 35.5711 6.23346 35.5711 6.23459 35.5711C6.23571 35.5711 6.23684 35.5711 6.23796 35.5711C6.23909 35.5711 6.24022 35.5711 6.24134 35.5711C6.24247 35.5711 6.2436 35.5711 6.24472 35.5711C6.24585 35.5711 6.24697 35.5711 6.2481 35.5711C6.24923 35.5711 6.25035 35.5711 6.25148 35.5711C6.2526 35.5711 6.25373 35.5711 6.25486 35.5711C6.25598 35.5711 6.25711 35.5711 6.25823 35.5711C6.25936 35.5711 6.26049 35.5711 6.26161 35.5711C6.26274 35.5711 6.26386 35.5711 6.26499 35.5711C6.26612 35.5711 6.26724 35.5711 6.26837 35.5711C6.2695 35.5711 6.27062 35.5711 6.27175 35.5711C6.27287 35.5711 6.274 35.5711 6.27513 35.5711C6.27625 35.5711 6.27738 35.5711 6.2785 35.5711C6.27963 35.5711 6.28076 35.5711 6.28188 35.5711C6.28301 35.5711 6.28413 35.5711 6.28526 35.5711C6.28639 35.5711 6.28751 35.5711 6.28864 35.5711C6.28977 35.5711 6.29089 35.5711 6.29202 35.5711C6.29314 35.5711 6.29427 35.5711 6.2954 35.5711C6.29652 35.5711 6.29765 35.5711 6.29877 35.5711C6.2999 35.5711 6.30103 35.5711 6.30215 35.5711C6.30328 35.5711 6.30441 35.5711 6.30553 35.5711C6.30666 35.5711 6.30778 35.5711 6.30891 35.5711C6.31004 35.5711 6.31116 35.5711 6.31229 35.5711C6.31341 35.5711 6.31454 35.5711 6.31567 35.5711C6.31679 35.5711 6.31792 35.5711 6.31904 35.5711C6.32017 35.5711 6.3213 35.5711 6.32242 35.5711C6.32355 35.5711 6.32468 35.5711 6.3258 35.5711C6.32693 35.5711 6.32805 35.5711 6.32918 35.5711C6.33031 35.5711 6.33143 35.5711 6.33256 35.5711C6.33368 35.5711 6.33481 35.5711 6.33594 35.5711C6.33706 35.5711 6.33819 35.5711 6.33931 35.5711C6.34044 35.5711 6.34157 35.5711 6.34269 35.5711C6.34382 35.5711 6.34495 35.5711 6.34607 35.5711C6.3472 35.5711 6.34832 35.5711 6.34945 35.5711C6.35058 35.5711 6.3517 35.5711 6.35283 35.5711C6.35395 35.5711 6.35508 35.5711 6.35621 35.5711C6.35733 35.5711 6.35846 35.5711 6.35958 35.5711C6.36071 35.5711 6.36184 35.5711 6.36296 35.5711C6.36409 35.5711 6.36522 35.5711 6.36634 35.5711C6.36747 35.5711 6.36859 35.5711 6.36972 35.5711C6.37085 35.5711 6.37197 35.5711 6.3731 35.5711C6.37422 35.5711 6.37535 35.5711 6.37648 35.5711C6.3776 35.5711 6.37873 35.5711 6.37986 35.5711C6.38098 35.5711 6.38211 35.5711 6.38323 35.5711C6.38436 35.5711 6.38549 35.5711 6.38661 35.5711C6.38774 35.5711 6.38886 35.5711 6.38999 35.5711C6.39112 35.5711 6.39224 35.5711 6.39337 35.5711C6.39449 35.5711 6.39562 35.5711 6.39675 35.5711C6.39787 35.5711 6.399 35.5711 6.40013 35.5711C6.40125 35.5711 6.40238 35.5711 6.4035 35.5711C6.40463 35.5711 6.40576 35.5711 6.40688 35.5711C6.40801 35.5711 6.40913 35.5711 6.41026 35.5711C6.41139 35.5711 6.41251 35.5711 6.41364 35.5711C6.41477 35.5711 6.41589 35.5711 6.41702 35.5711C6.41814 35.5711 6.41927 35.5711 6.4204 35.5711C6.42152 35.5711 6.42265 35.5711 6.42377 35.5711C6.4249 35.5711 6.42603 35.5711 6.42715 35.5711C6.42828 35.5711 6.4294 35.5711 6.43053 35.5711C6.43166 35.5711 6.43278 35.5711 6.43391 35.5711C6.43504 35.5711 6.43616 35.5711 6.43729 35.5711C6.43841 35.5711 6.43954 35.5711 6.44067 35.5711C6.44179 35.5711 6.44292 35.5711 6.44404 35.5711C6.44517 35.5711 6.4463 35.5711 6.44742 35.5711C6.44855 35.5711 6.44968 35.5711 6.4508 35.5711C6.45193 35.5711 6.45305 35.5711 6.45418 35.5711C6.45531 35.5711 6.45643 35.5711 6.45756 35.5711C6.45868 35.5711 6.45981 35.5711 6.46094 35.5711C6.46206 35.5711 6.46319 35.5711 6.46432 35.5711C6.46544 35.5711 6.46657 35.5711 6.46769 35.5711C6.46882 35.5711 6.46995 35.5711 6.47107 35.5711C6.4722 35.5711 6.47332 35.5711 6.47445 35.5711C6.47558 35.5711 6.4767 35.5711 6.47783 35.5711C6.47896 35.5711 6.48008 35.5711 6.48121 35.5711C6.48233 35.5711 6.48346 35.5711 6.48459 35.5711C6.48571 35.5711 6.48684 35.5711 6.48796 35.5711C6.48909 35.5711 6.49022 35.5711 6.49134 35.5711C6.49247 35.5711 6.4936 35.5711 6.49472 35.5711C6.49585 35.5711 6.49697 35.5711 6.4981 35.5711C6.49923 35.5711 6.50035 35.5711 6.50148 35.5711C6.5026 35.5711 6.50373 35.5711 6.50486 35.5711C6.50598 35.5711 6.50711 35.5711 6.50824 35.5711C6.50936 35.5711 6.51049 35.5711 6.51161 35.5711C6.51274 35.5711 6.51387 35.5711 6.51499 35.5711C6.51612 35.5711 6.51724 35.5711 6.51837 35.5711C6.5195 35.5711 6.52062 35.5711 6.52175 35.5711C6.52288 35.5711 6.524 35.5711 6.52513 35.5711C6.52625 35.5711 6.52738 35.5711 6.52851 35.5711C6.52963 35.5711 6.53076 35.5711 6.53189 35.5711C6.53301 35.5711 6.53414 35.5711 6.53526 35.5711C6.53639 35.5711 6.53752 35.5711 6.53864 35.5711C6.53977 35.5711 6.54089 35.5711 6.54202 35.5711C6.54315 35.5711 6.54427 35.5711 6.5454 35.5711C6.54653 35.5711 6.54765 35.5711 6.54878 35.5711C6.5499 35.5711 6.55103 35.5711 6.55216 35.5711C6.55328 35.5711 6.55441 35.5711 6.55553 35.5711C6.55666 35.5711 6.55779 35.5711 6.55891 35.5711C6.56004 35.5711 6.56117 35.5711 6.56229 35.5711C6.56342 35.5711 6.56454 35.5711 6.56567 35.5711C6.5668 35.5711 6.56792 35.5711 6.56905 35.5711C6.57018 35.5711 6.5713 35.5711 6.57243 35.5711C6.57355 35.5711 6.57468 35.5711 6.57581 35.5711C6.57693 35.5711 6.57806 35.5711 6.57918 35.5711C6.58031 35.5711 6.58144 35.5711 6.58256 35.5711C6.58369 35.5711 6.58482 35.5711 6.58594 35.5711C6.58707 35.5711 6.58819 35.5711 6.58932 35.5711C6.59045 35.5711 6.59157 35.5711 6.5927 35.5711C6.59382 35.5711 6.59495 35.5711 6.59608 35.5711C6.5972 35.5711 6.59833 35.5711 6.59946 35.5711C6.60058 35.5711 6.60171 35.5711 6.60283 35.5711C6.60396 35.5711 6.60509 35.5711 6.60621 35.5711C6.60734 35.5711 6.60847 35.5711 6.60959 35.5711C6.61072 35.5711 6.61184 35.5711 6.61297 35.5711C6.6141 35.5711 6.61522 35.5711 6.61635 35.5711C6.61748 35.5711 6.6186 35.5711 6.61973 35.5711C6.62085 35.5711 6.62198 35.5711 6.62311 35.5711C6.62423 35.5711 6.62536 35.5711 6.62648 35.5711C6.62761 35.5711 6.62874 35.5711 6.62986 35.5711C6.63099 35.5711 6.63212 35.5711 6.63324 35.5711C6.63437 35.5711 6.63549 35.5711 6.63662 35.5711C6.63775 35.5711 6.63887 35.5711 6.64 35.5711C6.64113 35.5711 6.64225 35.5711 6.64338 35.5711C6.6445 35.5711 6.64563 35.5711 6.64676 35.5711C6.64788 35.5711 6.64901 35.5711 6.65013 35.5711C6.65126 35.5711 6.65239 35.5711 6.65351 35.5711C6.65464 35.5711 6.65577 35.5711 6.65689 35.5711C6.65802 35.5711 6.65914 35.5711 6.66027 35.5711C6.6614 35.5711 6.66252 35.5711 6.66365 35.5711C6.66478 35.5711 6.6659 35.5711 6.66703 35.5711C6.66815 35.5711 6.66928 35.5711 6.67041 35.5711C6.67153 35.5711 6.67266 35.5711 6.67379 35.5711C6.67491 35.5711 6.67604 35.5711 6.67716 35.5711C6.67829 35.5711 6.67942 35.5711 6.68054 35.5711C6.68167 35.5711 6.6828 35.5711 6.68392 35.5711C6.68505 35.5711 6.68617 35.5711 6.6873 35.5711C6.68843 35.5711 6.68955 35.5711 6.69068 35.5711C6.6918 35.5711 6.69293 35.5711 6.69406 35.5711C6.69518 35.5711 6.69631 35.5711 6.69744 35.5711C6.69856 35.5711 6.69969 35.5711 6.70081 35.5711C6.70194 35.5711 6.70307 35.5711 6.70419 35.5711C6.70532 35.5711 6.70645 35.5711 6.70757 35.5711C6.7087 35.5711 6.70982 35.5711 6.71095 35.5711C6.71208 35.5711 6.7132 35.5711 6.71433 35.5711C6.71546 35.5711 6.71658 35.5711 6.71771 35.5711C6.71883 35.5711 6.71996 35.5711 6.72109 35.5711C6.72221 35.5711 6.72334 35.5711 6.72447 35.5711C6.72559 35.5711 6.72672 35.5711 6.72784 35.5711C6.72897 35.5711 6.7301 35.5711 6.73122 35.5711C6.73235 35.5711 6.73348 35.5711 6.7346 35.5711C6.73573 35.5711 6.73685 35.5711 6.73798 35.5711C6.73911 35.5711 6.74023 35.5711 6.74136 35.5711C6.74249 35.5711 6.74361 35.5711 6.74474 35.5711C6.74586 35.5711 6.74699 35.5711 6.74812 35.5711C6.74924 35.5711 6.75037 35.5711 6.7515 35.5711C6.75262 35.5711 6.75375 35.5711 6.75487 35.5711C6.756 35.5711 6.75713 35.5711 6.75825 35.5711C6.75938 35.5711 6.76051 35.5711 6.76163 35.5711C6.76276 35.5711 6.76388 35.5711 6.76501 35.5711C6.76614 35.5711 6.76726 35.5711 6.76839 35.5711C6.76952 35.5711 6.77064 35.5711 6.77177 35.5711C6.77289 35.5711 6.77402 35.5711 6.77515 35.5711C6.77627 35.5711 6.7774 35.5711 6.77853 35.5711C6.77965 35.5711 6.78078 35.5711 6.7819 35.5711C6.78303 35.5711 6.78416 35.5711 6.78528 35.5711C6.78641 35.5711 6.78754 35.5711 6.78866 35.5711C6.78979 35.5711 6.79091 35.5711 6.79204 35.5711C6.79317 35.5711 6.79429 35.5711 6.79542 35.5711C6.79655 35.5711 6.79767 35.5711 6.7988 35.5711C6.79992 35.5711 6.80105 35.5711 6.80218 35.5711C6.8033 35.5711 6.80443 35.5711 6.80556 35.5711C6.80668 35.5711 6.80781 35.5711 6.80893 35.5711C6.81006 35.5711 6.81119 35.5711 6.81231 35.5711C6.81344 35.5711 6.81457 35.5711 6.81569 35.5711C6.81682 35.5711 6.81794 35.5711 6.81907 35.5711C6.8202 35.5711 6.82132 35.5711 6.82245 35.5711C6.82358 35.5711 6.8247 35.5711 6.82583 35.5711C6.82695 35.5711 6.82808 35.5711 6.82921 35.5711C6.83033 35.5711 6.83146 35.5711 6.83259 35.5711C6.83371 35.5711 6.83484 35.5711 6.83597 35.5711C6.83709 35.5711 6.83822 35.5711 6.83934 35.5711C6.84047 35.5711 6.8416 35.5711 6.84272 35.5711C6.84385 35.5711 6.84498 35.5711 6.8461 35.5711C6.84723 35.5711 6.84835 35.5711 6.84948 35.5711C6.85061 35.5711 6.85173 35.5711 6.85286 35.5711C6.85399 35.5711 6.85511 35.5711 6.85624 35.5711C6.85736 35.5711 6.85849 35.5711 6.85962 35.5711C6.86074 35.5711 6.86187 35.5711 6.863 35.5711C6.86412 35.5711 6.86525 35.5711 6.86637 35.5711C6.8675 35.5711 6.86863 35.5711 6.86975 35.5711C6.87088 35.5711 6.87201 35.5711 6.87313 35.5711C6.87426 35.5711 6.87539 35.5711 6.87651 35.5711C6.87764 35.5711 6.87876 35.5711 6.87989 35.5711C6.88102 35.5711 6.88214 35.5711 6.88327 35.5711C6.8844 35.5711 6.88552 35.5711 6.88665 35.5711C6.88777 35.5711 6.8889 35.5711 6.89003 35.5711C6.89115 35.5711 6.89228 35.5711 6.89341 35.5711C6.89453 35.5711 6.89566 35.5711 6.89679 35.5711C6.89791 35.5711 6.89904 35.5711 6.90016 35.5711C6.90129 35.5711 6.90242 35.5711 6.90354 35.5711C6.90467 35.5711 6.9058 35.5711 6.90692 35.5711C6.90805 35.5711 6.90917 35.5711 6.9103 35.5711C6.91143 35.5711 6.91255 35.5711 6.91368 35.5711C6.91481 35.5711 6.91593 35.5711 6.91706 35.5711C6.91819 35.5711 6.91931 35.5711 6.92044 35.5711C6.92156 35.5711 6.92269 35.5711 6.92382 35.5711C6.92494 35.5711 6.92607 35.5711 6.9272 35.5711C6.92832 35.5711 6.92945 35.5711 6.93057 35.5711C6.9317 35.5711 6.93283 35.5711 6.93395 35.5711C6.93508 35.5711 6.93621 35.5711 6.93733 35.5711C6.93846 35.5711 6.93959 35.5711 6.94071 35.5711C6.94184 35.5711 6.94296 35.5711 6.94409 35.5711C6.94522 35.5711 6.94634 35.5711 6.94747 35.5711C6.9486 35.5711 6.94972 35.5711 6.95085 35.5711C6.95197 35.5711 6.9531 35.5711 6.95423 35.5711C6.95535 35.5711 6.95648 35.5711 6.95761 35.5711C6.95873 35.5711 6.95986 35.5711 6.96099 35.5711C6.96211 35.5711 6.96324 35.5711 6.96436 35.5711C6.96549 35.5711 6.96662 35.5711 6.96774 35.5711C6.96887 35.5711 6.97 35.5711 6.97112 35.5711C6.97225 35.5711 6.97338 35.5711 6.9745 35.5711C6.97563 35.5711 6.97675 35.5711 6.97788 35.5711C6.97901 35.5711 6.98013 35.5711 6.98126 35.5711C6.98239 35.5711 6.98351 35.5711 6.98464 35.5711C6.98576 35.5711 6.98689 35.5711 6.98802 35.5711C6.98914 35.5711 6.99027 35.5711 6.9914 35.5711C6.99252 35.5711 6.99365 35.5711 6.99478 35.5711C6.9959 35.5711 6.99703 35.5711 6.99816 35.5711C6.99928 35.5711 7.00041 35.5711 7.00153 35.5711C7.00266 35.5711 7.00379 35.5711 7.00491 35.5711C7.00604 35.5711 7.00717 35.5711 7.00829 35.5711C7.00942 35.5711 7.01055 35.5711 7.01167 35.5711C7.0128 35.5711 7.01392 35.5711 7.01505 35.5711C7.01618 35.5711 7.0173 35.5711 7.01843 35.5711C7.01956 35.5711 7.02068 35.5711 7.02181 35.5711C7.02293 35.5711 7.02406 35.5711 7.02519 35.5711C7.02631 35.5711 7.02744 35.5711 7.02857 35.5711C7.02969 35.5711 7.03082 35.5711 7.03195 35.5711C7.03307 35.5711 7.0342 35.5711 7.03533 35.5711C7.03645 35.5711 7.03758 35.5711 7.0387 35.5711C7.03983 35.5711 7.04096 35.5711 7.04208 35.5711C7.04321 35.5711 7.04434 35.5711 7.04546 35.5711C7.04659 35.5711 7.04772 35.5711 7.04884 35.5711C7.04997 35.5711 7.05109 35.5711 7.05222 35.5711C7.05335 35.5711 7.05447 35.5711 7.0556 35.5711C7.05673 35.5711 7.05785 35.5711 7.05898 35.5711C7.06011 35.5711 7.06123 35.5711 7.06236 35.5711C7.06349 35.5711 7.06461 35.5711 7.06574 35.5711C7.06686 35.5711 7.06799 35.5711 7.06912 35.5711C7.07024 35.5711 7.07137 35.5711 7.0725 35.5711C7.07362 35.5711 7.07475 35.5711 7.07588 35.5711C7.077 35.5711 7.07813 35.5711 7.07925 35.5711C7.08038 35.5711 7.08151 35.5711 7.08263 35.5711C7.08376 35.5711 7.08489 35.5711 7.08601 35.5711C7.08714 35.5711 7.08827 35.5711 7.08939 35.5711C7.09052 35.5711 7.09164 35.5711 7.09277 35.5711C7.0939 35.5711 7.09502 35.5711 7.09615 35.5711C7.09728 35.5711 7.0984 35.5711 7.09953 35.5711C7.10066 35.5711 7.10178 35.5711 7.10291 35.5711C7.10404 35.5711 7.10516 35.5711 7.10629 35.5711C7.10741 35.5711 7.10854 35.5711 7.10967 35.5711C7.11079 35.5711 7.11192 35.5711 7.11305 35.5711C7.11417 35.5711 7.1153 35.5711 7.11643 35.5711C7.11755 35.5711 7.11868 35.5711 7.11981 35.5711C7.12093 35.5711 7.12206 35.5711 7.12318 35.5711C7.12431 35.5711 7.12544 35.5711 7.12656 35.5711C7.12769 35.5711 7.12882 35.5711 7.12994 35.5711C7.13107 35.5711 7.1322 35.5711 7.13332 35.5711C7.13445 35.5711 7.13558 35.5711 7.1367 35.5711C7.13783 35.5711 7.13895 35.5711 7.14008 35.5711C7.14121 35.5711 7.14233 35.5711 7.14346 35.5711C7.14459 35.5711 7.14571 35.5711 7.14684 35.5711C7.14797 35.5711 7.14909 35.5711 7.15022 35.5711C7.15135 35.5711 7.15247 35.5711 7.1536 35.5711C7.15473 35.5711 7.15585 35.5711 7.15698 35.5711C7.1581 35.5711 7.15923 35.5711 7.16036 35.5711C7.16148 35.5711 7.16261 35.5711 7.16374 35.5711C7.16486 35.5711 7.16599 35.5711 7.16712 35.5711C7.16824 35.5711 7.16937 35.5711 7.1705 35.5711C7.17162 35.5711 7.17275 35.5711 7.17387 35.5711C7.175 35.5711 7.17613 35.5711 7.17725 35.5711C7.17838 35.5711 7.17951 35.5711 7.18063 35.5711C7.18176 35.5711 7.18289 35.5711 7.18401 35.5711C7.18514 35.5711 7.18627 35.5711 7.18739 35.5711C7.18852 35.5711 7.18964 35.5711 7.19077 35.5711C7.1919 35.5711 7.19302 35.5711 7.19415 35.5711C7.19528 35.5711 7.1964 35.5711 7.19753 35.5711C7.19866 35.5711 7.19978 35.5711 7.20091 35.5711C7.20204 35.5711 7.20316 35.5711 7.20429 35.5711C7.20542 35.5711 7.20654 35.5711 7.20767 35.5711C7.2088 35.5711 7.20992 35.5711 7.21105 35.5711C7.21217 35.5711 7.2133 35.5711 7.21443 35.5711C7.21555 35.5711 7.21668 35.5711 7.21781 35.5711C7.21893 35.5711 7.22006 35.5711 7.22119 35.5711C7.22231 35.5711 7.22344 35.5711 7.22457 35.5711C7.22569 35.5711 7.22682 35.5711 7.22795 35.5711C7.22907 35.5711 7.2302 35.5711 7.23132 35.5711C7.23245 35.5711 7.23358 35.5711 7.2347 35.5711C7.23583 35.5711 7.23696 35.5711 7.23808 35.5711C7.23921 35.5711 7.24034 35.5711 7.24146 35.5711C7.24259 35.5711 7.24372 35.5711 7.24484 35.5711C7.24597 35.5711 7.2471 35.5711 7.24822 35.5711C7.24935 35.5711 7.25047 35.5711 7.2516 35.5711C7.25273 35.5711 7.25385 35.5711 7.25498 35.5711C7.25611 35.5711 7.25723 35.5711 7.25836 35.5711C7.25949 35.5711 7.26061 35.5711 7.26174 35.5711C7.26287 35.5711 7.26399 35.5711 7.26512 35.5711C7.26625 35.5711 7.26737 35.5711 7.2685 35.5711C7.26963 35.5711 7.27075 35.5711 7.27188 35.5711C7.27301 35.5711 7.27413 35.5711 7.27526 35.5711C7.27638 35.5711 7.27751 35.5711 7.27864 35.5711C7.27976 35.5711 7.28089 35.5711 7.28202 35.5711C7.28314 35.5711 7.28427 35.5711 7.2854 35.5711C7.28652 35.5711 7.28765 35.5711 7.28878 35.5711C7.2899 35.5711 7.29103 35.5711 7.29216 35.5711C7.29328 35.5711 7.29441 35.5711 7.29554 35.5711C7.29666 35.5711 7.29779 35.5711 7.29892 35.5711C7.30004 35.5711 7.30117 35.5711 7.3023 35.5711C7.30342 35.5711 7.30455 35.5711 7.30567 35.5711C7.3068 35.5711 7.30793 35.5711 7.30905 35.5711C7.31018 35.5711 7.31131 35.5711 7.31243 35.5711C7.31356 35.5711 7.31469 35.5711 7.31581 35.5711C7.31694 35.5711 7.31807 35.5711 7.31919 35.5711C7.32032 35.5711 7.32145 35.5711 7.32257 35.5711C7.3237 35.5711 7.32483 35.5711 7.32595 35.5711C7.32708 35.5711 7.32821 35.5711 7.32933 35.5711C7.33046 35.5711 7.33159 35.5711 7.33271 35.5711C7.33384 35.5711 7.33496 35.5711 7.33609 35.5711C7.33722 35.5711 7.33834 35.5711 7.33947 35.5711C7.3406 35.5711 7.34172 35.5711 7.34285 35.5711C7.34398 35.5711 7.3451 35.5711 7.34623 35.5711C7.34736 35.5711 7.34848 35.5711 7.34961 35.5711C7.35074 35.5711 7.35186 35.5711 7.35299 35.5711C7.35412 35.5711 7.35524 35.5711 7.35637 35.5711C7.3575 35.5711 7.35862 35.5711 7.35975 35.5711C7.36088 35.5711 7.362 35.5711 7.36313 35.5711C7.36426 35.5711 7.36538 35.5711 7.36651 35.5711C7.36764 35.5711 7.36876 35.5711 7.36989 35.5711C7.37102 35.5711 7.37214 35.5711 7.37327 35.5711C7.37439 35.5711 7.37552 35.5711 7.37665 35.5711C7.37777 35.5711 7.3789 35.5711 7.38003 35.5711C7.38115 35.5711 7.38228 35.5711 7.38341 35.5711C7.38453 35.5711 7.38566 35.5711 7.38679 35.5711C7.38791 35.5711 7.38904 35.5711 7.39017 35.5711C7.39129 35.5711 7.39242 35.5711 7.39355 35.5711C7.39467 35.5711 7.3958 35.5711 7.39693 35.5711C7.39805 35.5711 7.39918 35.5711 7.40031 35.5711C7.40143 35.5711 7.40256 35.5711 7.40369 35.5711C7.40481 35.5711 7.40594 35.5711 7.40707 35.5711C7.40819 35.5711 7.40932 35.5711 7.41045 35.5711C7.41157 35.5711 7.4127 35.5711 7.41383 35.5711C7.41495 35.5711 7.41608 35.5711 7.41721 35.5711C7.41833 35.5711 7.41946 35.5711 7.42059 35.5711C7.42171 35.5711 7.42284 35.5711 7.42397 35.5711C7.42509 35.5711 7.42622 35.5711 7.42735 35.5711C7.42847 35.5711 7.4296 35.5711 7.43073 35.5711C7.43185 35.5711 7.43298 35.5711 7.4341 35.5711C7.43523 35.5711 7.43636 35.5711 7.43748 35.5711C7.43861 35.5711 7.43974 35.5711 7.44086 35.5711C7.44199 35.5711 7.44312 35.5711 7.44424 35.5711C7.44537 35.5711 7.4465 35.5711 7.44762 35.5711C7.44875 35.5711 7.44988 35.5711 7.451 35.5711C7.45213 35.5711 7.45326 35.5711 7.45438 35.5711C7.45551 35.5711 7.45664 35.5711 7.45776 35.5711C7.45889 35.5711 7.46002 35.5711 7.46114 35.5711C7.46227 35.5711 7.4634 35.5711 7.46452 35.5711C7.46565 35.5711 7.46678 35.5711 7.4679 35.5711C7.46903 35.5711 7.47016 35.5711 7.47128 35.5711C7.47241 35.5711 7.47354 35.5711 7.47466 35.5711C7.47579 35.5711 7.47692 35.5711 7.47804 35.5711C7.47917 35.5711 7.4803 35.5711 7.48142 35.5711C7.48255 35.5711 7.48368 35.5711 7.4848 35.5711C7.48593 35.5711 7.48706 35.5711 7.48818 35.5711C7.48931 35.5711 7.49044 35.5711 7.49156 35.5711C7.49269 35.5711 7.49382 35.5711 7.49494 35.5711C7.49607 35.5711 7.4972 35.5711 7.49832 35.5711C7.49945 35.5711 7.50058 35.5711 7.5017 35.5711C7.50283 35.5711 7.50396 35.5711 7.50508 35.5711C7.50621 35.5711 7.50734 35.5711 7.50846 35.5711C7.50959 35.5711 7.51072 35.5711 7.51184 35.5711C7.51297 35.5711 7.5141 35.5711 7.51522 35.5711C7.51635 35.5711 7.51748 35.5711 7.5186 35.5711C7.51973 35.5711 7.52086 35.5711 7.52198 35.5711C7.52311 35.5711 7.52424 35.5711 7.52536 35.5711C7.52649 35.5711 7.52762 35.5711 7.52874 35.5711C7.52987 35.5711 7.531 35.5711 7.53212 35.5711C7.53325 35.5711 7.53438 35.5711 7.5355 35.5711C7.53663 35.5711 7.53776 35.5711 7.53888 35.5711C7.54001 35.5711 7.54114 35.5711 7.54226 35.5711C7.54339 35.5711 7.54452 35.5711 7.54564 35.5711C7.54677 35.5711 7.5479 35.5711 7.54902 35.5711C7.55015 35.5711 7.55128 35.5711 7.5524 35.5711C7.55353 35.5711 7.55466 35.5711 7.55579 35.5711C7.55691 35.5711 7.55804 35.5711 7.55917 35.5711C7.56029 35.5711 7.56142 35.5711 7.56255 35.5711C7.56367 35.5711 7.5648 35.5711 7.56593 35.5711C7.56705 35.5711 7.56818 35.5711 7.56931 35.5711C7.57043 35.5711 7.57156 35.5711 7.57269 35.5711C7.57381 35.5711 7.57494 35.5711 7.57607 35.5711V32.8711ZM5.84609 32.8711C5.29204 32.8711 4.81957 32.8823 4.42342 32.8933C4.01688 32.9045 3.72001 32.9142 3.47519 32.914C3.22302 32.9138 3.11527 32.9016 3.07753 32.8943C3.05185 32.8893 3.19991 32.9124 3.35941 33.0635C3.52356 33.2191 3.55855 33.3756 3.55746 33.3708C3.55232 33.3482 3.53785 33.255 3.53387 33.0128C3.53003 32.7789 3.53599 32.4915 3.54282 32.0948C3.54947 31.7086 3.55622 31.2458 3.55139 30.7027L0.851493 30.7267C0.85601 31.2339 0.849757 31.6685 0.843216 32.0484C0.836856 32.4178 0.829443 32.7654 0.834237 33.0572C0.838894 33.3406 0.855073 33.6637 0.924764 33.9699C0.998504 34.294 1.15252 34.6919 1.50207 35.0232C1.84697 35.3501 2.2468 35.4832 2.56147 35.5445C2.86406 35.6034 3.18521 35.6137 3.47268 35.614C3.76751 35.6143 4.12103 35.6026 4.49781 35.5922C4.88498 35.5816 5.32877 35.5711 5.84609 35.5711V32.8711ZM11.6017 31.641C14.3538 34.1796 19.1246 38.9368 24.0512 43.0732C26.5237 45.1492 29.0807 47.1087 31.5017 48.5935C33.8874 50.0566 36.2923 51.155 38.4309 51.3295L38.6505 48.6385C37.1652 48.5173 35.208 47.6992 32.9133 46.2918C30.6538 44.9061 28.2119 43.0411 25.7873 41.0054C20.9195 36.9184 16.3023 32.3037 13.4323 29.6564L11.6017 31.641ZM38.4309 51.3295C38.9834 51.3746 39.8087 51.3577 40.6405 51.1489C41.4537 50.9448 42.4708 50.5054 43.1202 49.5464L40.8846 48.0325C40.7647 48.2095 40.4893 48.4031 39.9832 48.5302C39.4956 48.6525 38.9747 48.6649 38.6505 48.6385L38.4309 51.3295ZM32.8662 41.3259C33.0862 41.5396 33.5955 42.1168 34.3727 42.9789C35.1181 43.8057 36.0527 44.8286 37.0456 45.8363C38.034 46.8394 39.105 47.853 40.1243 48.6508C41.0814 49.3999 42.2089 50.1368 43.2782 50.296L43.6758 47.6255C43.3733 47.5804 42.7375 47.2674 41.7885 46.5246C40.9017 45.8305 39.9237 44.9103 38.9689 43.9412C38.0186 42.9768 37.1158 41.9893 36.3781 41.171C35.6722 40.3881 35.0528 39.6858 34.7472 39.3889L32.8662 41.3259ZM43.2516 50.2918C44.4421 50.4934 45.6748 50.3378 46.8528 49.6668C48.0069 49.0094 49.0139 47.9118 49.8871 46.3887L47.5447 45.0458C46.8295 46.2934 46.1287 46.9719 45.5164 47.3207C44.9279 47.656 44.3354 47.7369 43.7024 47.6297L43.2516 50.2918ZM39.3177 38.345C39.5377 38.5587 40.047 39.1359 40.8242 39.998C41.5696 40.8248 42.5042 41.8477 43.4971 42.8554C44.4855 43.8585 45.5565 44.8721 46.5758 45.6699C47.5329 46.419 48.6604 47.1559 49.7297 47.3151L50.1273 44.6446C49.8248 44.5995 49.189 44.2865 48.24 43.5437C47.3532 42.8496 46.3752 41.9294 45.4204 40.9603C44.4701 39.9959 43.5673 39.0084 42.8296 38.1901C42.1238 37.4072 41.5044 36.7049 41.1987 36.408L39.3177 38.345ZM49.7031 47.3109C50.8936 47.5125 52.1263 47.3569 53.3043 46.6859C54.4584 46.0285 55.4654 44.9309 56.3386 43.4078L53.9962 42.0649C53.281 43.3125 52.5802 43.991 51.9679 44.3399C51.3794 44.6751 50.7869 44.756 50.1539 44.6488L49.7031 47.3109ZM44.008 33.7418C45.6041 35.4636 47.9911 37.8991 50.2162 39.9353C51.3265 40.9514 52.4184 41.8883 53.3637 42.5907C53.8352 42.941 54.2938 43.2507 54.7162 43.485C55.1041 43.7002 55.5975 43.9307 56.1058 43.9823L56.3788 41.2962C56.4365 41.302 56.3392 41.2978 56.0261 41.124C55.7474 40.9694 55.3945 40.7359 54.9739 40.4234C54.135 39.8001 53.1201 38.9329 52.039 37.9435C49.8813 35.9689 47.5473 33.5884 45.9882 31.9063L44.008 33.7418ZM56.017 43.9703C57.8368 44.2783 59.5258 43.2532 60.4605 41.9134C61.4313 40.5219 61.7838 38.5259 60.6284 36.7017L58.3475 38.1464C58.8142 38.8833 58.7171 39.6935 58.2461 40.3685C57.739 41.0954 56.9941 41.3973 56.4676 41.3082L56.017 43.9703ZM60.6285 36.7019C59.9728 35.6662 58.9328 34.5983 58.1025 33.6617L56.0821 35.4529C57.0634 36.5597 57.8459 37.3543 58.3473 38.1462L60.6285 36.7019ZM58.1023 33.6615C54.2292 29.2948 47.8707 24.1156 41.3645 18.9377L39.6832 21.0504C46.2386 26.2674 52.3953 31.2962 56.0823 35.4531L58.1023 33.6615ZM39.9353 18.7791C38.4438 19.5015 37.1543 20.1569 35.5666 20.1221L35.5074 22.8215C37.8606 22.8731 39.7487 21.8696 41.1124 21.209L39.9353 18.7791ZM34.5337 20.5685C31.9711 23.4149 30.021 23.9345 28.9828 23.7521C28.0721 23.592 27.2967 22.7613 27.2647 21.2049L24.5653 21.2605C24.6155 23.7024 25.9743 25.9647 28.5155 26.4113C30.9293 26.8355 33.749 25.4755 36.5403 22.3751L34.5337 20.5685ZM27.2647 21.205C27.2483 20.4099 27.5603 19.4206 28.2323 18.302C28.8952 17.1984 29.8502 16.0671 30.9623 15.0199C33.2284 12.886 35.9033 11.3231 37.6705 10.9707L37.1424 8.32281C34.6734 8.81523 31.5554 10.7527 29.1113 13.0542C27.8683 14.2247 26.7388 15.5449 25.9178 16.9116C25.1059 18.2632 24.5345 19.7629 24.5653 21.2604L27.2647 21.205ZM37.6705 10.9707C40.6786 10.3707 43.7937 11.3424 46.9946 12.7407C47.7847 13.0858 48.5646 13.4494 49.3428 13.8138C50.1156 14.1756 50.8911 14.5402 51.6474 14.8744C53.1459 15.5366 54.6713 16.1269 56.1331 16.3733L56.5819 13.7109C55.4691 13.5233 54.1996 13.0504 52.7387 12.4048C52.0153 12.0851 51.2699 11.7348 50.4877 11.3685C49.7109 11.0048 48.9016 10.6274 48.0754 10.2664C44.8107 8.84036 41.0249 7.54842 37.1424 8.32282L37.6705 10.9707ZM56.1331 16.3733C57.3194 16.5733 58.7413 16.4399 58.9395 16.438L58.9135 13.7381C58.3118 13.7439 57.4565 13.8583 56.5819 13.7109L56.1331 16.3733ZM77.1312 32.8308C76.6849 26.5675 76.2386 20.3039 75.7924 14.0403L73.0992 14.2321C73.5455 20.4958 73.9917 26.7594 74.438 33.0227L77.1312 32.8308ZM75.7924 14.0403C75.7035 12.7933 75.649 11.6956 75.5638 10.8572C75.4809 10.0426 75.3509 9.20549 74.9866 8.53547C74.5453 7.72357 73.8347 7.27213 72.9523 7.13022C72.1974 7.00883 71.3073 7.11185 70.3513 7.28002L70.819 9.93919C71.761 9.7735 72.2563 9.753 72.5236 9.79597C72.6632 9.81843 72.6114 9.81924 72.6145 9.82504C72.6948 9.97272 72.7951 10.3187 72.8776 11.1303C72.9577 11.918 73.0035 12.8894 73.0992 14.2322L75.7924 14.0403ZM70.3791 7.27542C67.6272 7.70032 65.054 8.31909 62.6751 9.14808L63.5635 11.6977C65.7664 10.9301 68.1776 10.3473 70.7911 9.94379L70.3791 7.27542ZM62.6751 9.14809C61.2318 9.65105 60.0897 10.083 59.2747 10.5532C58.4231 11.0446 57.7112 11.7025 57.4741 12.7355C57.269 13.629 57.4905 14.5768 57.7326 15.4353C57.862 15.894 58.0256 16.4135 58.1987 16.972C58.3743 17.5386 58.5669 18.1679 58.7664 18.8814L61.3666 18.1544C61.1568 17.404 60.9554 16.746 60.7777 16.1727C60.5975 15.5912 60.4485 15.1182 60.3313 14.7025C60.0802 13.812 60.0726 13.4835 60.1057 13.3395C60.1067 13.3349 60.1002 13.1941 60.624 12.8919C61.1845 12.5685 62.0881 12.2119 63.5636 11.6977L62.6751 9.14809ZM58.7663 18.8814C60.2015 24.0153 62.0373 28.9131 64.0458 33.6867L66.5345 32.6397C64.553 27.93 62.7615 23.1442 61.3667 18.1545L58.7663 18.8814ZM64.0457 33.6866C64.5219 34.8186 64.7362 35.4553 65.0179 36.15C65.2407 36.6993 65.5421 37.4005 66.1501 37.8606C66.8159 38.3645 67.5873 38.4005 68.2141 38.3836C68.8369 38.3667 69.7359 38.2686 70.8123 38.1849L70.6029 35.4931C69.3758 35.5885 68.6771 35.6701 68.1412 35.6846C67.6092 35.6989 67.6609 35.618 67.7794 35.7076C67.8401 35.7536 67.7666 35.7434 67.52 35.1354C67.3324 34.6727 66.983 33.706 66.5345 32.6397L64.0457 33.6866ZM70.8119 38.185C71.3872 38.1404 71.9624 38.0955 72.5375 38.0506L72.3275 35.3588C71.7522 35.4037 71.1777 35.4485 70.6033 35.493L70.8119 38.185ZM72.5372 38.0507C73.0529 38.0105 73.4962 37.9865 73.8829 37.9671C74.2593 37.9483 74.6127 37.9325 74.9065 37.9094C75.193 37.8868 75.5124 37.8516 75.8094 37.7694C76.1183 37.6839 76.5072 37.5199 76.8258 37.1662C77.1486 36.8077 77.2703 36.3981 77.3178 36.0694C77.3627 35.7586 77.3529 35.4352 77.3349 35.1524C77.3163 34.8613 77.2811 34.5154 77.2451 34.1476C77.2082 33.7695 77.1672 33.3368 77.1312 32.8308L74.438 33.0227C74.4766 33.5646 74.5204 34.0254 74.5579 34.41C74.5965 34.8049 74.6254 35.091 74.6403 35.3245C74.6558 35.5664 74.6488 35.6604 74.6455 35.6832C74.6449 35.688 74.6673 35.5283 74.8194 35.3593C74.9673 35.1951 75.1141 35.1603 75.0891 35.1673C75.0523 35.1774 74.946 35.1979 74.6946 35.2177C74.4506 35.2369 74.1539 35.2502 73.7477 35.2705C73.352 35.2904 72.8801 35.3158 72.3277 35.3588L72.5372 38.0507ZM60.1906 38.5768L66.5309 34.7121L65.1255 32.4066L58.7853 36.2713L60.1906 38.5768Z" fill="#D0B07C"/>
</svg>
