<svg width="56" height="56" viewBox="0 0 56 56" fill="none" xmlns="http://www.w3.org/2000/svg">
<path d="M28 27.619V27.647M16.8889 13.6306V11.5958C16.8889 10.1118 17.4742 8.68861 18.5161 7.63928C19.5579 6.58994 20.971 6.00043 22.4444 6.00043H33.5555C35.029 6.00043 36.442 6.58994 37.4839 7.63928C38.5258 8.68861 39.1111 10.1118 39.1111 11.5958V13.6306M3 30.4166C10.7544 34.3521 19.3167 36.4021 28 36.4021C36.6833 36.4021 45.2456 34.3521 53 30.4166M8.55556 13.6305H47.4444C50.5127 13.6305 53 16.1356 53 19.2259V44.4051C53 47.4953 50.5127 50.0005 47.4444 50.0005H8.55556C5.48731 50.0005 3 47.4953 3 44.4051V19.2259C3 16.1356 5.48731 13.6305 8.55556 13.6305Z" stroke="#D0B07C" stroke-width="2.7" stroke-linecap="round" stroke-linejoin="round"/>
</svg>
