<svg width="56" height="56" viewBox="0 0 56 56" fill="none" xmlns="http://www.w3.org/2000/svg">
<path d="M3 53H1.65C1.65 53.7456 2.25442 54.35 3 54.35L3 53ZM3 46.1373V44.7873C2.25442 44.7873 1.65 45.3917 1.65 46.1373H3ZM11.8235 46.1373H13.1735C13.1735 45.3917 12.5691 44.7873 11.8235 44.7873V46.1373ZM11.8235 53V54.35C12.5691 54.35 13.1735 53.7456 13.1735 53H11.8235ZM16.7255 53H15.3755C15.3755 53.7456 15.9799 54.35 16.7255 54.35V53ZM16.7255 32.902V31.552C15.9799 31.552 15.3755 32.1564 15.3755 32.902H16.7255ZM25.549 32.902H26.899C26.899 32.1564 26.2946 31.552 25.549 31.552V32.902ZM25.549 53V54.35C26.2946 54.35 26.899 53.7456 26.899 53H25.549ZM44.1765 53H42.8265C42.8265 53.7456 43.4309 54.35 44.1765 54.35V53ZM44.1765 3V1.65C43.4309 1.65 42.8265 2.25442 42.8265 3L44.1765 3ZM53 3H54.35C54.35 2.25442 53.7456 1.65 53 1.65V3ZM53 53V54.35C53.7456 54.35 54.35 53.7456 54.35 53H53ZM30.4601 53H29.1101C29.1101 53.7456 29.7145 54.35 30.4601 54.35V53ZM30.4601 25.5034V24.1534C29.7145 24.1534 29.1101 24.7578 29.1101 25.5034H30.4601ZM39.2836 25.5034H40.6336C40.6336 24.7578 40.0292 24.1534 39.2836 24.1534V25.5034ZM39.2836 53V54.35C40.0292 54.35 40.6336 53.7456 40.6336 53H39.2836ZM6.1551 26.3256C5.54133 26.7489 5.38691 27.5896 5.81021 28.2034C6.2335 28.8172 7.07421 28.9716 7.68798 28.5483L6.1551 26.3256ZM21.9037 18.7444C22.5174 18.3211 22.6719 17.4803 22.2486 16.8666C21.8253 16.2528 20.9846 16.0984 20.3708 16.5217L21.9037 18.7444ZM4.35 53V46.1373H1.65V53H4.35ZM3 47.4873H11.8235V44.7873H3V47.4873ZM10.4735 46.1373V53H13.1735V46.1373H10.4735ZM11.8235 51.65H3V54.35H11.8235V51.65ZM18.0755 53V32.902H15.3755V53H18.0755ZM16.7255 34.252H25.549V31.552H16.7255V34.252ZM24.199 32.902V53H26.899V32.902H24.199ZM25.549 51.65H16.7255V54.35H25.549V51.65ZM45.5265 53V3H42.8265V53H45.5265ZM44.1765 4.35H53V1.65H44.1765V4.35ZM51.65 3V53H54.35V3H51.65ZM53 51.65H44.1765V54.35H53V51.65ZM35.9637 12.7313C35.9637 16.8588 32.6177 20.2048 28.4902 20.2048V22.9048C34.1089 22.9048 38.6637 18.35 38.6637 12.7313H35.9637ZM28.4902 20.2048C24.3627 20.2048 21.0167 16.8588 21.0167 12.7313H18.3167C18.3167 18.35 22.8715 22.9048 28.4902 22.9048V20.2048ZM21.0167 12.7313C21.0167 8.60378 24.3627 5.25777 28.4902 5.25777V2.55777C22.8715 2.55777 18.3167 7.11261 18.3167 12.7313H21.0167ZM28.4902 5.25777C32.6177 5.25777 35.9637 8.60378 35.9637 12.7313H38.6637C38.6637 7.11261 34.1089 2.55777 28.4902 2.55777V5.25777ZM31.8101 53V25.5034H29.1101V53H31.8101ZM30.4601 26.8534H39.2836V24.1534H30.4601V26.8534ZM37.9336 25.5034V53H40.6336V25.5034H37.9336ZM39.2836 51.65H30.4601V54.35H39.2836V51.65ZM7.68798 28.5483L21.9037 18.7444L20.3708 16.5217L6.1551 26.3256L7.68798 28.5483Z" fill="#D0B07C"/>
</svg>
