<svg width="56" height="56" viewBox="0 0 56 56" fill="none" xmlns="http://www.w3.org/2000/svg">
<path d="M42.4736 14.5345V14.5612M22.7368 11.1894L18.7895 9.18229M18.7895 9.18229L3 17.2106V52L18.7895 43.9717M18.7895 9.18229V43.9717M18.7895 43.9717L34.5789 52M34.5789 52L50.3684 43.9717V38.6195M34.5789 52V38.6194M42.4737 33.2672L33.2632 19.8867C32.3765 18.257 31.9233 16.4203 31.9484 14.558C31.9734 12.6957 32.4759 10.8723 33.406 9.2679C34.3362 7.66351 35.6619 6.33369 37.2522 5.40981C38.8424 4.48594 40.6422 4 42.4737 4C44.3052 4 46.105 4.48594 47.6952 5.40981C49.2855 6.33369 50.6112 7.66351 51.5414 9.2679C52.4715 10.8723 52.974 12.6957 52.999 14.558C53.0241 16.4203 52.5709 18.257 51.6842 19.8867L42.4737 33.2672Z" stroke="#D0B07C" stroke-width="2.7" stroke-linecap="round" stroke-linejoin="round"/>
</svg>
