<svg width="56" height="56" viewBox="0 0 56 56" fill="none" xmlns="http://www.w3.org/2000/svg">
<path d="M33.5555 36.3333V41.8889C33.5555 42.6256 33.2629 43.3321 32.7419 43.8531C32.221 44.374 31.5145 44.6667 30.7778 44.6667H11.3333L3 53V25.2222C3 24.4855 3.29266 23.779 3.81359 23.2581C4.33453 22.7371 5.04106 22.4445 5.77778 22.4445H11.3333M52.9999 33.5555L44.6666 25.2222H25.2222C24.4855 25.2222 23.7789 24.9295 23.258 24.4086C22.7371 23.8877 22.4444 23.1811 22.4444 22.4444V5.77778C22.4444 5.04106 22.7371 4.33453 23.258 3.81359C23.7789 3.29266 24.4855 3 25.2222 3H50.2222C50.9589 3 51.6654 3.29266 52.1863 3.81359C52.7073 4.33453 52.9999 5.04106 52.9999 5.77778V33.5555Z" stroke="#D0B07C" stroke-width="2.7" stroke-linecap="round" stroke-linejoin="round"/>
</svg>
