<svg width="68" height="50" viewBox="0 0 68 50" fill="none" xmlns="http://www.w3.org/2000/svg">
<path d="M34 9L35.1262 8.2556C34.8763 7.87747 34.4533 7.65 34 7.65C33.5467 7.65 33.1237 7.87747 32.8738 8.2556L34 9ZM46.8889 28.5L45.7627 29.2444C46.1463 29.8248 46.9081 30.0186 47.5225 29.6921L46.8889 28.5ZM61 21L62.3321 21.2193C62.4155 20.7128 62.2043 20.2028 61.7874 19.9034C61.3704 19.604 60.8197 19.567 60.3664 19.8079L61 21ZM56.5556 48V49.35C57.2165 49.35 57.7803 48.8714 57.8876 48.2193L56.5556 48ZM11.4444 48L10.1124 48.2193C10.2197 48.8714 10.7835 49.35 11.4444 49.35V48ZM7 21L7.63359 19.8079C7.18031 19.567 6.62961 19.604 6.21263 19.9034C5.79565 20.2028 5.58455 20.7128 5.66793 21.2193L7 21ZM21.1111 28.5L20.4775 29.6921C21.0919 30.0186 21.8537 29.8248 22.2373 29.2444L21.1111 28.5ZM32.8738 9.7444L45.7627 29.2444L48.0151 27.7556L35.1262 8.2556L32.8738 9.7444ZM47.5225 29.6921L61.6336 22.1921L60.3664 19.8079L46.2553 27.3079L47.5225 29.6921ZM59.6679 20.7807L55.2235 47.7807L57.8876 48.2193L62.3321 21.2193L59.6679 20.7807ZM56.5556 46.65H11.4444V49.35H56.5556V46.65ZM12.7765 47.7807L8.33207 20.7807L5.66793 21.2193L10.1124 48.2193L12.7765 47.7807ZM6.36641 22.1921L20.4775 29.6921L21.7447 27.3079L7.63359 19.8079L6.36641 22.1921ZM22.2373 29.2444L35.1262 9.7444L32.8738 8.2556L19.9849 27.7556L22.2373 29.2444ZM35.65 5C35.65 5.91127 34.9113 6.65 34 6.65V9.35C36.4024 9.35 38.35 7.40244 38.35 5H35.65ZM34 6.65C33.0887 6.65 32.35 5.91127 32.35 5H29.65C29.65 7.40244 31.5976 9.35 34 9.35V6.65ZM32.35 5C32.35 4.08873 33.0887 3.35 34 3.35V0.65C31.5976 0.65 29.65 2.59756 29.65 5H32.35ZM34 3.35C34.9113 3.35 35.65 4.08873 35.65 5H38.35C38.35 2.59756 36.4024 0.65 34 0.65V3.35ZM64.65 18C64.65 18.9113 63.9113 19.65 63 19.65V22.35C65.4024 22.35 67.35 20.4024 67.35 18H64.65ZM63 19.65C62.0887 19.65 61.35 18.9113 61.35 18H58.65C58.65 20.4024 60.5976 22.35 63 22.35V19.65ZM61.35 18C61.35 17.0887 62.0887 16.35 63 16.35V13.65C60.5976 13.65 58.65 15.5976 58.65 18H61.35ZM63 16.35C63.9113 16.35 64.65 17.0887 64.65 18H67.35C67.35 15.5976 65.4024 13.65 63 13.65V16.35ZM6.65 18C6.65 18.9113 5.91127 19.65 5 19.65V22.35C7.40244 22.35 9.35 20.4024 9.35 18H6.65ZM5 19.65C4.08873 19.65 3.35 18.9113 3.35 18H0.65C0.65 20.4024 2.59756 22.35 5 22.35V19.65ZM3.35 18C3.35 17.0887 4.08873 16.35 5 16.35V13.65C2.59756 13.65 0.65 15.5976 0.65 18H3.35ZM5 16.35C5.91127 16.35 6.65 17.0887 6.65 18H9.35C9.35 15.5976 7.40244 13.65 5 13.65V16.35ZM11 44.35L57 44.35V41.65L11 41.65V44.35Z" fill="#D0B07C"/>
</svg>
