<svg width="54" height="50" viewBox="0 0 54 50" fill="none" xmlns="http://www.w3.org/2000/svg">
<path d="M27 4.70584H21.4444C20.7077 4.70584 20.0012 4.99092 19.4803 5.49838C18.9593 6.00583 18.6667 6.69408 18.6667 7.41173C18.6667 8.84702 18.0813 10.2235 17.0395 11.2384C15.9976 12.2533 14.5845 12.8235 13.1111 12.8235H7.55556C6.08213 12.8235 4.66905 13.3937 3.62718 14.4086C2.58532 15.4235 2 16.8 2 18.2353V42.5882C2 44.0235 2.58532 45.4 3.62718 46.4149C4.66905 47.4298 6.08213 48 7.55556 48H46.4444C47.9179 48 49.3309 47.4298 50.3728 46.4149C51.4147 45.4 52 44.0235 52 42.5882V23.647M35.3333 10.1177H43.6667M43.6667 10.1177H52M43.6667 10.1177V2M43.6667 10.1177V18.2353M34.8125 29.0588C34.8125 33.5421 31.6024 37.1765 27 37.1765C22.3976 37.1765 19.1875 33.5421 19.1875 29.0588C19.1875 24.5755 22.3976 20.9411 27 20.9411C31.6024 20.9411 34.8125 24.5755 34.8125 29.0588Z" stroke="#D0B07C" stroke-width="2.7" stroke-linecap="round" stroke-linejoin="round"/>
</svg>
