<svg width="44" height="54" viewBox="0 0 44 54" fill="none" xmlns="http://www.w3.org/2000/svg">
<path d="M13.4286 5.56555H7.71429C6.19876 5.56555 4.74531 6.17707 3.67368 7.26559C2.60204 8.35411 2 9.83046 2 11.3699V46.1957C2 47.7351 2.60204 49.2114 3.67368 50.3C4.74531 51.3885 6.19876 52 7.71429 52H36.2857C37.8012 52 39.2547 51.3885 40.3263 50.3C41.398 49.2114 42 47.7351 42 46.1957V11.3699C42 9.83046 41.398 8.35411 40.3263 7.26559C39.2547 6.17707 37.8012 5.56555 36.2857 5.56555H30.5714M28.5667 23.0002C28.1742 22.2669 27.6039 21.6625 26.9169 21.2515C26.2299 20.8404 25.4521 20.6384 24.6667 20.6668H20.3333C19.1841 20.6668 18.0819 21.1585 17.2692 22.0337C16.4566 22.9088 16 24.0958 16 25.3335C16 26.5712 16.4566 27.7582 17.2692 28.6333C18.0819 29.5085 19.1841 30.0002 20.3333 30.0002H24.6667C25.8159 30.0002 26.9181 30.4918 27.7308 31.367C28.5435 32.2422 29 33.4292 29 34.6668C29 35.9045 28.5435 37.0915 27.7308 37.9667C26.9181 38.8418 25.8159 39.3335 24.6667 39.3335H20.3333C19.5479 39.362 18.7701 39.1599 18.0831 38.7489C17.3961 38.3379 16.8258 37.7334 16.4333 37.0002M22.5 16.0001V20.6668M22.5 39.3334V44.0001M17.4286 2H27.0612C28.8646 2 30.3265 3.55921 30.3265 5.48258C30.3265 7.40596 28.8646 8.96517 27.0612 8.96517H17.4286C15.6252 8.96517 14.1633 7.40596 14.1633 5.48258C14.1633 3.55921 15.6252 2 17.4286 2Z" stroke="#D0B07C" stroke-width="2.7" stroke-linecap="round" stroke-linejoin="round"/>
</svg>
