<svg width="122" height="30" viewBox="0 0 122 30" fill="none" xmlns="http://www.w3.org/2000/svg">
<path fill-rule="evenodd" clip-rule="evenodd" d="M7.03768 0.0484457C7.02164 0.0743398 6.93668 0.095526 6.84889 0.095526C6.7611 0.095526 6.67614 0.116712 6.6601 0.142606C6.64405 0.1685 6.55909 0.189687 6.4713 0.189687C6.38352 0.189687 6.29856 0.210873 6.28251 0.236767C6.26646 0.262661 6.21639 0.283847 6.17122 0.283847C6.07371 0.283847 4.91829 0.85592 4.79983 0.962887C4.75456 1.00371 4.69594 1.03713 4.66956 1.03713C4.64317 1.03713 4.58314 1.0795 4.53618 1.13129C4.48921 1.18308 4.42918 1.22545 4.40279 1.22545C4.33771 1.22545 3.23832 2.31861 3.23827 2.38339C3.23822 2.41174 3.19575 2.47332 3.14383 2.52016C3.09191 2.56701 3.04943 2.63127 3.04943 2.66296C3.04943 2.6946 3.01852 2.7461 2.98071 2.77736C2.90316 2.84158 2.57745 3.47909 2.57745 3.56666C2.57745 3.59802 2.53497 3.69915 2.48305 3.79133C2.43113 3.88351 2.38866 4.02066 2.38866 4.09599C2.38866 4.17136 2.36742 4.24613 2.34146 4.26213C2.3155 4.27814 2.29426 4.36289 2.29426 4.45046C2.29426 4.53803 2.27302 4.62277 2.24706 4.63878C2.2211 4.65478 2.19986 4.80309 2.19986 4.96834C2.19986 5.13359 2.17862 5.28189 2.15266 5.2979C2.0905 5.33623 2.0905 6.34243 2.15266 6.38075C2.17862 6.39676 2.19986 6.54628 2.19986 6.71309C2.19986 6.88385 2.22049 7.01633 2.24706 7.01633C2.27302 7.01633 2.29426 7.09981 2.29426 7.20188C2.29426 7.30395 2.3155 7.40051 2.34146 7.41652C2.36742 7.43252 2.38866 7.51727 2.38866 7.60484C2.38866 7.69241 2.4099 7.77715 2.43585 7.79316C2.46181 7.80917 2.48305 7.87395 2.48305 7.93718C2.48305 8.00041 2.50429 8.0521 2.53025 8.0521C2.55621 8.0521 2.57745 8.1038 2.57745 8.16702C2.57745 8.23025 2.59869 8.29504 2.62465 8.31104C2.65061 8.32705 2.67185 8.38124 2.67185 8.43152C2.67185 8.4818 2.69308 8.5229 2.71904 8.5229C2.745 8.5229 2.76624 8.56349 2.76624 8.61306C2.76624 8.69851 3.12122 9.41456 3.18834 9.46451C3.20575 9.47746 3.247 9.55467 3.28 9.63612C3.31299 9.71757 3.37614 9.8235 3.42032 9.87152C3.46454 9.91954 3.56974 10.0615 3.65414 10.1871C3.73857 10.3126 3.9579 10.5933 4.14155 10.8109C4.48827 11.2215 4.51513 11.3133 4.31128 11.3906C4.2511 11.4134 4.17365 11.4661 4.13905 11.5076C4.1045 11.5491 4.05027 11.5831 4.01855 11.5831C3.98679 11.5831 3.92236 11.6255 3.8754 11.6773C3.82844 11.7291 3.76472 11.7714 3.73381 11.7714C3.70289 11.7714 3.63917 11.8138 3.59221 11.8656C3.54525 11.9174 3.48252 11.9598 3.45288 11.9598C3.42324 11.9598 3.31601 12.0445 3.21463 12.1481C3.11324 12.2517 3.00714 12.3364 2.97887 12.3364C2.9506 12.3364 2.83279 12.4338 2.71706 12.5527C2.60133 12.6718 2.47031 12.7832 2.42594 12.8003C2.31451 12.8433 1.35029 13.7978 1.35029 13.8651C1.35029 13.895 1.28658 13.9804 1.2087 14.0548C1.13082 14.1293 1.06711 14.2154 1.06711 14.2462C1.06711 14.277 1.03666 14.3275 0.999423 14.3583C0.962183 14.3891 0.808884 14.6618 0.658746 14.9643C0.508608 15.2668 0.369137 15.5214 0.348842 15.53C0.328547 15.5387 0.311933 15.6063 0.311933 15.6802C0.311933 15.7543 0.290694 15.8279 0.264735 15.8439C0.238776 15.8599 0.217537 15.9235 0.217537 15.9851C0.217537 16.0468 0.196298 16.1104 0.170338 16.1264C0.144379 16.1424 0.12314 16.2054 0.12314 16.2665C0.12314 16.3275 0.0966148 16.3863 0.0641424 16.3971C-0.0213808 16.4255 -0.0213808 19.4142 0.0641424 19.4996C0.0966148 19.532 0.12314 19.6179 0.12314 19.6904C0.12314 19.7629 0.144379 19.8222 0.170338 19.8222C0.196298 19.8222 0.217537 19.8857 0.217537 19.9634C0.217537 20.0411 0.238776 20.1047 0.264735 20.1047C0.290694 20.1047 0.311933 20.1564 0.311933 20.2196C0.311933 20.2828 0.333172 20.3476 0.359131 20.3636C0.385091 20.3796 0.40633 20.4338 0.40633 20.4841C0.40633 20.5344 0.427569 20.5755 0.453528 20.5755C0.479487 20.5755 0.500726 20.6066 0.500726 20.6447C0.500726 20.6827 0.543205 20.7886 0.595123 20.8801C0.647041 20.9715 0.734122 21.1257 0.788635 21.2228C0.843149 21.3199 0.944059 21.4722 1.01283 21.5612C1.08164 21.6502 1.15976 21.7612 1.18647 21.8078C1.23919 21.8998 1.91011 22.5954 2.13534 22.7915C2.43203 23.0498 3.05061 23.4388 3.52141 23.6631C3.76788 23.7806 3.85317 23.8172 4.09959 23.9119C4.27668 23.9799 4.48431 24.068 4.57091 24.112C4.61599 24.1349 4.69594 24.1536 4.74857 24.1536C4.80119 24.1536 4.88115 24.1722 4.92622 24.1949C5.06258 24.2636 5.33902 24.3419 5.44531 24.3419C5.50034 24.3419 5.55693 24.3605 5.57105 24.3834C5.61074 24.4474 5.75701 24.4781 6.73089 24.627C7.81438 24.7926 9.68371 24.7508 10.8843 24.5342C11.0271 24.5085 11.2183 24.4744 11.3091 24.4585C11.4 24.4426 11.5168 24.4125 11.5687 24.3916C11.6206 24.3707 11.7225 24.3298 11.7951 24.3007C11.8677 24.2716 11.978 24.2477 12.0401 24.2477C12.1023 24.2477 12.1662 24.2265 12.1823 24.2007C12.1983 24.1748 12.2633 24.1536 12.3267 24.1536C12.3901 24.1536 12.4419 24.1324 12.4419 24.1065C12.4419 24.0806 12.4846 24.0594 12.5369 24.0594C12.5892 24.0594 12.6689 24.0407 12.7139 24.0178C12.759 23.995 12.8596 23.9501 12.9375 23.9182C13.0153 23.8862 13.1159 23.8414 13.161 23.8185C13.2061 23.7956 13.2857 23.7769 13.338 23.7769C13.3903 23.7769 13.433 23.7557 13.433 23.7298C13.433 23.704 13.4627 23.6828 13.499 23.6828C13.5354 23.6828 13.6893 23.6162 13.8412 23.5349C13.9931 23.4536 14.2449 23.3213 14.4006 23.241C14.5564 23.1606 14.6944 23.0827 14.7074 23.0679C14.7204 23.0531 14.8353 22.9702 14.9628 22.8836L15.1946 22.7262L15.3404 22.9102C15.4205 23.0114 15.5724 23.1896 15.6778 23.3061C15.7832 23.4226 15.9157 23.5788 15.9722 23.653C16.0287 23.7273 16.1693 23.8915 16.2846 24.0179L16.4943 24.2477H19.4919C21.1406 24.2477 22.5003 24.2303 22.5136 24.2089C22.5268 24.1876 22.3974 24.0128 22.2259 23.8205C22.0544 23.6282 21.8803 23.4298 21.8388 23.3795C21.7974 23.3292 21.7014 23.2233 21.6254 23.1441C21.5495 23.0649 21.3548 22.8412 21.1927 22.647C21.0307 22.4528 20.8592 22.2583 20.8116 22.2148C20.7641 22.1713 20.7039 22.1077 20.678 22.0736C20.6246 22.0033 19.9286 21.2174 19.6223 20.8815C19.575 20.8297 19.3919 20.6178 19.2152 20.4107C19.0385 20.2035 18.7909 19.9246 18.665 19.7908C18.5391 19.6571 18.4361 19.5151 18.4361 19.4755C18.4361 19.4358 18.4923 19.3439 18.561 19.2714C18.6609 19.1659 19.1416 18.2327 19.3322 17.7742C19.4729 17.4357 19.7643 16.6251 19.8738 16.2676C20.2032 15.1921 20.566 13.7262 20.5787 13.4193L20.5836 13.3016H17.9169H15.2502L15.235 13.4663C15.2267 13.557 15.2001 13.6512 15.176 13.6758C15.1519 13.7004 15.1322 13.8104 15.1322 13.9202C15.1322 14.0301 15.1109 14.133 15.085 14.149C15.059 14.165 15.0378 14.2498 15.0378 14.3373C15.0378 14.4249 15.0165 14.5096 14.9906 14.5256C14.9646 14.5417 14.9434 14.6264 14.9434 14.714C14.9434 14.8015 14.9222 14.8863 14.8962 14.9023C14.8702 14.9183 14.849 15.0043 14.849 15.0934C14.849 15.1825 14.8286 15.2554 14.8037 15.2554C14.755 15.2554 14.3772 14.8662 14.2157 14.6497C14.1258 14.5292 13.6043 13.9417 13.2735 13.5881C13.1988 13.5082 13.0211 13.2998 12.8788 13.125C12.7365 12.9502 12.592 12.8072 12.5577 12.8072C12.5234 12.8072 12.4143 12.7066 12.3152 12.5836C12.2162 12.4606 12.067 12.2863 11.9839 12.1962L11.8326 12.0325L11.9839 11.9426C12.8685 11.4168 13.5022 10.9406 14.0602 10.3826C14.8404 9.60222 15.1876 9.12902 15.6248 8.25031C16.0841 7.32716 16.277 6.53852 16.278 5.58038C16.2785 5.01123 16.2456 4.72804 16.1165 4.19151C15.8699 3.16719 15.1641 2.07869 14.2943 1.38157C14.1711 1.28275 14.0631 1.186 14.0545 1.1666C14.0458 1.14716 14.0157 1.13129 13.9874 1.13129C13.9592 1.13129 13.8989 1.09777 13.8535 1.05676C13.7437 0.957614 13.5307 0.837606 13.1027 0.633513C12.908 0.540718 12.7118 0.445239 12.6667 0.421416C12.6217 0.397546 12.5433 0.378008 12.4925 0.378008C12.4418 0.378008 12.3871 0.356822 12.3711 0.330928C12.355 0.305033 12.2795 0.283847 12.2031 0.283847C12.1267 0.283847 12.0643 0.262661 12.0643 0.236767C12.0643 0.210873 12.0006 0.189687 11.9227 0.189687C11.8448 0.189687 11.7811 0.1685 11.7811 0.142606C11.7811 0.116712 11.708 0.095526 11.6187 0.095526C11.5294 0.095526 11.4432 0.0743398 11.4271 0.0484457C11.3871 -0.0161485 7.07771 -0.0161485 7.03768 0.0484457ZM45.1503 12.1245V24.2477H48.3362H51.522V12.1245V0.00136533H48.3362H45.1503V12.1245ZM115.759 8.35534C115.759 14.3096 115.774 16.7184 115.81 16.7409C115.838 16.7582 116.587 16.7694 117.474 16.7656C119.287 16.7579 119.177 16.7813 119.229 16.3907C119.245 16.2712 119.299 15.951 119.348 15.6791C119.398 15.4072 119.514 14.7293 119.607 14.1725C119.699 13.6158 119.818 12.9379 119.871 12.666C119.923 12.3941 119.976 12.1081 119.989 12.0304C120.054 11.6356 120.158 11.0126 120.199 10.7828C120.224 10.6403 120.264 10.3967 120.288 10.2413C120.312 10.086 120.377 9.70462 120.432 9.39389C120.593 8.47691 120.656 8.10733 120.763 7.44006C120.786 7.29764 120.828 7.054 120.856 6.89863C120.885 6.74327 120.918 6.54435 120.931 6.4566C120.943 6.36884 120.963 6.28127 120.975 6.26197C120.987 6.24262 121.017 6.09196 121.042 5.92713C121.067 5.7623 121.174 5.119 121.281 4.49754C121.388 3.87608 121.494 3.25108 121.517 3.10867C121.54 2.96625 121.582 2.72261 121.61 2.56724C121.637 2.41188 121.68 2.15764 121.704 2.00228C121.728 1.84691 121.794 1.46556 121.85 1.15483C121.906 0.844103 121.963 0.457479 121.976 0.295617L122 0.00136533H118.879H115.759V8.35534ZM9.8178 4.69551C10.1189 4.8013 10.6955 5.35035 10.6955 5.53133C10.6955 5.57125 10.7168 5.60392 10.7427 5.60392C10.7687 5.60392 10.7899 5.66621 10.7899 5.74239C10.7899 5.81856 10.8112 5.89394 10.8371 5.90995C10.8631 5.92595 10.8843 6.06366 10.8843 6.21597C10.8843 6.36827 10.8631 6.50598 10.8371 6.52199C10.8112 6.538 10.7899 6.60796 10.7899 6.6774C10.7899 6.84087 10.3987 7.62762 10.2465 7.77028C10.1819 7.83073 10.1292 7.90196 10.1292 7.92861C10.1292 7.99184 9.84149 8.2875 9.77995 8.2875C9.75385 8.2875 9.66309 8.35459 9.57827 8.43661C9.37782 8.63039 9.21791 8.6286 8.92193 8.42907C8.34772 8.04198 7.89112 7.44236 7.64069 6.74633C7.53898 6.46361 7.53024 5.83316 7.62492 5.60392C7.89797 4.94273 8.54132 4.54132 9.25142 4.58906C9.43063 4.60111 9.6855 4.64899 9.8178 4.69551ZM34.2239 5.32144C34.2078 5.34734 34.0379 5.36852 33.8463 5.36852C33.6547 5.36852 33.4847 5.38971 33.4687 5.4156C33.4527 5.4415 33.3465 5.46268 33.2327 5.46268C33.119 5.46268 33.0128 5.48387 32.9967 5.50976C32.9807 5.53566 32.8957 5.55684 32.8079 5.55684C32.7201 5.55684 32.6352 5.57803 32.6191 5.60392C32.6031 5.62982 32.5494 5.651 32.4998 5.651C32.4502 5.651 32.334 5.69338 32.2415 5.74516C32.1491 5.79695 32.0476 5.83918 32.0159 5.839C31.9538 5.83862 31.1233 6.23216 30.684 6.47011C30.6321 6.49821 30.418 6.68682 30.2083 6.88922C29.7142 7.36595 29.7014 7.35432 29.7237 6.45076C29.7392 5.82007 29.7355 5.78697 29.6456 5.76541C29.5937 5.75293 28.1813 5.74855 26.507 5.75571L23.4627 5.7687L23.4508 17.8399C23.4436 25.1043 23.4561 29.9317 23.4822 29.963C23.5133 30.0005 24.3896 30.0085 26.6091 29.9915L29.6928 29.968L29.7049 26.3075C29.7116 24.2942 29.7241 22.647 29.7329 22.647C29.7416 22.647 29.9167 22.8163 30.122 23.0231C30.3272 23.23 30.52 23.3995 30.5503 23.3998C30.5805 23.4001 30.6124 23.4177 30.6211 23.4388C30.6527 23.5164 31.2142 23.859 31.628 24.0531C31.8616 24.1628 32.0896 24.2726 32.1347 24.2972C32.1798 24.3218 32.2594 24.3419 32.3117 24.3419C32.364 24.3419 32.4067 24.3608 32.4067 24.3838C32.4067 24.4069 32.4757 24.4371 32.5601 24.451C32.6445 24.465 32.8091 24.5005 32.9259 24.5301C33.9713 24.7948 35.6482 24.7961 36.749 24.5331C36.8658 24.5052 37.0309 24.4691 37.1159 24.4529C37.2009 24.4367 37.2818 24.405 37.2957 24.3826C37.3096 24.3602 37.3625 24.3419 37.4132 24.3419C37.4639 24.3419 37.5423 24.3232 37.5874 24.3003C37.6639 24.2615 37.777 24.2138 38.0351 24.1115C38.6799 23.856 39.585 23.3214 39.9367 22.9883C39.971 22.956 40.012 22.9295 40.0279 22.9295C40.0586 22.9295 40.3622 22.6611 40.5678 22.4522C40.635 22.384 40.7576 22.2357 40.8402 22.1227C40.9228 22.0097 41.0572 21.8493 41.1388 21.7663C41.363 21.5382 42.0352 20.6216 42.0352 20.544C42.0352 20.5305 42.0749 20.4631 42.1234 20.3944C42.3017 20.1421 42.8464 19.0339 42.9832 18.6452C43.1574 18.1506 43.3285 17.5035 43.4004 17.068C43.4303 16.8867 43.4802 16.6113 43.5111 16.4559C43.5923 16.0487 43.5875 13.9199 43.5044 13.4663C43.4416 13.1235 43.2486 12.2693 43.1692 11.9833C42.9895 11.3352 42.5455 10.2972 42.2376 9.80495C42.1522 9.66846 42.0824 9.54732 42.0824 9.5357C42.0824 9.47303 41.3816 8.45737 41.2861 8.38166C41.2596 8.36067 41.1042 8.17507 40.7561 7.74862C40.6416 7.60837 40.2592 7.22349 40.0395 7.0273C39.7585 6.77651 39.0174 6.31013 38.8999 6.31013C38.8644 6.31013 38.7142 6.24657 38.5661 6.16889C38.4181 6.09121 38.2566 6.02765 38.2073 6.02765C38.158 6.02765 38.1175 6.01173 38.1174 5.99234C38.1169 5.94516 37.884 5.83933 37.7807 5.83933C37.7355 5.83933 37.6854 5.81814 37.6693 5.79224C37.6533 5.76635 37.5896 5.74516 37.5278 5.74516C37.4659 5.74516 37.4022 5.72398 37.3862 5.69808C37.3701 5.67219 37.3064 5.651 37.2446 5.651C37.1827 5.651 37.119 5.62982 37.103 5.60392C37.0869 5.57803 37.002 5.55684 36.9142 5.55684C36.8264 5.55684 36.7414 5.53566 36.7254 5.50976C36.7093 5.48387 36.6031 5.46268 36.4894 5.46268C36.3756 5.46268 36.2694 5.4415 36.2534 5.4156C36.2374 5.38971 36.0462 5.36852 35.8286 5.36852C35.611 5.36852 35.4199 5.34734 35.4038 5.32144C35.387 5.29432 35.1368 5.27436 34.8139 5.27436C34.4909 5.27436 34.2407 5.29432 34.2239 5.32144ZM61.3157 5.32144C61.2996 5.34734 61.1297 5.36852 60.9381 5.36852C60.7465 5.36852 60.5765 5.38971 60.5605 5.4156C60.5444 5.4415 60.4383 5.46268 60.3245 5.46268C60.2108 5.46268 60.1046 5.48387 60.0885 5.50976C60.0725 5.53566 59.9875 5.55684 59.8997 5.55684C59.8119 5.55684 59.727 5.57803 59.7109 5.60392C59.6949 5.62982 59.6099 5.651 59.5221 5.651C59.4343 5.651 59.3494 5.67219 59.3333 5.69808C59.3173 5.72398 59.2636 5.74516 59.214 5.74516C59.1644 5.74516 59.0482 5.78754 58.9558 5.83933C58.8633 5.89111 58.7595 5.93349 58.725 5.93349C58.6482 5.93349 58.0831 6.21672 57.9962 6.29878C57.9617 6.33141 57.9137 6.34596 57.8897 6.33113C57.8656 6.3163 57.7844 6.34789 57.7092 6.40132C57.634 6.45476 57.5525 6.49845 57.5281 6.49845C57.5036 6.49845 57.4452 6.54082 57.3982 6.59261C57.3512 6.6444 57.2875 6.68677 57.2566 6.68677C57.2257 6.68677 57.162 6.72914 57.115 6.78093C57.0681 6.83272 57.0053 6.87509 56.9757 6.87509C56.9461 6.87509 56.8388 6.95984 56.7374 7.06341C56.6361 7.16699 56.5304 7.25174 56.5027 7.25174C56.4385 7.25174 55.6283 8.06128 55.6283 8.12541C55.6283 8.15177 55.5221 8.27766 55.3923 8.4052C55.2625 8.53274 55.1563 8.66038 55.1563 8.68886C55.1563 8.71739 55.0926 8.80157 55.0147 8.87601C54.9368 8.95044 54.8731 9.03655 54.8731 9.06739C54.8731 9.09818 54.8409 9.15011 54.8015 9.18273C54.762 9.21536 54.6947 9.31861 54.6519 9.41216C54.6091 9.50566 54.5438 9.61795 54.5066 9.66159C54.416 9.76823 53.8347 10.9291 53.8347 11.0035C53.8347 11.0359 53.7923 11.1378 53.7403 11.23C53.6884 11.3222 53.646 11.4394 53.646 11.4904C53.646 11.5414 53.6247 11.5831 53.5988 11.5831C53.5728 11.5831 53.5516 11.6454 53.5516 11.7216C53.5516 11.7978 53.5303 11.8731 53.5044 11.8891C53.4784 11.9052 53.4572 11.9899 53.4572 12.0775C53.4572 12.165 53.4359 12.2498 53.41 12.2658C53.384 12.2818 53.3628 12.3665 53.3628 12.4541C53.3628 12.5417 53.3415 12.6264 53.3156 12.6424C53.2896 12.6584 53.2684 12.722 53.2684 12.7837C53.2684 12.8453 53.2471 12.9089 53.2212 12.9249C53.1952 12.9409 53.174 13.068 53.174 13.2074C53.174 13.3468 53.1527 13.4739 53.1268 13.4899C53.1007 13.5059 53.0796 13.7179 53.0796 13.9635C53.0796 14.2284 53.0605 14.4079 53.0324 14.4079C53.0033 14.4079 52.9852 14.6512 52.9852 15.0435C52.9852 15.4358 53.0033 15.6791 53.0324 15.6791C53.0607 15.6791 53.0796 15.8674 53.0796 16.1499C53.0796 16.4324 53.0985 16.6207 53.1268 16.6207C53.153 16.6207 53.174 16.7463 53.174 16.9032C53.174 17.0601 53.1949 17.1857 53.2212 17.1857C53.2471 17.1857 53.2684 17.2916 53.2684 17.4211C53.2684 17.5506 53.2896 17.6565 53.3156 17.6565C53.3415 17.6565 53.3628 17.7412 53.3628 17.8448C53.3628 17.9484 53.384 18.0331 53.41 18.0331C53.4359 18.0331 53.4572 18.106 53.4572 18.1951C53.4572 18.2843 53.4784 18.3702 53.5044 18.3862C53.5303 18.4022 53.5516 18.4658 53.5516 18.5275C53.5516 18.5891 53.5728 18.6527 53.5988 18.6687C53.6247 18.6847 53.646 18.7483 53.646 18.81C53.646 18.8716 53.6672 18.9352 53.6931 18.9512C53.7191 18.9672 53.7403 19.0196 53.7403 19.0678C53.7403 19.1158 53.7563 19.1623 53.7757 19.1709C53.8267 19.1935 54.0235 19.5834 54.0235 19.6619C54.0235 19.6983 54.0448 19.728 54.0707 19.728C54.0967 19.728 54.1179 19.7687 54.1179 19.8183C54.1179 19.8679 54.1339 19.9155 54.1533 19.9242C54.1728 19.9328 54.2502 20.0564 54.3254 20.1988C54.4006 20.3412 54.4865 20.4895 54.5162 20.5284C54.546 20.5672 54.5996 20.6573 54.6353 20.7285C54.6711 20.7997 54.7153 20.8579 54.7338 20.8579C54.7522 20.8579 54.7937 20.9215 54.8259 20.9992C54.8581 21.0769 54.9018 21.1404 54.9229 21.1404C54.9439 21.1404 54.9734 21.1775 54.9884 21.2228C55.0034 21.2681 55.0738 21.3711 55.145 21.4517C55.2161 21.5322 55.332 21.6679 55.4026 21.7532C55.6197 22.0156 56.2092 22.6062 56.3834 22.7359C56.4743 22.8035 56.5911 22.8982 56.643 22.9462C56.7861 23.0785 57.5529 23.5886 57.6088 23.5886C57.6358 23.5886 57.6578 23.6058 57.6578 23.6269C57.6578 23.648 57.7321 23.6943 57.823 23.7298C57.9139 23.7654 57.9882 23.8078 57.9882 23.8241C57.9882 23.8657 58.3609 24.0594 58.4411 24.0594C58.4775 24.0594 58.5074 24.0806 58.5074 24.1065C58.5074 24.1324 58.5486 24.1536 58.599 24.1536C58.6494 24.1536 58.7037 24.1748 58.7198 24.2007C58.7358 24.2265 58.7995 24.2477 58.8614 24.2477C58.9232 24.2477 58.9869 24.2689 59.003 24.2948C59.019 24.3207 59.0827 24.3419 59.1446 24.3419C59.2064 24.3419 59.2686 24.3606 59.2828 24.3836C59.297 24.4064 59.3673 24.4373 59.439 24.4521C59.5107 24.4668 59.6755 24.502 59.8053 24.5303C60.3833 24.656 60.5529 24.6784 61.1977 24.7135C61.8948 24.7516 62.8724 24.7123 63.298 24.6292C63.815 24.5282 63.8086 24.53 64.124 24.4C64.1889 24.3733 64.3163 24.3258 64.4072 24.2944C64.6796 24.2006 65.5399 23.7667 65.5399 23.7232C65.5399 23.7009 65.5718 23.6828 65.6107 23.6828C65.6497 23.6828 65.6815 23.6616 65.6815 23.6357C65.6815 23.6098 65.7043 23.5886 65.7321 23.5886C65.7599 23.5886 65.8096 23.5621 65.8426 23.5298C65.8756 23.4974 65.9732 23.4179 66.0597 23.3532C66.146 23.2885 66.3618 23.0891 66.5391 22.9102L66.8615 22.5849V23.4166V24.2484L70.0355 24.2363L73.2096 24.2242V14.9964V5.7687H70.0473H66.8851L66.872 6.49379L66.8589 7.21887L66.4708 6.84218C66.2573 6.63498 65.9977 6.42835 65.8939 6.38301C65.5731 6.24285 65.47 6.19351 65.4455 6.16832C65.4325 6.155 65.3157 6.09417 65.1859 6.0332C65.0561 5.97223 64.8683 5.8825 64.7685 5.83377C64.6687 5.78504 64.5478 5.74516 64.4999 5.74516C64.4519 5.74516 64.3996 5.72398 64.3836 5.69808C64.3675 5.67219 64.3038 5.651 64.242 5.651C64.1801 5.651 64.1164 5.62982 64.1004 5.60392C64.0843 5.57803 64.0206 5.55684 63.9588 5.55684C63.8969 5.55684 63.8332 5.53566 63.8172 5.50976C63.8011 5.48387 63.7043 5.46268 63.602 5.46268C63.4997 5.46268 63.416 5.4415 63.416 5.4156C63.416 5.38844 63.2675 5.36852 63.0648 5.36852C62.8716 5.36852 62.7005 5.34734 62.6844 5.32144C62.6672 5.29371 62.3859 5.27436 62 5.27436C61.6142 5.27436 61.3328 5.29371 61.3157 5.32144ZM85.1036 5.32144C85.0872 5.34795 84.8602 5.36852 84.5844 5.36852C84.3086 5.36852 84.0816 5.3891 84.0652 5.4156C84.0492 5.4415 83.9005 5.46268 83.7348 5.46268C83.5692 5.46268 83.4205 5.48387 83.4044 5.50976C83.3884 5.53566 83.2822 5.55684 83.1685 5.55684C83.0547 5.55684 82.9485 5.57803 82.9325 5.60392C82.9164 5.62982 82.8102 5.651 82.6965 5.651C82.5827 5.651 82.4765 5.67219 82.4605 5.69808C82.4444 5.72398 82.3807 5.74516 82.3189 5.74516C82.2571 5.74516 82.1933 5.76635 82.1773 5.79224C82.1612 5.81814 82.0763 5.83933 81.9885 5.83933C81.9007 5.83933 81.8158 5.86051 81.7997 5.88641C81.7837 5.9123 81.7199 5.93349 81.6581 5.93349C81.5963 5.93349 81.5326 5.95467 81.5165 5.98057C81.5005 6.00646 81.4355 6.02765 81.3721 6.02765C81.3088 6.02765 81.2569 6.04883 81.2569 6.07473C81.2569 6.10062 81.2257 6.12181 81.1875 6.12181C81.1494 6.12181 81.042 6.16451 80.9488 6.21672C80.8556 6.26893 80.7222 6.3138 80.6524 6.31648C80.5085 6.32195 80.4455 6.34379 80.0661 6.52006C79.9174 6.58917 79.7833 6.66559 79.7682 6.68993C79.7532 6.71422 79.6478 6.77637 79.5342 6.82801C79.4205 6.87966 79.3143 6.94322 79.2982 6.96925C79.2821 6.99529 79.1799 7.05706 79.0711 7.10659C78.9624 7.15607 78.8219 7.25136 78.759 7.31831C78.696 7.38526 78.6201 7.44006 78.5902 7.44006C78.5603 7.44006 78.4844 7.49533 78.4214 7.56289C78.3585 7.6305 78.2695 7.69994 78.2236 7.71727C78.114 7.75865 76.6787 9.18603 76.6787 9.25359C76.6787 9.28222 76.615 9.36654 76.5371 9.44097C76.4592 9.5154 76.3955 9.60081 76.3955 9.6308C76.3955 9.66079 76.353 9.72369 76.3011 9.77053C76.2492 9.81738 76.2067 9.88094 76.2067 9.91177C76.2067 9.94261 76.1642 10.0062 76.1123 10.053C76.0604 10.0999 76.0179 10.1641 76.0179 10.1958C76.0179 10.2274 75.9863 10.2795 75.9477 10.3115C75.8359 10.404 75.5111 11.1152 75.4743 11.3477C75.4559 11.4642 75.4259 11.5808 75.4075 11.6067C75.3891 11.6326 75.347 11.7491 75.3139 11.8656C75.2807 11.9821 75.2344 12.1142 75.211 12.1592C75.1875 12.2042 75.1684 12.2836 75.1684 12.3358C75.1684 12.3879 75.1471 12.4306 75.1212 12.4306C75.0952 12.4306 75.074 12.514 75.074 12.6161C75.074 12.7182 75.0527 12.8147 75.0268 12.8308C75.0008 12.8468 74.9796 12.9103 74.9796 12.972C74.9796 13.0337 74.9583 13.0972 74.9324 13.1132C74.9064 13.1292 74.8852 13.2564 74.8852 13.3957C74.8852 13.5351 74.8639 13.6622 74.838 13.6782C74.8083 13.6965 74.7908 14.2123 74.7908 15.0698C74.7908 15.9468 74.8076 16.4324 74.838 16.4324C74.8641 16.4324 74.8852 16.557 74.8852 16.7121C74.8852 16.866 74.9064 17.0049 74.9324 17.0209C74.9583 17.0369 74.9796 17.1441 74.9796 17.2591C74.9796 17.3741 75.0008 17.4682 75.0268 17.4682C75.0527 17.4682 75.074 17.541 75.074 17.6302C75.074 17.7193 75.0952 17.8053 75.1212 17.8213C75.1471 17.8373 75.1684 17.9126 75.1684 17.9888C75.1684 18.065 75.1896 18.1273 75.2156 18.1273C75.2415 18.1273 75.2627 18.1908 75.2627 18.2685C75.2627 18.3462 75.284 18.4098 75.31 18.4098C75.3359 18.4098 75.3571 18.4615 75.3571 18.5247C75.3571 18.5879 75.377 18.6518 75.4012 18.6667C75.4254 18.6817 75.4703 18.8154 75.5011 18.9638C75.5318 19.1122 75.5728 19.2443 75.5923 19.2572C75.6117 19.2702 75.6708 19.3657 75.7236 19.4696C75.8375 19.6938 76.2979 20.4476 76.3415 20.4813C76.3683 20.5021 76.5619 20.7453 76.7724 21.0227C77.0075 21.3325 77.9562 22.2074 78.3256 22.4551C78.4192 22.5179 78.5064 22.5832 78.5194 22.6002C78.5792 22.6784 79.2785 23.1178 79.3433 23.1178C79.3834 23.1178 79.4162 23.135 79.4162 23.1561C79.4162 23.1772 79.4905 23.2235 79.5814 23.259C79.6722 23.2946 79.7466 23.3357 79.7466 23.3505C79.7466 23.3653 79.8156 23.4053 79.9 23.4395C79.9843 23.4736 80.135 23.5423 80.2348 23.5922C80.3346 23.642 80.4461 23.6828 80.4826 23.6828C80.5191 23.6828 80.549 23.704 80.549 23.7298C80.549 23.7557 80.5811 23.7769 80.6204 23.7769C80.6597 23.7769 80.734 23.7981 80.7856 23.824C80.8372 23.8499 80.9215 23.8923 80.9731 23.9182C81.0247 23.9441 81.1043 23.9657 81.1501 23.9663C81.1959 23.9669 81.2864 24.0088 81.3513 24.0594C81.4162 24.1101 81.5174 24.152 81.5762 24.1525C81.6349 24.1531 81.7199 24.1722 81.765 24.1949C81.9026 24.2643 82.1782 24.3419 82.2868 24.3419C82.3434 24.3419 82.3897 24.3631 82.3897 24.389C82.3897 24.4149 82.4734 24.4361 82.5757 24.4361C82.678 24.4361 82.7732 24.4546 82.7872 24.4772C82.8013 24.4999 82.9246 24.5314 83.0614 24.5474C83.1982 24.5633 83.4375 24.5981 83.5932 24.6247C84.8438 24.8379 86.4102 24.8388 87.8175 24.6271C87.9862 24.6017 88.2092 24.5683 88.3131 24.5527C88.4169 24.5371 88.5443 24.506 88.5963 24.4834C88.6482 24.4609 88.7544 24.4317 88.8322 24.4186C89.0809 24.3766 89.2544 24.3359 89.3514 24.2966C89.4033 24.2757 89.5414 24.2324 89.6582 24.2007C89.8648 24.1444 89.9432 24.1169 90.2128 24.006C90.2842 23.9767 90.3904 23.9343 90.4488 23.9119C90.7112 23.8111 90.7934 23.7743 91.2158 23.5686C92.0164 23.1785 92.6921 22.7465 92.9098 22.4854C92.9516 22.4354 93.129 22.2405 93.3043 22.0524C93.4795 21.8642 93.6229 21.6821 93.6229 21.6476C93.6229 21.6132 93.4848 21.4485 93.3161 21.2817C93.1473 21.1149 93.0093 20.9562 93.0093 20.9291C93.0093 20.902 92.8553 20.7211 92.6671 20.527C92.4789 20.333 92.1241 19.9573 91.8787 19.6921C91.6332 19.427 91.4088 19.2101 91.3799 19.2101C91.325 19.2101 90.4015 18.3017 90.3741 18.2207C90.3484 18.1452 90.2454 18.1676 90.1538 18.2685C90.1068 18.3203 90.0416 18.3627 90.0089 18.3627C89.9761 18.3627 89.8689 18.4474 89.7705 18.551C89.6721 18.6546 89.5667 18.7393 89.5363 18.7393C89.5059 18.7393 89.4553 18.7702 89.424 18.8079C89.3273 18.9241 88.6984 19.2101 88.5396 19.2101C88.457 19.2101 88.3763 19.2313 88.3603 19.2572C88.3442 19.2831 88.258 19.3043 88.1687 19.3043C88.0793 19.3043 88.0063 19.3255 88.0063 19.3514C88.0063 19.3773 87.9545 19.3985 87.8911 19.3985C87.8277 19.3985 87.7627 19.4196 87.7467 19.4455C87.7306 19.4714 87.6457 19.4926 87.5579 19.4926C87.4701 19.4926 87.3851 19.5138 87.3691 19.5397C87.3531 19.5656 87.2469 19.5868 87.1331 19.5868C87.0194 19.5868 86.9132 19.608 86.8971 19.6339C86.8793 19.6627 86.5042 19.6809 85.9296 19.6809C85.3549 19.6809 84.9798 19.6627 84.962 19.6339C84.9459 19.608 84.8397 19.5868 84.726 19.5868C84.6123 19.5868 84.5061 19.5656 84.49 19.5397C84.474 19.5138 84.4102 19.4926 84.3484 19.4926C84.2866 19.4926 84.2229 19.4714 84.2068 19.4455C84.1908 19.4196 84.1271 19.3985 84.0652 19.3985C84.0034 19.3985 83.9397 19.3773 83.9236 19.3514C83.9076 19.3255 83.8439 19.3043 83.782 19.3043C83.7202 19.3043 83.6565 19.2831 83.6404 19.2572C83.6244 19.2313 83.5647 19.2097 83.5079 19.2091C83.451 19.2085 83.3513 19.1666 83.2865 19.116C83.2216 19.0653 83.1419 19.0234 83.1095 19.0229C83.077 19.0223 83.0505 19.0006 83.0505 18.9747C83.0505 18.9488 83.0186 18.9277 82.9797 18.9277C82.9407 18.9277 82.9089 18.911 82.9089 18.8907C82.9089 18.8704 82.8398 18.8134 82.7555 18.764C82.2953 18.4947 81.3985 17.3787 81.3985 17.0754C81.3985 17.0163 81.356 16.8803 81.3041 16.7731C81.1023 16.3563 80.9323 15.549 80.9299 14.9964C80.9276 14.4379 81.1013 13.5915 81.3041 13.1727C81.356 13.0655 81.3985 12.937 81.3985 12.8871C81.3985 12.7442 81.8118 12.1599 82.1997 11.7545C82.5676 11.3699 83.2789 10.8656 83.664 10.7162C83.7809 10.6708 83.9401 10.6054 84.018 10.5706C84.6323 10.2963 86.0388 10.2211 87.0387 10.4091C87.3243 10.4628 87.6004 10.5249 87.6523 10.5471C87.7042 10.5693 87.8954 10.633 88.0771 10.6888C88.6682 10.87 89.6623 11.4368 89.9957 11.7828C90.0645 11.8543 90.1533 11.9127 90.193 11.9127C90.2327 11.9127 90.3887 11.7813 90.5398 11.6208C90.691 11.4603 91.1342 10.9995 91.525 10.5968C92.633 9.45491 93.0093 9.05124 93.0093 9.00454C93.0093 8.98085 93.1475 8.81508 93.3165 8.63623C93.4855 8.45737 93.6182 8.28675 93.6115 8.25704C93.5931 8.17597 92.8213 7.3853 92.6317 7.25348C92.5408 7.1903 92.4559 7.12537 92.4429 7.10922C92.3926 7.0467 91.8318 6.68677 91.7847 6.68677C91.7574 6.68677 91.7349 6.66559 91.7349 6.63969C91.7349 6.6138 91.6925 6.59261 91.6405 6.59261C91.5886 6.59261 91.5461 6.57387 91.5461 6.55104C91.5461 6.52816 91.509 6.49713 91.4635 6.48211C91.4181 6.46705 91.296 6.42251 91.1922 6.38315C91.0883 6.34374 90.9556 6.31121 90.8972 6.31084C90.8388 6.31046 90.791 6.28894 90.791 6.26305C90.791 6.23715 90.7588 6.21597 90.7195 6.21597C90.6802 6.21597 90.6059 6.19478 90.5543 6.16889C90.5028 6.14299 90.4184 6.10062 90.3669 6.07473C90.3153 6.04883 90.2316 6.02765 90.1808 6.02765C90.1301 6.02765 90.0754 6.00646 90.0594 5.98057C90.0434 5.95467 89.9796 5.93349 89.9178 5.93349C89.856 5.93349 89.7923 5.9123 89.7762 5.88641C89.7602 5.86051 89.6964 5.83933 89.6346 5.83933C89.5728 5.83933 89.5091 5.81814 89.493 5.79224C89.477 5.76635 89.392 5.74516 89.3042 5.74516C89.2164 5.74516 89.1315 5.72398 89.1154 5.69808C89.0994 5.67219 89.0144 5.651 88.9266 5.651C88.8389 5.651 88.7539 5.62982 88.7378 5.60392C88.7218 5.57803 88.6156 5.55684 88.5019 5.55684C88.3881 5.55684 88.2819 5.53566 88.2659 5.50976C88.2498 5.48387 88.1224 5.46268 87.9827 5.46268C87.843 5.46268 87.7155 5.4415 87.6995 5.4156C87.6834 5.38961 87.4718 5.36852 87.2275 5.36852C86.9832 5.36852 86.7716 5.34743 86.7555 5.32144C86.7379 5.29305 86.4098 5.27436 85.9296 5.27436C85.4493 5.27436 85.1212 5.29305 85.1036 5.32144ZM102.661 5.32144C102.645 5.34734 102.454 5.36852 102.237 5.36852C102.019 5.36852 101.828 5.38971 101.812 5.4156C101.796 5.4415 101.69 5.46268 101.576 5.46268C101.462 5.46268 101.356 5.48387 101.34 5.50976C101.324 5.53566 101.218 5.55684 101.104 5.55684C100.99 5.55684 100.884 5.57803 100.868 5.60392C100.852 5.62982 100.788 5.651 100.726 5.651C100.664 5.651 100.601 5.67219 100.585 5.69808C100.569 5.72398 100.484 5.74516 100.396 5.74516C100.308 5.74516 100.223 5.76635 100.207 5.79224C100.191 5.81814 100.137 5.83933 100.088 5.83933C100.038 5.83933 99.9218 5.8817 99.8294 5.93349C99.737 5.98527 99.6308 6.02765 99.5934 6.02765C99.5561 6.02765 99.4499 6.07002 99.3575 6.12181C99.265 6.1736 99.1579 6.21597 99.1194 6.21597C99.0809 6.21597 99.0072 6.23715 98.9556 6.26305C98.9041 6.28894 98.8197 6.33132 98.7681 6.35721C98.7165 6.3831 98.6448 6.40429 98.6087 6.40429C98.5726 6.40429 98.5157 6.4371 98.4823 6.47726C98.449 6.51738 98.3308 6.59148 98.2198 6.6419C98.1088 6.69233 98.0048 6.7549 97.9887 6.78093C97.9726 6.80697 97.8704 6.86874 97.7616 6.91827C97.6529 6.96775 97.5124 7.06304 97.4495 7.12999C97.3865 7.19693 97.3109 7.25174 97.2813 7.25174C97.2518 7.25174 97.1666 7.31529 97.0919 7.39298C97.0173 7.47066 96.9334 7.53422 96.9055 7.53422C96.8405 7.53422 95.3692 9.00218 95.3692 9.06706C95.3692 9.09389 95.2842 9.1986 95.1804 9.29973C95.0766 9.40086 94.9916 9.50782 94.9916 9.53739C94.9916 9.56696 94.9491 9.62953 94.8972 9.67637C94.8453 9.72322 94.8028 9.78678 94.8028 9.81761C94.8028 9.84845 94.7603 9.91201 94.7084 9.95885C94.6565 10.0057 94.614 10.07 94.614 10.1016C94.614 10.1333 94.5837 10.1843 94.5466 10.215C94.4587 10.2878 93.8589 11.4892 93.8589 11.5924C93.8589 11.636 93.8376 11.6848 93.8117 11.7008C93.7857 11.7168 93.7645 11.7804 93.7645 11.8421C93.7645 11.9037 93.7432 11.9673 93.7173 11.9833C93.6913 11.9993 93.6701 12.0629 93.6701 12.1245C93.6701 12.1862 93.6488 12.2498 93.6229 12.2658C93.5969 12.2818 93.5757 12.3454 93.5757 12.407C93.5757 12.4687 93.5544 12.5323 93.5285 12.5483C93.5025 12.5643 93.4813 12.6384 93.4813 12.7131C93.4813 12.7877 93.4623 12.8605 93.4391 12.8748C93.3877 12.9064 93.3418 13.1831 93.3095 13.6547C93.2963 13.8489 93.2658 14.0279 93.2417 14.0525C93.1814 14.1143 93.1848 16.042 93.2453 16.0793C93.2712 16.0953 93.2925 16.266 93.2925 16.4587C93.2925 16.6609 93.3124 16.809 93.3397 16.809C93.3656 16.809 93.3869 16.915 93.3869 17.0444C93.3869 17.1739 93.4081 17.2798 93.4341 17.2798C93.46 17.2798 93.4813 17.3646 93.4813 17.4682C93.4813 17.5717 93.5025 17.6565 93.5285 17.6565C93.5544 17.6565 93.5757 17.7027 93.5757 17.7591C93.5757 17.8675 93.6535 18.1423 93.7231 18.2796C93.7458 18.3246 93.7645 18.4028 93.7645 18.4534C93.7645 18.504 93.7857 18.5585 93.8117 18.5746C93.8376 18.5906 93.8589 18.6447 93.8589 18.695C93.8589 18.7453 93.8801 18.7864 93.9061 18.7864C93.932 18.7864 93.9533 18.8292 93.9533 18.8815C93.9533 18.9338 94.0111 19.0662 94.0818 19.1758C94.1526 19.2853 94.2342 19.4173 94.2633 19.4691C94.4758 19.8481 94.5371 19.9488 94.5952 20.0142C94.6315 20.0551 94.6612 20.1041 94.6612 20.1233C94.6612 20.1424 94.8129 20.3631 94.9983 20.6139C95.3066 21.031 96.5099 22.2704 96.6065 22.2704C96.629 22.2704 96.6944 22.3149 96.7517 22.3694C96.8853 22.4962 97.5233 22.9295 97.5765 22.9295C97.5987 22.9295 97.6581 22.9666 97.7084 23.0119C97.7588 23.0572 97.885 23.1387 97.9887 23.1929C98.0925 23.2472 98.2578 23.3372 98.3559 23.393C98.4541 23.4488 98.5609 23.4944 98.5933 23.4944C98.6257 23.4944 98.6828 23.5368 98.7203 23.5886C98.7577 23.6404 98.8158 23.6828 98.8493 23.6828C98.8829 23.6828 98.9472 23.7015 98.9923 23.7243C99.0374 23.7472 99.1327 23.7896 99.2041 23.8185C99.2754 23.8474 99.3816 23.8909 99.44 23.9151C99.4985 23.9393 99.6312 23.9859 99.735 24.0188C99.8389 24.0517 99.944 24.0955 99.9687 24.1161C99.9933 24.1367 100.061 24.1536 100.119 24.1536C100.177 24.1536 100.238 24.1748 100.254 24.2007C100.27 24.2265 100.345 24.2477 100.419 24.2477C100.494 24.2477 100.569 24.2689 100.585 24.2948C100.601 24.3207 100.686 24.3419 100.773 24.3419C100.861 24.3419 100.946 24.3631 100.962 24.389C100.978 24.4149 101.074 24.4361 101.175 24.4361C101.275 24.4361 101.369 24.4545 101.383 24.4771C101.397 24.4996 101.521 24.5326 101.657 24.5504C101.794 24.5681 102.034 24.6026 102.189 24.627C103.508 24.8333 105.164 24.8342 106.366 24.6293C106.509 24.6049 106.722 24.5711 106.838 24.554C106.955 24.5369 107.093 24.5049 107.145 24.4827C107.197 24.4606 107.303 24.4317 107.381 24.4186C107.63 24.3766 107.803 24.3359 107.9 24.2966C107.952 24.2757 108.09 24.2324 108.207 24.2007C108.408 24.146 108.462 24.1273 108.75 24.0123C108.815 23.9864 108.916 23.9467 108.974 23.9241C109.408 23.7562 110.231 23.3513 110.369 23.2381C110.439 23.181 110.602 23.0631 110.732 22.9761C110.862 22.8891 110.979 22.8059 110.992 22.7911C111.005 22.7763 111.1 22.7018 111.204 22.6256C111.461 22.4371 112.172 21.7378 112.172 21.6738C112.172 21.6454 112.039 21.4848 111.877 21.3168C111.198 20.6138 110.4 19.7584 110.378 19.7094C110.321 19.5823 109.96 19.2101 109.893 19.2101C109.87 19.2101 109.709 19.0589 109.536 18.874C109.363 18.6891 109.145 18.4561 109.05 18.3561C108.956 18.2561 108.849 18.1744 108.812 18.1744C108.775 18.1744 108.662 18.2591 108.561 18.3627C108.46 18.4663 108.353 18.551 108.324 18.551C108.295 18.551 108.221 18.6036 108.161 18.668C108.041 18.795 107.28 19.1822 107.051 19.2327C106.973 19.2499 106.84 19.2753 106.755 19.2893C106.671 19.3033 106.59 19.3335 106.576 19.3566C106.561 19.3796 106.488 19.3985 106.414 19.3985C106.339 19.3985 106.264 19.4196 106.248 19.4455C106.232 19.4714 106.136 19.4926 106.033 19.4926C105.931 19.4926 105.847 19.5138 105.847 19.5397C105.847 19.5658 105.722 19.5868 105.567 19.5868C105.413 19.5868 105.273 19.608 105.257 19.6339C105.218 19.6973 103.503 19.6973 103.464 19.6339C103.448 19.608 103.351 19.5868 103.249 19.5868C103.146 19.5868 103.063 19.5656 103.063 19.5397C103.063 19.5138 102.988 19.4926 102.897 19.4926C102.806 19.4926 102.732 19.4714 102.732 19.4455C102.732 19.4196 102.691 19.3985 102.641 19.3985C102.59 19.3985 102.536 19.3773 102.52 19.3514C102.504 19.3255 102.429 19.3043 102.355 19.3043C102.28 19.3043 102.205 19.2831 102.189 19.2572C102.173 19.2313 102.114 19.2097 102.057 19.2091C102 19.2085 101.9 19.1666 101.835 19.116C101.77 19.0653 101.701 19.0234 101.681 19.0229C101.616 19.021 101.018 18.5417 100.767 18.2905C100.287 17.8101 99.6733 16.8383 99.8165 16.7843C99.8496 16.7718 102.999 16.7564 106.815 16.75L113.753 16.7384L113.788 16.503C113.957 15.3875 113.888 13.455 113.656 12.7996C113.618 12.6937 113.588 12.5671 113.588 12.5182C113.588 12.4693 113.569 12.3925 113.545 12.3475C113.522 12.3026 113.476 12.1705 113.444 12.0539C113.283 11.4645 112.554 9.96036 112.398 9.8961C112.378 9.88743 112.361 9.86116 112.361 9.83762C112.361 9.79101 112.119 9.46413 111.848 9.14474C111.587 8.83782 110.655 7.89669 110.508 7.79231C110.437 7.74165 110.378 7.67781 110.378 7.65041C110.378 7.62306 110.267 7.51684 110.13 7.4144C109.994 7.312 109.876 7.21228 109.867 7.19288C109.858 7.17349 109.821 7.15757 109.784 7.15757C109.748 7.15757 109.717 7.13639 109.717 7.11049C109.717 7.0846 109.686 7.06341 109.647 7.06341C109.608 7.06341 109.576 7.04468 109.576 7.02184C109.576 6.99896 109.539 6.9685 109.493 6.95409C109.391 6.92189 109.153 6.77872 109.064 6.69572C109.027 6.66182 108.915 6.59854 108.815 6.55513C108.714 6.51173 108.632 6.46003 108.632 6.44026C108.632 6.42049 108.58 6.40429 108.517 6.40429C108.453 6.40429 108.388 6.3831 108.372 6.35721C108.356 6.33132 108.281 6.31013 108.204 6.31013C108.128 6.31013 108.066 6.28894 108.066 6.26305C108.066 6.23715 108.024 6.21597 107.973 6.21597C107.921 6.21597 107.804 6.1736 107.712 6.12181C107.619 6.07002 107.503 6.02765 107.453 6.02765C107.404 6.02765 107.35 6.00646 107.334 5.98057C107.318 5.95467 107.264 5.93349 107.213 5.93349C107.163 5.93349 107.122 5.9123 107.122 5.88641C107.122 5.86051 107.058 5.83933 106.98 5.83933C106.902 5.83933 106.838 5.81814 106.838 5.79224C106.838 5.76635 106.765 5.74516 106.676 5.74516C106.587 5.74516 106.5 5.72398 106.484 5.69808C106.468 5.67219 106.383 5.651 106.296 5.651C106.208 5.651 106.123 5.62982 106.107 5.60392C106.091 5.57803 105.994 5.55684 105.892 5.55684C105.789 5.55684 105.706 5.53566 105.706 5.50976C105.706 5.48387 105.59 5.46268 105.449 5.46268C105.308 5.46268 105.179 5.4415 105.163 5.4156C105.147 5.38971 104.977 5.36852 104.785 5.36852C104.594 5.36852 104.424 5.34734 104.408 5.32144C104.39 5.29291 104.046 5.27436 103.534 5.27436C103.023 5.27436 102.679 5.29291 102.661 5.32144ZM104.195 10.1893C104.593 10.2743 105.142 10.4756 105.47 10.6561C105.85 10.8658 106.508 11.4218 106.508 11.5336C106.508 11.5511 106.545 11.6064 106.591 11.6566C106.764 11.8472 106.98 12.2142 106.98 12.3182C106.98 12.3541 107.001 12.3835 107.027 12.3835C107.053 12.3835 107.074 12.4259 107.074 12.4777C107.074 12.5294 107.096 12.5718 107.122 12.5718C107.148 12.5718 107.169 12.6235 107.169 12.6867C107.169 12.75 107.19 12.8147 107.216 12.8308C107.242 12.8468 107.263 12.9103 107.263 12.972C107.263 13.0337 107.284 13.0972 107.31 13.1132C107.336 13.1292 107.358 13.1728 107.358 13.2102C107.358 13.2686 106.847 13.278 103.655 13.278C101.035 13.278 99.9181 13.2627 99.8365 13.2256L99.7212 13.1732L99.8092 12.8607C99.8577 12.6889 99.9975 12.3495 100.12 12.1066C100.512 11.3279 101.289 10.6667 102.152 10.3779C102.87 10.1373 103.626 10.0675 104.195 10.1893ZM34.3564 10.6815C34.4812 10.7103 34.6512 10.7636 34.734 10.7999C34.8169 10.8362 34.959 10.8933 35.0498 10.9267C35.1407 10.9602 35.2714 11.0262 35.3403 11.0735C35.4092 11.1207 35.4794 11.1594 35.4963 11.1594C35.5645 11.1594 36.0997 11.5516 36.362 11.794C36.516 11.936 36.7256 12.1639 36.8279 12.3003C36.9302 12.4367 37.103 12.6668 37.2119 12.8115C37.3207 12.9564 37.4098 13.11 37.4098 13.1529C37.4098 13.1958 37.431 13.2309 37.457 13.2309C37.4829 13.2309 37.5042 13.2826 37.5042 13.3459C37.5042 13.4091 37.5254 13.4739 37.5513 13.4899C37.5773 13.5059 37.5985 13.5601 37.5985 13.6104C37.5985 13.6606 37.6198 13.7017 37.6457 13.7017C37.6717 13.7017 37.6929 13.7746 37.6929 13.8637C37.6929 13.9529 37.7142 14.0388 37.7401 14.0548C37.7661 14.0708 37.7873 14.2086 37.7873 14.3609C37.7873 14.5132 37.8086 14.6509 37.8345 14.6669C37.8605 14.6829 37.8817 14.8842 37.8817 15.1141C37.8817 15.3441 37.8605 15.5454 37.8345 15.5614C37.8086 15.5774 37.7873 15.7045 37.7873 15.8439C37.7873 15.9833 37.7661 16.1104 37.7401 16.1264C37.7142 16.1424 37.6929 16.2059 37.6929 16.2676C37.6929 16.3293 37.6717 16.3929 37.6457 16.4089C37.6198 16.4249 37.5985 16.4745 37.5985 16.5193C37.5985 16.6736 37.0866 17.6211 36.917 17.7807C36.8246 17.8676 36.749 17.9645 36.749 17.9959C36.749 18.0747 36.3666 18.4569 36.2877 18.4569C36.2525 18.4569 36.1701 18.5204 36.1046 18.5981C36.039 18.6758 35.958 18.7393 35.9246 18.7393C35.8912 18.7393 35.8381 18.7702 35.8068 18.8079C35.7006 18.9355 35.0788 19.2101 34.896 19.2101C34.7989 19.2101 34.7195 19.2292 34.7195 19.2525C34.7195 19.3181 34.3417 19.358 33.4969 19.3815C32.9917 19.3955 32.7056 19.3858 32.6733 19.3536C32.6461 19.3265 32.5431 19.3043 32.4445 19.3043C32.3459 19.3043 32.2651 19.2831 32.2651 19.2572C32.2651 19.2313 32.1708 19.2101 32.0555 19.2101C31.9402 19.2101 31.8328 19.189 31.8168 19.1631C31.8007 19.1372 31.7464 19.116 31.696 19.116C31.6456 19.116 31.6044 19.0948 31.6044 19.0689C31.6044 19.043 31.5731 19.0218 31.5348 19.0218C31.4415 19.0218 31.1515 18.8559 30.7942 18.5981C30.0095 18.0319 29.4744 17.2965 29.1371 16.3207C28.9603 15.8092 28.9675 13.8822 29.147 13.6311C29.1656 13.6052 29.2076 13.4906 29.2404 13.3765C29.2731 13.2623 29.3503 13.0928 29.4118 12.9998C29.9505 12.1852 30.3462 11.7602 30.9516 11.3455C31.1767 11.1914 31.3734 11.0652 31.3887 11.0652C31.4041 11.0652 31.5066 11.0243 31.6167 10.9743C31.8805 10.8544 32.2233 10.7432 32.5719 10.6644C32.9026 10.5897 34.0039 10.6003 34.3564 10.6815ZM63.9712 10.6684C65.2452 10.9225 66.1592 11.5549 67.0201 12.7777C67.2476 13.1009 67.3334 13.2645 67.3334 13.3748C67.3334 13.4221 67.3547 13.4739 67.3806 13.4899C67.4066 13.5059 67.4278 13.5601 67.4278 13.6104C67.4278 13.6606 67.4491 13.7017 67.475 13.7017C67.501 13.7017 67.5222 13.7865 67.5222 13.8901C67.5222 13.9936 67.5435 14.0784 67.5694 14.0784C67.5957 14.0784 67.6166 14.2039 67.6166 14.3609C67.6166 14.5178 67.6376 14.6433 67.6638 14.6433C67.692 14.6433 67.711 14.8229 67.711 15.0878C67.711 15.3334 67.6899 15.5454 67.6638 15.5614C67.6379 15.5774 67.6166 15.7045 67.6166 15.8439C67.6166 15.9833 67.5954 16.1104 67.5694 16.1264C67.5435 16.1424 67.5222 16.2059 67.5222 16.2676C67.5222 16.3293 67.501 16.3929 67.475 16.4089C67.4491 16.4249 67.4278 16.4736 67.4278 16.5172C67.4278 16.621 67.0175 17.4447 66.9296 17.5175C66.8921 17.5485 66.8615 17.596 66.8615 17.623C66.8615 17.65 66.8091 17.7269 66.745 17.7938C66.6809 17.8607 66.5416 18.0277 66.4353 18.1649C66.3291 18.3021 66.1927 18.433 66.1323 18.4559C66.072 18.4788 65.968 18.552 65.9014 18.6184C65.8347 18.6849 65.7606 18.7393 65.7366 18.7393C65.7127 18.7393 65.6674 18.7702 65.6361 18.8079C65.522 18.9449 64.9079 19.2101 64.7045 19.2101C64.5959 19.2101 64.494 19.2313 64.478 19.2572C64.4619 19.2831 64.3545 19.3043 64.2392 19.3043C64.1239 19.3043 64.0296 19.3255 64.0296 19.3514C64.0296 19.3808 63.7473 19.3985 63.2772 19.3985C62.8265 19.3985 62.5131 19.3796 62.4956 19.3514C62.4796 19.3255 62.384 19.3043 62.2832 19.3043C62.1825 19.3043 62.0869 19.2831 62.0708 19.2572C62.0548 19.2313 61.9592 19.2101 61.8584 19.2101C61.7577 19.2101 61.6621 19.189 61.6461 19.1631C61.63 19.1372 61.569 19.116 61.5106 19.116C61.4521 19.116 61.3587 19.0736 61.3029 19.0218C61.2472 18.97 61.1689 18.9277 61.1289 18.9277C61.0888 18.9277 61.0561 18.9065 61.0561 18.8806C61.0561 18.8547 61.0296 18.8332 60.9971 18.8328C60.8874 18.8315 60.1367 18.2376 59.9507 18.005C59.8492 17.878 59.7385 17.7512 59.7046 17.723C59.6708 17.6949 59.5264 17.4747 59.3837 17.2338C58.904 16.4242 58.681 15.4148 58.7874 14.5351C58.8521 14.0001 59.1272 13.1009 59.2858 12.9061C59.3406 12.8388 59.4826 12.6459 59.6013 12.4775C59.8575 12.114 60.4417 11.5486 60.7918 11.3251C61.2746 11.0171 61.8786 10.7742 62.472 10.6495C62.7948 10.5817 63.5868 10.5917 63.9712 10.6684ZM7.58046 14.6887C7.58046 14.7136 7.70337 14.8673 7.8536 15.03C8.00378 15.1928 8.18701 15.4002 8.26078 15.4908C8.3345 15.5814 8.49304 15.7648 8.61302 15.8983C8.73304 16.0318 8.90555 16.2301 8.99641 16.3391C9.08727 16.448 9.21178 16.5824 9.27313 16.6378C9.33449 16.6931 9.43007 16.8041 9.48553 16.8845C9.58096 17.0228 9.90285 17.3934 10.439 17.9824C10.5705 18.1268 10.7241 18.3057 10.7805 18.3798C10.8368 18.454 11.0106 18.6523 11.1668 18.8205C11.323 18.9886 11.4507 19.1416 11.4507 19.1606C11.4507 19.2132 11.2248 19.3043 11.0945 19.3043C11.0308 19.3043 10.9787 19.3255 10.9787 19.3514C10.9787 19.3773 10.9269 19.3985 10.8635 19.3985C10.8001 19.3985 10.7352 19.4196 10.7191 19.4455C10.7031 19.4714 10.6181 19.4926 10.5304 19.4926C10.4426 19.4926 10.3576 19.5138 10.3416 19.5397C10.3255 19.5656 10.1768 19.5868 10.0112 19.5868C9.84551 19.5868 9.69683 19.608 9.68079 19.6339C9.66375 19.6613 9.39712 19.6809 9.04082 19.6809C8.66508 19.6809 8.43003 19.6628 8.43003 19.6339C8.43003 19.6078 8.3051 19.5868 8.14963 19.5868C7.99538 19.5868 7.8561 19.5656 7.84005 19.5397C7.82401 19.5138 7.74844 19.4926 7.67207 19.4926C7.59571 19.4926 7.53326 19.4714 7.53326 19.4455C7.53326 19.4196 7.4905 19.3985 7.43821 19.3985C7.38596 19.3985 7.29567 19.374 7.23761 19.344C7.01408 19.2288 6.96571 19.2101 6.88953 19.2101C6.70701 19.2101 6.25018 18.7556 6.05572 18.3804C5.94604 18.1688 5.91526 18.0125 5.89398 17.5584C5.84994 16.6191 6.34208 15.5605 7.12198 14.917C7.25734 14.8053 7.37515 14.6981 7.38379 14.6787C7.40696 14.6267 7.58046 14.6356 7.58046 14.6887ZM116.703 18.2215C116.703 18.2473 116.651 18.2685 116.588 18.2685C116.524 18.2685 116.459 18.2897 116.443 18.3156C116.427 18.3415 116.365 18.3627 116.306 18.3627C116.247 18.3627 116.16 18.4051 116.113 18.4569C116.066 18.5086 115.988 18.551 115.94 18.551C115.892 18.551 115.853 18.5722 115.853 18.5981C115.853 18.624 115.825 18.6452 115.79 18.6452C115.755 18.6452 115.688 18.6875 115.641 18.7393C115.594 18.7911 115.533 18.8335 115.506 18.8335C115.478 18.8335 115.377 18.91 115.282 19.0035C115.186 19.097 115.058 19.198 114.997 19.228C114.937 19.2581 114.865 19.3276 114.838 19.3826C114.81 19.4376 114.759 19.5171 114.724 19.5594C114.592 19.7182 114.248 20.4587 114.248 20.5851C114.248 20.6575 114.227 20.7167 114.201 20.7167C114.172 20.7167 114.154 20.9982 114.154 21.4672C114.154 21.9168 114.173 22.2294 114.201 22.2468C114.227 22.2628 114.248 22.3264 114.248 22.3881C114.248 22.4497 114.27 22.5133 114.296 22.5293C114.322 22.5453 114.343 22.6089 114.343 22.6705C114.343 22.7322 114.364 22.7958 114.39 22.8118C114.416 22.8278 114.437 22.882 114.437 22.9323C114.437 22.9825 114.459 23.0236 114.484 23.0236C114.51 23.0236 114.532 23.0501 114.533 23.0825C114.534 23.2104 115.321 24.0543 115.571 24.1969C115.982 24.4313 116.381 24.6244 116.456 24.6244C116.503 24.6244 116.565 24.6466 116.592 24.6738C116.624 24.7058 116.899 24.7167 117.368 24.7048C118.192 24.6838 118.34 24.6585 118.696 24.4776C118.741 24.4547 118.81 24.4361 118.85 24.4361C118.889 24.4361 118.921 24.4149 118.921 24.389C118.921 24.3631 118.944 24.3419 118.971 24.3419C119.083 24.3419 119.586 23.9508 119.875 23.6397C120.753 22.6937 121.006 21.2031 120.483 20.0576C120.285 19.6222 120.015 19.2101 119.929 19.2101C119.906 19.2101 119.823 19.1413 119.744 19.0571C119.553 18.8552 119.357 18.704 119.169 18.6138C119.085 18.5734 119.016 18.5215 119.016 18.4986C119.016 18.4756 118.964 18.4569 118.9 18.4569C118.837 18.4569 118.772 18.4357 118.756 18.4098C118.74 18.3839 118.686 18.3627 118.635 18.3627C118.585 18.3627 118.544 18.3415 118.544 18.3156C118.544 18.2897 118.459 18.2685 118.355 18.2685C118.251 18.2685 118.166 18.2473 118.166 18.2215C118.166 18.1921 117.891 18.1744 117.434 18.1744C116.978 18.1744 116.703 18.1921 116.703 18.2215Z" fill="#F9F9F9"/>
</svg>
