<svg width="53" height="56" viewBox="0 0 53 56" fill="none" xmlns="http://www.w3.org/2000/svg">
<path d="M12.9474 7.47368H7.47368C6.02197 7.47368 4.62972 8.05037 3.6032 9.07689C2.57669 10.1034 2 11.4957 2 12.9474V45.7895C2 47.2412 2.57669 48.6334 3.6032 49.66C4.62972 50.6865 6.02197 51.2632 7.47368 51.2632H23.0655M12.9474 7.47368C12.9474 10.4967 15.398 12.9474 18.4211 12.9474H23.8947C26.9178 12.9474 29.3684 10.4967 29.3684 7.47368M12.9474 7.47368C12.9474 4.45065 15.398 2 18.4211 2H23.8947C26.9178 2 29.3684 4.45065 29.3684 7.47368M40.3158 32.1053V43.0526H51.2632M40.3158 32.1053C34.2697 32.1053 29.3684 37.0066 29.3684 43.0526C29.3684 49.0987 34.2697 54 40.3158 54C46.3619 54 51.2632 49.0987 51.2632 43.0526M40.3158 32.1053C46.3619 32.1053 51.2632 37.0066 51.2632 43.0526M40.3158 23.8947V12.9474C40.3158 11.4957 39.7391 10.1034 38.7126 9.07689C37.6861 8.05037 36.2938 7.47368 34.8421 7.47368H29.3684M12.9474 23.8947H23.8947M12.9474 34.8421H21.1579" stroke="#E4C592" stroke-width="2.7" stroke-linecap="round" stroke-linejoin="round"/>
</svg>
