<svg width="53" height="54" viewBox="0 0 53 54" fill="none" xmlns="http://www.w3.org/2000/svg">
<path d="M34.3911 18.6667C33.8879 17.7938 33.1568 17.0742 32.276 16.5849C31.3953 16.0956 30.398 15.8551 29.3911 15.889H23.8355C22.3621 15.889 20.949 16.4743 19.9071 17.5161C18.8653 18.558 18.2799 19.9711 18.2799 21.4445C18.2799 22.9179 18.8653 24.331 19.9071 25.3729C20.949 26.4147 22.3621 27.0001 23.8355 27.0001H29.3911C30.8645 27.0001 32.2776 27.5854 33.3194 28.6273C34.3613 29.6691 34.9466 31.0822 34.9466 32.5556C34.9466 34.029 34.3613 35.4421 33.3194 36.484C32.2776 37.5259 30.8645 38.1112 29.3911 38.1112H23.8355C22.8285 38.1451 21.8313 37.9045 20.9506 37.4152C20.0698 36.9259 19.3387 36.2063 18.8355 35.3334M26.6133 10.3333V15.8889M26.6133 38.1111V43.6667M51.6133 27C51.6133 40.8071 40.4204 52 26.6133 52C12.8062 52 1.61328 40.8071 1.61328 27C1.61328 13.1929 12.8062 2 26.6133 2C40.4204 2 51.6133 13.1929 51.6133 27Z" stroke="#D0B07C" stroke-width="2.7" stroke-linecap="round" stroke-linejoin="round"/>
</svg>
