<svg width="56" height="42" viewBox="0 0 56 42" fill="none" xmlns="http://www.w3.org/2000/svg">
<path d="M21.1579 34.8416C21.1579 37.8646 18.7072 40.3153 15.6842 40.3153C12.6612 40.3153 10.2105 37.8646 10.2105 34.8416M21.1579 34.8416C21.1579 31.8186 18.7072 29.3679 15.6842 29.3679C12.6612 29.3679 10.2105 31.8186 10.2105 34.8416M21.1579 34.8416H37.5789M10.2105 34.8416H4.73684V23.8942M48.5263 34.8416C48.5263 37.8646 46.0757 40.3153 43.0526 40.3153C40.0296 40.3153 37.5789 37.8646 37.5789 34.8416M48.5263 34.8416C48.5263 31.8186 46.0757 29.3679 43.0526 29.3679C40.0296 29.3679 37.5789 31.8186 37.5789 34.8416M48.5263 34.8416H54V18.4206M2 1.99951H32.1053V34.8416M54 18.4206H32.1053M54 18.4206L45.7895 4.73635H32.1053M4.73684 12.9469H15.6842" stroke="#E4C592" stroke-width="2.7" stroke-linecap="round" stroke-linejoin="round"/>
</svg>
