<svg width="887" height="109" viewBox="0 0 887 109" fill="none" xmlns="http://www.w3.org/2000/svg">
<path d="M108.909 84.6086C109.088 84.6086 109.178 84.8773 109.178 85.4146C109.178 85.952 109.088 86.2207 108.909 86.2207C105.864 86.2207 103.446 86.1759 101.654 86.0864L91.7129 85.952L81.6371 86.0864C79.9354 86.1759 77.6067 86.2207 74.6511 86.2207C74.3825 86.2207 74.2481 85.952 74.2481 85.4146C74.2481 84.8773 74.3825 84.6086 74.6511 84.6086C78.4128 84.6086 80.9653 84.1608 82.3088 83.2651C83.6522 82.3695 84.3239 80.4887 84.3239 77.6227L84.1896 75.3388L81.3684 20.3919L53.6934 85.2803C53.5143 85.6385 53.156 85.8177 52.6186 85.8177C52.0813 85.8177 51.723 85.6385 51.5439 85.2803L17.5547 20.6606L16.48 69.1589C16.3904 73.9954 17.3308 77.8018 19.3012 80.5782C21.3611 83.2651 24.2272 84.6086 27.8992 84.6086C28.1679 84.6086 28.3023 84.8773 28.3023 85.4146C28.3023 85.952 28.1679 86.2207 27.8992 86.2207C25.481 86.2207 23.6002 86.1759 22.2568 86.0864L14.8678 85.952L6.40412 86.0864C4.97111 86.1759 3.0455 86.2207 0.627302 86.2207C0.358613 86.2207 0.224269 85.952 0.224269 85.4146C0.224269 84.8773 0.358613 84.6086 0.627302 84.6086C4.29939 84.6086 7.21018 83.2203 9.3597 80.4439C11.5092 77.6674 12.6287 73.9058 12.7183 69.1589L13.9274 13.5403L13.7931 13.406C12.0018 10.0921 10.121 7.67393 8.1506 6.15136C6.26977 4.62879 4.07548 3.8675 1.56771 3.8675C1.29903 3.8675 1.16468 3.59881 1.16468 3.06144C1.16468 2.52406 1.29903 2.25537 1.56771 2.25537L7.88191 2.38972C9.13579 2.47928 10.7479 2.52406 12.7183 2.52406L19.8386 2.38972C20.6446 2.30015 21.6746 2.25537 22.9285 2.25537C24.0928 2.25537 24.9884 2.6584 25.6154 3.46447C26.2423 4.27053 27.4066 6.19614 29.1083 9.24129L58.3955 64.1882L83.9209 5.61398C84.4583 4.3601 84.9957 3.50925 85.533 3.06144C86.16 2.52406 86.9661 2.25537 87.9513 2.25537C88.7573 2.25537 89.6529 2.30015 90.6381 2.38972C91.7129 2.47928 92.922 2.52406 94.2654 2.52406L102.192 2.38972C103.446 2.30015 105.237 2.25537 107.566 2.25537C107.834 2.25537 107.969 2.52406 107.969 3.06144C107.969 3.59881 107.834 3.8675 107.566 3.8675C103.356 3.8675 100.311 4.71835 98.4301 6.42005C96.5493 8.12174 95.6985 10.7639 95.8776 14.3464L99.1018 75.3388C99.281 78.1152 99.5944 80.1304 100.042 81.3843C100.58 82.6382 101.475 83.489 102.729 83.9368C104.073 84.3847 106.133 84.6086 108.909 84.6086ZM210.664 84.6086C210.933 84.6086 211.068 84.8773 211.068 85.4146C211.068 85.952 210.933 86.2207 210.664 86.2207C207.53 86.2207 205.022 86.1759 203.141 86.0864L192.797 85.952L180.706 86.0864C179.094 86.1759 176.899 86.2207 174.123 86.2207C173.854 86.2207 173.72 85.952 173.72 85.4146C173.72 84.8773 173.854 84.6086 174.123 84.6086C177.437 84.6086 179.855 84.3847 181.377 83.9368C182.9 83.489 183.93 82.6382 184.467 81.3843C185.005 80.1304 185.273 78.1152 185.273 75.3388V20.3919L131.536 87.6985C131.267 87.9672 130.595 88.1015 129.52 88.1015C127.819 88.1015 126.968 87.7881 126.968 87.1611V13.1373C126.968 10.4504 126.699 8.48 126.162 7.22612C125.624 5.97223 124.639 5.12138 123.206 4.67357C121.773 4.13619 119.534 3.8675 116.489 3.8675C116.22 3.8675 116.086 3.59881 116.086 3.06144C116.086 2.52406 116.22 2.25537 116.489 2.25537L124.012 2.38972C128.49 2.56884 131.939 2.6584 134.357 2.6584C137.939 2.6584 141.97 2.56884 146.448 2.38972L153.031 2.25537C153.299 2.25537 153.434 2.52406 153.434 3.06144C153.434 3.59881 153.299 3.8675 153.031 3.8675C149.717 3.8675 147.299 4.13619 145.776 4.67357C144.253 5.12138 143.224 5.97223 142.686 7.22612C142.149 8.48 141.88 10.4504 141.88 13.1373V68.6216L195.618 1.31496C195.887 1.04627 196.558 0.911921 197.633 0.911921C198.26 0.911921 198.842 1.00149 199.38 1.18061C199.917 1.35974 200.186 1.58365 200.186 1.85234V75.3388C200.186 78.0257 200.454 80.0409 200.992 81.3843C201.529 82.6382 202.514 83.489 203.947 83.9368C205.38 84.3847 207.619 84.6086 210.664 84.6086ZM313.256 84.6086C313.525 84.6086 313.659 84.8773 313.659 85.4146C313.659 85.952 313.525 86.2207 313.256 86.2207C310.122 86.2207 307.614 86.1759 305.733 86.0864L295.389 85.952L283.298 86.0864C281.685 86.1759 279.491 86.2207 276.715 86.2207C276.446 86.2207 276.312 85.952 276.312 85.4146C276.312 84.8773 276.446 84.6086 276.715 84.6086C280.029 84.6086 282.447 84.3847 283.969 83.9368C285.492 83.489 286.522 82.6382 287.059 81.3843C287.597 80.1304 287.865 78.1152 287.865 75.3388V44.4396H244.472V75.3388C244.472 78.0257 244.741 80.0409 245.278 81.3843C245.816 82.6382 246.845 83.489 248.368 83.9368C249.891 84.3847 252.309 84.6086 255.623 84.6086C255.802 84.6086 255.891 84.8773 255.891 85.4146C255.891 85.952 255.802 86.2207 255.623 86.2207C252.488 86.2207 249.98 86.1759 248.099 86.0864L236.411 85.952L226.336 86.0864C224.544 86.1759 222.081 86.2207 218.947 86.2207C218.767 86.2207 218.678 85.952 218.678 85.4146C218.678 84.8773 218.767 84.6086 218.947 84.6086C222.081 84.6086 224.365 84.3847 225.798 83.9368C227.231 83.489 228.216 82.6382 228.754 81.3843C229.291 80.0409 229.56 78.0257 229.56 75.3388V13.1373C229.56 10.4504 229.291 8.48 228.754 7.22612C228.216 5.97223 227.231 5.12138 225.798 4.67357C224.455 4.13619 222.26 3.8675 219.215 3.8675C218.947 3.8675 218.812 3.59881 218.812 3.06144C218.812 2.52406 218.947 2.25537 219.215 2.25537L226.47 2.38972C230.59 2.56884 233.904 2.6584 236.411 2.6584C239.815 2.6584 243.756 2.56884 248.234 2.38972L255.623 2.25537C255.802 2.25537 255.891 2.52406 255.891 3.06144C255.891 3.59881 255.802 3.8675 255.623 3.8675C252.398 3.8675 250.025 4.13619 248.502 4.67357C246.98 5.21095 245.905 6.15136 245.278 7.49481C244.741 8.74869 244.472 10.7191 244.472 13.406V40.6779H287.865V13.406C287.865 10.7191 287.597 8.74869 287.059 7.49481C286.522 6.15136 285.492 5.21095 283.969 4.67357C282.447 4.13619 280.029 3.8675 276.715 3.8675C276.446 3.8675 276.312 3.59881 276.312 3.06144C276.312 2.52406 276.446 2.25537 276.715 2.25537L283.298 2.38972C287.776 2.56884 291.806 2.6584 295.389 2.6584C297.807 2.6584 301.255 2.56884 305.733 2.38972L313.256 2.25537C313.525 2.25537 313.659 2.52406 313.659 3.06144C313.659 3.59881 313.525 3.8675 313.256 3.8675C310.211 3.8675 307.927 4.13619 306.405 4.67357C304.972 5.12138 303.987 5.97223 303.449 7.22612C303.001 8.48 302.778 10.4504 302.778 13.1373V75.3388C302.778 78.0257 303.001 80.0409 303.449 81.3843C303.987 82.6382 304.972 83.489 306.405 83.9368C307.838 84.3847 310.122 84.6086 313.256 84.6086ZM415.986 84.6086C416.255 84.6086 416.389 84.8773 416.389 85.4146C416.389 85.952 416.255 86.2207 415.986 86.2207C412.851 86.2207 410.343 86.1759 408.463 86.0864L398.118 85.952L386.027 86.0864C384.415 86.1759 382.221 86.2207 379.444 86.2207C379.176 86.2207 379.041 85.952 379.041 85.4146C379.041 84.8773 379.176 84.6086 379.444 84.6086C382.758 84.6086 385.176 84.3847 386.699 83.9368C388.221 83.489 389.251 82.6382 389.789 81.3843C390.326 80.1304 390.595 78.1152 390.595 75.3388V20.3919L336.857 87.6985C336.588 87.9672 335.917 88.1015 334.842 88.1015C333.14 88.1015 332.289 87.7881 332.289 87.1611V13.1373C332.289 10.4504 332.021 8.48 331.483 7.22612C330.946 5.97223 329.961 5.12138 328.528 4.67357C327.095 4.13619 324.856 3.8675 321.81 3.8675C321.542 3.8675 321.407 3.59881 321.407 3.06144C321.407 2.52406 321.542 2.25537 321.81 2.25537L329.334 2.38972C333.812 2.56884 337.26 2.6584 339.678 2.6584C343.261 2.6584 347.291 2.56884 351.769 2.38972L358.352 2.25537C358.621 2.25537 358.755 2.52406 358.755 3.06144C358.755 3.59881 358.621 3.8675 358.352 3.8675C355.038 3.8675 352.62 4.13619 351.098 4.67357C349.575 5.12138 348.545 5.97223 348.008 7.22612C347.47 8.48 347.202 10.4504 347.202 13.1373V68.6216L400.939 1.31496C401.208 1.04627 401.88 0.911921 402.955 0.911921C403.581 0.911921 404.164 1.00149 404.701 1.18061C405.238 1.35974 405.507 1.58365 405.507 1.85234V75.3388C405.507 78.0257 405.776 80.0409 406.313 81.3843C406.851 82.6382 407.836 83.489 409.269 83.9368C410.702 84.3847 412.941 84.6086 415.986 84.6086ZM476.797 0.777578C480.738 0.777578 484.857 1.13583 489.156 1.85234C493.456 2.47927 496.814 3.33012 499.232 4.40488C500.038 4.67357 500.531 5.03183 500.71 5.47964C500.979 5.83789 501.203 6.50962 501.382 7.49481L502.994 26.1687C502.994 26.4374 502.77 26.6165 502.322 26.7061C501.874 26.7956 501.606 26.6613 501.516 26.303C498.471 19.2276 494.396 13.7642 489.291 9.91301C484.186 6.0618 478.275 4.1362 471.557 4.1362C462.691 4.1362 455.839 7.40524 451.003 13.9433C446.166 20.4814 443.748 29.2586 443.748 40.2749C443.748 48.5147 445.047 56.038 447.644 62.8448C450.331 69.6515 454.048 75.0701 458.795 79.1004C463.631 83.0412 469.094 85.0116 475.185 85.0116C480.917 85.0116 486.022 83.1308 490.5 79.3691C495.068 75.5179 499.143 69.6963 502.725 61.9043C502.815 61.5461 503.084 61.4117 503.531 61.5013C504.069 61.5909 504.337 61.77 504.337 62.0387L502.322 80.3095C502.143 81.3843 501.919 82.1008 501.651 82.4591C501.471 82.7277 500.979 83.0412 500.173 83.3995C492.202 86.355 484.007 87.8328 475.588 87.8328C464.661 87.8328 455.526 85.6833 448.181 81.3843C440.837 76.9957 435.419 71.4876 431.926 64.8599C428.522 58.1427 426.821 51.1568 426.821 43.9022C426.821 35.3937 429.104 27.8704 433.672 21.3323C438.329 14.7942 444.465 9.73388 452.077 6.15136C459.78 2.56884 468.02 0.777578 476.797 0.777578ZM600.924 84.6086C601.192 84.6086 601.327 84.8773 601.327 85.4146C601.327 85.952 601.192 86.2207 600.924 86.2207H580.235C579.07 86.2207 577.996 85.8625 577.01 85.1459C576.115 84.4294 574.503 82.5934 572.174 79.6378C569.845 76.5927 566.039 71.2637 560.755 63.6508L557.127 58.5457C553.993 53.978 551.664 50.7985 550.142 49.0073C548.619 47.1264 547.007 45.8278 545.305 45.1113C543.693 44.3052 541.543 43.9022 538.857 43.9022V75.3388C538.857 78.0257 539.081 80.0409 539.528 81.3843C540.066 82.6382 541.051 83.489 542.484 83.9368C543.917 84.3847 546.156 84.6086 549.201 84.6086C549.47 84.6086 549.604 84.8773 549.604 85.4146C549.604 85.952 549.47 86.2207 549.201 86.2207C546.066 86.2207 543.559 86.1759 541.678 86.0864L530.527 85.952L520.72 86.0864C518.929 86.1759 516.511 86.2207 513.465 86.2207C513.197 86.2207 513.062 85.952 513.062 85.4146C513.062 84.8773 513.197 84.6086 513.465 84.6086C516.511 84.6086 518.75 84.3847 520.183 83.9368C521.616 83.489 522.601 82.6382 523.138 81.3843C523.676 80.0409 523.944 78.0257 523.944 75.3388V13.1373C523.944 10.4504 523.676 8.48 523.138 7.22612C522.601 5.97223 521.616 5.12138 520.183 4.67357C518.839 4.13619 516.645 3.8675 513.6 3.8675C513.331 3.8675 513.197 3.59881 513.197 3.06144C513.197 2.52406 513.331 2.25537 513.6 2.25537L520.72 2.38972C524.84 2.56884 528.109 2.6584 530.527 2.6584C533.572 2.6584 537.334 2.56884 541.812 2.38972L549.201 2.25537C549.47 2.25537 549.604 2.52406 549.604 3.06144C549.604 3.59881 549.47 3.8675 549.201 3.8675C546.246 3.8675 544.051 4.13619 542.618 4.67357C541.185 5.21095 540.2 6.15136 539.663 7.49481C539.125 8.74869 538.857 10.7191 538.857 13.406V41.6183C541.275 41.5288 544.32 41.484 547.992 41.484L562.098 22.1384C565.77 17.0333 567.606 12.779 567.606 9.37563C567.606 7.67393 567.114 6.33049 566.129 5.34529C565.143 4.3601 563.8 3.8675 562.098 3.8675C561.919 3.8675 561.83 3.59881 561.83 3.06144C561.83 2.52406 561.919 2.25537 562.098 2.25537L568.278 2.38972C572.219 2.56884 575.712 2.6584 578.757 2.6584C582.25 2.6584 585.877 2.56884 589.639 2.38972L595.416 2.25537C595.684 2.25537 595.819 2.52406 595.819 3.06144C595.819 3.59881 595.684 3.8675 595.416 3.8675C591.475 3.8675 587.042 5.30051 582.116 8.16653C577.19 11.0325 573.025 14.6151 569.622 18.9141L551.351 41.6183C554.844 41.7974 557.71 42.4692 559.949 43.6335C562.188 44.7082 564.382 46.4547 566.532 48.8729C568.771 51.2911 571.905 55.3215 575.936 60.9639L578.354 64.3225C582.116 69.5172 585.026 73.4132 587.086 76.0105C589.236 78.6078 591.43 80.6678 593.669 82.1904C595.908 83.7129 598.326 84.519 600.924 84.6086ZM696.039 84.6086C696.486 84.6086 696.71 84.8773 696.71 85.4146C696.71 85.952 696.486 86.2207 696.039 86.2207C694.247 86.2207 691.471 86.1311 687.709 85.952C683.769 85.7729 680.947 85.6833 679.246 85.6833C677.007 85.6833 674.275 85.7729 671.051 85.952C668.005 86.1311 665.587 86.2207 663.796 86.2207C663.438 86.2207 663.259 85.952 663.259 85.4146C663.259 84.8773 663.438 84.6086 663.796 84.6086C666.125 84.6086 667.782 84.3847 668.767 83.9368C669.841 83.3995 670.379 82.5038 670.379 81.25C670.379 79.7274 669.483 77.1748 667.692 73.5923L641.092 21.0636L620.268 67.1438C619.104 69.7411 618.522 72.1593 618.522 74.3984C618.522 77.6227 619.641 80.1304 621.88 81.9217C624.209 83.7129 627.299 84.6086 631.15 84.6086C631.598 84.6086 631.822 84.8773 631.822 85.4146C631.822 85.952 631.598 86.2207 631.15 86.2207C629.538 86.2207 627.209 86.1311 624.164 85.952C620.761 85.7729 617.805 85.6833 615.298 85.6833C612.879 85.6833 609.969 85.7729 606.565 85.952C603.52 86.1311 601.057 86.2207 599.176 86.2207C598.818 86.2207 598.639 85.952 598.639 85.4146C598.639 84.8773 598.818 84.6086 599.176 84.6086C601.684 84.6086 603.789 84.116 605.49 83.1308C607.192 82.056 608.894 80.22 610.596 77.6227C612.297 74.9358 614.312 70.995 616.641 65.8003L645.794 1.71799C645.973 1.4493 646.376 1.31496 647.003 1.31496C647.719 1.31496 648.122 1.4493 648.212 1.71799L681.798 67.8155C684.933 74.1745 687.53 78.5631 689.59 80.9813C691.65 83.3995 693.8 84.6086 696.039 84.6086ZM792.205 84.6086C792.653 84.6086 792.877 84.8773 792.877 85.4146C792.877 85.952 792.653 86.2207 792.205 86.2207C790.414 86.2207 787.638 86.1311 783.876 85.952C779.935 85.7729 777.114 85.6833 775.412 85.6833C773.173 85.6833 770.441 85.7729 767.217 85.952C764.172 86.1311 761.754 86.2207 759.963 86.2207C759.604 86.2207 759.425 85.952 759.425 85.4146C759.425 84.8773 759.604 84.6086 759.963 84.6086C762.291 84.6086 763.948 84.3847 764.933 83.9368C766.008 83.3995 766.545 82.5038 766.545 81.25C766.545 79.7274 765.65 77.1748 763.859 73.5923L754.723 55.4558H721.674L716.435 67.1438C715.271 69.7411 714.688 72.1593 714.688 74.3984C714.688 77.6227 715.808 80.1304 718.047 81.9217C720.376 83.7129 723.466 84.6086 727.317 84.6086C727.765 84.6086 727.989 84.8773 727.989 85.4146C727.989 85.952 727.765 86.2207 727.317 86.2207C725.705 86.2207 723.376 86.1311 720.331 85.952C716.927 85.7729 713.972 85.6833 711.464 85.6833C709.046 85.6833 706.135 85.7729 702.732 85.952C699.687 86.1311 697.224 86.2207 695.343 86.2207C694.985 86.2207 694.805 85.952 694.805 85.4146C694.805 84.8773 694.985 84.6086 695.343 84.6086C697.851 84.6086 699.955 84.116 701.657 83.1308C703.359 82.056 705.06 80.22 706.762 77.6227C708.464 74.9358 710.479 70.995 712.808 65.8003L741.96 1.71799C742.139 1.4493 742.543 1.31496 743.169 1.31496C743.886 1.31496 744.289 1.4493 744.379 1.71799L777.965 67.8155C781.099 74.1745 783.697 78.5631 785.757 80.9813C787.817 83.3995 789.966 84.6086 792.205 84.6086ZM723.421 51.6942H752.708L737.258 21.0636L723.421 51.6942ZM884.744 82.5934C885.55 82.5934 885.998 82.683 886.088 82.8621C886.267 82.9517 886.357 83.3995 886.357 84.2055C886.357 84.5638 886.267 85.8177 886.088 87.9672C885.371 93.9679 885.013 100.73 885.013 108.253C885.013 108.701 884.744 108.925 884.207 108.925C883.759 108.925 883.535 108.701 883.535 108.253C883.535 101.088 880.938 95.6248 875.743 91.8632C870.638 88.1015 863.249 86.2207 853.576 86.2207H823.752C815.244 86.2207 808.705 88.1015 804.138 91.8632C799.66 95.6248 797.42 101.088 797.42 108.253C797.42 108.701 797.152 108.925 796.614 108.925C796.077 108.925 795.808 108.701 795.808 108.253C795.808 100.73 795.495 94.3709 794.868 89.1763C794.599 87.4746 794.465 85.8177 794.465 84.2055C794.465 83.489 794.51 83.0412 794.599 82.8621C794.778 82.683 795.181 82.5934 795.808 82.5934H804.944L838.53 1.71799C838.709 1.4493 839.157 1.31496 839.873 1.31496C840.59 1.31496 840.993 1.4493 841.082 1.71799L878.162 82.5934H884.744ZM809.243 82.5934H861.503L833.962 22.5414L809.243 82.5934Z" fill="#E4C592"/>
</svg>
