<svg width="198" height="37" viewBox="0 0 198 37" fill="none" xmlns="http://www.w3.org/2000/svg">
<path d="M4.93519 34.6439V28.6323L1.63108 34.6439H0.658203V28.2193H1.57601V33.9097L4.74245 28.2193H5.853V34.6439H4.93519Z" fill="#F9F9F9"/>
<path d="M8.38034 30.1467V31.9364H10.4362V30.1467H11.2623V34.6439H10.4362V32.2117H8.38034V34.6439H7.55432V30.1467H8.38034Z" fill="#F9F9F9"/>
<path d="M15.0034 34.6439H12.6263V30.1467H14.7097C15.0768 30.1467 15.3736 30.2568 15.6 30.4771C15.8264 30.6973 15.9396 30.9666 15.9396 31.2847C15.9396 31.7803 15.7682 32.1108 15.4256 32.276C15.6581 32.331 15.8539 32.4473 16.013 32.6247C16.2088 32.8328 16.3067 33.0898 16.3067 33.3957C16.3067 33.7445 16.1935 34.0412 15.9671 34.286C15.7407 34.5246 15.4195 34.6439 15.0034 34.6439ZM14.3793 30.422H13.4523V32.1475H14.3793C14.6546 32.1475 14.8688 32.0649 15.0218 31.8997C15.1808 31.7345 15.2604 31.5295 15.2604 31.2847C15.2604 31.0522 15.1778 30.8503 15.0126 30.679C14.8474 30.5077 14.6363 30.422 14.3793 30.422ZM14.6546 32.4228H13.4523V34.3686H14.6546C14.93 34.3686 15.1472 34.2798 15.3063 34.1024C15.4593 33.9127 15.5357 33.6772 15.5357 33.3957C15.5357 33.1448 15.4531 32.9215 15.2879 32.7257C15.1288 32.5238 14.9177 32.4228 14.6546 32.4228Z" fill="#F9F9F9"/>
<path d="M20.9843 31.6335C20.9843 31.8905 20.92 32.0863 20.7915 32.2209C20.6631 32.3555 20.4428 32.4228 20.1307 32.4228H18.1391V33.5976C18.1391 33.8913 18.2094 34.1055 18.3502 34.2401C18.497 34.3686 18.7632 34.4328 19.1487 34.4328C19.577 34.4328 19.8615 34.3686 20.0022 34.2401C20.143 34.1116 20.2133 33.8821 20.2133 33.5517H20.9751C20.9751 33.9433 20.8283 34.234 20.5346 34.4236C20.2409 34.6133 19.7789 34.7082 19.1487 34.7082C18.4572 34.7082 17.9769 34.598 17.7077 34.3777C17.4385 34.1514 17.3039 33.7598 17.3039 33.203V31.505C17.3039 31.0094 17.463 30.6453 17.7811 30.4128C18.0993 30.1742 18.5551 30.0549 19.1487 30.0549C19.7361 30.0549 20.1889 30.1497 20.507 30.3394C20.8252 30.5291 20.9843 30.8228 20.9843 31.2205V31.6335ZM20.1583 31.2113C20.1583 30.8809 20.1001 30.6576 19.9839 30.5413C19.8431 30.4006 19.5647 30.3302 19.1487 30.3302C18.7571 30.3302 18.4909 30.4006 18.3502 30.5413C18.2094 30.6698 18.1391 30.8778 18.1391 31.1654V32.1475H19.525C19.7636 32.1475 19.9288 32.1108 20.0206 32.0373C20.1124 31.9639 20.1583 31.8262 20.1583 31.6243V31.2113Z" fill="#F9F9F9"/>
<path d="M24.4463 30.3394C23.9384 30.3394 23.5407 30.5291 23.2531 30.9084C22.9656 31.2878 22.8218 31.8048 22.8218 32.4595C22.8218 33.102 22.9656 33.6037 23.2531 33.9647C23.5407 34.3196 23.9415 34.4971 24.4555 34.4971C24.7369 34.4971 24.997 34.4236 25.2356 34.2768C25.3947 34.1789 25.5446 34.0412 25.6853 33.8638L25.9882 34.1391C25.8108 34.3349 25.6119 34.4818 25.3916 34.5797C25.0979 34.7082 24.74 34.7724 24.3178 34.7724C23.6876 34.7724 23.1491 34.5858 22.7025 34.2125C22.2068 33.7903 21.959 33.206 21.959 32.4595C21.959 31.6641 22.2007 31.0522 22.6841 30.6239C23.1063 30.2568 23.6509 30.0732 24.3178 30.0732C24.7461 30.0732 25.1132 30.1558 25.4192 30.321C25.6027 30.4251 25.7832 30.5811 25.9607 30.7891L25.6394 31.0369C25.462 30.8105 25.2907 30.6453 25.1255 30.5413C24.9113 30.4067 24.6849 30.3394 24.4463 30.3394Z" fill="#F9F9F9"/>
<path d="M26.8063 30.1467H29.9268V30.422H28.7979V34.6439H27.9719V30.422H26.8063V30.1467Z" fill="#F9F9F9"/>
<path d="M34.426 34.6439V31.0369C34.426 30.8534 34.3892 30.7616 34.3158 30.7616L34.2332 30.7891L34.0955 30.9635L31.8928 34.084L31.6358 34.442C31.5134 34.595 31.3788 34.6714 31.232 34.6714C30.9811 34.6714 30.8557 34.4542 30.8557 34.0198V30.1467H31.6817V33.3314C31.6817 33.4416 31.7001 33.4967 31.7368 33.4967C31.7735 33.4967 31.8285 33.4477 31.902 33.3498L33.655 30.8809C33.8569 30.5872 33.9976 30.4006 34.0772 30.321C34.2546 30.1375 34.4443 30.0457 34.6462 30.0457C34.8849 30.0457 35.0562 30.1558 35.1602 30.3761C35.2214 30.5413 35.252 30.7708 35.252 31.0645V34.6439H34.426Z" fill="#F9F9F9"/>
<path d="M36.6308 34.6439V30.1467H37.4569V34.3686H39.2466V30.1467H40.0726V34.3686H40.66L40.1828 36.0665H39.6321L40.0267 34.6439H36.6308Z" fill="#F9F9F9"/>
<path d="M45.1636 34.6439V31.0369C45.1636 30.8534 45.1269 30.7616 45.0535 30.7616L44.9708 30.7891L44.8332 30.9635L42.6304 34.084L42.3735 34.442C42.2511 34.595 42.1165 34.6714 41.9696 34.6714C41.7188 34.6714 41.5933 34.4542 41.5933 34.0198V30.1467H42.4193V33.3314C42.4193 33.4416 42.4377 33.4967 42.4744 33.4967C42.5111 33.4967 42.5662 33.4477 42.6396 33.3498L44.3926 30.8809C44.5945 30.5872 44.7353 30.4006 44.8148 30.321C44.9923 30.1375 45.1819 30.0457 45.3839 30.0457C45.6225 30.0457 45.7938 30.1558 45.8978 30.3761C45.959 30.5413 45.9896 30.7708 45.9896 31.0645V34.6439H45.1636Z" fill="#F9F9F9"/>
<path d="M50.8103 34.6439V31.0369C50.8103 30.8534 50.7735 30.7616 50.7001 30.7616L50.6175 30.7891L50.4799 30.9635L48.2771 34.084L48.0201 34.442C47.8977 34.595 47.7631 34.6714 47.6163 34.6714C47.3654 34.6714 47.24 34.4542 47.24 34.0198V30.1467H48.066V33.3314C48.066 33.4416 48.0844 33.4967 48.1211 33.4967C48.1578 33.4967 48.2129 33.4477 48.2863 33.3498L50.0393 30.8809C50.2412 30.5872 50.382 30.4006 50.4615 30.321C50.6389 30.1375 50.8286 30.0457 51.0305 30.0457C51.2692 30.0457 51.4405 30.1558 51.5445 30.3761C51.6057 30.5413 51.6363 30.7708 51.6363 31.0645V34.6439H50.8103Z" fill="#F9F9F9"/>
<path d="M56.3157 34.6439V28.2193H57.2886L59.5831 33.1662L61.795 28.2193H62.6027V34.6439H61.6848V29.1554L59.2159 34.7724L56.6002 29.1554V34.6439H56.3157Z" fill="#F9F9F9"/>
<path d="M67.2466 31.1471C67.2466 30.8534 67.1701 30.6423 67.0171 30.5138C66.8702 30.3792 66.5827 30.3119 66.1544 30.3119C65.7138 30.3119 65.414 30.3792 65.2549 30.5138C65.0958 30.6423 65.0163 30.8687 65.0163 31.193H64.2545C64.2545 30.8075 64.4258 30.5199 64.7685 30.3302C65.1111 30.1344 65.5731 30.0365 66.1544 30.0365C66.8825 30.0365 67.3842 30.1252 67.6596 30.3027C67.941 30.4801 68.0818 30.8014 68.0818 31.2664V34.6439H65.5761C65.0805 34.6439 64.7012 34.5277 64.4381 34.2951C64.1811 34.0626 64.0526 33.7598 64.0526 33.3865C64.0526 32.9643 64.2117 32.6186 64.5299 32.3494C64.848 32.0802 65.3069 31.9456 65.9065 31.9456H67.2466V31.1471ZM67.2466 34.3777V32.2209H65.8607C65.5425 32.2209 65.2947 32.328 65.1172 32.5421C64.9398 32.7563 64.8511 33.0224 64.8511 33.3406C64.8511 33.6588 64.9276 33.9127 65.0805 34.1024C65.2396 34.286 65.4752 34.3777 65.7872 34.3777H67.2466Z" fill="#F9F9F9"/>
<path d="M71.6901 30.3394C71.1823 30.3394 70.7845 30.5291 70.497 30.9084C70.2094 31.2878 70.0656 31.8048 70.0656 32.4595C70.0656 33.102 70.2094 33.6037 70.497 33.9647C70.7845 34.3196 71.1853 34.4971 71.6993 34.4971C71.9807 34.4971 72.2408 34.4236 72.4794 34.2768C72.6385 34.1789 72.7884 34.0412 72.9291 33.8638L73.232 34.1391C73.0546 34.3349 72.8557 34.4818 72.6355 34.5797C72.3418 34.7082 71.9838 34.7724 71.5616 34.7724C70.9314 34.7724 70.3929 34.5858 69.9463 34.2125C69.4507 33.7903 69.2028 33.206 69.2028 32.4595C69.2028 31.6641 69.4445 31.0522 69.9279 30.6239C70.3501 30.2568 70.8947 30.0732 71.5616 30.0732C71.9899 30.0732 72.357 30.1558 72.663 30.321C72.8465 30.4251 73.0271 30.5811 73.2045 30.7891L72.8833 31.0369C72.7058 30.8105 72.5345 30.6453 72.3693 30.5413C72.1551 30.4067 71.9287 30.3394 71.6901 30.3394Z" fill="#F9F9F9"/>
<path d="M77.4735 34.3686H78.8502V30.1467H79.6762V34.6439H74.4448V30.1467H75.2708V34.3686H76.6475V30.1467H77.4735V34.3686Z" fill="#F9F9F9"/>
<path d="M80.7365 30.1467H83.857V30.422H82.7281V34.6439H81.9021V30.422H80.7365V30.1467Z" fill="#F9F9F9"/>
<path d="M87.8972 31.1471C87.8972 30.8534 87.8207 30.6423 87.6678 30.5138C87.5209 30.3792 87.2334 30.3119 86.8051 30.3119C86.3645 30.3119 86.0647 30.3792 85.9056 30.5138C85.7465 30.6423 85.667 30.8687 85.667 31.193H84.9052C84.9052 30.8075 85.0765 30.5199 85.4192 30.3302C85.7618 30.1344 86.2238 30.0365 86.8051 30.0365C87.5332 30.0365 88.0349 30.1252 88.3103 30.3027C88.5917 30.4801 88.7324 30.8014 88.7324 31.2664V34.6439H86.2268C85.7312 34.6439 85.3519 34.5277 85.0887 34.2951C84.8318 34.0626 84.7033 33.7598 84.7033 33.3865C84.7033 32.9643 84.8624 32.6186 85.1805 32.3494C85.4987 32.0802 85.9576 31.9456 86.5572 31.9456H87.8972V31.1471ZM87.8972 34.3777V32.2209H86.5113C86.1932 32.2209 85.9454 32.328 85.7679 32.5421C85.5905 32.7563 85.5018 33.0224 85.5018 33.3406C85.5018 33.6588 85.5782 33.9127 85.7312 34.1024C85.8903 34.286 86.1259 34.3777 86.4379 34.3777H87.8972Z" fill="#F9F9F9"/>
<path d="M94.1672 28.0449L94.2039 27.9806C94.2223 27.9867 94.2407 27.9959 94.259 28.0082C94.2774 28.0143 94.2927 28.0326 94.3049 28.0632L94.3416 28.2927C94.3416 28.3906 94.3263 28.4793 94.2957 28.5588C94.2774 28.6323 94.2345 28.7118 94.1672 28.7975C94.1244 28.8525 94.0296 28.9015 93.8827 28.9443C93.7359 28.981 93.5523 28.9994 93.332 28.9994C93.1362 28.9994 92.9588 29.0086 92.7997 29.0269C92.6406 29.0392 92.506 29.0575 92.3959 29.082C91.9431 29.1554 91.5698 29.3145 91.2761 29.5593C90.9151 29.8652 90.6704 30.3394 90.5419 30.9819C90.6704 30.7065 90.8601 30.4832 91.1109 30.3119C91.3985 30.1222 91.7381 30.0273 92.1297 30.0273C92.8762 30.0273 93.4666 30.2721 93.9011 30.7616C94.2926 31.2082 94.4885 31.7528 94.4885 32.3953C94.4885 33.0439 94.2896 33.5854 93.8919 34.0198C93.4513 34.5154 92.8486 34.7632 92.0838 34.7632C91.4903 34.7632 90.9794 34.5307 90.5511 34.0657C90.1044 33.5701 89.8811 32.946 89.8811 32.1934C89.8811 31.3 90.083 30.5138 90.4868 29.8346C91.013 28.9535 91.8329 28.4334 92.9465 28.2743C93.1362 28.2743 93.2678 28.2713 93.3412 28.2651C93.4146 28.259 93.5768 28.2376 93.8276 28.2009C94.0112 28.1825 94.1244 28.1305 94.1672 28.0449ZM90.7071 32.3677C90.7071 32.949 90.8264 33.4416 91.065 33.8454C91.3343 34.2921 91.7044 34.5154 92.1756 34.5154C92.6345 34.5154 93.0016 34.2921 93.2769 33.8454C93.5217 33.4293 93.6441 32.9368 93.6441 32.3677C93.6441 31.7926 93.5248 31.3031 93.2861 30.8993C93.0169 30.4526 92.6467 30.2293 92.1756 30.2293C91.7167 30.2293 91.3495 30.4526 91.0742 30.8993C90.9518 31.1073 90.8601 31.3306 90.7989 31.5693C90.7377 31.8018 90.7071 32.0679 90.7071 32.3677Z" fill="#F9F9F9"/>
<path d="M98.9773 34.6439V31.0369C98.9773 30.8534 98.9405 30.7616 98.8671 30.7616L98.7845 30.7891L98.6469 30.9635L96.4441 34.084L96.1871 34.442C96.0648 34.595 95.9302 34.6714 95.7833 34.6714C95.5324 34.6714 95.407 34.4542 95.407 34.0198V30.1467H96.233V33.3314C96.233 33.4416 96.2514 33.4967 96.2881 33.4967C96.3248 33.4967 96.3799 33.4477 96.4533 33.3498L98.2063 30.8809C98.4082 30.5872 98.549 30.4006 98.6285 30.321C98.806 30.1375 98.9956 30.0457 99.1975 30.0457C99.4362 30.0457 99.6075 30.1558 99.7115 30.3761C99.7727 30.5413 99.8033 30.7708 99.8033 31.0645V34.6439H98.9773Z" fill="#F9F9F9"/>
<path d="M101.008 30.1467H102.935C103.725 30.1467 104.352 30.3792 104.817 30.8442C105.233 31.2725 105.441 31.7956 105.441 32.4136C105.441 33.0072 105.233 33.515 104.817 33.9372C104.358 34.4083 103.731 34.6439 102.935 34.6439H101.834V36.4612H101.008V30.1467ZM101.834 34.3686H103.027C103.529 34.3686 103.911 34.1881 104.174 33.8271C104.437 33.4599 104.569 32.9888 104.569 32.4136C104.569 31.8018 104.437 31.3245 104.174 30.9819C103.893 30.6086 103.495 30.422 102.981 30.422H101.834V34.3686Z" fill="#F9F9F9"/>
<path d="M106.192 32.3861C106.192 31.7498 106.394 31.2052 106.798 30.7524C107.251 30.2568 107.863 30.009 108.634 30.009C109.399 30.009 110.01 30.2568 110.469 30.7524C110.873 31.193 111.075 31.7375 111.075 32.3861C111.075 33.0225 110.873 33.5701 110.469 34.029C110.029 34.5246 109.417 34.7724 108.634 34.7724C107.869 34.7724 107.257 34.5246 106.798 34.029C106.394 33.5884 106.192 33.0408 106.192 32.3861ZM110.249 32.3677C110.249 31.7742 110.118 31.2786 109.854 30.8809C109.555 30.4342 109.148 30.2109 108.634 30.2109C108.126 30.2109 107.722 30.4342 107.422 30.8809C107.153 31.2909 107.018 31.7865 107.018 32.3677C107.018 32.9613 107.15 33.4569 107.413 33.8546C107.713 34.3013 108.12 34.5246 108.634 34.5246C109.142 34.5246 109.545 34.3013 109.845 33.8546C110.114 33.4446 110.249 32.949 110.249 32.3677Z" fill="#F9F9F9"/>
<path d="M114.555 34.6439H112.178V30.1467H114.261C114.629 30.1467 114.925 30.2568 115.152 30.4771C115.378 30.6973 115.491 30.9666 115.491 31.2847C115.491 31.7803 115.32 32.1108 114.977 32.276C115.21 32.331 115.406 32.4473 115.565 32.6247C115.761 32.8328 115.858 33.0898 115.858 33.3957C115.858 33.7445 115.745 34.0412 115.519 34.286C115.292 34.5246 114.971 34.6439 114.555 34.6439ZM113.931 30.422H113.004V32.1475H113.931C114.206 32.1475 114.421 32.0649 114.573 31.8997C114.733 31.7345 114.812 31.5295 114.812 31.2847C114.812 31.0522 114.729 30.8503 114.564 30.679C114.399 30.5077 114.188 30.422 113.931 30.422ZM114.206 32.4228H113.004V34.3686H114.206C114.482 34.3686 114.699 34.2798 114.858 34.1024C115.011 33.9127 115.087 33.6772 115.087 33.3957C115.087 33.1448 115.005 32.9215 114.84 32.7257C114.681 32.5238 114.469 32.4228 114.206 32.4228Z" fill="#F9F9F9"/>
<path d="M119.958 31.1471C119.958 30.8534 119.881 30.6423 119.728 30.5138C119.581 30.3792 119.294 30.3119 118.866 30.3119C118.425 30.3119 118.125 30.3792 117.966 30.5138C117.807 30.6423 117.728 30.8687 117.728 31.193H116.966C116.966 30.8075 117.137 30.5199 117.48 30.3302C117.822 30.1344 118.284 30.0365 118.866 30.0365C119.594 30.0365 120.095 30.1252 120.371 30.3027C120.652 30.4801 120.793 30.8014 120.793 31.2664V34.6439H118.287C117.792 34.6439 117.412 34.5277 117.149 34.2951C116.892 34.0626 116.764 33.7598 116.764 33.3865C116.764 32.9643 116.923 32.6186 117.241 32.3494C117.559 32.0802 118.018 31.9456 118.618 31.9456H119.958V31.1471ZM119.958 34.3777V32.2209H118.572C118.254 32.2209 118.006 32.328 117.828 32.5421C117.651 32.7563 117.562 33.0224 117.562 33.3406C117.562 33.6588 117.639 33.9127 117.792 34.1024C117.951 34.286 118.186 34.3777 118.498 34.3777H119.958Z" fill="#F9F9F9"/>
<path d="M123.071 30.1467V31.9364H125.126V30.1467H125.952V34.6439H125.126V32.2117H123.071V34.6439H122.244V30.1467H123.071Z" fill="#F9F9F9"/>
<path d="M130.832 34.6439V31.0369C130.832 30.8534 130.795 30.7616 130.722 30.7616L130.639 30.7891L130.501 30.9635L128.299 34.084L128.042 34.442C127.919 34.595 127.785 34.6714 127.638 34.6714C127.387 34.6714 127.261 34.4542 127.261 34.0198V30.1467H128.087V33.3314C128.087 33.4416 128.106 33.4967 128.143 33.4967C128.179 33.4967 128.234 33.4477 128.308 33.3498L130.061 30.8809C130.263 30.5872 130.403 30.4006 130.483 30.321C130.66 30.1375 130.85 30.0457 131.052 30.0457C131.291 30.0457 131.462 30.1558 131.566 30.3761C131.627 30.5413 131.658 30.7708 131.658 31.0645V34.6439H130.832Z" fill="#F9F9F9"/>
<path d="M136.598 31.6335C136.598 31.8905 136.533 32.0863 136.405 32.2209C136.276 32.3555 136.056 32.4228 135.744 32.4228H133.752V33.5976C133.752 33.8913 133.823 34.1055 133.964 34.2401C134.11 34.3686 134.377 34.4328 134.762 34.4328C135.19 34.4328 135.475 34.3686 135.616 34.2401C135.756 34.1116 135.827 33.8821 135.827 33.5517H136.588C136.588 33.9433 136.442 34.234 136.148 34.4236C135.854 34.6133 135.392 34.7082 134.762 34.7082C134.071 34.7082 133.59 34.598 133.321 34.3777C133.052 34.1514 132.917 33.7598 132.917 33.203V31.505C132.917 31.0094 133.076 30.6453 133.395 30.4128C133.713 30.1742 134.169 30.0549 134.762 30.0549C135.349 30.0549 135.802 30.1497 136.12 30.3394C136.439 30.5291 136.598 30.8228 136.598 31.2205V31.6335ZM135.772 31.2113C135.772 30.8809 135.714 30.6576 135.597 30.5413C135.457 30.4006 135.178 30.3302 134.762 30.3302C134.37 30.3302 134.104 30.4006 133.964 30.5413C133.823 30.6698 133.752 30.8778 133.752 31.1654V32.1475H135.138C135.377 32.1475 135.542 32.1108 135.634 32.0373C135.726 31.9639 135.772 31.8262 135.772 31.6243V31.2113Z" fill="#F9F9F9"/>
<path d="M141.258 34.6439L141.653 36.0665H141.102L140.625 34.3686H141.213L144.076 27.9439L146.94 34.3686H147.518L147.041 36.0665H146.49L146.885 34.6439H141.258ZM146.013 34.3686L143.764 29.3482L141.525 34.3686H146.013Z" fill="#F9F9F9"/>
<path d="M152.05 31.6335C152.05 31.8905 151.986 32.0863 151.857 32.2209C151.729 32.3555 151.508 32.4228 151.196 32.4228H149.205V33.5976C149.205 33.8913 149.275 34.1055 149.416 34.2401C149.563 34.3686 149.829 34.4328 150.214 34.4328C150.643 34.4328 150.927 34.3686 151.068 34.2401C151.208 34.1116 151.279 33.8821 151.279 33.5517H152.041C152.041 33.9433 151.894 34.234 151.6 34.4236C151.306 34.6133 150.844 34.7082 150.214 34.7082C149.523 34.7082 149.042 34.598 148.773 34.3777C148.504 34.1514 148.369 33.7598 148.369 33.203V31.505C148.369 31.0094 148.528 30.6453 148.847 30.4128C149.165 30.1742 149.621 30.0549 150.214 30.0549C150.802 30.0549 151.254 30.1497 151.573 30.3394C151.891 30.5291 152.05 30.8228 152.05 31.2205V31.6335ZM151.224 31.2113C151.224 30.8809 151.166 30.6576 151.049 30.5413C150.909 30.4006 150.63 30.3302 150.214 30.3302C149.823 30.3302 149.556 30.4006 149.416 30.5413C149.275 30.6698 149.205 30.8778 149.205 31.1654V32.1475H150.59C150.829 32.1475 150.994 32.1108 151.086 32.0373C151.178 31.9639 151.224 31.8262 151.224 31.6243V31.2113Z" fill="#F9F9F9"/>
<path d="M155.686 34.6439H153.309V30.1467H155.393C155.76 30.1467 156.056 30.2568 156.283 30.4771C156.509 30.6973 156.622 30.9666 156.622 31.2847C156.622 31.7803 156.451 32.1108 156.108 32.276C156.341 32.331 156.537 32.4473 156.696 32.6247C156.892 32.8328 156.989 33.0898 156.989 33.3957C156.989 33.7445 156.876 34.0412 156.65 34.286C156.424 34.5246 156.102 34.6439 155.686 34.6439ZM155.062 30.422H154.135V32.1475H155.062C155.337 32.1475 155.552 32.0649 155.705 31.8997C155.864 31.7345 155.943 31.5295 155.943 31.2847C155.943 31.0522 155.861 30.8503 155.695 30.679C155.53 30.5077 155.319 30.422 155.062 30.422ZM155.337 32.4228H154.135V34.3686H155.337C155.613 34.3686 155.83 34.2798 155.989 34.1024C156.142 33.9127 156.219 33.6772 156.219 33.3957C156.219 33.1448 156.136 32.9215 155.971 32.7257C155.812 32.5238 155.601 32.4228 155.337 32.4228Z" fill="#F9F9F9"/>
<path d="M161.667 31.6335C161.667 31.8905 161.603 32.0863 161.474 32.2209C161.346 32.3555 161.126 32.4228 160.814 32.4228H158.822V33.5976C158.822 33.8913 158.892 34.1055 159.033 34.2401C159.18 34.3686 159.446 34.4328 159.831 34.4328C160.26 34.4328 160.544 34.3686 160.685 34.2401C160.826 34.1116 160.896 33.8821 160.896 33.5517H161.658C161.658 33.9433 161.511 34.234 161.217 34.4236C160.924 34.6133 160.462 34.7082 159.831 34.7082C159.14 34.7082 158.66 34.598 158.391 34.3777C158.121 34.1514 157.987 33.7598 157.987 33.203V31.505C157.987 31.0094 158.146 30.6453 158.464 30.4128C158.782 30.1742 159.238 30.0549 159.831 30.0549C160.419 30.0549 160.872 30.1497 161.19 30.3394C161.508 30.5291 161.667 30.8228 161.667 31.2205V31.6335ZM160.841 31.2113C160.841 30.8809 160.783 30.6576 160.667 30.5413C160.526 30.4006 160.248 30.3302 159.831 30.3302C159.44 30.3302 159.174 30.4006 159.033 30.5413C158.892 30.6698 158.822 30.8778 158.822 31.1654V32.1475H160.208C160.446 32.1475 160.612 32.1108 160.703 32.0373C160.795 31.9639 160.841 31.8262 160.841 31.6243V31.2113Z" fill="#F9F9F9"/>
<path d="M166.588 34.6439H165.671L164.358 31.5142C164.34 31.4346 164.288 31.3949 164.202 31.3949C164.141 31.3949 164.092 31.4316 164.055 31.505L162.78 34.6439H162.458L164.175 30.422C164.224 30.2874 164.266 30.2017 164.303 30.165C164.34 30.1283 164.392 30.1099 164.459 30.1099C164.533 30.1099 164.594 30.1436 164.643 30.2109L164.744 30.422L166.588 34.6439Z" fill="#F9F9F9"/>
<path d="M167.167 32.3861C167.167 31.7498 167.369 31.2052 167.773 30.7524C168.226 30.2568 168.838 30.009 169.609 30.009C170.374 30.009 170.986 30.2568 171.444 30.7524C171.848 31.193 172.05 31.7375 172.05 32.3861C172.05 33.0225 171.848 33.5701 171.444 34.029C171.004 34.5246 170.392 34.7724 169.609 34.7724C168.844 34.7724 168.232 34.5246 167.773 34.029C167.369 33.5884 167.167 33.0408 167.167 32.3861ZM171.224 32.3677C171.224 31.7742 171.093 31.2786 170.83 30.8809C170.53 30.4342 170.123 30.2109 169.609 30.2109C169.101 30.2109 168.697 30.4342 168.397 30.8809C168.128 31.2909 167.993 31.7865 167.993 32.3677C167.993 32.9613 168.125 33.4569 168.388 33.8546C168.688 34.3013 169.095 34.5246 169.609 34.5246C170.117 34.5246 170.521 34.3013 170.82 33.8546C171.09 33.4446 171.224 32.949 171.224 32.3677Z" fill="#F9F9F9"/>
<path d="M176.971 30.1467V34.6439H176.145V30.422H174.089V34.6439H173.263V30.1467H176.971Z" fill="#F9F9F9"/>
<path d="M180.866 33.4783L182.334 30.4679C182.402 30.3333 182.481 30.2323 182.573 30.165C182.665 30.0916 182.787 30.0549 182.94 30.0549C183.093 30.0549 183.215 30.1099 183.307 30.2201C183.399 30.3302 183.445 30.4587 183.445 30.6056V34.6439H182.665V31.3398C182.665 31.1501 182.619 31.0553 182.527 31.0553C182.472 31.0553 182.426 31.0736 182.389 31.1103C182.353 31.1471 182.31 31.2174 182.261 31.3214L180.59 34.7724L178.948 31.3398L178.865 31.1746C178.84 31.144 178.804 31.1226 178.755 31.1103C178.724 31.1103 178.691 31.1318 178.654 31.1746C178.642 31.1991 178.632 31.2266 178.626 31.2572C178.62 31.2878 178.617 31.3398 178.617 31.4132V34.6439H178.342V30.6423C178.342 30.2813 178.516 30.1008 178.865 30.1008C179.036 30.1008 179.165 30.1314 179.25 30.1925C179.342 30.2476 179.428 30.3639 179.507 30.5413L180.866 33.4783Z" fill="#F9F9F9"/>
<path d="M188.404 31.6335C188.404 31.8905 188.339 32.0863 188.211 32.2209C188.082 32.3555 187.862 32.4228 187.55 32.4228H185.558V33.5976C185.558 33.8913 185.629 34.1055 185.77 34.2401C185.916 34.3686 186.183 34.4328 186.568 34.4328C186.996 34.4328 187.281 34.3686 187.422 34.2401C187.562 34.1116 187.633 33.8821 187.633 33.5517H188.394C188.394 33.9433 188.248 34.234 187.954 34.4236C187.66 34.6133 187.198 34.7082 186.568 34.7082C185.877 34.7082 185.396 34.598 185.127 34.3777C184.858 34.1514 184.723 33.7598 184.723 33.203V31.505C184.723 31.0094 184.882 30.6453 185.2 30.4128C185.519 30.1742 185.974 30.0549 186.568 30.0549C187.155 30.0549 187.608 30.1497 187.926 30.3394C188.245 30.5291 188.404 30.8228 188.404 31.2205V31.6335ZM187.578 31.2113C187.578 30.8809 187.519 30.6576 187.403 30.5413C187.262 30.4006 186.984 30.3302 186.568 30.3302C186.176 30.3302 185.91 30.4006 185.77 30.5413C185.629 30.6698 185.558 30.8778 185.558 31.1654V32.1475H186.944C187.183 32.1475 187.348 32.1108 187.44 32.0373C187.532 31.9639 187.578 31.8262 187.578 31.6243V31.2113Z" fill="#F9F9F9"/>
<path d="M190.535 30.1467V31.9364H192.591V30.1467H193.417V34.6439H192.591V32.2117H190.535V34.6439H189.709V30.1467H190.535Z" fill="#F9F9F9"/>
<path d="M194.423 30.1467H197.543V30.422H196.414V34.6439H195.588V30.422H194.423V30.1467Z" fill="#F9F9F9"/>
<path d="M0.85464 0.794018H13.8859V2.13319C12.2377 1.96151 10.5551 1.84991 8.8382 1.7984C7.12131 1.74689 5.19839 1.72114 3.06944 1.72114V9.55018C4.64898 9.55018 5.9109 9.53301 6.85519 9.49867C7.81665 9.46434 8.82962 9.38708 9.89409 9.26689V10.7606C8.82962 10.6404 7.81665 10.5631 6.85519 10.5288C5.9109 10.4945 4.64898 10.4773 3.06944 10.4773V19.2335H0.85464V0.794018Z" fill="#F9F9F9"/>
<path d="M24.0357 0.794018H31.2467C32.5 0.794018 33.6074 1.0258 34.5689 1.48936C35.5303 1.93575 36.2686 2.571 36.7837 3.39511C37.3159 4.20205 37.582 5.13776 37.582 6.20224C37.582 7.52424 37.1872 8.64881 36.3974 9.57593C35.6248 10.4859 34.5431 11.0954 33.1524 11.4044L37.7881 19.2335H35.187L30.6801 11.6105H26.2505V19.2335H24.0357V0.794018ZM31.1952 10.6833C32.5687 10.6833 33.6074 10.3056 34.3114 9.55018C35.0325 8.77758 35.393 7.6616 35.393 6.20224C35.393 4.74288 35.0325 3.63548 34.3114 2.88004C33.6074 2.10744 32.5687 1.72114 31.1952 1.72114H26.2505V10.6833H31.1952Z" fill="#F9F9F9"/>
<path d="M56.2927 19.6198C54.6445 19.6198 53.1594 19.2077 51.8374 18.3836C50.5154 17.5423 49.4766 16.392 48.7212 14.9326C47.9658 13.4561 47.5881 11.8165 47.5881 10.0137C47.5881 8.211 47.9658 6.57995 48.7212 5.12059C49.4766 3.66123 50.5154 2.5195 51.8374 1.69539C53.1594 0.854107 54.6445 0.433468 56.2927 0.433468C57.9409 0.433468 59.426 0.854107 60.7481 1.69539C62.0701 2.5195 63.1088 3.66123 63.8642 5.12059C64.6196 6.57995 64.9974 8.211 64.9974 10.0137C64.9974 11.8165 64.6196 13.4561 63.8642 14.9326C63.1088 16.392 62.0701 17.5423 60.7481 18.3836C59.426 19.2077 57.9409 19.6198 56.2927 19.6198ZM56.2927 18.7442C57.6147 18.7442 58.765 18.3922 59.7437 17.6883C60.7395 16.9843 61.4949 15.98 62.01 14.6751C62.5422 13.3531 62.8083 11.7993 62.8083 10.0137C62.8083 8.22817 62.5422 6.68296 62.01 5.37812C61.4949 4.07329 60.7395 3.0689 59.7437 2.36498C58.765 1.66105 57.6147 1.30909 56.2927 1.30909C54.9707 1.30909 53.8118 1.66105 52.816 2.36498C51.8374 3.0689 51.0819 4.07329 50.5497 5.37812C50.0346 6.68296 49.7771 8.22817 49.7771 10.0137C49.7771 11.7993 50.0346 13.3531 50.5497 14.6751C51.0819 15.98 51.8374 16.9843 52.816 17.6883C53.8118 18.3922 54.9707 18.7442 56.2927 18.7442Z" fill="#F9F9F9"/>
<path d="M89.2324 0.794018C89.1122 2.45941 89.0349 4.18488 89.0006 5.97045C88.9662 7.75602 88.9491 10.194 88.9491 13.2844V19.2335H88.125L76.3299 2.67402V7.85045C76.3299 10.5975 76.3471 12.7951 76.3814 14.4433C76.4329 16.0915 76.5102 17.6883 76.6132 19.2335H75.1195C75.2397 17.5681 75.3169 15.8426 75.3513 14.057C75.3856 12.2715 75.4028 9.83347 75.4028 6.74306V0.794018H77.7206L88.0219 15.2932V11.6362C88.0219 9.06086 87.9962 6.98342 87.9447 5.40388C87.9103 3.82433 87.8417 2.28772 87.7386 0.794018H89.2324Z" fill="#F9F9F9"/>
<path d="M104.76 1.72114C102.373 1.72114 100.459 1.86708 99.0166 2.15895L99.4029 0.794018H112.331L112.717 2.15895C111.275 1.86708 109.361 1.72114 106.974 1.72114V19.2335H104.76V1.72114Z" fill="#F9F9F9"/>
<path d="M123.054 0.794018H125.268V19.2335H123.054V0.794018Z" fill="#F9F9F9"/>
<path d="M137.225 0.794018H150.205L150.591 2.13319C147.827 1.85849 144.11 1.72114 139.44 1.72114V9.55018C141.019 9.55018 142.281 9.53301 143.226 9.49867C144.187 9.46434 145.2 9.38708 146.265 9.26689V10.7606C145.2 10.6404 144.187 10.5631 143.226 10.5288C142.281 10.4945 141.019 10.4773 139.44 10.4773V18.3063C144.11 18.3063 147.827 18.169 150.591 17.8943L150.205 19.2335H137.225V0.794018Z" fill="#F9F9F9"/>
<path d="M161.236 0.794018H168.447C169.7 0.794018 170.808 1.0258 171.769 1.48936C172.731 1.93575 173.469 2.571 173.984 3.39511C174.516 4.20205 174.782 5.13776 174.782 6.20224C174.782 7.52424 174.388 8.64881 173.598 9.57593C172.825 10.4859 171.743 11.0954 170.353 11.4044L174.988 19.2335H172.387L167.88 11.6105H163.451V19.2335H161.236V0.794018ZM168.396 10.6833C169.769 10.6833 170.808 10.3056 171.512 9.55018C172.233 8.77758 172.593 7.6616 172.593 6.20224C172.593 4.74288 172.233 3.63548 171.512 2.88004C170.808 2.10744 169.769 1.72114 168.396 1.72114H163.451V10.6833H168.396Z" fill="#F9F9F9"/>
<path d="M191.17 19.6455C189.728 19.6455 188.441 19.3107 187.307 18.6411C186.174 17.9715 185.376 17.0702 184.912 15.937L186.406 15.3189C186.578 16.3491 187.101 17.1818 187.977 17.817C188.853 18.4523 189.926 18.7699 191.196 18.7699C192.45 18.7699 193.445 18.4523 194.184 17.817C194.939 17.1818 195.317 16.3319 195.317 15.2674C195.317 14.3575 195.094 13.6192 194.647 13.0526C194.218 12.4689 193.677 12.0139 193.025 11.6877C192.372 11.3615 191.488 11.0095 190.372 10.6318C189.222 10.2369 188.295 9.86781 187.591 9.52443C186.904 9.18105 186.312 8.69173 185.814 8.05648C185.333 7.40406 185.093 6.57137 185.093 5.5584C185.093 4.5626 185.35 3.6784 185.865 2.9058C186.397 2.11602 187.127 1.50653 188.054 1.0773C188.981 0.630911 190.029 0.407715 191.196 0.407715C192.604 0.407715 193.849 0.74251 194.93 1.4121C196.029 2.06452 196.793 2.94872 197.223 4.0647L195.755 4.68278C195.6 3.65265 195.102 2.82854 194.261 2.21045C193.437 1.5752 192.415 1.25758 191.196 1.25758C189.96 1.25758 188.956 1.58379 188.183 2.23621C187.428 2.87146 187.05 3.71274 187.05 4.76004C187.05 5.48114 187.239 6.08205 187.616 6.56278C188.011 7.02634 188.501 7.40406 189.084 7.69593C189.685 7.97064 190.501 8.28826 191.531 8.64881C192.767 9.07803 193.772 9.49867 194.544 9.91073C195.317 10.3056 195.969 10.8808 196.501 11.6362C197.051 12.3745 197.326 13.3445 197.326 14.5463C197.326 15.525 197.059 16.4006 196.527 17.1732C195.995 17.9458 195.257 18.5553 194.312 19.0017C193.385 19.4309 192.338 19.6455 191.17 19.6455Z" fill="#F9F9F9"/>
</svg>
