<svg width="72" height="56" viewBox="0 0 72 56" fill="none" xmlns="http://www.w3.org/2000/svg">
<path d="M36 12L37.1262 11.2556C36.8763 10.8775 36.4533 10.65 36 10.65C35.5467 10.65 35.1237 10.8775 34.8738 11.2556L36 12ZM48.8889 31.5L47.7627 32.2444C48.1463 32.8248 48.9081 33.0186 49.5225 32.6921L48.8889 31.5ZM63 24L64.3321 24.2193C64.4155 23.7128 64.2043 23.2028 63.7874 22.9034C63.3704 22.604 62.8197 22.567 62.3664 22.8079L63 24ZM58.5556 51V52.35C59.2165 52.35 59.7803 51.8714 59.8876 51.2193L58.5556 51ZM13.4444 51L12.1124 51.2193C12.2197 51.8714 12.7835 52.35 13.4444 52.35V51ZM9 24L9.63359 22.8079C9.18031 22.567 8.62961 22.604 8.21263 22.9034C7.79565 23.2028 7.58455 23.7128 7.66793 24.2193L9 24ZM23.1111 31.5L22.4775 32.6921C23.0919 33.0186 23.8537 32.8248 24.2373 32.2444L23.1111 31.5ZM34.8738 12.7444L47.7627 32.2444L50.0151 30.7556L37.1262 11.2556L34.8738 12.7444ZM49.5225 32.6921L63.6336 25.1921L62.3664 22.8079L48.2553 30.3079L49.5225 32.6921ZM61.6679 23.7807L57.2235 50.7807L59.8876 51.2193L64.3321 24.2193L61.6679 23.7807ZM58.5556 49.65H13.4444V52.35H58.5556V49.65ZM14.7765 50.7807L10.3321 23.7807L7.66793 24.2193L12.1124 51.2193L14.7765 50.7807ZM8.36641 25.1921L22.4775 32.6921L23.7447 30.3079L9.63359 22.8079L8.36641 25.1921ZM24.2373 32.2444L37.1262 12.7444L34.8738 11.2556L21.9849 30.7556L24.2373 32.2444ZM37.65 8C37.65 8.91127 36.9113 9.65 36 9.65V12.35C38.4024 12.35 40.35 10.4024 40.35 8H37.65ZM36 9.65C35.0887 9.65 34.35 8.91127 34.35 8H31.65C31.65 10.4024 33.5976 12.35 36 12.35V9.65ZM34.35 8C34.35 7.08873 35.0887 6.35 36 6.35V3.65C33.5976 3.65 31.65 5.59756 31.65 8H34.35ZM36 6.35C36.9113 6.35 37.65 7.08873 37.65 8H40.35C40.35 5.59756 38.4024 3.65 36 3.65V6.35ZM66.65 21C66.65 21.9113 65.9113 22.65 65 22.65V25.35C67.4024 25.35 69.35 23.4024 69.35 21H66.65ZM65 22.65C64.0887 22.65 63.35 21.9113 63.35 21H60.65C60.65 23.4024 62.5976 25.35 65 25.35V22.65ZM63.35 21C63.35 20.0887 64.0887 19.35 65 19.35V16.65C62.5976 16.65 60.65 18.5976 60.65 21H63.35ZM65 19.35C65.9113 19.35 66.65 20.0887 66.65 21H69.35C69.35 18.5976 67.4024 16.65 65 16.65V19.35ZM8.65 21C8.65 21.9113 7.91127 22.65 7 22.65V25.35C9.40244 25.35 11.35 23.4024 11.35 21H8.65ZM7 22.65C6.08873 22.65 5.35 21.9113 5.35 21H2.65C2.65 23.4024 4.59756 25.35 7 25.35V22.65ZM5.35 21C5.35 20.0887 6.08873 19.35 7 19.35V16.65C4.59756 16.65 2.65 18.5976 2.65 21H5.35ZM7 19.35C7.91127 19.35 8.65 20.0887 8.65 21H11.35C11.35 18.5976 9.40244 16.65 7 16.65V19.35ZM13 47.35L59 47.35V44.65L13 44.65V47.35Z" fill="#D0B07C"/>
</svg>
