<svg width="56" height="56" viewBox="0 0 56 56" fill="none" xmlns="http://www.w3.org/2000/svg">
<path d="M42.5014 47.9758L37.0714 50.8839C36.9103 50.9696 36.729 51.0079 36.5478 50.9944C36.3666 50.9809 36.1927 50.9162 36.0454 50.8075C35.8981 50.6989 35.7832 50.5505 35.7137 50.3789C35.6441 50.2074 35.6225 50.0195 35.6514 49.8362L36.6889 43.675L32.2964 39.3129C32.1653 39.1834 32.0725 39.0187 32.0285 38.8378C31.9846 38.6569 31.9913 38.467 32.0478 38.2898C32.1044 38.1126 32.2086 37.9553 32.3484 37.8357C32.4883 37.7161 32.6583 37.6391 32.8389 37.6136L38.9089 36.714L41.6239 31.11C41.7051 30.9431 41.8302 30.8026 41.9852 30.7045C42.1403 30.6063 42.319 30.5543 42.5014 30.5543C42.6837 30.5543 42.8625 30.6063 43.0175 30.7045C43.1725 30.8026 43.2977 30.9431 43.3789 31.11L46.0939 36.714L52.1638 37.6136C52.3439 37.64 52.5132 37.7175 52.6525 37.8372C52.7917 37.9569 52.8955 38.114 52.9519 38.2908C53.0083 38.4677 53.0153 38.6571 52.9719 38.8377C52.9285 39.0183 52.8365 39.1829 52.7063 39.3129L48.3138 43.675L49.3488 49.8336C49.3799 50.0173 49.36 50.2061 49.2913 50.3788C49.2226 50.5514 49.1079 50.7009 48.9603 50.8103C48.8127 50.9197 48.638 50.9846 48.4561 50.9976C48.2742 51.0106 48.0924 50.9712 47.9313 50.8839L42.5014 47.9758Z" stroke="#D0B07C" stroke-width="2.75" stroke-linecap="round" stroke-linejoin="round"/>
<path d="M13.5015 47.9758L8.07155 50.8839C7.91041 50.9696 7.72913 51.0079 7.54795 50.9944C7.36677 50.9809 7.19282 50.9162 7.04553 50.8075C6.89824 50.6989 6.78339 50.5505 6.71382 50.3789C6.64425 50.2074 6.6227 50.0195 6.65156 49.8362L7.68905 43.675L3.29657 39.3129C3.16546 39.1834 3.07263 39.0187 3.02868 38.8378C2.98472 38.6569 2.99141 38.467 3.04798 38.2898C3.10455 38.1126 3.20872 37.9553 3.3486 37.8357C3.48848 37.7161 3.65844 37.6391 3.83907 37.6136L9.90904 36.714L12.624 31.11C12.7052 30.9431 12.8304 30.8026 12.9854 30.7045C13.1404 30.6063 13.3192 30.5543 13.5015 30.5543C13.6839 30.5543 13.8626 30.6063 14.0177 30.7045C14.1727 30.8026 14.2978 30.9431 14.379 31.11L17.094 36.714L23.164 37.6136C23.3441 37.64 23.5133 37.7175 23.6526 37.8372C23.7919 37.9569 23.8956 38.114 23.9521 38.2908C24.0085 38.4677 24.0154 38.6571 23.972 38.8377C23.9286 39.0183 23.8366 39.1829 23.7065 39.3129L19.314 43.675L20.349 49.8336C20.3801 50.0173 20.3601 50.2061 20.2914 50.3788C20.2228 50.5514 20.1081 50.7009 19.9605 50.8103C19.8129 50.9197 19.6382 50.9846 19.4563 50.9976C19.2744 51.0106 19.0926 50.9712 18.9315 50.8839L13.5015 47.9758Z" stroke="#D0B07C" stroke-width="2.75" stroke-linecap="round" stroke-linejoin="round"/>
<path d="M28.0015 22.4215L22.5715 25.3296C22.4103 25.4153 22.2291 25.4536 22.0479 25.4401C21.8667 25.4266 21.6927 25.3619 21.5455 25.2533C21.3982 25.1446 21.2833 24.9962 21.2137 24.8247C21.1442 24.6531 21.1226 24.4652 21.1515 24.2819L22.189 18.1207L17.7965 13.7586C17.6654 13.6291 17.5726 13.4645 17.5286 13.2836C17.4846 13.1026 17.4913 12.9128 17.5479 12.7356C17.6045 12.5584 17.7086 12.401 17.8485 12.2814C17.9884 12.1618 18.1584 12.0848 18.339 12.0593L24.409 11.1598L27.124 5.55571C27.2051 5.3888 27.3303 5.24836 27.4853 5.15019C27.6403 5.05201 27.8191 5 28.0015 5C28.1838 5 28.3626 5.05201 28.5176 5.15019C28.6726 5.24836 28.7978 5.3888 28.8789 5.55571L31.5939 11.1598L37.6639 12.0593C37.844 12.0858 38.0133 12.1632 38.1525 12.2829C38.2918 12.4026 38.3955 12.5598 38.452 12.7366C38.5084 12.9134 38.5153 13.1028 38.4719 13.2834C38.4285 13.4641 38.3366 13.6287 38.2064 13.7586L33.8139 18.1207L34.8489 24.2793C34.88 24.463 34.86 24.6518 34.7914 24.8245C34.7227 24.9971 34.608 25.1466 34.4604 25.256C34.3128 25.3654 34.1381 25.4303 33.9562 25.4433C33.7743 25.4563 33.5925 25.4169 33.4314 25.3296L28.0015 22.4215Z" stroke="#D0B07C" stroke-width="2.75" stroke-linecap="round" stroke-linejoin="round"/>
</svg>
