<svg width="56" height="56" viewBox="0 0 56 56" fill="none" xmlns="http://www.w3.org/2000/svg">
<path d="M8.41908 34.932C7.69901 35.1253 7.27205 35.8658 7.46543 36.5859C7.65881 37.306 8.39931 37.7329 9.11938 37.5396L8.41908 34.932ZM52.0385 4.83203L53.3635 4.57384C53.2915 4.20389 53.068 3.88091 52.7472 3.68304C52.4264 3.48516 52.0375 3.4304 51.6745 3.53201L52.0385 4.83203ZM51.6749 10.0251C51.8175 10.7569 52.5264 11.2346 53.2582 11.092C53.99 10.9494 54.4677 10.2405 54.3251 9.50872L51.6749 10.0251ZM46.8668 4.87788C46.1489 5.07888 45.7298 5.82385 45.9307 6.54184C46.1317 7.25982 46.8767 7.67892 47.5947 7.47793L46.8668 4.87788ZM3.96154 46.5582H11.6538V43.8582H3.96154V46.5582ZM11.2654 46.1055V50.5917H13.9654V46.1055H11.2654ZM11.6538 50.139H3.96154V52.839H11.6538V50.139ZM4.35 50.5917V46.1055H1.65V50.5917H4.35ZM3.96154 50.139C4.03889 50.139 4.1274 50.1689 4.20266 50.2392C4.27951 50.3109 4.35 50.4352 4.35 50.5917H1.65C1.65 51.9193 2.77442 52.839 3.96154 52.839V50.139ZM11.2654 50.5917C11.2654 50.4352 11.3359 50.3109 11.4127 50.2392C11.488 50.1689 11.5765 50.139 11.6538 50.139V52.839C12.841 52.839 13.9654 51.9193 13.9654 50.5917H11.2654ZM11.6538 46.5582C11.5765 46.5582 11.488 46.5283 11.4127 46.4581C11.3359 46.3864 11.2654 46.262 11.2654 46.1055H13.9654C13.9654 44.7779 12.841 43.8582 11.6538 43.8582V46.5582ZM3.96154 43.8582C2.77442 43.8582 1.65 44.7779 1.65 46.1055H4.35C4.35 46.262 4.27951 46.3864 4.20266 46.4581C4.1274 46.5283 4.03889 46.5582 3.96154 46.5582V43.8582ZM17.4231 42.072H25.1154V39.372H17.4231V42.072ZM24.7269 41.6192V50.5917H27.4269V41.6192H24.7269ZM25.1154 50.139H17.4231V52.839H25.1154V50.139ZM17.8115 50.5917V41.6192H15.1115V50.5917H17.8115ZM17.4231 50.139C17.5004 50.139 17.5889 50.169 17.6642 50.2392C17.741 50.3109 17.8115 50.4352 17.8115 50.5917H15.1115C15.1115 51.9193 16.236 52.839 17.4231 52.839V50.139ZM24.7269 50.5917C24.7269 50.4352 24.7974 50.3109 24.8743 50.2392C24.9495 50.1689 25.038 50.139 25.1154 50.139V52.839C26.3025 52.839 27.4269 51.9193 27.4269 50.5917H24.7269ZM25.1154 42.072C25.038 42.072 24.9495 42.042 24.8743 41.9718C24.7974 41.9001 24.7269 41.7758 24.7269 41.6192H27.4269C27.4269 40.2917 26.3025 39.372 25.1154 39.372V42.072ZM17.4231 39.372C16.236 39.372 15.1115 40.2917 15.1115 41.6192H17.8115C17.8115 41.7758 17.741 41.9001 17.6642 41.9718C17.5889 42.042 17.5004 42.072 17.4231 42.072V39.372ZM30.8846 34.894H38.5769V32.194H30.8846V34.894ZM38.1885 34.4413V50.5917H40.8885V34.4413H38.1885ZM38.5769 50.139H30.8846V52.839H38.5769V50.139ZM31.2731 50.5917V34.4413H28.5731V50.5917H31.2731ZM30.8846 50.139C30.962 50.139 31.0505 50.169 31.1257 50.2392C31.2026 50.3109 31.2731 50.4352 31.2731 50.5917H28.5731C28.5731 51.9193 29.6975 52.839 30.8846 52.839V50.139ZM38.1885 50.5917C38.1885 50.4352 38.259 50.3109 38.3358 50.2392C38.4111 50.1689 38.4996 50.139 38.5769 50.139V52.839C39.764 52.839 40.8885 51.9193 40.8885 50.5917H38.1885ZM38.5769 34.894C38.4996 34.894 38.4111 34.864 38.3358 34.7938C38.259 34.7221 38.1885 34.5978 38.1885 34.4413H40.8885C40.8885 33.1137 39.764 32.194 38.5769 32.194V34.894ZM30.8846 32.194C29.6975 32.194 28.5731 33.1137 28.5731 34.4413H31.2731C31.2731 34.5978 31.2026 34.7221 31.1257 34.7938C31.0505 34.864 30.962 34.894 30.8846 34.894V32.194ZM44.3462 28.6133H52.0385V25.9133H44.3462V28.6133ZM51.65 28.1605V50.5917H54.35V28.1605H51.65ZM52.0385 50.139H44.3462V52.839H52.0385V50.139ZM44.7346 50.5917V28.1605H42.0346V50.5917H44.7346ZM44.3462 50.139C44.4235 50.139 44.512 50.169 44.5873 50.2392C44.6641 50.3109 44.7346 50.4352 44.7346 50.5917H42.0346C42.0346 51.9193 43.159 52.839 44.3462 52.839V50.139ZM51.65 50.5917C51.65 50.4352 51.7205 50.3109 51.7973 50.2392C51.8726 50.1689 51.9611 50.139 52.0385 50.139V52.839C53.2256 52.839 54.35 51.9193 54.35 50.5917H51.65ZM52.0385 28.6133C51.9611 28.6133 51.8726 28.5833 51.7973 28.5131C51.7205 28.4414 51.65 28.317 51.65 28.1605H54.35C54.35 26.8329 53.2256 25.9133 52.0385 25.9133V28.6133ZM44.3462 25.9133C43.159 25.9133 42.0346 26.8329 42.0346 28.1605H44.7346C44.7346 28.317 44.6641 28.4414 44.5873 28.5131C44.512 28.5833 44.4235 28.6133 44.3462 28.6133V25.9133ZM9.11938 37.5396C20.6982 34.43 28.9404 31.144 35.6947 26.2323C42.4597 21.3128 47.6304 14.8367 53.1972 5.52473L50.8797 4.13933C45.4051 13.2973 40.4577 19.4302 34.1067 24.0487C27.745 28.6749 19.8733 31.8558 8.41908 34.932L9.11938 37.5396ZM50.7134 5.09022L51.6749 10.0251L54.3251 9.50872L53.3635 4.57384L50.7134 5.09022ZM51.6745 3.53201L46.8668 4.87788L47.5947 7.47793L52.4024 6.13205L51.6745 3.53201Z" fill="#D0B07C"/>
</svg>
