<svg width="56" height="56" viewBox="0 0 56 56" fill="none" xmlns="http://www.w3.org/2000/svg">
<path d="M39.2443 40.7688L43.7553 45.2798M19.7143 6.57347H13.8571C12.3037 6.57347 10.8139 7.18636 9.71552 8.27729C8.61709 9.36823 8 10.8479 8 12.3907V47.2939C8 48.8367 8.61709 50.3164 9.71552 51.4073C10.8139 52.4982 12.3037 53.1111 13.8571 53.1111H43.1429C44.6963 53.1111 46.1861 52.4982 47.2845 51.4073C48.3829 50.3164 49 48.8367 49 47.2939V12.3907C49 10.8479 48.3829 9.36823 47.2845 8.27729C46.1861 7.18636 44.6963 6.57347 43.1429 6.57347H37.2857M14.0647 18.2133H42.9353M14.0647 29.0398H21.2823M14.0647 39.8663H21.2823M23.8143 3H33.6878C35.5362 3 37.0347 4.56267 37.0347 6.49032C37.0347 8.41797 35.5362 9.98065 33.6878 9.98065H23.8143C21.9658 9.98065 20.4674 8.41797 20.4674 6.49032C20.4674 4.56267 21.9658 3 23.8143 3ZM40.1465 34.4533C40.1465 38.4395 36.9151 41.671 32.9289 41.671C28.9427 41.671 25.7112 38.4395 25.7112 34.4533C25.7112 30.4671 28.9427 27.2357 32.9289 27.2357C36.9151 27.2357 40.1465 30.4671 40.1465 34.4533Z" stroke="#E4C592" stroke-width="2.75" stroke-linecap="round" stroke-linejoin="round"/>
</svg>
