<svg width="56" height="56" viewBox="0 0 56 56" fill="none" xmlns="http://www.w3.org/2000/svg">
<path d="M19 6.56555H13C11.4087 6.56555 9.88258 7.17707 8.75736 8.26559C7.63214 9.35411 7 10.8305 7 12.3699V47.1957C7 48.7351 7.63214 50.2114 8.75736 51.3C9.88258 52.3885 11.4087 53 13 53H43C44.5913 53 46.1174 52.3885 47.2426 51.3C48.3679 50.2114 49 48.7351 49 47.1957V12.3699C49 10.8305 48.3679 9.35411 47.2426 8.26559C46.1174 7.17707 44.5913 6.56555 43 6.56555H37M13.2222 40.7665H22.1609M13.2222 34.8743H42.7778M13.2222 28.982H42.7778M13.2222 23.0898H42.7778M13.2222 17.1975H42.7778M34.0494 43.5442L36.9013 46.322L42.605 40.7664M23.2 3H33.3143C35.2079 3 36.7429 4.55921 36.7429 6.48258C36.7429 8.40596 35.2079 9.96517 33.3143 9.96517H23.2C21.3065 9.96517 19.7715 8.40596 19.7715 6.48258C19.7715 4.55921 21.3065 3 23.2 3Z" stroke="#E4C592" stroke-width="2.75" stroke-linecap="round" stroke-linejoin="round"/>
</svg>
