<svg width="56" height="56" viewBox="0 0 56 56" fill="none" xmlns="http://www.w3.org/2000/svg">
<path d="M46.3551 34.5048H43.1917C39.933 34.5048 37.246 32.1238 36.7315 29.019H52.8154C52.3199 32.1238 49.6139 34.5048 46.3551 34.5048ZM52.1675 26.9048H37.3985L44.7925 13.6857L52.1675 26.9048ZM26.5551 47.1714V10.4857C27.0125 10.6381 27.508 10.7143 28.0035 10.7143C28.5371 10.7143 29.0325 10.6381 29.509 10.4667V47.1905H26.5551V47.1714ZM28.0035 3.09524C29.509 3.09524 30.7476 4.33333 30.7476 5.83809C30.7476 7.34286 29.509 8.58095 28.0035 8.58095C26.498 8.58095 25.2593 7.34286 25.2593 5.83809C25.2593 4.33333 26.498 3.09524 28.0035 3.09524ZM12.8343 34.5048H9.67084C6.41213 34.5048 3.72512 32.1238 3.21059 29.019H19.2945C18.78 32.1238 16.0739 34.5048 12.8343 34.5048ZM11.2526 13.7048L18.6466 26.9238H3.85852L11.2526 13.7048ZM54.8926 27.4571L46.3742 12.2381C47.632 11.6476 48.4895 10.3714 48.4895 8.88571C48.4895 8.29524 48.0131 7.83809 47.4414 7.83809C46.8697 7.83809 46.3933 8.31429 46.3933 8.88571C46.3933 9.7619 45.6691 10.4857 44.7925 10.4857C43.9159 10.4857 43.1917 9.7619 43.1917 8.88571C43.1917 8.29524 42.7153 7.83809 42.1436 7.83809H32.4437C32.7105 7.22857 32.8629 6.5619 32.8629 5.85714C32.8629 3.17143 30.6905 1 28.0035 1C25.3165 1 23.144 3.17143 23.144 5.85714C23.144 6.5619 23.2964 7.22857 23.5632 7.83809H13.8824C13.2916 7.83809 12.8343 8.31429 12.8343 8.88571C12.8343 9.7619 12.1101 10.4857 11.2335 10.4857C10.3569 10.4857 9.63272 9.7619 9.63272 8.88571C9.63272 8.29524 9.1563 7.83809 8.5846 7.83809C7.99384 7.83809 7.53648 8.31429 7.53648 8.88571C7.53648 10.3524 8.39403 11.6286 9.65178 12.2381L1.1334 27.4571C1.03811 27.6095 1 27.8 1 27.9714C1 32.7524 4.88758 36.619 9.65178 36.619H12.8152C17.5985 36.619 21.467 32.7333 21.467 27.9714C21.467 27.8 21.4289 27.6095 21.3336 27.4571L12.8152 12.2381C13.749 11.781 14.4731 10.9619 14.7781 9.95238H24.4398V47.1905H21.9434C18.2083 47.1905 15.1782 50.219 15.1782 53.9524C15.1782 54.5429 15.6547 55 16.2264 55H39.8187C40.4094 55 40.8668 54.5238 40.8668 53.9524C40.8668 50.219 37.8368 47.1905 34.1016 47.1905H31.6052V9.93333H41.2098C41.5147 10.9429 42.2389 11.781 43.1727 12.219L34.6543 27.4381C34.559 27.5905 34.5209 27.781 34.5209 27.9524C34.5209 32.7333 38.4085 36.6 43.1727 36.6H46.3361C51.1193 36.6 54.9879 32.7143 54.9879 27.9524C55.026 27.781 54.9688 27.6095 54.8926 27.4571ZM38.6562 52.8667H17.4269C17.9034 50.8095 19.7519 49.2857 21.9625 49.2857H34.1397C36.3313 49.2857 38.1798 50.8286 38.6562 52.8667Z" fill="#E4C592"/>
</svg>
