<svg width="38" height="50" viewBox="0 0 38 50" fill="none" xmlns="http://www.w3.org/2000/svg">
<path fill-rule="evenodd" clip-rule="evenodd" d="M10.6552 13.8899C11.3624 14.1546 12.5823 14.1899 13.3249 14.2076C15.1989 14.2605 17.1083 14.2076 18.9823 14.2076C20.874 14.2076 22.7834 14.2605 24.6751 14.2076C25.4177 14.1899 26.6376 14.1546 27.3271 13.8723C28.1403 13.5546 28.105 12.1779 27.2564 11.8779C26.5138 11.6132 25.3293 11.5955 24.5514 11.5779C22.695 11.5426 20.8387 11.5779 18.9823 11.5779C17.1436 11.5779 15.305 11.5426 13.4663 11.5779C12.6707 11.5955 11.4862 11.6132 10.726 11.8779C9.84199 12.1779 9.8243 13.5546 10.6552 13.8899ZM10.1249 10.0247C7.45524 10.8895 7.43756 14.7547 9.96574 15.7078L9.98342 15.7254L9.78894 16.0254L2.31048 27.7268C-0.588967 32.2626 -0.765761 37.7692 1.81546 42.4815C4.39667 47.1938 9.17016 50 14.5447 50H23.4553C28.8298 50 33.6033 47.1938 36.1846 42.4815C38.7658 37.7692 38.589 32.245 35.6895 27.7268L28.2111 16.0254L28.0166 15.7254C28.0343 15.7254 28.0519 15.7078 28.0696 15.7078C30.5448 14.7371 30.5094 10.9601 27.9282 10.06L27.8928 10.0424V10.0247L30.1558 2.08264C30.2619 1.7473 30.1558 1.37667 29.9083 1.12958C28.4055 -0.370593 25.9481 -0.370593 24.4453 1.12958C24.0917 1.48256 23.5967 1.69435 23.1017 1.69435C22.589 1.69435 22.1116 1.50021 21.7403 1.12958C20.2199 -0.388242 17.7624 -0.370593 16.2597 1.14723C15.5171 1.88849 14.2972 1.88849 13.5724 1.14723C12.0696 -0.352944 9.61214 -0.352944 8.10938 1.14723C7.86187 1.39432 7.7558 1.76495 7.86187 2.10028L10.1249 10.0071V10.0247ZM28.105 2.18853C27.3801 1.80025 26.4431 1.90614 25.842 2.50621C25.1171 3.22983 24.1448 3.63576 23.1017 3.63576C22.0586 3.63576 21.0862 3.22983 20.3613 2.48856C19.6011 1.72965 18.3989 1.76495 17.6387 2.50621C16.1359 4.00639 13.6961 4.00639 12.1757 2.50621C11.5569 1.88849 10.6376 1.7826 9.9127 2.17088L12.0342 9.54821L12.0696 9.67176C13.6784 9.54821 15.9061 9.61881 19 9.61881C22.1293 9.61881 24.3569 9.54821 25.9657 9.67176L25.9834 9.60116L28.105 2.18853ZM12.0696 16.096C13.6784 16.2196 15.9061 16.149 19 16.149C22.1116 16.149 24.3392 16.2196 25.9481 16.096L34.0453 28.7858C36.5558 32.7039 36.7149 37.4691 34.4696 41.5461C32.2243 45.623 28.1227 48.0586 23.4553 48.0586H14.5447C9.87734 48.0586 5.77568 45.6407 3.53038 41.5461C1.28507 37.4691 1.44418 32.7039 3.95468 28.7858L11.4508 17.0667L12.0696 16.096ZM20.7326 30.9037C20.4851 30.8154 20.2376 30.7272 19.9901 30.6389V26.209C20.6619 26.4031 21.1039 26.7208 21.1216 26.7385C21.5459 27.0561 22.1646 26.9679 22.4829 26.5443C22.8011 26.1207 22.7304 25.503 22.2884 25.1677C22.2354 25.1324 21.316 24.4441 19.9901 24.197V23.2263C19.9901 22.6792 19.5481 22.2556 19.0177 22.2556C18.4696 22.2556 18.0453 22.6968 18.0453 23.2263V24.197C17.8862 24.2323 17.7094 24.2676 17.5326 24.3205C16.1536 24.7265 15.1282 25.909 14.8453 27.3915C14.5978 28.7505 15.0221 30.0388 15.9768 30.7978C16.4895 31.2037 17.1436 31.5743 18.0453 31.9626V37.628C17.2674 37.575 16.7547 37.3985 15.9061 36.8514C15.4464 36.5514 14.8453 36.6749 14.5447 37.1338C14.2442 37.5927 14.3679 38.1927 14.8276 38.4928C16.0829 39.3046 16.9315 39.5517 18.0453 39.6047V40.6107C18.0453 41.1578 18.4873 41.5814 19.0177 41.5814C19.5657 41.5814 19.9901 41.1401 19.9901 40.6107V39.4988C22.0939 39.0399 23.3138 37.2926 23.579 35.6689C23.9503 33.4981 22.8188 31.6449 20.7326 30.9037ZM17.179 29.2446C16.8077 28.9446 16.6486 28.3798 16.7547 27.7445C16.8608 27.162 17.2497 26.4561 18.0276 26.209V29.7918C17.7094 29.6153 17.4088 29.4388 17.179 29.2446ZM21.6519 35.3159C21.5105 36.1454 20.9448 37.0455 19.9901 37.4338V32.7215C20.0254 32.7392 20.0608 32.7392 20.0785 32.7568C21.8287 33.3745 21.7227 34.8747 21.6519 35.3159Z" fill="#E4C592"/>
</svg>
