<svg width="54" height="51" viewBox="0 0 54 51" fill="none" xmlns="http://www.w3.org/2000/svg">
<path d="M29.7778 36.7222V49.2222L35.3333 45.0556L40.8889 49.2222V36.7222M21.4444 40.8889H7.55556C6.08213 40.8889 4.66905 40.3036 3.62718 39.2617C2.58532 38.2198 2 36.8068 2 35.3333V7.55556C2 4.5 4.5 2 7.55556 2H46.4444C47.9179 2 49.3309 2.58532 50.3728 3.62718C51.4147 4.66905 52 6.08213 52 7.55556V35.3333C51.999 36.3076 51.7418 37.2644 51.2543 38.1079C50.7667 38.9513 50.0659 39.6518 49.2222 40.1389M10.3333 13.1111H43.6667M10.3333 21.4444H18.6667M10.3333 29.7778H15.8889M43.6667 29.7778C43.6667 34.3801 39.9357 38.1111 35.3333 38.1111C30.731 38.1111 27 34.3801 27 29.7778C27 25.1754 30.731 21.4444 35.3333 21.4444C39.9357 21.4444 43.6667 25.1754 43.6667 29.7778Z" stroke="#E4C592" stroke-width="2.7" stroke-linecap="round" stroke-linejoin="round"/>
</svg>
