<svg width="189" height="35" viewBox="0 0 189 35" fill="none" xmlns="http://www.w3.org/2000/svg">
<path d="M4.71246 32.7601V27.0203L1.55779 32.7601H0.628906V26.626H1.50521V32.0591L4.52844 26.626H5.58877V32.7601H4.71246Z" fill="#1D1D1F"/>
<path d="M8.0018 28.4662V30.175H9.96471V28.4662H10.7534V32.7601H9.96471V30.4379H8.0018V32.7601H7.21313V28.4662H8.0018Z" fill="#1D1D1F"/>
<path d="M14.3253 32.7601H12.0557V28.4662H14.0449C14.3954 28.4662 14.6788 28.5714 14.8949 28.7817C15.1111 28.992 15.2192 29.2491 15.2192 29.5528C15.2192 30.026 15.0556 30.3415 14.7284 30.4992C14.9504 30.5518 15.1374 30.6628 15.2893 30.8322C15.4762 31.0309 15.5697 31.2762 15.5697 31.5683C15.5697 31.9013 15.4616 32.1847 15.2454 32.4183C15.0293 32.6462 14.7226 32.7601 14.3253 32.7601ZM13.7294 28.7291H12.8444V30.3766H13.7294C13.9923 30.3766 14.1968 30.2977 14.3429 30.14C14.4947 29.9822 14.5707 29.7865 14.5707 29.5528C14.5707 29.3308 14.4918 29.1381 14.3341 28.9745C14.1764 28.8109 13.9748 28.7291 13.7294 28.7291ZM13.9923 30.6394H12.8444V32.4972H13.9923C14.2552 32.4972 14.4626 32.4125 14.6145 32.2431C14.7606 32.062 14.8336 31.8371 14.8336 31.5683C14.8336 31.3288 14.7547 31.1156 14.597 30.9286C14.4451 30.7358 14.2435 30.6394 13.9923 30.6394Z" fill="#1D1D1F"/>
<path d="M20.0357 29.8858C20.0357 30.1312 19.9744 30.3181 19.8517 30.4467C19.729 30.5752 19.5187 30.6394 19.2208 30.6394H17.3192V31.7611C17.3192 32.0415 17.3864 32.246 17.5207 32.3745C17.6609 32.4972 17.9151 32.5585 18.2831 32.5585C18.6921 32.5585 18.9637 32.4972 19.0981 32.3745C19.2325 32.2518 19.2996 32.0328 19.2996 31.7173H20.027C20.027 32.0912 19.8867 32.3687 19.6063 32.5498C19.3259 32.7309 18.8848 32.8214 18.2831 32.8214C17.623 32.8214 17.1644 32.7163 16.9073 32.506C16.6503 32.2898 16.5218 31.9159 16.5218 31.3843V29.7631C16.5218 29.2899 16.6737 28.9423 16.9774 28.7204C17.2812 28.4925 17.7164 28.3786 18.2831 28.3786C18.8439 28.3786 19.2763 28.4691 19.58 28.6502C19.8838 28.8313 20.0357 29.1118 20.0357 29.4915V29.8858ZM19.2471 29.4827C19.2471 29.1673 19.1916 28.954 19.0806 28.843C18.9462 28.7087 18.6804 28.6415 18.2831 28.6415C17.9092 28.6415 17.6551 28.7087 17.5207 28.843C17.3864 28.9657 17.3192 29.1643 17.3192 29.4389V30.3766H18.6424C18.8702 30.3766 19.028 30.3415 19.1156 30.2714C19.2032 30.2013 19.2471 30.0698 19.2471 29.8771V29.4827Z" fill="#1D1D1F"/>
<path d="M23.3411 28.6502C22.8563 28.6502 22.4765 28.8314 22.202 29.1936C21.9274 29.5558 21.7901 30.0494 21.7901 30.6745C21.7901 31.2879 21.9274 31.767 22.202 32.1116C22.4765 32.4505 22.8592 32.6199 23.3499 32.6199C23.6186 32.6199 23.8669 32.5498 24.0948 32.4096C24.2467 32.3161 24.3898 32.1847 24.5242 32.0152L24.8133 32.2781C24.6439 32.4651 24.4541 32.6053 24.2437 32.6987C23.9633 32.8214 23.6216 32.8828 23.2185 32.8828C22.6167 32.8828 22.1027 32.7046 21.6762 32.3482C21.203 31.9451 20.9664 31.3872 20.9664 30.6745C20.9664 29.915 21.1971 29.3308 21.6587 28.9219C22.0617 28.5714 22.5817 28.3961 23.2185 28.3961C23.6274 28.3961 23.9779 28.475 24.27 28.6327C24.4453 28.732 24.6176 28.881 24.787 29.0796L24.4803 29.3162C24.3109 29.1001 24.1473 28.9423 23.9896 28.843C23.7851 28.7145 23.569 28.6502 23.3411 28.6502Z" fill="#1D1D1F"/>
<path d="M25.5944 28.4662H28.5738V28.7291H27.496V32.7601H26.7073V28.7291H25.5944V28.4662Z" fill="#1D1D1F"/>
<path d="M32.8695 32.7601V29.3162C32.8695 29.141 32.8344 29.0533 32.7643 29.0533L32.6854 29.0796L32.554 29.2461L30.4509 32.2255L30.2055 32.5673C30.0887 32.7134 29.9602 32.7864 29.8199 32.7864C29.5804 32.7864 29.4607 32.579 29.4607 32.1642V28.4662H30.2493V31.507C30.2493 31.6121 30.2669 31.6647 30.3019 31.6647C30.337 31.6647 30.3895 31.618 30.4596 31.5245L32.1334 29.1673C32.3262 28.8869 32.4605 28.7087 32.5365 28.6327C32.7059 28.4575 32.887 28.3698 33.0798 28.3698C33.3076 28.3698 33.4712 28.475 33.5705 28.6853C33.6289 28.843 33.6581 29.0621 33.6581 29.3425V32.7601H32.8695Z" fill="#1D1D1F"/>
<path d="M34.9746 32.7601V28.4662H35.7633V32.4972H37.4721V28.4662H38.2608V32.4972H38.8216L38.3659 34.1184H37.8401L38.2169 32.7601H34.9746Z" fill="#1D1D1F"/>
<path d="M43.1215 32.7601V29.3162C43.1215 29.141 43.0864 29.0533 43.0163 29.0533L42.9375 29.0796L42.806 29.2461L40.7029 32.2255L40.4575 32.5673C40.3407 32.7134 40.2122 32.7864 40.072 32.7864C39.8324 32.7864 39.7127 32.579 39.7127 32.1642V28.4662H40.5014V31.507C40.5014 31.6121 40.5189 31.6647 40.5539 31.6647C40.589 31.6647 40.6416 31.618 40.7117 31.5245L42.3854 29.1673C42.5782 28.8869 42.7125 28.7087 42.7885 28.6327C42.9579 28.4575 43.139 28.3698 43.3318 28.3698C43.5596 28.3698 43.7232 28.475 43.8225 28.6853C43.8809 28.843 43.9101 29.0621 43.9101 29.3425V32.7601H43.1215Z" fill="#1D1D1F"/>
<path d="M48.5128 32.7601V29.3162C48.5128 29.141 48.4777 29.0533 48.4076 29.0533L48.3288 29.0796L48.1973 29.2461L46.0942 32.2255L45.8488 32.5673C45.732 32.7134 45.6035 32.7864 45.4633 32.7864C45.2237 32.7864 45.104 32.579 45.104 32.1642V28.4662H45.8926V31.507C45.8926 31.6121 45.9102 31.6647 45.9452 31.6647C45.9803 31.6647 46.0328 31.618 46.103 31.5245L47.7767 29.1673C47.9695 28.8869 48.1038 28.7087 48.1798 28.6327C48.3492 28.4575 48.5303 28.3698 48.7231 28.3698C48.9509 28.3698 49.1145 28.475 49.2138 28.6853C49.2722 28.843 49.3015 29.0621 49.3015 29.3425V32.7601H48.5128Z" fill="#1D1D1F"/>
<path d="M53.7692 32.7601V26.626H54.6981L56.8888 31.3493L59.0007 26.626H59.7719V32.7601H58.8955V27.5198L56.5383 32.8828L54.0409 27.5198V32.7601H53.7692Z" fill="#1D1D1F"/>
<path d="M64.2057 29.4214C64.2057 29.141 64.1327 28.9394 63.9866 28.8167C63.8464 28.6882 63.5719 28.624 63.1629 28.624C62.7423 28.624 62.4561 28.6882 62.3042 28.8167C62.1523 28.9394 62.0763 29.1556 62.0763 29.4652H61.349C61.349 29.0972 61.5126 28.8226 61.8397 28.6415C62.1669 28.4545 62.6079 28.3611 63.1629 28.3611C63.8581 28.3611 64.3372 28.4458 64.6001 28.6152C64.8688 28.7846 65.0032 29.0913 65.0032 29.5353V32.7601H62.6109C62.1377 32.7601 61.7755 32.6491 61.5243 32.4271C61.2789 32.2051 61.1562 31.9159 61.1562 31.5596C61.1562 31.1565 61.3081 30.8264 61.6119 30.5693C61.9157 30.3123 62.3538 30.1838 62.9263 30.1838H64.2057V29.4214ZM64.2057 32.506V30.4467H62.8825C62.5787 30.4467 62.3421 30.5489 62.1727 30.7534C62.0033 30.9578 61.9186 31.212 61.9186 31.5157C61.9186 31.8195 61.9916 32.062 62.1377 32.2431C62.2896 32.4183 62.5145 32.506 62.8124 32.506H64.2057Z" fill="#1D1D1F"/>
<path d="M68.4483 28.6502C67.9634 28.6502 67.5837 28.8314 67.3091 29.1936C67.0345 29.5558 66.8973 30.0494 66.8973 30.6745C66.8973 31.2879 67.0345 31.767 67.3091 32.1116C67.5837 32.4505 67.9663 32.6199 68.4571 32.6199C68.7258 32.6199 68.9741 32.5498 69.2019 32.4096C69.3538 32.3161 69.4969 32.1847 69.6313 32.0152L69.9205 32.2781C69.7511 32.4651 69.5612 32.6053 69.3509 32.6987C69.0705 32.8214 68.7287 32.8828 68.3256 32.8828C67.7239 32.8828 67.2098 32.7046 66.7833 32.3482C66.3102 31.9451 66.0735 31.3872 66.0735 30.6745C66.0735 29.915 66.3043 29.3308 66.7658 28.9219C67.1689 28.5714 67.6889 28.3961 68.3256 28.3961C68.7346 28.3961 69.0851 28.475 69.3772 28.6327C69.5525 28.732 69.7248 28.881 69.8942 29.0796L69.5875 29.3162C69.4181 29.1001 69.2545 28.9423 69.0968 28.843C68.8923 28.7145 68.6762 28.6502 68.4483 28.6502Z" fill="#1D1D1F"/>
<path d="M73.9702 32.4972H75.2846V28.4662H76.0733V32.7601H71.0784V28.4662H71.867V32.4972H73.1815V28.4662H73.9702V32.4972Z" fill="#1D1D1F"/>
<path d="M77.0855 28.4662H80.065V28.7291H78.9871V32.7601H78.1984V28.7291H77.0855V28.4662Z" fill="#1D1D1F"/>
<path d="M83.9225 29.4214C83.9225 29.141 83.8494 28.9394 83.7034 28.8167C83.5632 28.6882 83.2886 28.624 82.8797 28.624C82.459 28.624 82.1728 28.6882 82.0209 28.8167C81.869 28.9394 81.793 29.1556 81.793 29.4652H81.0657C81.0657 29.0972 81.2293 28.8226 81.5564 28.6415C81.8836 28.4545 82.3247 28.3611 82.8797 28.3611C83.5749 28.3611 84.0539 28.4458 84.3168 28.6152C84.5855 28.7846 84.7199 29.0913 84.7199 29.5353V32.7601H82.3276C81.8544 32.7601 81.4922 32.6491 81.241 32.4271C80.9956 32.2051 80.8729 31.9159 80.8729 31.5596C80.8729 31.1565 81.0248 30.8264 81.3286 30.5693C81.6324 30.3123 82.0705 30.1838 82.6431 30.1838H83.9225V29.4214ZM83.9225 32.506V30.4467H82.5992C82.2955 30.4467 82.0589 30.5489 81.8894 30.7534C81.72 30.9578 81.6353 31.212 81.6353 31.5157C81.6353 31.8195 81.7083 32.062 81.8544 32.2431C82.0063 32.4183 82.2312 32.506 82.5291 32.506H83.9225Z" fill="#1D1D1F"/>
<path d="M89.9089 26.4595L89.9439 26.3982C89.9614 26.404 89.979 26.4128 89.9965 26.4244C90.014 26.4303 90.0286 26.4478 90.0403 26.477L90.0754 26.6961C90.0754 26.7896 90.0608 26.8743 90.0316 26.9502C90.014 27.0203 89.9731 27.0963 89.9089 27.1781C89.868 27.2306 89.7774 27.2774 89.6372 27.3183C89.497 27.3533 89.3218 27.3708 89.1115 27.3708C88.9245 27.3708 88.7551 27.3796 88.6032 27.3971C88.4513 27.4088 88.3228 27.4263 88.2176 27.4497C87.7853 27.5198 87.4289 27.6717 87.1485 27.9054C86.8038 28.1975 86.5702 28.6502 86.4475 29.2637C86.5702 29.0008 86.7513 28.7875 86.9908 28.624C87.2654 28.4429 87.5896 28.3523 87.9635 28.3523C88.6762 28.3523 89.24 28.586 89.6547 29.0533C90.0286 29.4798 90.2156 29.9997 90.2156 30.6132C90.2156 31.2324 90.0257 31.7494 89.646 32.1642C89.2254 32.6374 88.6499 32.874 87.9197 32.874C87.353 32.874 86.8652 32.652 86.4563 32.208C86.0298 31.7348 85.8166 31.1389 85.8166 30.4204C85.8166 29.5674 86.0093 28.8167 86.3949 28.1683C86.8973 27.327 87.6802 26.8305 88.7434 26.6786C88.9245 26.6786 89.0501 26.6757 89.1202 26.6698C89.1903 26.664 89.3451 26.6435 89.5847 26.6085C89.7599 26.5909 89.868 26.5413 89.9089 26.4595ZM86.6052 30.5869C86.6052 31.1419 86.7191 31.6121 86.947 31.9977C87.204 32.4242 87.5575 32.6374 88.0073 32.6374C88.4455 32.6374 88.796 32.4242 89.0589 31.9977C89.2925 31.6005 89.4094 31.1302 89.4094 30.5869C89.4094 30.0377 89.2955 29.5704 89.0676 29.1848C88.8106 28.7583 88.4571 28.5451 88.0073 28.5451C87.5692 28.5451 87.2186 28.7583 86.9557 29.1848C86.8389 29.3834 86.7513 29.5966 86.6929 29.8245C86.6345 30.0465 86.6052 30.3006 86.6052 30.5869Z" fill="#1D1D1F"/>
<path d="M94.5014 32.7601V29.3162C94.5014 29.141 94.4663 29.0533 94.3962 29.0533L94.3174 29.0796L94.1859 29.2461L92.0828 32.2255L91.8374 32.5673C91.7206 32.7134 91.5921 32.7864 91.4519 32.7864C91.2123 32.7864 91.0926 32.579 91.0926 32.1642V28.4662H91.8812V31.507C91.8812 31.6121 91.8988 31.6647 91.9338 31.6647C91.9689 31.6647 92.0215 31.618 92.0916 31.5245L93.7653 29.1673C93.9581 28.8869 94.0924 28.7087 94.1684 28.6327C94.3378 28.4575 94.5189 28.3698 94.7117 28.3698C94.9395 28.3698 95.1031 28.475 95.2024 28.6853C95.2608 28.843 95.2901 29.0621 95.2901 29.3425V32.7601H94.5014Z" fill="#1D1D1F"/>
<path d="M96.4401 28.4662H98.2803C99.0339 28.4662 99.6327 28.6882 100.077 29.1322C100.474 29.5412 100.673 30.0406 100.673 30.6307C100.673 31.1974 100.474 31.6822 100.077 32.0853C99.6385 32.5352 99.0398 32.7601 98.2803 32.7601H97.2287V34.4952H96.4401V28.4662ZM97.2287 32.4972H98.3679C98.847 32.4972 99.2121 32.3249 99.4633 31.9802C99.7145 31.6297 99.8401 31.1798 99.8401 30.6307C99.8401 30.0465 99.7145 29.5908 99.4633 29.2637C99.1946 28.9073 98.8148 28.7291 98.3241 28.7291H97.2287V32.4972Z" fill="#1D1D1F"/>
<path d="M101.39 30.6044C101.39 29.9968 101.583 29.4769 101.969 29.0446C102.401 28.5714 102.985 28.3348 103.721 28.3348C104.451 28.3348 105.036 28.5714 105.474 29.0446C105.859 29.4652 106.052 29.9851 106.052 30.6044C106.052 31.212 105.859 31.7348 105.474 32.173C105.053 32.6462 104.469 32.8828 103.721 32.8828C102.991 32.8828 102.407 32.6462 101.969 32.173C101.583 31.7523 101.39 31.2295 101.39 30.6044ZM105.263 30.5869C105.263 30.0202 105.138 29.547 104.887 29.1673C104.6 28.7408 104.212 28.5276 103.721 28.5276C103.236 28.5276 102.851 28.7408 102.564 29.1673C102.307 29.5587 102.179 30.0319 102.179 30.5869C102.179 31.1535 102.304 31.6267 102.556 32.0065C102.842 32.4329 103.23 32.6462 103.721 32.6462C104.206 32.6462 104.592 32.4329 104.878 32.0065C105.135 31.6151 105.263 31.1419 105.263 30.5869Z" fill="#1D1D1F"/>
<path d="M109.375 32.7601H107.105V28.4662H109.094C109.445 28.4662 109.728 28.5714 109.944 28.7817C110.16 28.992 110.269 29.2491 110.269 29.5528C110.269 30.026 110.105 30.3415 109.778 30.4992C110 30.5518 110.187 30.6628 110.339 30.8322C110.526 31.0309 110.619 31.2762 110.619 31.5683C110.619 31.9013 110.511 32.1847 110.295 32.4183C110.079 32.6462 109.772 32.7601 109.375 32.7601ZM108.779 28.7291H107.894V30.3766H108.779C109.042 30.3766 109.246 30.2977 109.392 30.14C109.544 29.9822 109.62 29.7865 109.62 29.5528C109.62 29.3308 109.541 29.1381 109.383 28.9745C109.226 28.8109 109.024 28.7291 108.779 28.7291ZM109.042 30.6394H107.894V32.4972H109.042C109.305 32.4972 109.512 32.4125 109.664 32.2431C109.81 32.062 109.883 31.8371 109.883 31.5683C109.883 31.3288 109.804 31.1156 109.646 30.9286C109.494 30.7358 109.293 30.6394 109.042 30.6394Z" fill="#1D1D1F"/>
<path d="M114.533 29.4214C114.533 29.141 114.46 28.9394 114.314 28.8167C114.174 28.6882 113.899 28.624 113.49 28.624C113.07 28.624 112.783 28.6882 112.631 28.8167C112.48 28.9394 112.404 29.1556 112.404 29.4652H111.676C111.676 29.0972 111.84 28.8226 112.167 28.6415C112.494 28.4545 112.935 28.3611 113.49 28.3611C114.185 28.3611 114.664 28.4458 114.927 28.6152C115.196 28.7846 115.33 29.0913 115.33 29.5353V32.7601H112.938C112.465 32.7601 112.103 32.6491 111.852 32.4271C111.606 32.2051 111.484 31.9159 111.484 31.5596C111.484 31.1565 111.635 30.8264 111.939 30.5693C112.243 30.3123 112.681 30.1838 113.254 30.1838H114.533V29.4214ZM114.533 32.506V30.4467H113.21C112.906 30.4467 112.669 30.5489 112.5 30.7534C112.331 30.9578 112.246 31.212 112.246 31.5157C112.246 31.8195 112.319 32.062 112.465 32.2431C112.617 32.4183 112.842 32.506 113.14 32.506H114.533Z" fill="#1D1D1F"/>
<path d="M117.505 28.4662V30.175H119.468V28.4662H120.257V32.7601H119.468V30.4379H117.505V32.7601H116.716V28.4662H117.505Z" fill="#1D1D1F"/>
<path d="M124.915 32.7601V29.3162C124.915 29.141 124.88 29.0533 124.81 29.0533L124.731 29.0796L124.6 29.2461L122.497 32.2255L122.251 32.5673C122.134 32.7134 122.006 32.7864 121.866 32.7864C121.626 32.7864 121.506 32.579 121.506 32.1642V28.4662H122.295V31.507C122.295 31.6121 122.313 31.6647 122.348 31.6647C122.383 31.6647 122.435 31.618 122.505 31.5245L124.179 29.1673C124.372 28.8869 124.506 28.7087 124.582 28.6327C124.752 28.4575 124.933 28.3698 125.125 28.3698C125.353 28.3698 125.517 28.475 125.616 28.6853C125.675 28.843 125.704 29.0621 125.704 29.3425V32.7601H124.915Z" fill="#1D1D1F"/>
<path d="M130.42 29.8858C130.42 30.1312 130.359 30.3181 130.236 30.4467C130.114 30.5752 129.903 30.6394 129.605 30.6394H127.704V31.7611C127.704 32.0415 127.771 32.246 127.905 32.3745C128.046 32.4972 128.3 32.5585 128.668 32.5585C129.077 32.5585 129.348 32.4972 129.483 32.3745C129.617 32.2518 129.684 32.0328 129.684 31.7173H130.412C130.412 32.0912 130.271 32.3687 129.991 32.5498C129.711 32.7309 129.269 32.8214 128.668 32.8214C128.008 32.8214 127.549 32.7163 127.292 32.506C127.035 32.2898 126.906 31.9159 126.906 31.3843V29.7631C126.906 29.2899 127.058 28.9423 127.362 28.7204C127.666 28.4925 128.101 28.3786 128.668 28.3786C129.229 28.3786 129.661 28.4691 129.965 28.6502C130.268 28.8313 130.42 29.1118 130.42 29.4915V29.8858ZM129.632 29.4827C129.632 29.1673 129.576 28.954 129.465 28.843C129.331 28.7087 129.065 28.6415 128.668 28.6415C128.294 28.6415 128.04 28.7087 127.905 28.843C127.771 28.9657 127.704 29.1643 127.704 29.4389V30.3766H129.027C129.255 30.3766 129.413 30.3415 129.5 30.2714C129.588 30.2013 129.632 30.0698 129.632 29.8771V29.4827Z" fill="#1D1D1F"/>
<path d="M134.87 32.7601L135.247 34.1184H134.721L134.266 32.4972H134.826L137.561 26.3631L140.295 32.4972H140.847L140.391 34.1184H139.865L140.242 32.7601H134.87ZM139.41 32.4972L137.263 27.7038L135.124 32.4972H139.41Z" fill="#1D1D1F"/>
<path d="M145.174 29.8858C145.174 30.1312 145.112 30.3181 144.99 30.4467C144.867 30.5752 144.657 30.6394 144.359 30.6394H142.457V31.7611C142.457 32.0415 142.524 32.246 142.659 32.3745C142.799 32.4972 143.053 32.5585 143.421 32.5585C143.83 32.5585 144.102 32.4972 144.236 32.3745C144.37 32.2518 144.438 32.0328 144.438 31.7173H145.165C145.165 32.0912 145.025 32.3687 144.744 32.5498C144.464 32.7309 144.023 32.8214 143.421 32.8214C142.761 32.8214 142.302 32.7163 142.045 32.506C141.788 32.2898 141.66 31.9159 141.66 31.3843V29.7631C141.66 29.2899 141.812 28.9423 142.115 28.7204C142.419 28.4925 142.854 28.3786 143.421 28.3786C143.982 28.3786 144.414 28.4691 144.718 28.6502C145.022 28.8313 145.174 29.1118 145.174 29.4915V29.8858ZM144.385 29.4827C144.385 29.1673 144.329 28.954 144.219 28.843C144.084 28.7087 143.818 28.6415 143.421 28.6415C143.047 28.6415 142.793 28.7087 142.659 28.843C142.524 28.9657 142.457 29.1643 142.457 29.4389V30.3766H143.78C144.008 30.3766 144.166 30.3415 144.254 30.2714C144.341 30.2013 144.385 30.0698 144.385 29.8771V29.4827Z" fill="#1D1D1F"/>
<path d="M148.646 32.7601H146.376V28.4662H148.365C148.716 28.4662 148.999 28.5714 149.215 28.7817C149.431 28.992 149.539 29.2491 149.539 29.5528C149.539 30.026 149.376 30.3415 149.049 30.4992C149.271 30.5518 149.458 30.6628 149.61 30.8322C149.796 31.0309 149.89 31.2762 149.89 31.5683C149.89 31.9013 149.782 32.1847 149.566 32.4183C149.35 32.6462 149.043 32.7601 148.646 32.7601ZM148.05 28.7291H147.165V30.3766H148.05C148.313 30.3766 148.517 30.2977 148.663 30.14C148.815 29.9822 148.891 29.7865 148.891 29.5528C148.891 29.3308 148.812 29.1381 148.654 28.9745C148.497 28.8109 148.295 28.7291 148.05 28.7291ZM148.313 30.6394H147.165V32.4972H148.313C148.576 32.4972 148.783 32.4125 148.935 32.2431C149.081 32.062 149.154 31.8371 149.154 31.5683C149.154 31.3288 149.075 31.1156 148.917 30.9286C148.765 30.7358 148.564 30.6394 148.313 30.6394Z" fill="#1D1D1F"/>
<path d="M154.356 29.8858C154.356 30.1312 154.295 30.3181 154.172 30.4467C154.049 30.5752 153.839 30.6394 153.541 30.6394H151.639V31.7611C151.639 32.0415 151.707 32.246 151.841 32.3745C151.981 32.4972 152.235 32.5585 152.603 32.5585C153.012 32.5585 153.284 32.4972 153.418 32.3745C153.553 32.2518 153.62 32.0328 153.62 31.7173H154.347C154.347 32.0912 154.207 32.3687 153.927 32.5498C153.646 32.7309 153.205 32.8214 152.603 32.8214C151.943 32.8214 151.485 32.7163 151.228 32.506C150.971 32.2898 150.842 31.9159 150.842 31.3843V29.7631C150.842 29.2899 150.994 28.9423 151.298 28.7204C151.601 28.4925 152.037 28.3786 152.603 28.3786C153.164 28.3786 153.597 28.4691 153.9 28.6502C154.204 28.8313 154.356 29.1118 154.356 29.4915V29.8858ZM153.567 29.4827C153.567 29.1673 153.512 28.954 153.401 28.843C153.266 28.7087 153.001 28.6415 152.603 28.6415C152.229 28.6415 151.975 28.7087 151.841 28.843C151.707 28.9657 151.639 29.1643 151.639 29.4389V30.3766H152.963C153.191 30.3766 153.348 30.3415 153.436 30.2714C153.524 30.2013 153.567 30.0698 153.567 29.8771V29.4827Z" fill="#1D1D1F"/>
<path d="M159.055 32.7601H158.178L156.925 29.7719C156.908 29.696 156.858 29.658 156.776 29.658C156.718 29.658 156.671 29.693 156.636 29.7631L155.418 32.7601H155.111L156.75 28.7291C156.797 28.6006 156.838 28.5188 156.873 28.4837C156.908 28.4487 156.957 28.4312 157.022 28.4312C157.092 28.4312 157.15 28.4633 157.197 28.5276L157.293 28.7291L159.055 32.7601Z" fill="#1D1D1F"/>
<path d="M159.608 30.6044C159.608 29.9968 159.8 29.4769 160.186 29.0446C160.618 28.5714 161.202 28.3348 161.939 28.3348C162.669 28.3348 163.253 28.5714 163.691 29.0446C164.077 29.4652 164.27 29.9851 164.27 30.6044C164.27 31.212 164.077 31.7348 163.691 32.173C163.271 32.6462 162.686 32.8828 161.939 32.8828C161.208 32.8828 160.624 32.6462 160.186 32.173C159.8 31.7523 159.608 31.2295 159.608 30.6044ZM163.481 30.5869C163.481 30.0202 163.355 29.547 163.104 29.1673C162.818 28.7408 162.429 28.5276 161.939 28.5276C161.454 28.5276 161.068 28.7408 160.782 29.1673C160.525 29.5587 160.396 30.0319 160.396 30.5869C160.396 31.1535 160.522 31.6267 160.773 32.0065C161.059 32.4329 161.448 32.6462 161.939 32.6462C162.423 32.6462 162.809 32.4329 163.095 32.0065C163.352 31.6151 163.481 31.1419 163.481 30.5869Z" fill="#1D1D1F"/>
<path d="M168.968 28.4662V32.7601H168.179V28.7291H166.216V32.7601H165.428V28.4662H168.968Z" fill="#1D1D1F"/>
<path d="M172.686 31.6472L174.088 28.7729C174.153 28.6444 174.229 28.548 174.316 28.4837C174.404 28.4136 174.521 28.3786 174.667 28.3786C174.813 28.3786 174.93 28.4312 175.017 28.5363C175.105 28.6415 175.149 28.7642 175.149 28.9044V32.7601H174.404V29.6054C174.404 29.4243 174.36 29.3338 174.272 29.3338C174.22 29.3338 174.176 29.3513 174.141 29.3863C174.106 29.4214 174.065 29.4886 174.018 29.5879L172.423 32.8828L170.855 29.6054L170.776 29.4477C170.753 29.4185 170.718 29.398 170.671 29.3863C170.642 29.3863 170.61 29.4068 170.574 29.4477C170.563 29.471 170.554 29.4973 170.548 29.5265C170.542 29.5558 170.539 29.6054 170.539 29.6755V32.7601H170.277V28.9394C170.277 28.5947 170.443 28.4224 170.776 28.4224C170.94 28.4224 171.062 28.4516 171.144 28.51C171.232 28.5626 171.313 28.6736 171.389 28.843L172.686 31.6472Z" fill="#1D1D1F"/>
<path d="M179.883 29.8858C179.883 30.1312 179.822 30.3181 179.699 30.4467C179.577 30.5752 179.366 30.6394 179.068 30.6394H177.167V31.7611C177.167 32.0415 177.234 32.246 177.368 32.3745C177.509 32.4972 177.763 32.5585 178.131 32.5585C178.54 32.5585 178.811 32.4972 178.946 32.3745C179.08 32.2518 179.147 32.0328 179.147 31.7173H179.875C179.875 32.0912 179.734 32.3687 179.454 32.5498C179.174 32.7309 178.732 32.8214 178.131 32.8214C177.471 32.8214 177.012 32.7163 176.755 32.506C176.498 32.2898 176.369 31.9159 176.369 31.3843V29.7631C176.369 29.2899 176.521 28.9423 176.825 28.7204C177.129 28.4925 177.564 28.3786 178.131 28.3786C178.692 28.3786 179.124 28.4691 179.428 28.6502C179.731 28.8313 179.883 29.1118 179.883 29.4915V29.8858ZM179.095 29.4827C179.095 29.1673 179.039 28.954 178.928 28.843C178.794 28.7087 178.528 28.6415 178.131 28.6415C177.757 28.6415 177.503 28.7087 177.368 28.843C177.234 28.9657 177.167 29.1643 177.167 29.4389V30.3766H178.49C178.718 30.3766 178.876 30.3415 178.963 30.2714C179.051 30.2013 179.095 30.0698 179.095 29.8771V29.4827Z" fill="#1D1D1F"/>
<path d="M181.918 28.4662V30.175H183.881V28.4662H184.67V32.7601H183.881V30.4379H181.918V32.7601H181.129V28.4662H181.918Z" fill="#1D1D1F"/>
<path d="M185.63 28.4662H188.61V28.7291H187.532V32.7601H186.743V28.7291H185.63V28.4662Z" fill="#1D1D1F"/>
<path d="M0.816459 0.441097H13.2583V1.71971C11.6847 1.55578 10.0782 1.44923 8.43896 1.40006C6.79971 1.35088 4.96376 1.32629 2.93109 1.32629V8.80125C4.4392 8.80125 5.64404 8.78486 6.54563 8.75208C7.4636 8.71929 8.43076 8.64552 9.44709 8.53078V9.95692C8.43076 9.84217 7.4636 9.76841 6.54563 9.73562C5.64404 9.70284 4.4392 9.68645 2.93109 9.68645V18.0466H0.816459V0.441097Z" fill="#1D1D1F"/>
<path d="M22.9492 0.441097H29.834C31.0307 0.441097 32.088 0.662395 33.0059 1.10499C33.9239 1.5312 34.6288 2.13772 35.1206 2.92455C35.6287 3.695 35.8828 4.58839 35.8828 5.60472C35.8828 6.86694 35.5058 7.94065 34.7518 8.82584C34.0141 9.69464 32.9813 10.2766 31.6536 10.5716L36.0795 18.0466H33.5961L29.2931 10.7683H25.0638V18.0466H22.9492V0.441097ZM29.7848 9.88316C31.0962 9.88316 32.088 9.52252 32.7601 8.80125C33.4486 8.06359 33.7928 6.99808 33.7928 5.60472C33.7928 4.21136 33.4486 3.15405 32.7601 2.43278C32.088 1.69512 31.0962 1.32629 29.7848 1.32629H25.0638V9.88316H29.7848Z" fill="#1D1D1F"/>
<path d="M53.7473 18.4154C52.1736 18.4154 50.7557 18.022 49.4934 17.2352C48.2312 16.4319 47.2395 15.3336 46.5182 13.9403C45.7969 12.5305 45.4363 10.9651 45.4363 9.24385C45.4363 7.52264 45.7969 5.96536 46.5182 4.572C47.2395 3.17864 48.2312 2.08854 49.4934 1.3017C50.7557 0.498469 52.1736 0.096854 53.7473 0.096854C55.321 0.096854 56.7389 0.498469 58.0011 1.3017C59.2633 2.08854 60.2551 3.17864 60.9764 4.572C61.6976 5.96536 62.0583 7.52264 62.0583 9.24385C62.0583 10.9651 61.6976 12.5305 60.9764 13.9403C60.2551 15.3336 59.2633 16.4319 58.0011 17.2352C56.7389 18.022 55.321 18.4154 53.7473 18.4154ZM53.7473 17.5794C55.0095 17.5794 56.1078 17.2434 57.0422 16.5713C57.9929 15.8992 58.7142 14.9402 59.206 13.6944C59.7141 12.4322 59.9682 10.9487 59.9682 9.24385C59.9682 7.53903 59.7141 6.06371 59.206 4.81788C58.7142 3.57206 57.9929 2.6131 57.0422 1.94101C56.1078 1.26892 55.0095 0.93287 53.7473 0.93287C52.4851 0.93287 51.3786 1.26892 50.4278 1.94101C49.4934 2.6131 48.7722 3.57206 48.264 4.81788C47.7722 6.06371 47.5263 7.53903 47.5263 9.24385C47.5263 10.9487 47.7722 12.4322 48.264 13.6944C48.7722 14.9402 49.4934 15.8992 50.4278 16.5713C51.3786 17.2434 52.4851 17.5794 53.7473 17.5794Z" fill="#1D1D1F"/>
<path d="M85.1972 0.441097C85.0824 2.03117 85.0087 3.67861 84.9759 5.38342C84.9431 7.08824 84.9267 9.41597 84.9267 12.3666V18.0466H84.1399L72.8783 2.23607V7.1784C72.8783 9.80119 72.8947 11.8994 72.9274 13.4731C72.9766 15.0468 73.0504 16.5713 73.1487 18.0466H71.7226C71.8373 16.4565 71.9111 14.8091 71.9439 13.1043C71.9767 11.3995 71.9931 9.07173 71.9931 6.12109V0.441097H74.206L84.0415 14.2845V10.7929C84.0415 8.33407 84.0169 6.35058 83.9678 4.84247C83.935 3.33436 83.8694 1.86724 83.771 0.441097H85.1972Z" fill="#1D1D1F"/>
<path d="M100.022 1.32629C97.7437 1.32629 95.9159 1.46563 94.539 1.7443L94.9078 0.441097H107.251L107.62 1.7443C106.243 1.46563 104.415 1.32629 102.137 1.32629V18.0466H100.022V1.32629Z" fill="#1D1D1F"/>
<path d="M117.489 0.441097H119.603V18.0466H117.489V0.441097Z" fill="#1D1D1F"/>
<path d="M131.019 0.441097H143.412L143.781 1.71971C141.142 1.45743 137.593 1.32629 133.134 1.32629V8.80125C134.642 8.80125 135.847 8.78486 136.749 8.75208C137.667 8.71929 138.634 8.64552 139.65 8.53078V9.95692C138.634 9.84217 137.667 9.76841 136.749 9.73562C135.847 9.70284 134.642 9.68645 133.134 9.68645V17.1614C137.593 17.1614 141.142 17.0303 143.781 16.768L143.412 18.0466H131.019V0.441097Z" fill="#1D1D1F"/>
<path d="M153.945 0.441097H160.829C162.026 0.441097 163.083 0.662395 164.001 1.10499C164.919 1.5312 165.624 2.13772 166.116 2.92455C166.624 3.695 166.878 4.58839 166.878 5.60472C166.878 6.86694 166.501 7.94065 165.747 8.82584C165.009 9.69464 163.977 10.2766 162.649 10.5716L167.075 18.0466H164.591L160.288 10.7683H156.059V18.0466H153.945V0.441097ZM160.78 9.88316C162.092 9.88316 163.083 9.52252 163.755 8.80125C164.444 8.06359 164.788 6.99808 164.788 5.60472C164.788 4.21136 164.444 3.15405 163.755 2.43278C163.083 1.69512 162.092 1.32629 160.78 1.32629H156.059V9.88316H160.78Z" fill="#1D1D1F"/>
<path d="M182.525 18.44C181.148 18.44 179.919 18.1204 178.837 17.4811C177.755 16.8418 176.993 15.9812 176.55 14.8992L177.976 14.3091C178.14 15.2927 178.64 16.0877 179.476 16.6942C180.312 17.3007 181.337 17.604 182.55 17.604C183.746 17.604 184.697 17.3007 185.402 16.6942C186.123 16.0877 186.484 15.2763 186.484 14.2599C186.484 13.3911 186.271 12.6863 185.844 12.1453C185.435 11.588 184.918 11.1536 184.295 10.8421C183.672 10.5307 182.828 10.1946 181.763 9.83398C180.664 9.45695 179.779 9.10451 179.107 8.77666C178.451 8.44881 177.886 7.98163 177.411 7.37511C176.952 6.7522 176.722 5.95716 176.722 4.99001C176.722 4.03924 176.968 3.19503 177.46 2.45737C177.968 1.70332 178.665 1.12138 179.55 0.711572C180.435 0.285368 181.435 0.0722656 182.55 0.0722656C183.894 0.0722656 185.082 0.391919 186.115 1.03123C187.164 1.65414 187.894 2.49835 188.303 3.56386L186.902 4.15399C186.754 3.17044 186.279 2.3836 185.476 1.79347C184.689 1.18695 183.713 0.883693 182.55 0.883693C181.369 0.883693 180.41 1.19515 179.673 1.81806C178.951 2.42459 178.591 3.22782 178.591 4.22776C178.591 4.91624 178.771 5.48997 179.132 5.94896C179.509 6.39156 179.976 6.7522 180.533 7.03087C181.107 7.29315 181.886 7.59641 182.869 7.94065C184.05 8.35046 185.008 8.75208 185.746 9.14549C186.484 9.52252 187.107 10.0717 187.615 10.7929C188.139 11.4978 188.402 12.424 188.402 13.5715C188.402 14.5058 188.148 15.3418 187.639 16.0795C187.131 16.8172 186.426 17.3991 185.525 17.8253C184.64 18.2351 183.64 18.44 182.525 18.44Z" fill="#1D1D1F"/>
</svg>
