<svg width="56" height="56" viewBox="0 0 56 56" fill="none" xmlns="http://www.w3.org/2000/svg">
<path fill-rule="evenodd" clip-rule="evenodd" d="M19.2134 16.0011C19.9759 16.287 21.2911 16.3251 22.0916 16.3442C24.1121 16.4014 26.1707 16.3442 28.1912 16.3442C30.2307 16.3442 32.2893 16.4014 34.3288 16.3442C35.1294 16.3251 36.4446 16.287 37.188 15.982C38.0648 15.6389 38.0267 14.1522 37.1118 13.8281C36.3112 13.5422 35.0341 13.5232 34.1954 13.5041C32.194 13.466 30.1926 13.5041 28.1912 13.5041C26.2088 13.5041 24.2265 13.466 22.2441 13.5041C21.3864 13.5232 20.1093 13.5422 19.2897 13.8281C18.3366 14.1522 18.3176 15.6389 19.2134 16.0011ZM18.6416 11.8267C15.7634 12.7607 15.7443 16.9351 18.47 17.9644L18.4891 17.9834L18.2794 18.3075L10.2166 30.945C7.0906 35.8436 6.89999 41.7907 9.6829 46.88C12.4658 51.9693 17.6123 55 23.4069 55H33.0136C38.8082 55 43.9547 51.9693 46.7376 46.88C49.5205 41.7907 49.3299 35.8246 46.2039 30.945L38.1411 18.3075L37.9314 17.9834C37.9504 17.9834 37.9695 17.9644 37.9886 17.9644C40.6571 16.916 40.619 12.837 37.8361 11.8648L37.798 11.8458V11.8267L40.2378 3.24925C40.3521 2.88709 40.2378 2.4868 39.9709 2.21995C38.3507 0.59976 35.7012 0.59976 34.0811 2.21995C33.6998 2.60117 33.1661 2.8299 32.6324 2.8299C32.0796 2.8299 31.565 2.62023 31.1647 2.21995C29.5255 0.580698 26.876 0.599759 25.2558 2.23901C24.4552 3.03957 23.14 3.03957 22.3585 2.23901C20.7383 0.61882 18.0888 0.61882 16.4686 2.23901C16.2018 2.50586 16.0874 2.90615 16.2018 3.26831L18.6416 11.8077V11.8267ZM38.0267 3.36361C37.2452 2.94427 36.235 3.05863 35.5869 3.70671C34.8054 4.48821 33.757 4.92662 32.6324 4.92662C31.5078 4.92662 30.4595 4.48821 29.678 3.68765C28.8583 2.86802 27.5622 2.90615 26.7425 3.70671C25.1224 5.3269 22.4919 5.3269 20.8527 3.70671C20.1855 3.03957 19.1944 2.92521 18.4129 3.34455L20.7002 11.3121L20.7383 11.4455C22.4729 11.3121 24.8746 11.3883 28.2102 11.3883C31.5841 11.3883 33.9857 11.3121 35.7203 11.4455L35.7394 11.3693L38.0267 3.36361ZM20.7383 18.3837C22.4729 18.5171 24.8746 18.4409 28.2102 18.4409C31.565 18.4409 33.9667 18.5171 35.7012 18.3837L44.4312 32.0886C47.1379 36.3202 47.3094 41.4667 44.8887 45.8698C42.4679 50.2729 38.0458 52.9033 33.0136 52.9033H23.4069C18.3747 52.9033 13.9526 50.2919 11.5318 45.8698C9.11107 41.4667 9.28262 36.3202 11.9893 32.0886L20.0712 19.4321L20.7383 18.3837ZM30.0782 34.3759C29.8114 34.2806 29.5445 34.1853 29.2777 34.09V29.3057C30.002 29.5154 30.4785 29.8585 30.4976 29.8775C30.955 30.2206 31.6222 30.1253 31.9653 29.6679C32.3084 29.2104 32.2321 28.5433 31.7556 28.1811C31.6984 28.143 30.7072 27.3996 29.2777 27.1327V26.0844C29.2777 25.4935 28.8011 25.036 28.2293 25.036C27.6384 25.036 27.1809 25.5126 27.1809 26.0844V27.1327C27.0094 27.1709 26.8188 27.209 26.6282 27.2662C25.1414 27.7046 24.0359 28.9817 23.7309 30.5828C23.464 32.0505 23.9215 33.442 24.9508 34.2616C25.5036 34.7 26.2088 35.1003 27.1809 35.5196V41.6382C26.3423 41.581 25.7895 41.3904 24.8746 40.7995C24.379 40.4755 23.7309 40.6089 23.4069 41.1045C23.0828 41.6001 23.2162 42.2482 23.7118 42.5722C25.0652 43.449 25.9801 43.7159 27.1809 43.773V44.8595C27.1809 45.4504 27.6575 45.9079 28.2293 45.9079C28.8202 45.9079 29.2777 45.4314 29.2777 44.8595V43.6587C31.5459 43.1631 32.8611 41.276 33.1471 39.5224C33.5473 37.1779 32.3274 35.1765 30.0782 34.3759ZM26.247 32.5842C25.8467 32.2602 25.6751 31.6502 25.7895 30.964C25.9039 30.335 26.3232 29.5726 27.1619 29.3057V33.1751C26.8188 32.9845 26.4948 32.7939 26.247 32.5842ZM31.0694 39.1412C30.9169 40.0371 30.307 41.0092 29.2777 41.4285V36.3392C29.3158 36.3583 29.3539 36.3583 29.373 36.3774C31.26 37.0445 31.1457 38.6647 31.0694 39.1412Z" fill="#D0B07C"/>
</svg>
