<svg width="98" height="54" viewBox="0 0 98 54" fill="none" xmlns="http://www.w3.org/2000/svg">
<path fill-rule="evenodd" clip-rule="evenodd" d="M16.0911 49.3572H23.9944C24.4403 49.3572 24.8029 48.9646 24.8029 48.4818V41.8135C24.8029 41.3307 24.4403 40.938 23.9944 40.938H16.0911C15.6453 40.938 15.2827 41.3307 15.2827 41.8135V48.4818C15.2828 48.9646 15.6453 49.3572 16.0911 49.3572ZM22.8878 47.2835H17.1978V43.0118H22.8878V47.2835Z" fill="#D0B07C"/>
<path fill-rule="evenodd" clip-rule="evenodd" d="M34.4941 30.8571C34.0124 30.8571 33.6204 30.4326 33.6204 29.9111V29.7294C33.6204 29.2076 34.0124 28.7834 34.4941 28.7834H35.7463V14.8956C34.9127 14.1868 34.3765 13.086 34.3765 11.8511V6.6947C36.0811 4.45847 37.7945 2.23135 39.5039 0H58.496C60.2055 2.23135 61.9189 4.45847 63.6235 6.6947V11.8511C63.6235 13.086 63.0873 14.1868 62.2537 14.8956V28.7834H63.5059C63.9876 28.7834 64.3796 29.2076 64.3796 29.7294V29.9111C64.3796 30.4328 63.9876 30.8571 63.5059 30.8571H50.073V38.5714H53.0621C53.508 38.5714 53.8706 38.9641 53.8706 39.4469V41.8977H69.3667V38.0385C68.5332 37.3296 67.9969 36.2289 67.9969 34.994V29.8376C69.7016 27.6013 71.4149 25.3742 73.1244 23.1429H92.1165C93.8259 25.3742 95.5393 27.6013 97.244 29.8376V34.994C97.244 36.2289 96.7077 37.3296 95.8741 38.0385V51.9263H97.1263C97.6081 51.9263 98 52.3505 98 52.8723V53.054C98 53.5756 97.6081 54 97.1263 54H68.1145C67.6328 54 67.2409 53.5755 67.2409 53.054V52.8723C67.2409 52.3505 67.6328 51.9263 68.1145 51.9263H69.3667V43.9714H53.8706V46.1152C53.8706 46.598 53.508 46.9906 53.0621 46.9906H45.1588C44.713 46.9906 44.3505 46.598 44.3504 46.1152V43.9714H28.6333V51.9263H29.8855C30.3672 51.9263 30.7591 52.3505 30.7591 52.8723V53.054C30.7591 53.5756 30.3672 54 29.8855 54H0.873655C0.391913 54 0 53.5755 0 53.054V52.8723C0 52.3505 0.391913 51.9263 0.873655 51.9263H2.12586V38.0385C1.29231 37.3296 0.756037 36.2289 0.756037 34.994V29.8376C2.46069 27.6013 4.17405 25.3742 5.88351 23.1429H24.8756C26.5851 25.3742 28.2984 27.6013 30.0031 29.8376V34.994C30.0031 36.2289 29.4668 37.3296 28.6333 38.0385V41.8977H44.3504V39.4469C44.3504 38.9641 44.713 38.5714 45.1588 38.5714H48.1501V30.8571H34.4941ZM41.2358 7.73929H36.2917L36.2916 11.851C36.2916 12.8417 37.0371 13.6477 37.9531 13.6477H39.5742C40.4904 13.6477 41.2358 12.8417 41.2358 11.851V7.73929ZM48.0599 7.73929H43.1159L43.1157 11.851C43.1157 12.8417 43.8613 13.6477 44.7773 13.6477H46.3984C47.3147 13.6477 48.0599 12.8417 48.0599 11.851V7.73929ZM40.3982 2.07357H43.4142L41.669 5.66556H37.6479C37.9298 5.29738 38.2119 4.92942 38.4939 4.56143L38.4946 4.56057L38.4953 4.55971L38.4972 4.55713L38.4981 4.55596C39.1314 3.72972 39.7649 2.90327 40.3982 2.07357ZM45.2945 2.07357H48.0599L48.0601 5.66556H43.5493L45.2945 2.07357ZM45.0729 28.7832H41.4918V22.6935V19.8689H45.0729V28.7832ZM60.0469 15.7214C60.1451 15.7214 60.2423 15.7169 60.3386 15.7084V28.7832H46.988V18.6706C46.988 18.3681 46.8453 18.1006 46.6291 17.9435C46.4908 17.8441 46.3454 17.7974 46.1794 17.7952H40.3851C39.9391 17.7952 39.5765 18.1878 39.5765 18.6706V22.6933V28.7832H37.6614V15.7084C37.7577 15.7169 37.8549 15.7214 37.9531 15.7214H39.5742C40.5984 15.7214 41.5233 15.2538 42.1758 14.5052C42.8284 15.2538 43.7533 15.7214 44.7773 15.7214H46.3984C47.4226 15.7214 48.3475 15.254 49 14.5052C49.6525 15.254 50.5774 15.7214 51.6016 15.7214H53.2227C54.2467 15.7214 55.1715 15.2538 55.8242 14.5052C56.4767 15.2538 57.4016 15.7214 58.4258 15.7214H60.0469ZM52.7057 2.07357H49.9402L49.9401 5.66556H54.4509L52.7057 2.07357ZM57.602 2.07357H54.5859L56.3311 5.66556H60.3523C60.0701 5.29709 59.7878 4.92885 59.5055 4.56057L59.5049 4.55971L59.5029 4.55713L59.502 4.55596C58.8687 3.72972 58.2353 2.90327 57.602 2.07357ZM49.9402 7.73929H54.8843L54.8844 11.851C54.8844 12.8417 54.1389 13.6477 53.2229 13.6477H51.6017C50.6854 13.6477 49.9402 12.8417 49.9402 11.851V7.73929ZM56.7644 7.73929H61.7084L61.7086 11.851C61.7086 12.8417 60.963 13.6477 60.047 13.6477H58.4259C57.5097 13.6477 56.7644 12.8417 56.7644 11.851V7.73929ZM51.9555 44.9169H46.2655V40.6452H51.9555V44.9169ZM7.61535 30.8822H2.67129L2.67114 34.9938C2.67114 35.9846 3.41666 36.7906 4.33268 36.7906H5.95381C6.86998 36.7906 7.61535 35.9846 7.61535 34.9938V30.8822ZM14.4395 30.8822H9.49545L9.4953 34.9938C9.4953 35.9846 10.2408 36.7906 11.1568 36.7906H12.778C13.6943 36.7906 14.4395 35.9846 14.4395 34.9938V30.8822ZM6.77774 25.2164H9.79378L8.04857 28.8084H4.02744C4.31011 28.4393 4.59285 28.0704 4.87561 27.7015L4.87632 27.7006C5.51007 26.8738 6.14398 26.0467 6.77774 25.2164ZM11.674 25.2164H14.4395L14.4397 28.8084H9.92882L11.674 25.2164ZM11.4525 51.9261H7.87132V45.8363V43.0118H11.4525V51.9261ZM26.4264 38.8643C26.5247 38.8643 26.6219 38.8597 26.7182 38.8513V51.9261H13.3676V41.8135C13.3676 41.5109 13.2249 41.2435 13.0087 41.0864C12.8704 40.987 12.7249 40.9403 12.559 40.938H6.76468C6.31869 40.938 5.95606 41.3307 5.95606 41.8135V45.8362V51.9261H4.04096V38.8513C4.13725 38.8597 4.23444 38.8643 4.33268 38.8643H5.95381C6.97798 38.8643 7.90286 38.3967 8.5554 37.6481C9.20794 38.3967 10.1328 38.8643 11.1568 38.8643H12.778C13.8021 38.8643 14.727 38.3968 15.3796 37.6481C16.0321 38.3968 16.957 38.8643 17.9812 38.8643H19.6023C20.6263 38.8643 21.551 38.3967 22.2037 37.6481C22.8563 38.3967 23.7811 38.8643 24.8053 38.8643H26.4264ZM19.0852 25.2164H16.3198L16.3196 28.8084H20.8304L19.0852 25.2164ZM23.9815 25.2164H20.9655L22.7107 28.8084H26.7318C26.4494 28.4396 26.1668 28.071 25.8843 27.7023L25.8836 27.7015L25.8829 27.7006L25.8819 27.6993C25.2485 26.8729 24.6149 26.0463 23.9815 25.2164ZM16.3198 30.8822H21.2638L21.264 34.9938C21.264 35.9846 20.5184 36.7906 19.6024 36.7906H17.9813C17.065 36.7906 16.3198 35.9846 16.3198 34.9938V30.8822ZM23.1439 30.8822H28.088L28.0881 34.9938C28.0881 35.9846 27.3426 36.7906 26.4266 36.7906H24.8055C23.8893 36.7906 23.1439 35.9846 23.1439 34.9938V30.8822ZM74.8562 30.8822H69.9122L69.912 34.9938C69.912 35.9846 70.6575 36.7906 71.5736 36.7906H73.1947C74.1109 36.7906 74.8562 35.9846 74.8562 34.9938V30.8822ZM81.6804 30.8822H76.7363L76.7362 34.9938C76.7362 35.9846 77.4817 36.7906 78.3977 36.7906H80.0188C80.9352 36.7906 81.6804 35.9846 81.6804 34.9938V30.8822ZM74.0186 25.2164H77.0347L75.2894 28.8084H71.2683C71.5504 28.4401 71.8326 28.072 72.1147 27.7039L72.1154 27.703L72.116 27.7022L72.1167 27.7013L72.1173 27.7005C72.751 26.8737 73.3849 26.0467 74.0186 25.2164ZM78.9149 25.2164H81.6804L81.6805 28.8084H77.1697L78.9149 25.2164ZM78.6933 51.9261H75.1122V45.8363V43.0118H78.6933V51.9261ZM93.6673 38.8643C93.7656 38.8643 93.8627 38.8597 93.959 38.8513V51.9261H80.6084V41.8135C80.6084 41.5109 80.4657 41.2435 80.2496 41.0864C80.1112 40.987 79.9658 40.9403 79.7998 40.938H74.0056C73.5596 40.938 73.1969 41.3307 73.1969 41.8135V45.8362V51.9261H71.2818V38.8513C71.3781 38.8597 71.4753 38.8643 71.5736 38.8643H73.1947C74.2189 38.8643 75.1437 38.3967 75.7963 37.6481C76.4488 38.3967 77.3737 38.8643 78.3977 38.8643H80.0188C81.043 38.8643 81.9679 38.3968 82.6204 37.6481C83.273 38.3968 84.1979 38.8643 85.222 38.8643H86.8432C87.8672 38.8643 88.7919 38.3967 89.4446 37.6481C90.0971 38.3967 91.022 38.8643 92.0462 38.8643H93.6673ZM86.3261 25.2164H83.5606L83.5605 28.8084H88.0713L86.3261 25.2164ZM91.2224 25.2164H88.2064L89.9516 28.8084H93.9727C93.6894 28.4385 93.4061 28.0689 93.1227 27.6992C92.4893 26.8728 91.8558 26.0462 91.2224 25.2164ZM83.5606 30.8822H88.5047L88.5048 34.9938C88.5048 35.9846 87.7593 36.7906 86.8433 36.7906H85.2222C84.3059 36.7906 83.5606 35.9846 83.5606 34.9938V30.8822ZM90.3848 30.8822H95.3289L95.329 34.9938C95.329 35.9846 94.5835 36.7906 93.6675 36.7906H92.0463C91.1302 36.7906 90.3848 35.9846 90.3848 34.9938V30.8822Z" fill="#D0B07C"/>
<path fill-rule="evenodd" clip-rule="evenodd" d="M83.332 49.3572H91.2353C91.6812 49.3572 92.0438 48.9646 92.0438 48.4818V41.8135C92.0438 41.3307 91.6812 40.938 91.2353 40.938H83.332C82.8862 40.938 82.5236 41.3307 82.5236 41.8135V48.4818C82.5237 48.9646 82.8862 49.3572 83.332 49.3572ZM90.1287 47.2835H84.4387V43.0118H90.1287V47.2835Z" fill="#D0B07C"/>
<path fill-rule="evenodd" clip-rule="evenodd" d="M49.7116 26.2144H57.6149C58.0607 26.2144 58.4234 25.8217 58.4234 25.3389V18.6706C58.4234 18.1878 58.0607 17.7952 57.6149 17.7952H49.7116C49.2657 17.7952 48.9031 18.1878 48.9031 18.6706V25.3389C48.9033 25.8217 49.2657 26.2144 49.7116 26.2144ZM56.5082 24.1406H50.8182V19.8689H56.5082V24.1406Z" fill="#D0B07C"/>
</svg>
