<svg width="56" height="56" viewBox="0 0 56 56" fill="none" xmlns="http://www.w3.org/2000/svg">
<path d="M19.4046 6.98163H13.674C12.1541 6.98163 10.6965 7.58127 9.62182 8.64864C8.54712 9.71601 7.94336 11.1637 7.94336 12.6732V46.8224C7.94336 48.3319 8.54712 49.7795 9.62182 50.8469C10.6965 51.9143 12.1541 52.5139 13.674 52.5139H42.327C43.8469 52.5139 45.3045 51.9143 46.3792 50.8469C47.4539 49.7795 48.0576 48.3319 48.0576 46.8224V12.6732C48.0576 11.1637 47.4539 9.71601 46.3792 8.64864C45.3045 7.58127 43.8469 6.98163 42.327 6.98163H36.5964M13.8862 40.5181H22.4235M13.8862 34.7404H42.1148M13.8862 28.9626H42.1148M13.8862 23.1848H42.1148M13.8862 17.407H42.1148M33.7783 43.2419L36.5021 45.9657L41.9497 40.518M23.416 3.48535H33.0762C34.8847 3.48535 36.3508 5.01426 36.3508 6.90027C36.3508 8.78628 34.8847 10.3152 33.0762 10.3152H23.416C21.6075 10.3152 20.1414 8.78628 20.1414 6.90027C20.1414 5.01426 21.6075 3.48535 23.416 3.48535Z" stroke="#E4C592" stroke-width="2.75" stroke-linecap="round" stroke-linejoin="round"/>
</svg>
