<svg width="56" height="56" viewBox="0 0 56 56" fill="none" xmlns="http://www.w3.org/2000/svg">
<g clip-path="url(#clip0_6:4768)">
<path d="M3 52.9998V47.4443C3 44.4975 4.17063 41.6713 6.25436 39.5876C8.33809 37.5039 11.1642 36.3332 14.1111 36.3332H25.2222C28.169 36.3332 30.9951 37.5039 33.0789 39.5876C35.1626 41.6713 36.3332 44.4975 36.3332 47.4443V52.9998M39.111 3.36109C41.501 3.97303 43.6194 5.36303 45.1322 7.31194C46.645 9.26085 47.4661 11.6578 47.4661 14.1249C47.4661 16.5921 46.645 18.989 45.1322 20.9379C43.6194 22.8869 41.501 24.2769 39.111 24.8888M52.9998 53V47.4445C52.9857 44.9921 52.1607 42.6134 50.6534 40.6789C49.146 38.7445 47.041 37.3631 44.6665 36.75M30.7777 14.1111C30.7777 20.2476 25.8031 25.2221 19.6666 25.2221C13.5301 25.2221 8.55552 20.2476 8.55552 14.1111C8.55552 7.9746 13.5301 3 19.6666 3C25.8031 3 30.7777 7.9746 30.7777 14.1111Z" stroke="#D0B07C" stroke-width="2.7" stroke-linecap="round" stroke-linejoin="round"/>
</g>
<defs>
<clipPath id="clip0_6:4768">
<rect width="56" height="56" fill="white"/>
</clipPath>
</defs>
</svg>
