<svg width="56" height="56" viewBox="0 0 56 56" fill="none" xmlns="http://www.w3.org/2000/svg">
<path d="M45.0957 31.7144V54.0001M45.0957 54.0001L51.9052 47.143M45.0957 54.0001L38.2861 47.143" stroke="#E4C592" stroke-width="2.7" stroke-linecap="round" stroke-linejoin="round"/>
<path d="M32.0222 16.4444C31.4472 14.8129 30.3971 13.3908 29.007 12.3611C27.6169 11.3314 25.9505 10.7413 24.2222 10.6667H12.6667C10.3681 10.6667 8.16372 11.5798 6.53841 13.2051C4.91309 14.8304 4 17.0348 4 19.3333C4 21.6319 4.91309 23.8363 6.53841 25.4616C8.16372 27.0869 10.3681 28 12.6667 28H24.2222C26.5208 28 28.7252 28.9131 30.3505 30.5384C31.9758 32.1637 32.8889 34.3681 32.8889 36.6667C32.8889 38.9652 31.9758 41.1696 30.3505 42.7949C28.7252 44.4202 26.5208 45.3333 24.2222 45.3333H12.6667C10.9384 45.2587 9.27196 44.6686 7.88189 43.6389C6.49181 42.6092 5.44169 41.1871 4.86667 39.5556M18.4444 2V10.6667M18.4444 45.3333V54" stroke="#E4C592" stroke-width="2.7" stroke-linecap="round" stroke-linejoin="round"/>
</svg>
