<svg width="57" height="56" viewBox="0 0 57 56" fill="none" xmlns="http://www.w3.org/2000/svg">
<path fill-rule="evenodd" clip-rule="evenodd" d="M19.6552 16.8899C20.3624 17.1546 21.5823 17.1899 22.3249 17.2076C24.1989 17.2605 26.1083 17.2076 27.9823 17.2076C29.874 17.2076 31.7834 17.2605 33.6751 17.2076C34.4177 17.1899 35.6376 17.1546 36.3271 16.8723C37.1403 16.5546 37.105 15.1779 36.2564 14.8779C35.5138 14.6132 34.3293 14.5955 33.5514 14.5779C31.695 14.5426 29.8387 14.5779 27.9823 14.5779C26.1436 14.5779 24.305 14.5426 22.4663 14.5779C21.6707 14.5955 20.4862 14.6132 19.726 14.8779C18.842 15.1779 18.8243 16.5546 19.6552 16.8899ZM19.1249 13.0247C16.4552 13.8895 16.4376 17.7547 18.9657 18.7078L18.9834 18.7254L18.7889 19.0254L11.3105 30.7268C8.41103 35.2626 8.23424 40.7692 10.8155 45.4815C13.3967 50.1938 18.1702 53 23.5447 53H32.4553C37.8298 53 42.6033 50.1938 45.1846 45.4815C47.7658 40.7692 47.589 35.245 44.6895 30.7268L37.2111 19.0254L37.0166 18.7254C37.0343 18.7254 37.0519 18.7078 37.0696 18.7078C39.5448 17.7371 39.5094 13.9601 36.9282 13.06L36.8928 13.0424V13.0247L39.1558 5.08264C39.2619 4.7473 39.1558 4.37667 38.9083 4.12958C37.4055 2.62941 34.9481 2.62941 33.4453 4.12958C33.0917 4.48256 32.5967 4.69435 32.1017 4.69435C31.589 4.69435 31.1116 4.50021 30.7403 4.12958C29.2199 2.61176 26.7624 2.62941 25.2597 4.14723C24.5171 4.88849 23.2972 4.88849 22.5724 4.14723C21.0696 2.64706 18.6121 2.64706 17.1094 4.14723C16.8619 4.39432 16.7558 4.76495 16.8619 5.10028L19.1249 13.0071V13.0247ZM37.105 5.18853C36.3801 4.80025 35.4431 4.90614 34.842 5.50621C34.1171 6.22983 33.1448 6.63576 32.1017 6.63576C31.0586 6.63576 30.0862 6.22983 29.3613 5.48856C28.6011 4.72965 27.3989 4.76495 26.6387 5.50621C25.1359 7.00639 22.6961 7.00639 21.1757 5.50621C20.5569 4.88849 19.6376 4.7826 18.9127 5.17088L21.0342 12.5482L21.0696 12.6718C22.6784 12.5482 24.9061 12.6188 28 12.6188C31.1293 12.6188 33.3569 12.5482 34.9657 12.6718L34.9834 12.6012L37.105 5.18853ZM21.0696 19.096C22.6784 19.2196 24.9061 19.149 28 19.149C31.1116 19.149 33.3392 19.2196 34.9481 19.096L43.0453 31.7858C45.5558 35.7039 45.7149 40.4691 43.4696 44.5461C41.2243 48.623 37.1227 51.0586 32.4553 51.0586H23.5447C18.8773 51.0586 14.7757 48.6407 12.5304 44.5461C10.2851 40.4691 10.4442 35.7039 12.9547 31.7858L20.4508 20.0667L21.0696 19.096ZM29.7326 33.9037C29.4851 33.8154 29.2376 33.7272 28.9901 33.6389V29.209C29.6619 29.4031 30.1039 29.7208 30.1216 29.7385C30.5459 30.0561 31.1646 29.9679 31.4829 29.5443C31.8011 29.1207 31.7304 28.503 31.2884 28.1677C31.2354 28.1324 30.316 27.4441 28.9901 27.197V26.2263C28.9901 25.6792 28.5481 25.2556 28.0177 25.2556C27.4696 25.2556 27.0453 25.6968 27.0453 26.2263V27.197C26.8862 27.2323 26.7094 27.2676 26.5326 27.3205C25.1536 27.7265 24.1282 28.909 23.8453 30.3915C23.5978 31.7505 24.0221 33.0388 24.9768 33.7978C25.4895 34.2037 26.1436 34.5743 27.0453 34.9626V40.628C26.2674 40.575 25.7547 40.3985 24.9061 39.8514C24.4464 39.5514 23.8453 39.6749 23.5447 40.1338C23.2442 40.5927 23.3679 41.1927 23.8276 41.4928C25.0829 42.3046 25.9315 42.5517 27.0453 42.6047V43.6107C27.0453 44.1578 27.4873 44.5814 28.0177 44.5814C28.5657 44.5814 28.9901 44.1401 28.9901 43.6107V42.4988C31.0939 42.0399 32.3138 40.2926 32.579 38.6689C32.9503 36.4981 31.8188 34.6449 29.7326 33.9037ZM26.179 32.2446C25.8077 31.9446 25.6486 31.3798 25.7547 30.7445C25.8608 30.162 26.2497 29.4561 27.0276 29.209V32.7918C26.7094 32.6153 26.4088 32.4388 26.179 32.2446ZM30.6519 38.3159C30.5105 39.1454 29.9448 40.0455 28.9901 40.4338V35.7215C29.0254 35.7392 29.0608 35.7392 29.0785 35.7568C30.8287 36.3745 30.7227 37.8747 30.6519 38.3159Z" fill="#D0B07C"/>
</svg>
