<svg width="106" height="56" viewBox="0 0 106 56" fill="none" xmlns="http://www.w3.org/2000/svg">
<path fill-rule="evenodd" clip-rule="evenodd" d="M39.2546 8.73929H44.6023V12.851C44.6023 13.8417 43.796 14.6477 42.8051 14.6477H41.0516C40.0608 14.6477 39.2544 13.8417 39.2544 12.851L39.2546 8.73929ZM46.6358 8.73929H51.9835V12.851C51.9835 13.8417 51.1774 14.6477 50.1863 14.6477H48.4328C47.4421 14.6477 46.6357 13.8417 46.6357 12.851L46.6358 8.73929ZM46.9585 3.07357H43.6963C42.7047 4.27464 41.7127 5.46888 40.7214 6.66556H45.0708L46.9585 3.07357ZM51.9835 3.07357H48.9923L47.1046 6.66556H51.9837L51.9835 3.07357ZM44.8791 29.7832H48.7526C48.7526 25.1205 48.7526 25.5315 48.7526 20.8689H44.8791C44.8791 24.2428 44.8791 20.3194 44.8791 23.6935C44.8791 26.9408 44.8791 26.5358 44.8791 29.7832ZM65.2645 16.7084C65.1604 16.7169 65.0552 16.7214 64.949 16.7214H63.1955C62.0877 16.7214 61.0873 16.2538 60.3815 15.5052C59.6756 16.2538 58.6753 16.7214 57.5677 16.7214H55.8143C54.7065 16.7214 53.7061 16.254 53.0003 15.5052C52.2945 16.254 51.2941 16.7214 50.1863 16.7214H48.4328C47.3252 16.7214 46.3249 16.2538 45.619 15.5052C44.9132 16.2538 43.9129 16.7214 42.8051 16.7214H41.0516C40.9453 16.7214 40.8402 16.7169 40.7361 16.7084V29.7832H42.8075V23.6933C42.8075 19.92 42.8075 23.4438 42.8075 19.6706C42.8075 19.1878 43.1997 18.7952 43.6821 18.7952H48.7526H49.9494C50.129 18.7974 50.2862 18.8441 50.4359 18.9435C50.6697 19.1006 50.8241 19.3681 50.8241 19.6706C50.8241 24.2589 50.8241 25.195 50.8241 29.7832H65.2645V16.7084ZM54.0172 3.07357H57.0085L58.8962 6.66556H54.0171L54.0172 3.07357ZM59.0422 3.07357H62.3045C63.2961 4.27464 64.288 5.46888 65.2793 6.66556H60.9299L59.0422 3.07357ZM59.3649 8.73929H54.0172V12.851C54.0172 13.8417 54.8233 14.6477 55.8144 14.6477H57.5679C58.5587 14.6477 59.3651 13.8417 59.3651 12.851L59.3649 8.73929ZM66.7461 8.73929H61.3985V12.851C61.3985 13.8417 62.2047 14.6477 63.1957 14.6477H64.9491C65.9399 14.6477 66.7463 13.8417 66.7463 12.851L66.7461 8.73929ZM37.3102 31.8571C36.7891 31.8571 36.3652 31.4326 36.3652 30.9111V30.7294C36.3652 30.2076 36.7891 29.7834 37.3102 29.7834H38.6646C38.6646 22.7717 38.6646 22.9073 38.6646 15.8956C37.763 15.1868 37.183 14.086 37.183 12.8511V7.6947C39.0268 5.45847 40.88 3.23135 42.729 1H53.0003H63.2715C65.1205 3.23135 66.9738 5.45847 68.8176 7.6947V12.8511C68.8176 14.086 68.2375 15.1868 67.3359 15.8956C67.3359 22.9073 67.3359 22.7717 67.3359 29.7834H68.6904C69.2114 29.7834 69.6353 30.2076 69.6353 30.7294V30.9111C69.6353 31.4328 69.2114 31.8571 68.6904 31.8571H37.3102ZM53.7699 27.2144H62.3184C62.8007 27.2144 63.1929 26.8217 63.1929 26.339V19.6706C63.1929 19.1878 62.8007 18.7952 62.3184 18.7952H53.7699C53.2877 18.7952 52.8955 19.1878 52.8955 19.6706V26.339C52.8957 26.8217 53.2877 27.2144 53.7699 27.2144ZM54.9669 25.1406H61.1215V20.8689H54.9669V25.1406Z" fill="#D0B07C"/>
<path d="M54.1602 32.607L54.1602 38.4362L54.1602 39.7866C54.1602 40.3061 53.7347 40.7287 53.2113 40.7287L53.0291 40.7287C52.5059 40.7287 52.0803 40.3061 52.0803 39.7866L52.0803 31.2566C52.0803 30.7371 52.5061 30.3145 53.0291 30.3145L53.2113 30.3145C53.7347 30.3145 54.1602 30.7371 54.1602 31.2566L54.1602 32.607Z" fill="#D0B07C"/>
<path d="M46.8315 44.9717L31.7003 44.9717L30.3459 44.9717C29.8248 44.9717 29.4009 44.5475 29.4009 44.0257L29.4009 43.844C29.4009 43.3223 29.8248 42.8979 30.3459 42.8979L48.1859 42.8979C48.707 42.8979 49.1309 43.3225 49.1309 43.844L49.1309 44.0257C49.1309 44.5475 48.707 44.9717 48.1859 44.9717L46.8315 44.9717Z" fill="#D0B07C"/>
<path d="M74.685 44.9717L59.5538 44.9717L58.1994 44.9717C57.6783 44.9717 57.2544 44.5475 57.2544 44.0257L57.2544 43.844C57.2544 43.3223 57.6783 42.8979 58.1994 42.8979L76.0394 42.8979C76.5605 42.8979 76.9844 43.3225 76.9844 43.844L76.9844 44.0257C76.9844 44.5475 76.5605 44.9717 76.0394 44.9717L74.685 44.9717Z" fill="#D0B07C"/>
<path fill-rule="evenodd" clip-rule="evenodd" d="M48.8452 47.9905H57.3937C57.8759 47.9905 58.2681 47.5978 58.2681 47.1151V40.4467C58.2681 39.9639 57.8759 39.5713 57.3937 39.5713H48.8452C48.3629 39.5713 47.9707 39.9639 47.9707 40.4467V47.1151C47.9709 47.5978 48.3629 47.9905 48.8452 47.9905ZM50.0421 45.9168H56.1967V41.645H50.0421V45.9168Z" fill="#D0B07C"/>
<path fill-rule="evenodd" clip-rule="evenodd" d="M2.88936 31.8819H8.23702V35.9936C8.23702 36.9843 7.4308 37.7903 6.43984 37.7903H4.68637C3.69558 37.7903 2.8892 36.9843 2.8892 35.9936L2.88936 31.8819ZM10.2706 31.8819H15.6183V35.9936C15.6183 36.9843 14.8122 37.7903 13.8211 37.7903H12.0676C11.0768 37.7903 10.2704 36.9843 10.2704 35.9936L10.2706 31.8819ZM10.5933 26.2161H7.33104C6.33943 27.4172 5.3475 28.6115 4.35622 29.8081H8.70561L10.5933 26.2161ZM15.6183 26.2161H12.627L10.7394 29.8081H15.6184L15.6183 26.2161ZM8.51388 52.9258H12.3874C12.3874 48.2631 12.3874 48.6741 12.3874 44.0115H8.51388C8.51388 47.3853 8.51388 43.462 8.51388 46.8361C8.51388 50.0834 8.51388 49.6783 8.51388 52.9258ZM28.8993 39.851C28.7951 39.8595 28.69 39.864 28.5837 39.864H26.8303C25.7225 39.864 24.7221 39.3964 24.0163 38.6478C23.3103 39.3964 22.3101 39.864 21.2025 39.864H19.449C18.3412 39.864 17.3409 39.3965 16.6351 38.6478C15.9292 39.3965 14.9289 39.864 13.8211 39.864H12.0676C10.96 39.864 9.95962 39.3964 9.25381 38.6478C8.548 39.3964 7.54762 39.864 6.43984 39.864H4.68637C4.58011 39.864 4.47499 39.8595 4.37084 39.851V52.9258H6.44228V46.8359C6.44228 43.0625 6.44228 46.5864 6.44228 42.8132C6.44228 42.3304 6.8345 41.9377 7.3169 41.9377H12.3874H13.5842C13.7637 41.94 13.921 41.9867 14.0707 42.0861C14.3045 42.2432 14.4588 42.5106 14.4588 42.8132C14.4588 47.4014 14.4588 48.3376 14.4588 52.9258H28.8993V39.851ZM17.652 26.2161H20.6432L22.5309 29.8081H17.6518L17.652 26.2161ZM22.677 26.2161H25.9392C26.9308 27.4172 27.9228 28.6115 28.9141 29.8081H24.5647L22.677 26.2161ZM22.9997 31.8819H17.652V35.9936C17.652 36.9843 18.4581 37.7903 19.4492 37.7903H21.2027C22.1934 37.7903 22.9998 36.9843 22.9998 35.9936L22.9997 31.8819ZM30.3809 31.8819H25.0333V35.9936C25.0333 36.9843 25.8395 37.7903 26.8304 37.7903H28.5839C29.5747 37.7903 30.3811 36.9843 30.3811 35.9936L30.3809 31.8819ZM0.944975 54.9997C0.423906 54.9997 0 54.5752 0 54.0537V53.872C0 53.3502 0.423906 52.926 0.944975 52.926H2.2994C2.2994 45.9143 2.2994 46.0499 2.2994 39.0382C1.3978 38.3293 0.817755 37.2286 0.817755 35.9937V30.8373C2.66156 28.601 4.51479 26.3739 6.3638 24.1426H16.6351H26.9063C28.7553 26.3739 30.6085 28.601 32.4524 30.8373V35.9937C32.4524 37.2286 31.8723 38.3293 30.9707 39.0382C30.9707 46.0499 30.9707 45.9143 30.9707 52.926H32.3251C32.8462 52.926 33.2701 53.3502 33.2701 53.872V54.0537C33.2701 54.5753 32.8462 54.9997 32.3251 54.9997H0.944975ZM17.4047 50.357H25.9532C26.4354 50.357 26.8277 49.9643 26.8277 49.4815V42.8132C26.8277 42.3304 26.4354 41.9377 25.9532 41.9377H17.4047C16.9225 41.9377 16.5303 42.3304 16.5303 42.8132V49.4815C16.5304 49.9643 16.9225 50.357 17.4047 50.357ZM18.6017 48.2832H24.7562V44.0115H18.6017V48.2832Z" fill="#D0B07C"/>
<path fill-rule="evenodd" clip-rule="evenodd" d="M75.6198 31.8819H80.9675V35.9936C80.9675 36.9843 80.1613 37.7903 79.1703 37.7903H77.4168C76.426 37.7903 75.6197 36.9843 75.6197 35.9936L75.6198 31.8819ZM83.0011 31.8819H88.3487V35.9936C88.3487 36.9843 87.5427 37.7903 86.5516 37.7903H84.7981C83.8073 37.7903 83.0009 36.9843 83.0009 35.9936L83.0011 31.8819ZM83.3238 26.2161H80.0615C79.0699 27.4172 78.078 28.6115 77.0867 29.8081H81.4361L83.3238 26.2161ZM88.3487 26.2161H85.3575L83.4698 29.8081H88.3489L88.3487 26.2161ZM81.2444 52.9258H85.1178C85.1178 48.2631 85.1178 48.6741 85.1178 44.0115H81.2444C81.2444 47.3853 81.2444 43.462 81.2444 46.8361C81.2444 50.0834 81.2444 49.6783 81.2444 52.9258ZM101.63 39.851C101.526 39.8595 101.42 39.864 101.314 39.864H99.5607C98.453 39.864 97.4526 39.3964 96.7468 38.6478C96.0408 39.3964 95.0406 39.864 93.933 39.864H92.1795C91.0717 39.864 90.0713 39.3965 89.3655 38.6478C88.6597 39.3965 87.6593 39.864 86.5516 39.864H84.7981C83.6905 39.864 82.6901 39.3964 81.9843 38.6478C81.2785 39.3964 80.2781 39.864 79.1703 39.864H77.4168C77.3106 39.864 77.2055 39.8595 77.1013 39.851V52.9258H79.1727V46.8359C79.1727 43.0625 79.1727 46.5864 79.1727 42.8132C79.1727 42.3304 79.565 41.9377 80.0474 41.9377H85.1178H86.3147C86.4942 41.94 86.6515 41.9867 86.8011 42.0861C87.0349 42.2432 87.1893 42.5106 87.1893 42.8132C87.1893 47.4014 87.1893 48.3376 87.1893 52.9258H101.63V39.851ZM90.3825 26.2161H93.3737L95.2614 29.8081H90.3823L90.3825 26.2161ZM95.4075 26.2161H98.6697C99.6613 27.4172 100.653 28.6115 101.645 29.8081H97.2951L95.4075 26.2161ZM95.7301 31.8819H90.3825V35.9936C90.3825 36.9843 91.1885 37.7903 92.1797 37.7903H93.9331C94.9239 37.7903 95.7303 36.9843 95.7303 35.9936L95.7301 31.8819ZM103.111 31.8819H97.7637V35.9936C97.7637 36.9843 98.5699 37.7903 99.5609 37.7903H101.314C102.305 37.7903 103.112 36.9843 103.112 35.9936L103.111 31.8819ZM73.6754 54.9997C73.1544 54.9997 72.7305 54.5752 72.7305 54.0537V53.872C72.7305 53.3502 73.1544 52.926 73.6754 52.926H75.0299C75.0299 45.9143 75.0299 46.0499 75.0299 39.0382C74.1283 38.3293 73.5482 37.2286 73.5482 35.9937V30.8373C75.392 28.601 77.2453 26.3739 79.0943 24.1426H89.3655H99.6368C101.486 26.3739 103.339 28.601 105.183 30.8373V35.9937C105.183 37.2286 104.603 38.3293 103.701 39.0382C103.701 46.0499 103.701 45.9143 103.701 52.926H105.056C105.577 52.926 106.001 53.3502 106.001 53.872V54.0537C106.001 54.5753 105.577 54.9997 105.056 54.9997H73.6754ZM90.1352 50.357H98.6837C99.1659 50.357 99.5581 49.9643 99.5581 49.4815V42.8132C99.5581 42.3304 99.1659 41.9377 98.6837 41.9377H90.1352C89.6529 41.9377 89.2607 42.3304 89.2607 42.8132V49.4815C89.2609 49.9643 89.6529 50.357 90.1352 50.357ZM91.3322 48.2832H97.4867V44.0115H91.3322V48.2832Z" fill="#D0B07C"/>
</svg>
