<svg width="1240" height="28" viewBox="0 0 1240 28" fill="none" xmlns="http://www.w3.org/2000/svg">
<path d="M0 13C0 12.4477 0.447715 12 1 12C1.55228 12 2 12.4477 2 13V23C2 23.5523 1.55228 24 1 24C0.447715 24 0 23.5523 0 23V13Z" fill="#D0B07C"/>
<path d="M288 13C288 12.4477 288.448 12 289 12C289.552 12 290 12.4477 290 13V23C290 23.5523 289.552 24 289 24C288.448 24 288 23.5523 288 23V13Z" fill="#D0B07C"/>
<path d="M612 13C612 12.4477 612.448 12 613 12C613.552 12 614 12.4477 614 13V23C614 23.5523 613.552 24 613 24C612.448 24 612 23.5523 612 23V13Z" fill="#D0B07C"/>
<path d="M936 13C936 12.4477 936.448 12 937 12C937.552 12 938 12.4477 938 13V23C938 23.5523 937.552 24 937 24C936.448 24 936 23.5523 936 23V13Z" fill="#D0B07C"/>
<path d="M324 13C324 12.4477 324.448 12 325 12C325.552 12 326 12.4477 326 13V23C326 23.5523 325.552 24 325 24C324.448 24 324 23.5523 324 23V13Z" fill="#D0B07C"/>
<path d="M648 13C648 12.4477 648.448 12 649 12C649.552 12 650 12.4477 650 13V23C650 23.5523 649.552 24 649 24C648.448 24 648 23.5523 648 23V13Z" fill="#D0B07C"/>
<path d="M972 13C972 12.4477 972.448 12 973 12C973.552 12 974 12.4477 974 13V23C974 23.5523 973.552 24 973 24C972.448 24 972 23.5523 972 23V13Z" fill="#D0B07C"/>
<path d="M252 13C252 12.4477 252.448 12 253 12C253.552 12 254 12.4477 254 13V23C254 23.5523 253.552 24 253 24C252.448 24 252 23.5523 252 23V13Z" fill="#D0B07C"/>
<path d="M576 13C576 12.4477 576.448 12 577 12C577.552 12 578 12.4477 578 13V23C578 23.5523 577.552 24 577 24C576.448 24 576 23.5523 576 23V13Z" fill="#D0B07C"/>
<path d="M900 13C900 12.4477 900.448 12 901 12C901.552 12 902 12.4477 902 13V23C902 23.5523 901.552 24 901 24C900.448 24 900 23.5523 900 23V13Z" fill="#D0B07C"/>
<path d="M1224 13C1224 12.4477 1224.45 12 1225 12C1225.55 12 1226 12.4477 1226 13V23C1226 23.5523 1225.55 24 1225 24C1224.45 24 1224 23.5523 1224 23V13Z" fill="#D0B07C"/>
<path d="M216 13C216 12.4477 216.448 12 217 12C217.552 12 218 12.4477 218 13V23C218 23.5523 217.552 24 217 24C216.448 24 216 23.5523 216 23V13Z" fill="#D0B07C"/>
<path d="M540 13C540 12.4477 540.448 12 541 12C541.552 12 542 12.4477 542 13V23C542 23.5523 541.552 24 541 24C540.448 24 540 23.5523 540 23V13Z" fill="#D0B07C"/>
<path d="M864 13C864 12.4477 864.448 12 865 12C865.552 12 866 12.4477 866 13V23C866 23.5523 865.552 24 865 24C864.448 24 864 23.5523 864 23V13Z" fill="#D0B07C"/>
<path d="M1188 13C1188 12.4477 1188.45 12 1189 12C1189.55 12 1190 12.4477 1190 13V23C1190 23.5523 1189.55 24 1189 24C1188.45 24 1188 23.5523 1188 23V13Z" fill="#D0B07C"/>
<path d="M180 13C180 12.4477 180.448 12 181 12C181.552 12 182 12.4477 182 13V23C182 23.5523 181.552 24 181 24C180.448 24 180 23.5523 180 23V13Z" fill="#D0B07C"/>
<path d="M504 13C504 12.4477 504.448 12 505 12C505.552 12 506 12.4477 506 13V23C506 23.5523 505.552 24 505 24C504.448 24 504 23.5523 504 23V13Z" fill="#D0B07C"/>
<path d="M828 13C828 12.4477 828.448 12 829 12C829.552 12 830 12.4477 830 13V23C830 23.5523 829.552 24 829 24C828.448 24 828 23.5523 828 23V13Z" fill="#D0B07C"/>
<path d="M1152 13C1152 12.4477 1152.45 12 1153 12C1153.55 12 1154 12.4477 1154 13V23C1154 23.5523 1153.55 24 1153 24C1152.45 24 1152 23.5523 1152 23V13Z" fill="#D0B07C"/>
<path d="M144 13C144 12.4477 144.448 12 145 12C145.552 12 146 12.4477 146 13V23C146 23.5523 145.552 24 145 24C144.448 24 144 23.5523 144 23V13Z" fill="#D0B07C"/>
<path d="M468 13C468 12.4477 468.448 12 469 12C469.552 12 470 12.4477 470 13V23C470 23.5523 469.552 24 469 24C468.448 24 468 23.5523 468 23V13Z" fill="#D0B07C"/>
<path d="M792 13C792 12.4477 792.448 12 793 12C793.552 12 794 12.4477 794 13V23C794 23.5523 793.552 24 793 24C792.448 24 792 23.5523 792 23V13Z" fill="#D0B07C"/>
<path d="M1116 13C1116 12.4477 1116.45 12 1117 12C1117.55 12 1118 12.4477 1118 13V23C1118 23.5523 1117.55 24 1117 24C1116.45 24 1116 23.5523 1116 23V13Z" fill="#D0B07C"/>
<path d="M108 13C108 12.4477 108.448 12 109 12C109.552 12 110 12.4477 110 13V23C110 23.5523 109.552 24 109 24C108.448 24 108 23.5523 108 23V13Z" fill="#D0B07C"/>
<path d="M432 13C432 12.4477 432.448 12 433 12C433.552 12 434 12.4477 434 13V23C434 23.5523 433.552 24 433 24C432.448 24 432 23.5523 432 23V13Z" fill="#D0B07C"/>
<path d="M756 13C756 12.4477 756.448 12 757 12C757.552 12 758 12.4477 758 13V23C758 23.5523 757.552 24 757 24C756.448 24 756 23.5523 756 23V13Z" fill="#D0B07C"/>
<path d="M1080 13C1080 12.4477 1080.45 12 1081 12C1081.55 12 1082 12.4477 1082 13V23C1082 23.5523 1081.55 24 1081 24C1080.45 24 1080 23.5523 1080 23V13Z" fill="#D0B07C"/>
<path d="M72 13C72 12.4477 72.4477 12 73 12C73.5523 12 74 12.4477 74 13V23C74 23.5523 73.5523 24 73 24C72.4477 24 72 23.5523 72 23V13Z" fill="#D0B07C"/>
<path d="M396 13C396 12.4477 396.448 12 397 12C397.552 12 398 12.4477 398 13V23C398 23.5523 397.552 24 397 24C396.448 24 396 23.5523 396 23V13Z" fill="#D0B07C"/>
<path d="M720 13C720 12.4477 720.448 12 721 12C721.552 12 722 12.4477 722 13V23C722 23.5523 721.552 24 721 24C720.448 24 720 23.5523 720 23V13Z" fill="#D0B07C"/>
<path d="M1044 13C1044 12.4477 1044.45 12 1045 12C1045.55 12 1046 12.4477 1046 13V23C1046 23.5523 1045.55 24 1045 24C1044.45 24 1044 23.5523 1044 23V13Z" fill="#D0B07C"/>
<path d="M36 13C36 12.4477 36.4477 12 37 12C37.5523 12 38 12.4477 38 13V23C38 23.5523 37.5523 24 37 24C36.4477 24 36 23.5523 36 23V13Z" fill="#D0B07C"/>
<path d="M360 13C360 12.4477 360.448 12 361 12C361.552 12 362 12.4477 362 13V23C362 23.5523 361.552 24 361 24C360.448 24 360 23.5523 360 23V13Z" fill="#D0B07C"/>
<path d="M684 13C684 12.4477 684.448 12 685 12C685.552 12 686 12.4477 686 13V23C686 23.5523 685.552 24 685 24C684.448 24 684 23.5523 684 23V13Z" fill="#D0B07C"/>
<path d="M1008 13C1008 12.4477 1008.45 12 1009 12C1009.55 12 1010 12.4477 1010 13V23C1010 23.5523 1009.55 24 1009 24C1008.45 24 1008 23.5523 1008 23V13Z" fill="#D0B07C"/>
<path d="M9 5C9 4.44772 9.44772 4 10 4C10.5523 4 11 4.44772 11 5V23C11 23.5523 10.5523 24 10 24C9.44772 24 9 23.5523 9 23V5Z" fill="#D0B07C"/>
<path d="M333 5C333 4.44772 333.448 4 334 4C334.552 4 335 4.44772 335 5V23C335 23.5523 334.552 24 334 24C333.448 24 333 23.5523 333 23V5Z" fill="#D0B07C"/>
<path d="M657 5C657 4.44772 657.448 4 658 4C658.552 4 659 4.44772 659 5V23C659 23.5523 658.552 24 658 24C657.448 24 657 23.5523 657 23V5Z" fill="#D0B07C"/>
<path d="M981 5C981 4.44772 981.448 4 982 4C982.552 4 983 4.44772 983 5V23C983 23.5523 982.552 24 982 24C981.448 24 981 23.5523 981 23V5Z" fill="#D0B07C"/>
<path d="M261 5C261 4.44772 261.448 4 262 4C262.552 4 263 4.44772 263 5V23C263 23.5523 262.552 24 262 24C261.448 24 261 23.5523 261 23V5Z" fill="#D0B07C"/>
<path d="M585 5C585 4.44772 585.448 4 586 4C586.552 4 587 4.44772 587 5V23C587 23.5523 586.552 24 586 24C585.448 24 585 23.5523 585 23V5Z" fill="#D0B07C"/>
<path d="M909 5C909 4.44772 909.448 4 910 4C910.552 4 911 4.44772 911 5V23C911 23.5523 910.552 24 910 24C909.448 24 909 23.5523 909 23V5Z" fill="#D0B07C"/>
<path d="M1233 5C1233 4.44772 1233.45 4 1234 4C1234.55 4 1235 4.44772 1235 5V23C1235 23.5523 1234.55 24 1234 24C1233.45 24 1233 23.5523 1233 23V5Z" fill="#D0B07C"/>
<path d="M297 5C297 4.44772 297.448 4 298 4C298.552 4 299 4.44772 299 5V23C299 23.5523 298.552 24 298 24C297.448 24 297 23.5523 297 23V5Z" fill="#D0B07C"/>
<path d="M621 5C621 4.44772 621.448 4 622 4C622.552 4 623 4.44772 623 5V23C623 23.5523 622.552 24 622 24C621.448 24 621 23.5523 621 23V5Z" fill="#D0B07C"/>
<path d="M945 5C945 4.44772 945.448 4 946 4C946.552 4 947 4.44772 947 5V23C947 23.5523 946.552 24 946 24C945.448 24 945 23.5523 945 23V5Z" fill="#D0B07C"/>
<path d="M225 5C225 4.44772 225.448 4 226 4C226.552 4 227 4.44772 227 5V23C227 23.5523 226.552 24 226 24C225.448 24 225 23.5523 225 23V5Z" fill="#D0B07C"/>
<path d="M549 5C549 4.44772 549.448 4 550 4C550.552 4 551 4.44772 551 5V23C551 23.5523 550.552 24 550 24C549.448 24 549 23.5523 549 23V5Z" fill="#D0B07C"/>
<path d="M873 5C873 4.44772 873.448 4 874 4C874.552 4 875 4.44772 875 5V23C875 23.5523 874.552 24 874 24C873.448 24 873 23.5523 873 23V5Z" fill="#D0B07C"/>
<path d="M1197 5C1197 4.44772 1197.45 4 1198 4C1198.55 4 1199 4.44772 1199 5V23C1199 23.5523 1198.55 24 1198 24C1197.45 24 1197 23.5523 1197 23V5Z" fill="#D0B07C"/>
<path d="M189 5C189 4.44772 189.448 4 190 4C190.552 4 191 4.44772 191 5V23C191 23.5523 190.552 24 190 24C189.448 24 189 23.5523 189 23V5Z" fill="#D0B07C"/>
<path d="M513 5C513 4.44772 513.448 4 514 4C514.552 4 515 4.44772 515 5V23C515 23.5523 514.552 24 514 24C513.448 24 513 23.5523 513 23V5Z" fill="#D0B07C"/>
<path d="M837 5C837 4.44772 837.448 4 838 4C838.552 4 839 4.44772 839 5V23C839 23.5523 838.552 24 838 24C837.448 24 837 23.5523 837 23V5Z" fill="#D0B07C"/>
<path d="M1161 5C1161 4.44772 1161.45 4 1162 4C1162.55 4 1163 4.44772 1163 5V23C1163 23.5523 1162.55 24 1162 24C1161.45 24 1161 23.5523 1161 23V5Z" fill="#D0B07C"/>
<path d="M153 5C153 4.44772 153.448 4 154 4C154.552 4 155 4.44772 155 5V23C155 23.5523 154.552 24 154 24C153.448 24 153 23.5523 153 23V5Z" fill="#D0B07C"/>
<path d="M477 5C477 4.44772 477.448 4 478 4C478.552 4 479 4.44772 479 5V23C479 23.5523 478.552 24 478 24C477.448 24 477 23.5523 477 23V5Z" fill="#D0B07C"/>
<path d="M801 5C801 4.44772 801.448 4 802 4C802.552 4 803 4.44772 803 5V23C803 23.5523 802.552 24 802 24C801.448 24 801 23.5523 801 23V5Z" fill="#D0B07C"/>
<path d="M1125 5C1125 4.44772 1125.45 4 1126 4C1126.55 4 1127 4.44772 1127 5V23C1127 23.5523 1126.55 24 1126 24C1125.45 24 1125 23.5523 1125 23V5Z" fill="#D0B07C"/>
<path d="M117 5C117 4.44772 117.448 4 118 4C118.552 4 119 4.44772 119 5V23C119 23.5523 118.552 24 118 24C117.448 24 117 23.5523 117 23V5Z" fill="#D0B07C"/>
<path d="M441 5C441 4.44772 441.448 4 442 4C442.552 4 443 4.44772 443 5V23C443 23.5523 442.552 24 442 24C441.448 24 441 23.5523 441 23V5Z" fill="#D0B07C"/>
<path d="M765 5C765 4.44772 765.448 4 766 4C766.552 4 767 4.44772 767 5V23C767 23.5523 766.552 24 766 24C765.448 24 765 23.5523 765 23V5Z" fill="#D0B07C"/>
<path d="M1089 5C1089 4.44772 1089.45 4 1090 4C1090.55 4 1091 4.44772 1091 5V23C1091 23.5523 1090.55 24 1090 24C1089.45 24 1089 23.5523 1089 23V5Z" fill="#D0B07C"/>
<path d="M81 5C81 4.44772 81.4477 4 82 4C82.5523 4 83 4.44772 83 5V23C83 23.5523 82.5523 24 82 24C81.4477 24 81 23.5523 81 23V5Z" fill="#D0B07C"/>
<path d="M405 5C405 4.44772 405.448 4 406 4C406.552 4 407 4.44772 407 5V23C407 23.5523 406.552 24 406 24C405.448 24 405 23.5523 405 23V5Z" fill="#D0B07C"/>
<path d="M729 5C729 4.44772 729.448 4 730 4C730.552 4 731 4.44772 731 5V23C731 23.5523 730.552 24 730 24C729.448 24 729 23.5523 729 23V5Z" fill="#D0B07C"/>
<path d="M1053 5C1053 4.44772 1053.45 4 1054 4C1054.55 4 1055 4.44772 1055 5V23C1055 23.5523 1054.55 24 1054 24C1053.45 24 1053 23.5523 1053 23V5Z" fill="#D0B07C"/>
<path d="M45 5C45 4.44772 45.4477 4 46 4C46.5523 4 47 4.44772 47 5V23C47 23.5523 46.5523 24 46 24C45.4477 24 45 23.5523 45 23V5Z" fill="#D0B07C"/>
<path d="M369 5C369 4.44772 369.448 4 370 4C370.552 4 371 4.44772 371 5V23C371 23.5523 370.552 24 370 24C369.448 24 369 23.5523 369 23V5Z" fill="#D0B07C"/>
<path d="M693 5C693 4.44772 693.448 4 694 4C694.552 4 695 4.44772 695 5V23C695 23.5523 694.552 24 694 24C693.448 24 693 23.5523 693 23V5Z" fill="#D0B07C"/>
<path d="M1017 5C1017 4.44772 1017.45 4 1018 4C1018.55 4 1019 4.44772 1019 5V23C1019 23.5523 1018.55 24 1018 24C1017.45 24 1017 23.5523 1017 23V5Z" fill="#D0B07C"/>
<path d="M27 5C27 4.44772 27.4477 4 28 4C28.5523 4 29 4.44772 29 5V23C29 23.5523 28.5523 24 28 24C27.4477 24 27 23.5523 27 23V5Z" fill="#D0B07C"/>
<path d="M351 5C351 4.44772 351.448 4 352 4C352.552 4 353 4.44772 353 5V23C353 23.5523 352.552 24 352 24C351.448 24 351 23.5523 351 23V5Z" fill="#D0B07C"/>
<path d="M675 5C675 4.44772 675.448 4 676 4C676.552 4 677 4.44772 677 5V23C677 23.5523 676.552 24 676 24C675.448 24 675 23.5523 675 23V5Z" fill="#D0B07C"/>
<path d="M999 5C999 4.44772 999.448 4 1000 4C1000.55 4 1001 4.44772 1001 5V23C1001 23.5523 1000.55 24 1000 24C999.448 24 999 23.5523 999 23V5Z" fill="#D0B07C"/>
<path d="M281 5C281 4.44772 280.552 4 280 4C279.448 4 279 4.44772 279 5V23C279 23.5523 279.448 24 280 24C280.552 24 281 23.5523 281 23V5Z" fill="#D0B07C"/>
<path d="M605 5C605 4.44772 604.552 4 604 4C603.448 4 603 4.44772 603 5V23C603 23.5523 603.448 24 604 24C604.552 24 605 23.5523 605 23V5Z" fill="#D0B07C"/>
<path d="M929 5C929 4.44772 928.552 4 928 4C927.448 4 927 4.44772 927 5V23C927 23.5523 927.448 24 928 24C928.552 24 929 23.5523 929 23V5Z" fill="#D0B07C"/>
<path d="M317 5C317 4.44772 316.552 4 316 4C315.448 4 315 4.44772 315 5V23C315 23.5523 315.448 24 316 24C316.552 24 317 23.5523 317 23V5Z" fill="#D0B07C"/>
<path d="M641 5C641 4.44772 640.552 4 640 4C639.448 4 639 4.44772 639 5V23C639 23.5523 639.448 24 640 24C640.552 24 641 23.5523 641 23V5Z" fill="#D0B07C"/>
<path d="M965 5C965 4.44772 964.552 4 964 4C963.448 4 963 4.44772 963 5V23C963 23.5523 963.448 24 964 24C964.552 24 965 23.5523 965 23V5Z" fill="#D0B07C"/>
<path d="M245 5C245 4.44772 244.552 4 244 4C243.448 4 243 4.44772 243 5V23C243 23.5523 243.448 24 244 24C244.552 24 245 23.5523 245 23V5Z" fill="#D0B07C"/>
<path d="M569 5C569 4.44772 568.552 4 568 4C567.448 4 567 4.44772 567 5V23C567 23.5523 567.448 24 568 24C568.552 24 569 23.5523 569 23V5Z" fill="#D0B07C"/>
<path d="M893 5C893 4.44772 892.552 4 892 4C891.448 4 891 4.44772 891 5V23C891 23.5523 891.448 24 892 24C892.552 24 893 23.5523 893 23V5Z" fill="#D0B07C"/>
<path d="M1217 5C1217 4.44772 1216.55 4 1216 4C1215.45 4 1215 4.44772 1215 5V23C1215 23.5523 1215.45 24 1216 24C1216.55 24 1217 23.5523 1217 23V5Z" fill="#D0B07C"/>
<path d="M209 5C209 4.44772 208.552 4 208 4C207.448 4 207 4.44772 207 5V23C207 23.5523 207.448 24 208 24C208.552 24 209 23.5523 209 23V5Z" fill="#D0B07C"/>
<path d="M533 5C533 4.44772 532.552 4 532 4C531.448 4 531 4.44772 531 5V23C531 23.5523 531.448 24 532 24C532.552 24 533 23.5523 533 23V5Z" fill="#D0B07C"/>
<path d="M857 5C857 4.44772 856.552 4 856 4C855.448 4 855 4.44772 855 5V23C855 23.5523 855.448 24 856 24C856.552 24 857 23.5523 857 23V5Z" fill="#D0B07C"/>
<path d="M1181 5C1181 4.44772 1180.55 4 1180 4C1179.45 4 1179 4.44772 1179 5V23C1179 23.5523 1179.45 24 1180 24C1180.55 24 1181 23.5523 1181 23V5Z" fill="#D0B07C"/>
<path d="M173 5C173 4.44772 172.552 4 172 4C171.448 4 171 4.44772 171 5V23C171 23.5523 171.448 24 172 24C172.552 24 173 23.5523 173 23V5Z" fill="#D0B07C"/>
<path d="M497 5C497 4.44772 496.552 4 496 4C495.448 4 495 4.44772 495 5V23C495 23.5523 495.448 24 496 24C496.552 24 497 23.5523 497 23V5Z" fill="#D0B07C"/>
<path d="M821 5C821 4.44772 820.552 4 820 4C819.448 4 819 4.44772 819 5V23C819 23.5523 819.448 24 820 24C820.552 24 821 23.5523 821 23V5Z" fill="#D0B07C"/>
<path d="M1145 5C1145 4.44772 1144.55 4 1144 4C1143.45 4 1143 4.44772 1143 5V23C1143 23.5523 1143.45 24 1144 24C1144.55 24 1145 23.5523 1145 23V5Z" fill="#D0B07C"/>
<path d="M137 5C137 4.44772 136.552 4 136 4C135.448 4 135 4.44772 135 5V23C135 23.5523 135.448 24 136 24C136.552 24 137 23.5523 137 23V5Z" fill="#D0B07C"/>
<path d="M461 5C461 4.44772 460.552 4 460 4C459.448 4 459 4.44772 459 5V23C459 23.5523 459.448 24 460 24C460.552 24 461 23.5523 461 23V5Z" fill="#D0B07C"/>
<path d="M785 5C785 4.44772 784.552 4 784 4C783.448 4 783 4.44772 783 5V23C783 23.5523 783.448 24 784 24C784.552 24 785 23.5523 785 23V5Z" fill="#D0B07C"/>
<path d="M1109 5C1109 4.44772 1108.55 4 1108 4C1107.45 4 1107 4.44772 1107 5V23C1107 23.5523 1107.45 24 1108 24C1108.55 24 1109 23.5523 1109 23V5Z" fill="#D0B07C"/>
<path d="M101 5C101 4.44772 100.552 4 100 4C99.4477 4 99 4.44772 99 5V23C99 23.5523 99.4477 24 100 24C100.552 24 101 23.5523 101 23V5Z" fill="#D0B07C"/>
<path d="M425 5C425 4.44772 424.552 4 424 4C423.448 4 423 4.44772 423 5V23C423 23.5523 423.448 24 424 24C424.552 24 425 23.5523 425 23V5Z" fill="#D0B07C"/>
<path d="M749 5C749 4.44772 748.552 4 748 4C747.448 4 747 4.44772 747 5V23C747 23.5523 747.448 24 748 24C748.552 24 749 23.5523 749 23V5Z" fill="#D0B07C"/>
<path d="M1073 5C1073 4.44772 1072.55 4 1072 4C1071.45 4 1071 4.44772 1071 5V23C1071 23.5523 1071.45 24 1072 24C1072.55 24 1073 23.5523 1073 23V5Z" fill="#D0B07C"/>
<path d="M65 5C65 4.44772 64.5523 4 64 4C63.4477 4 63 4.44772 63 5V23C63 23.5523 63.4477 24 64 24C64.5523 24 65 23.5523 65 23V5Z" fill="#D0B07C"/>
<path d="M389 5C389 4.44772 388.552 4 388 4C387.448 4 387 4.44772 387 5V23C387 23.5523 387.448 24 388 24C388.552 24 389 23.5523 389 23V5Z" fill="#D0B07C"/>
<path d="M713 5C713 4.44772 712.552 4 712 4C711.448 4 711 4.44772 711 5V23C711 23.5523 711.448 24 712 24C712.552 24 713 23.5523 713 23V5Z" fill="#D0B07C"/>
<path d="M1037 5C1037 4.44772 1036.55 4 1036 4C1035.45 4 1035 4.44772 1035 5V23C1035 23.5523 1035.45 24 1036 24C1036.55 24 1037 23.5523 1037 23V5Z" fill="#D0B07C"/>
<path d="M18 1C18 0.447715 18.4477 0 19 0C19.5523 0 20 0.447715 20 1V27C20 27.5523 19.5523 28 19 28C18.4477 28 18 27.5523 18 27V1Z" fill="#D0B07C"/>
<path d="M342 1C342 0.447715 342.448 0 343 0C343.552 0 344 0.447715 344 1V27C344 27.5523 343.552 28 343 28C342.448 28 342 27.5523 342 27V1Z" fill="#D0B07C"/>
<path d="M666 1C666 0.447715 666.448 0 667 0C667.552 0 668 0.447715 668 1V27C668 27.5523 667.552 28 667 28C666.448 28 666 27.5523 666 27V1Z" fill="#D0B07C"/>
<path d="M990 1C990 0.447715 990.448 0 991 0C991.552 0 992 0.447715 992 1V27C992 27.5523 991.552 28 991 28C990.448 28 990 27.5523 990 27V1Z" fill="#D0B07C"/>
<path d="M272 1C272 0.447715 271.552 0 271 0C270.448 0 270 0.447715 270 1V27C270 27.5523 270.448 28 271 28C271.552 28 272 27.5523 272 27V1Z" fill="#D0B07C"/>
<path d="M596 1C596 0.447715 595.552 0 595 0C594.448 0 594 0.447715 594 1V27C594 27.5523 594.448 28 595 28C595.552 28 596 27.5523 596 27V1Z" fill="#D0B07C"/>
<path d="M920 1C920 0.447715 919.552 0 919 0C918.448 0 918 0.447715 918 1V27C918 27.5523 918.448 28 919 28C919.552 28 920 27.5523 920 27V1Z" fill="#D0B07C"/>
<path d="M308 1C308 0.447715 307.552 0 307 0C306.448 0 306 0.447715 306 1V27C306 27.5523 306.448 28 307 28C307.552 28 308 27.5523 308 27V1Z" fill="#D0B07C"/>
<path d="M632 1C632 0.447715 631.552 0 631 0C630.448 0 630 0.447715 630 1V27C630 27.5523 630.448 28 631 28C631.552 28 632 27.5523 632 27V1Z" fill="#D0B07C"/>
<path d="M956 1C956 0.447715 955.552 0 955 0C954.448 0 954 0.447715 954 1V27C954 27.5523 954.448 28 955 28C955.552 28 956 27.5523 956 27V1Z" fill="#D0B07C"/>
<path d="M236 1C236 0.447715 235.552 0 235 0C234.448 0 234 0.447715 234 1V27C234 27.5523 234.448 28 235 28C235.552 28 236 27.5523 236 27V1Z" fill="#D0B07C"/>
<path d="M560 1C560 0.447715 559.552 0 559 0C558.448 0 558 0.447715 558 1V27C558 27.5523 558.448 28 559 28C559.552 28 560 27.5523 560 27V1Z" fill="#D0B07C"/>
<path d="M884 1C884 0.447715 883.552 0 883 0C882.448 0 882 0.447715 882 1V27C882 27.5523 882.448 28 883 28C883.552 28 884 27.5523 884 27V1Z" fill="#D0B07C"/>
<path d="M1208 1C1208 0.447715 1207.55 0 1207 0C1206.45 0 1206 0.447715 1206 1V27C1206 27.5523 1206.45 28 1207 28C1207.55 28 1208 27.5523 1208 27V1Z" fill="#D0B07C"/>
<path d="M200 1C200 0.447715 199.552 0 199 0C198.448 0 198 0.447715 198 1V27C198 27.5523 198.448 28 199 28C199.552 28 200 27.5523 200 27V1Z" fill="#D0B07C"/>
<path d="M524 1C524 0.447715 523.552 0 523 0C522.448 0 522 0.447715 522 1V27C522 27.5523 522.448 28 523 28C523.552 28 524 27.5523 524 27V1Z" fill="#D0B07C"/>
<path d="M848 1C848 0.447715 847.552 0 847 0C846.448 0 846 0.447715 846 1V27C846 27.5523 846.448 28 847 28C847.552 28 848 27.5523 848 27V1Z" fill="#D0B07C"/>
<path d="M1172 1C1172 0.447715 1171.55 0 1171 0C1170.45 0 1170 0.447715 1170 1V27C1170 27.5523 1170.45 28 1171 28C1171.55 28 1172 27.5523 1172 27V1Z" fill="#D0B07C"/>
<path d="M164 1C164 0.447715 163.552 0 163 0C162.448 0 162 0.447715 162 1V27C162 27.5523 162.448 28 163 28C163.552 28 164 27.5523 164 27V1Z" fill="#D0B07C"/>
<path d="M488 1C488 0.447715 487.552 0 487 0C486.448 0 486 0.447715 486 1V27C486 27.5523 486.448 28 487 28C487.552 28 488 27.5523 488 27V1Z" fill="#D0B07C"/>
<path d="M812 1C812 0.447715 811.552 0 811 0C810.448 0 810 0.447715 810 1V27C810 27.5523 810.448 28 811 28C811.552 28 812 27.5523 812 27V1Z" fill="#D0B07C"/>
<path d="M1136 1C1136 0.447715 1135.55 0 1135 0C1134.45 0 1134 0.447715 1134 1V27C1134 27.5523 1134.45 28 1135 28C1135.55 28 1136 27.5523 1136 27V1Z" fill="#D0B07C"/>
<path d="M128 1C128 0.447715 127.552 0 127 0C126.448 0 126 0.447715 126 1V27C126 27.5523 126.448 28 127 28C127.552 28 128 27.5523 128 27V1Z" fill="#D0B07C"/>
<path d="M452 1C452 0.447715 451.552 0 451 0C450.448 0 450 0.447715 450 1V27C450 27.5523 450.448 28 451 28C451.552 28 452 27.5523 452 27V1Z" fill="#D0B07C"/>
<path d="M776 1C776 0.447715 775.552 0 775 0C774.448 0 774 0.447715 774 1V27C774 27.5523 774.448 28 775 28C775.552 28 776 27.5523 776 27V1Z" fill="#D0B07C"/>
<path d="M1100 1C1100 0.447715 1099.55 0 1099 0C1098.45 0 1098 0.447715 1098 1V27C1098 27.5523 1098.45 28 1099 28C1099.55 28 1100 27.5523 1100 27V1Z" fill="#D0B07C"/>
<path d="M92 1C92 0.447715 91.5523 0 91 0C90.4477 0 90 0.447715 90 1V27C90 27.5523 90.4477 28 91 28C91.5523 28 92 27.5523 92 27V1Z" fill="#D0B07C"/>
<path d="M416 1C416 0.447715 415.552 0 415 0C414.448 0 414 0.447715 414 1V27C414 27.5523 414.448 28 415 28C415.552 28 416 27.5523 416 27V1Z" fill="#D0B07C"/>
<path d="M740 1C740 0.447715 739.552 0 739 0C738.448 0 738 0.447715 738 1V27C738 27.5523 738.448 28 739 28C739.552 28 740 27.5523 740 27V1Z" fill="#D0B07C"/>
<path d="M1064 1C1064 0.447715 1063.55 0 1063 0C1062.45 0 1062 0.447715 1062 1V27C1062 27.5523 1062.45 28 1063 28C1063.55 28 1064 27.5523 1064 27V1Z" fill="#D0B07C"/>
<path d="M56 1C56 0.447715 55.5523 0 55 0C54.4477 0 54 0.447715 54 1V27C54 27.5523 54.4477 28 55 28C55.5523 28 56 27.5523 56 27V1Z" fill="#D0B07C"/>
<path d="M380 1C380 0.447715 379.552 0 379 0C378.448 0 378 0.447715 378 1V27C378 27.5523 378.448 28 379 28C379.552 28 380 27.5523 380 27V1Z" fill="#D0B07C"/>
<path d="M704 1C704 0.447715 703.552 0 703 0C702.448 0 702 0.447715 702 1V27C702 27.5523 702.448 28 703 28C703.552 28 704 27.5523 704 27V1Z" fill="#D0B07C"/>
<path d="M1028 1C1028 0.447715 1027.55 0 1027 0C1026.45 0 1026 0.447715 1026 1V27C1026 27.5523 1026.45 28 1027 28C1027.55 28 1028 27.5523 1028 27V1Z" fill="#D0B07C"/>
</svg>
