<svg width="44" height="24" viewBox="0 0 44 24" fill="none" xmlns="http://www.w3.org/2000/svg">
<path d="M26 4H18C15.7909 4 14 5.79086 14 8V16C14 18.2091 15.7909 20 18 20H26C28.2091 20 30 18.2091 30 16V8C30 5.79086 28.2091 4 26 4Z" stroke="#E4C592" stroke-width="1.5" stroke-linecap="round" stroke-linejoin="round"/>
<path d="M22 15C23.6569 15 25 13.6569 25 12C25 10.3431 23.6569 9 22 9C20.3431 9 19 10.3431 19 12C19 13.6569 20.3431 15 22 15Z" stroke="#E4C592" stroke-width="1.5" stroke-linecap="round" stroke-linejoin="round"/>
<path d="M26.5 7.5V7.501" stroke="#E4C592" stroke-width="1.5" stroke-linecap="round" stroke-linejoin="round"/>
</svg>
