<svg width="26" height="24" viewBox="0 0 26 24" fill="none" xmlns="http://www.w3.org/2000/svg">
<path d="M7.12 14.96C8.336 14.96 9.296 15.344 10 16.112C10.768 16.816 11.152 17.776 11.152 18.992C11.152 20.336 10.736 21.36 9.904 22.064C9.072 22.768 7.888 23.12 6.352 23.12C4.368 23.12 2.8 22.384 1.648 20.912C0.56 19.376 0.0160002 17.232 0.0160002 14.48C0.0160002 11.856 0.592 9.424 1.744 7.184C2.96 4.944 4.72 2.704 7.024 0.463997C7.088 0.399998 7.184 0.367998 7.312 0.367998C7.504 0.367998 7.664 0.463997 7.792 0.655994C7.92 0.847996 7.92 1.008 7.792 1.136C4.656 4.336 3.088 8.112 3.088 12.464C3.088 14.256 3.408 15.568 4.048 16.4C4.624 15.44 5.648 14.96 7.12 14.96ZM21.712 14.96C22.928 14.96 23.888 15.344 24.592 16.112C25.36 16.816 25.744 17.776 25.744 18.992C25.744 20.336 25.328 21.36 24.496 22.064C23.664 22.768 22.48 23.12 20.944 23.12C18.96 23.12 17.392 22.384 16.24 20.912C15.152 19.376 14.608 17.232 14.608 14.48C14.608 11.856 15.184 9.424 16.336 7.184C17.552 4.944 19.312 2.704 21.616 0.463997C21.68 0.399998 21.776 0.367998 21.904 0.367998C22.096 0.367998 22.256 0.463997 22.384 0.655994C22.512 0.847996 22.512 1.008 22.384 1.136C19.248 4.336 17.68 8.112 17.68 12.464C17.68 14.256 18 15.568 18.64 16.4C19.216 15.44 20.24 14.96 21.712 14.96Z" fill="#D0B07C"/>
</svg>
