<svg width="70" height="54" viewBox="0 0 70 54" fill="none" xmlns="http://www.w3.org/2000/svg">
<path fill-rule="evenodd" clip-rule="evenodd" d="M2.13929 7.31761L66.7286 7.3176V2.91077L2.13929 2.91078V7.31761ZM0.90308 9.4569L67.9648 9.45689C68.4627 9.45689 68.8679 9.05177 68.8679 8.55381V1.67456C68.8679 1.17661 68.4627 0.771484 67.9648 0.771484L0.90308 0.771491C0.405124 0.771491 0 1.17662 0 1.67457V8.55382C0 9.05177 0.405124 9.4569 0.90308 9.4569Z" fill="#E4C592"/>
<path fill-rule="evenodd" clip-rule="evenodd" d="M4.27894 44.6194H64.5893V9.46765L4.27894 9.46765V44.6194ZM3.04273 46.7587L65.8255 46.7587C66.3235 46.7587 66.7286 46.3535 66.7286 45.8556V8.23121C66.7286 7.73325 66.3235 7.32813 65.8255 7.32813L3.04273 7.32813C2.54477 7.32813 2.13965 7.73325 2.13965 8.23121L2.13965 45.8556C2.13965 46.3535 2.54477 46.7587 3.04273 46.7587Z" fill="#E4C592"/>
<path fill-rule="evenodd" clip-rule="evenodd" d="M2.13929 48.5577H66.9036V46.7594H2.13929V48.5577ZM0.90308 50.697H68.1398C68.6377 50.697 69.0429 50.2919 69.0429 49.7939V45.523C69.0429 45.025 68.6377 44.6199 68.1398 44.6199H0.90308C0.405124 44.6199 0 45.025 0 45.523V49.7939C0 50.2919 0.405124 50.697 0.90308 50.697Z" fill="#E4C592"/>
<path fill-rule="evenodd" clip-rule="evenodd" d="M32.2252 51.6641H36.7795V50.6969H32.2252V51.6641ZM30.989 53.8034H38.0157C38.5137 53.8034 38.9188 53.3983 38.9188 52.9003V49.4607C38.9188 48.9627 38.5137 48.5576 38.0157 48.5576H30.989C30.4911 48.5576 30.0859 48.9627 30.0859 49.4607V52.9003C30.0859 53.3983 30.4911 53.8034 30.989 53.8034Z" fill="#E4C592"/>
<path d="M54.4824 42.4286H59.6888H61.7142L61.7142 14.9568C61.7142 14.3653 61.2607 13.8857 60.7015 13.8857H53.4697C52.9105 13.8857 52.457 14.3653 52.457 14.9568L52.457 42.4286H54.4824ZM54.4824 16.0279H59.6888L59.6888 40.2864H54.4824L54.4824 16.0279Z" fill="#E4C592"/>
<path d="M42.9111 42.4291H48.1175H50.1429L50.1429 22.7576C50.1429 22.1661 49.6894 21.6865 49.1302 21.6865H41.8984C41.3392 21.6865 40.8857 22.1661 40.8857 22.7576L40.8858 42.4291H42.9111ZM42.9111 23.8287H48.1175L48.1175 40.2869H42.9111L42.9111 23.8287Z" fill="#E4C592"/>
<path d="M31.3398 42.4289H36.5462H38.5716L38.5716 33.1717C38.5716 32.5801 38.1182 32.1006 37.5589 32.1006H30.3272C29.7679 32.1006 29.3145 32.5801 29.3145 33.1717V42.4289H31.3398ZM31.3399 34.2428H36.5462L36.5462 40.2867H31.3398L31.3399 34.2428Z" fill="#E4C592"/>
</svg>
