<svg width="72" height="56" viewBox="0 0 72 56" fill="none" xmlns="http://www.w3.org/2000/svg">
<path fill-rule="evenodd" clip-rule="evenodd" d="M3.13929 8.31761L67.7286 8.3176V3.91077L3.13929 3.91078V8.31761ZM1.90308 10.4569L68.9648 10.4569C69.4627 10.4569 69.8679 10.0518 69.8679 9.55381V2.67456C69.8679 2.17661 69.4627 1.77148 68.9648 1.77148L1.90308 1.77149C1.40512 1.77149 1 2.17662 1 2.67457V9.55382C1 10.0518 1.40512 10.4569 1.90308 10.4569Z" fill="#E4C592"/>
<path fill-rule="evenodd" clip-rule="evenodd" d="M5.27894 45.6194H65.5893V10.4676L5.27894 10.4676V45.6194ZM4.04273 47.7587L66.8255 47.7587C67.3235 47.7587 67.7286 47.3535 67.7286 46.8556V9.23121C67.7286 8.73325 67.3235 8.32813 66.8255 8.32813L4.04273 8.32813C3.54477 8.32813 3.13965 8.73325 3.13965 9.23121L3.13965 46.8556C3.13965 47.3535 3.54477 47.7587 4.04273 47.7587Z" fill="#E4C592"/>
<path fill-rule="evenodd" clip-rule="evenodd" d="M3.13929 49.5577H67.9036V47.7594H3.13929V49.5577ZM1.90308 51.697H69.1398C69.6377 51.697 70.0429 51.2919 70.0429 50.7939V46.523C70.0429 46.025 69.6377 45.6199 69.1398 45.6199H1.90308C1.40512 45.6199 1 46.025 1 46.523V50.7939C1 51.2919 1.40512 51.697 1.90308 51.697Z" fill="#E4C592"/>
<path fill-rule="evenodd" clip-rule="evenodd" d="M33.2252 52.6641H37.7795V51.6969H33.2252V52.6641ZM31.989 54.8034H39.0157C39.5137 54.8034 39.9188 54.3983 39.9188 53.9003V50.4607C39.9188 49.9627 39.5137 49.5576 39.0157 49.5576H31.989C31.4911 49.5576 31.0859 49.9627 31.0859 50.4607V53.9003C31.0859 54.3983 31.4911 54.8034 31.989 54.8034Z" fill="#E4C592"/>
<path d="M55.4824 43.4286H60.6888H62.7142L62.7142 15.9568C62.7142 15.3653 62.2607 14.8857 61.7015 14.8857H54.4697C53.9105 14.8857 53.457 15.3653 53.457 15.9568L53.457 43.4286H55.4824ZM55.4824 17.0279H60.6888L60.6888 41.2864H55.4824L55.4824 17.0279Z" fill="#E4C592"/>
<path d="M43.9111 43.4291H49.1175H51.1429L51.1429 23.7576C51.1429 23.1661 50.6894 22.6865 50.1302 22.6865H42.8984C42.3392 22.6865 41.8857 23.1661 41.8857 23.7576L41.8858 43.4291H43.9111ZM43.9111 24.8287H49.1175L49.1175 41.2869H43.9111L43.9111 24.8287Z" fill="#E4C592"/>
<path d="M32.3398 43.4289H37.5462H39.5716L39.5716 34.1717C39.5716 33.5801 39.1182 33.1006 38.5589 33.1006H31.3272C30.7679 33.1006 30.3145 33.5801 30.3145 34.1717V43.4289H32.3398ZM32.3399 35.2428H37.5462L37.5462 41.2867H32.3398L32.3399 35.2428Z" fill="#E4C592"/>
<path d="M16.7761 15.6613C15.4856 15.9604 14.2987 16.5991 13.3385 17.5113C12.3782 18.4235 11.6796 19.5759 11.315 20.849C10.9505 22.122 10.9333 23.4694 11.2652 24.7514C11.5972 26.0334 12.2662 27.2032 13.2029 28.1396C14.1396 29.0759 15.3098 29.7447 16.5922 30.0766C17.8746 30.4084 19.2225 30.3912 20.496 30.0268C21.7695 29.6624 22.9223 28.964 23.8348 28.004C24.7473 27.0441 25.3863 25.8576 25.6855 24.5676C25.6855 24.3489 25.5986 24.1391 25.4438 23.9845C25.2891 23.8298 25.0793 23.7429 24.8605 23.7429H19.2509C18.8133 23.7429 18.3937 23.5692 18.0843 23.2599C17.7749 22.9506 17.601 22.5311 17.601 22.0936V16.321C17.5908 16.2233 17.5612 16.1286 17.5141 16.0424C17.467 15.9562 17.4032 15.8803 17.3264 15.8189C17.2497 15.7575 17.1615 15.712 17.0671 15.6849C16.9726 15.6579 16.8737 15.6499 16.7761 15.6613Z" stroke="#E4C592" stroke-width="2.7" stroke-linecap="round" stroke-linejoin="round"/>
<path d="M21.0576 15.6562C22.1262 16.0325 23.0967 16.6436 23.8977 17.4447C24.6988 18.2457 25.3099 19.2163 25.6862 20.2848H21.8992C21.676 20.2848 21.4619 20.1962 21.3041 20.0383C21.1463 19.8805 21.0576 19.6665 21.0576 19.4433V15.6562Z" stroke="#E4C592" stroke-width="2.7" stroke-linecap="round" stroke-linejoin="round"/>
</svg>
