<svg width="55" height="56" viewBox="0 0 55 56" fill="none" xmlns="http://www.w3.org/2000/svg">
<path d="M18.6667 22.4445H18.6955M35.3333 22.4445H35.3621M20.0555 36.3333C20.9608 37.2572 22.0412 37.9912 23.2337 38.4923C24.4261 38.9933 25.7065 39.2514 27 39.2514C28.2934 39.2514 29.5739 38.9933 30.7663 38.4923C31.9587 37.9912 33.0392 37.2572 33.9444 36.3333M52 28C52 41.8071 40.8071 53 27 53C13.1929 53 2 41.8071 2 28C2 14.1929 13.1929 3 27 3C40.8071 3 52 14.1929 52 28Z" stroke="#E4C592" stroke-width="2.7" stroke-linecap="round" stroke-linejoin="round"/>
</svg>
