<svg width="54" height="54" viewBox="0 0 54 54" fill="none" xmlns="http://www.w3.org/2000/svg">
<path d="M18 5.56555H12C10.4087 5.56555 8.88258 6.17707 7.75736 7.26559C6.63214 8.35411 6 9.83046 6 11.3699V46.1957C6 47.7351 6.63214 49.2114 7.75736 50.3C8.88258 51.3885 10.4087 52 12 52H42C43.5913 52 45.1174 51.3885 46.2426 50.3C47.3679 49.2114 48 47.7351 48 46.1957V11.3699C48 9.83046 47.3679 8.35411 46.2426 7.26559C45.1174 6.17707 43.5913 5.56555 42 5.56555H36M12.2222 39.7665H21.1609M12.2222 33.8743H41.7778M12.2222 27.982H41.7778M12.2222 22.0898H41.7778M12.2222 16.1975H41.7778M33.0494 42.5442L35.9013 45.322L41.605 39.7664M22.2 2H32.3143C34.2079 2 35.7429 3.55921 35.7429 5.48258C35.7429 7.40596 34.2079 8.96517 32.3143 8.96517H22.2C20.3065 8.96517 18.7715 7.40596 18.7715 5.48258C18.7715 3.55921 20.3065 2 22.2 2Z" stroke="#E4C592" stroke-width="2.7" stroke-linecap="round" stroke-linejoin="round"/>
</svg>
