<svg width="54" height="54" viewBox="0 0 54 54" fill="none" xmlns="http://www.w3.org/2000/svg">
<path d="M18.6667 21.4445H18.6955M35.3333 21.4445H35.3621M20.0555 35.3333C20.9608 36.2572 22.0412 36.9912 23.2337 37.4923C24.4261 37.9933 25.7065 38.2514 27 38.2514C28.2934 38.2514 29.5739 37.9933 30.7663 37.4923C31.9587 36.9912 33.0392 36.2572 33.9444 35.3333M52 27C52 40.8071 40.8071 52 27 52C13.1929 52 2 40.8071 2 27C2 13.1929 13.1929 2 27 2C40.8071 2 52 13.1929 52 27Z" stroke="#E4C592" stroke-width="2.7" stroke-linecap="round" stroke-linejoin="round"/>
</svg>
