<svg width="54" height="54" viewBox="0 0 54 54" fill="none" xmlns="http://www.w3.org/2000/svg">
<path d="M22.3472 5.65833C23.5306 0.780556 30.4694 0.780556 31.6528 5.65833C31.8303 6.39111 32.1784 7.07161 32.6686 7.64444C33.1589 8.21728 33.7775 8.66626 34.474 8.95485C35.1706 9.24344 35.9255 9.36347 36.6772 9.30519C37.4289 9.24691 38.1562 9.01195 38.8 8.61944C43.0861 6.00833 47.9944 10.9139 45.3833 15.2028C44.9914 15.8463 44.7568 16.5732 44.6987 17.3244C44.6405 18.0756 44.7604 18.8299 45.0487 19.5261C45.3369 20.2222 45.7854 20.8405 46.3576 21.3307C46.9298 21.8209 47.6095 22.1692 48.3417 22.3472C53.2194 23.5306 53.2194 30.4694 48.3417 31.6528C47.6089 31.8303 46.9284 32.1784 46.3556 32.6686C45.7827 33.1589 45.3337 33.7775 45.0451 34.474C44.7566 35.1706 44.6365 35.9255 44.6948 36.6772C44.7531 37.4289 44.9881 38.1562 45.3806 38.8C47.9917 43.0861 43.0861 47.9944 38.7972 45.3833C38.1537 44.9914 37.4268 44.7568 36.6756 44.6987C35.9244 44.6405 35.1701 44.7604 34.4739 45.0487C33.7778 45.3369 33.1595 45.7854 32.6693 46.3576C32.1791 46.9298 31.8308 47.6095 31.6528 48.3417C30.4694 53.2194 23.5306 53.2194 22.3472 48.3417C22.1697 47.6089 21.8216 46.9284 21.3314 46.3556C20.8411 45.7827 20.2225 45.3337 19.526 45.0451C18.8294 44.7566 18.0745 44.6365 17.3228 44.6948C16.5711 44.7531 15.8438 44.9881 15.2 45.3806C10.9139 47.9917 6.00556 43.0861 8.61667 38.7972C9.00861 38.1537 9.2432 37.4268 9.30134 36.6756C9.35949 35.9244 9.23956 35.1701 8.95131 34.4739C8.66306 33.7778 8.21461 33.1595 7.64242 32.6693C7.07024 32.1791 6.39046 31.8308 5.65833 31.6528C0.780556 30.4694 0.780556 23.5306 5.65833 22.3472C6.39111 22.1697 7.07161 21.8216 7.64444 21.3314C8.21728 20.8411 8.66626 20.2225 8.95485 19.526C9.24344 18.8294 9.36347 18.0745 9.30519 17.3228C9.24691 16.5711 9.01195 15.8438 8.61944 15.2C6.00833 10.9139 10.9139 6.00556 15.2028 8.61667C17.9806 10.3056 21.5806 8.81111 22.3472 5.65833Z" stroke="#E4C592" stroke-width="2.7" stroke-linecap="round" stroke-linejoin="round"/>
<path d="M21.4445 18.6667V35.3333L35.3333 27L21.4445 18.6667Z" stroke="#E4C592" stroke-width="2.7" stroke-linecap="round" stroke-linejoin="round"/>
</svg>
