<svg width="16" height="16" viewBox="0 0 16 16" fill="none" xmlns="http://www.w3.org/2000/svg">
<g clip-path="url(#clip0_2_4)">
<path fill-rule="evenodd" clip-rule="evenodd" d="M15.6818 1.85455C16.1061 1.4303 16.1061 0.742445 15.6818 0.31819C15.2576 -0.106064 14.5697 -0.106063 14.1454 0.318192L8.00003 6.4636L1.85462 0.318191C1.43037 -0.106064 0.742515 -0.106064 0.31826 0.318191C-0.105994 0.742446 -0.105993 1.4303 0.318261 1.85455L6.46367 7.99996L0.318191 14.1454C-0.106064 14.5697 -0.106064 15.2576 0.318191 15.6818C0.742446 16.1061 1.4303 16.1061 1.85455 15.6818L8.00003 9.53633L14.1455 15.6818C14.5698 16.1061 15.2576 16.1061 15.6819 15.6818C16.1061 15.2576 16.1061 14.5697 15.6819 14.1454L9.5364 7.99996L15.6818 1.85455Z" fill="#D0B07C"/>
</g>
<defs>
<clipPath id="clip0_2_4">
<rect width="16" height="16" fill="white"/>
</clipPath>
</defs>
</svg>
