<svg width="54" height="50" viewBox="0 0 54 50" fill="none" xmlns="http://www.w3.org/2000/svg">
<path d="M41.5014 44.9753L36.0714 47.8834C35.9103 47.9691 35.729 48.0074 35.5478 47.9939C35.3666 47.9804 35.1927 47.9157 35.0454 47.807C34.8981 47.6984 34.7832 47.55 34.7137 47.3784C34.6441 47.2069 34.6225 47.019 34.6514 46.8357L35.6889 40.6745L31.2964 36.3124C31.1653 36.1829 31.0725 36.0182 31.0285 35.8373C30.9846 35.6564 30.9913 35.4666 31.0478 35.2894C31.1044 35.1121 31.2086 34.9548 31.3484 34.8352C31.4883 34.7156 31.6583 34.6386 31.8389 34.6131L37.9089 33.7136L40.6239 28.1095C40.7051 27.9426 40.8302 27.8022 40.9852 27.704C41.1403 27.6058 41.319 27.5538 41.5014 27.5538C41.6837 27.5538 41.8625 27.6058 42.0175 27.704C42.1725 27.8022 42.2977 27.9426 42.3789 28.1095L45.0939 33.7136L51.1638 34.6131C51.3439 34.6395 51.5132 34.717 51.6525 34.8367C51.7917 34.9564 51.8955 35.1135 51.9519 35.2904C52.0083 35.4672 52.0153 35.6566 51.9719 35.8372C51.9285 36.0178 51.8365 36.1825 51.7063 36.3124L47.3138 40.6745L48.3488 46.8331C48.3799 47.0168 48.36 47.2056 48.2913 47.3783C48.2226 47.5509 48.1079 47.7004 47.9603 47.8098C47.8127 47.9192 47.638 47.9841 47.4561 47.9971C47.2742 48.0101 47.0924 47.9707 46.9313 47.8834L41.5014 44.9753Z" stroke="#E4C592" stroke-width="2.75" stroke-linecap="round" stroke-linejoin="round"/>
<path d="M12.5015 44.9753L7.07155 47.8834C6.91041 47.9691 6.72913 48.0074 6.54795 47.9939C6.36677 47.9804 6.19282 47.9157 6.04553 47.807C5.89824 47.6984 5.78339 47.55 5.71382 47.3784C5.64425 47.2069 5.6227 47.019 5.65156 46.8357L6.68905 40.6745L2.29657 36.3124C2.16546 36.1829 2.07263 36.0182 2.02868 35.8373C1.98472 35.6564 1.99141 35.4666 2.04798 35.2894C2.10455 35.1121 2.20872 34.9548 2.3486 34.8352C2.48848 34.7156 2.65844 34.6386 2.83907 34.6131L8.90904 33.7136L11.624 28.1095C11.7052 27.9426 11.8304 27.8022 11.9854 27.704C12.1404 27.6058 12.3192 27.5538 12.5015 27.5538C12.6839 27.5538 12.8626 27.6058 13.0177 27.704C13.1727 27.8022 13.2978 27.9426 13.379 28.1095L16.094 33.7136L22.164 34.6131C22.3441 34.6395 22.5133 34.717 22.6526 34.8367C22.7919 34.9564 22.8956 35.1135 22.9521 35.2904C23.0085 35.4672 23.0154 35.6566 22.972 35.8372C22.9286 36.0178 22.8366 36.1825 22.7065 36.3124L18.314 40.6745L19.349 46.8331C19.3801 47.0168 19.3601 47.2056 19.2914 47.3783C19.2228 47.5509 19.1081 47.7004 18.9605 47.8098C18.8129 47.9192 18.6382 47.9841 18.4563 47.9971C18.2744 48.0101 18.0926 47.9707 17.9315 47.8834L12.5015 44.9753Z" stroke="#E4C592" stroke-width="2.75" stroke-linecap="round" stroke-linejoin="round"/>
<path d="M27.0015 19.421L21.5715 22.3291C21.4103 22.4148 21.2291 22.4531 21.0479 22.4396C20.8667 22.4261 20.6927 22.3614 20.5455 22.2528C20.3982 22.1441 20.2833 21.9957 20.2137 21.8242C20.1442 21.6526 20.1226 21.4647 20.1515 21.2814L21.189 15.1203L16.7965 10.7581C16.6654 10.6286 16.5726 10.464 16.5286 10.2831C16.4846 10.1022 16.4913 9.91227 16.5479 9.73507C16.6045 9.55787 16.7086 9.40049 16.8485 9.28091C16.9884 9.16133 17.1584 9.08436 17.339 9.05878L23.409 8.15927L26.124 2.55522C26.2051 2.38831 26.3303 2.24787 26.4853 2.1497C26.6403 2.05152 26.8191 1.99951 27.0015 1.99951C27.1838 1.99951 27.3626 2.05152 27.5176 2.1497C27.6726 2.24787 27.7978 2.38831 27.8789 2.55522L30.5939 8.15927L36.6639 9.05878C36.844 9.08527 37.0133 9.16274 37.1525 9.28243C37.2918 9.40212 37.3955 9.55926 37.452 9.73608C37.5084 9.91289 37.5153 10.1023 37.4719 10.2829C37.4285 10.4636 37.3366 10.6282 37.2064 10.7581L32.8139 15.1203L33.8489 21.2788C33.88 21.4625 33.86 21.6514 33.7914 21.824C33.7227 21.9967 33.608 22.1462 33.4604 22.2555C33.3128 22.3649 33.1381 22.4298 32.9562 22.4428C32.7743 22.4558 32.5925 22.4164 32.4314 22.3291L27.0015 19.421Z" stroke="#E4C592" stroke-width="2.75" stroke-linecap="round" stroke-linejoin="round"/>
</svg>
