<svg width="44" height="52" viewBox="0 0 44 52" fill="none" xmlns="http://www.w3.org/2000/svg">
<path d="M13.4036 4.98212H7.673C6.15314 4.98212 4.69554 5.58176 3.62084 6.64913C2.54614 7.7165 1.94238 9.16416 1.94238 10.6737V44.8229C1.94238 46.3324 2.54614 47.78 3.62084 48.8474C4.69554 49.9148 6.15314 50.5144 7.673 50.5144H36.3261C37.8459 50.5144 39.3035 49.9148 40.3782 48.8474C41.4529 47.78 42.0567 46.3324 42.0567 44.8229V10.6737C42.0567 9.16416 41.4529 7.7165 40.3782 6.64913C39.3035 5.58176 37.8459 4.98212 36.3261 4.98212H30.5954M7.88524 38.5186H16.4225M7.88524 32.7409H36.1138M7.88524 26.9631H36.1138M7.88524 21.1853H36.1138M7.88524 15.4075H36.1138M27.7773 41.2423L30.5012 43.9662L35.9488 38.5185M17.4151 1.48584H27.0752C28.8838 1.48584 30.3499 3.01475 30.3499 4.90076C30.3499 6.78677 28.8838 8.31568 27.0752 8.31568H17.4151C15.6065 8.31568 14.1404 6.78677 14.1404 4.90076C14.1404 3.01475 15.6065 1.48584 17.4151 1.48584Z" stroke="#E4C592" stroke-width="2.75" stroke-linecap="round" stroke-linejoin="round"/>
</svg>
