<svg width="895" height="120" viewBox="0 0 895 120" fill="none" xmlns="http://www.w3.org/2000/svg">
<path d="M19.0036 20.6214C19.0036 25.0357 20.1071 28.9595 22.3143 32.3929C24.644 35.8262 27.4643 38.8304 30.775 41.4054C34.0857 43.9804 38.5613 47.1071 44.2018 50.7857C50.3327 54.7095 55.2375 58.1429 58.9161 61.0857C62.5946 64.0286 65.7214 67.6458 68.2964 71.9375C70.8714 76.1065 72.1589 80.95 72.1589 86.4679C72.1589 92.844 70.4423 98.5458 67.0089 103.573C63.5756 108.478 58.7934 112.34 52.6625 115.161C46.6542 117.858 39.9101 119.207 32.4304 119.207C26.9125 119.207 21.1494 118.471 15.1411 117C9.13274 115.406 5.08631 113.689 3.00179 111.85C2.38869 111.36 1.89821 110.93 1.53036 110.563C1.28512 110.072 1.1625 109.336 1.1625 108.355L0.610713 79.1107V78.9268C0.610713 78.4363 0.917261 78.1911 1.53036 78.1911C2.14345 78.0685 2.51131 78.2524 2.63393 78.7429C6.3125 86.2226 9.50059 92.2923 12.1982 96.9518C15.0185 101.611 18.5131 105.719 22.6821 109.275C26.9738 112.831 31.8173 114.609 37.2125 114.609C42.1173 114.609 46.1637 113.321 49.3518 110.746C52.5399 108.049 54.1339 103.512 54.1339 97.1357C54.1339 91.7405 52.9077 87.0196 50.4554 82.9732C48.1256 78.9268 45.244 75.4935 41.8107 72.6732C38.3774 69.853 33.6565 66.481 27.6482 62.5571C21.7625 58.756 17.1643 55.5065 13.8536 52.8089C10.6655 50.1113 7.90655 46.8619 5.57679 43.0607C3.24702 39.2595 2.08214 34.7839 2.08214 29.6339C2.08214 23.1351 3.92143 17.6786 7.6 13.2643C11.4012 8.72739 16.2446 5.41667 22.1304 3.33215C28.0161 1.125 34.2083 0.02143 40.7071 0.02143C44.9988 0.02143 49.3518 0.450598 53.7661 1.30894C58.1804 2.04465 61.7363 2.96429 64.4339 4.06786C65.5375 4.55834 66.2732 5.11012 66.6411 5.72322C67.0089 6.2137 67.1929 6.8881 67.1929 7.74643V34.7839C67.1929 35.1518 66.8863 35.4583 66.2732 35.7036C65.6601 35.8262 65.2923 35.7036 65.1696 35.3357L63.6982 31.8411C60.6327 24.1161 57.0155 17.556 52.8464 12.1607C48.8 6.76548 43.0982 4.06786 35.7411 4.06786C30.8363 4.06786 26.7899 5.47798 23.6018 8.29822C20.5363 11.1185 19.0036 15.2262 19.0036 20.6214ZM148.976 119.207C137.573 119.207 127.395 116.571 118.444 111.298C109.616 105.903 102.749 98.6685 97.8443 89.5946C93.0621 80.3982 90.671 70.4048 90.671 59.6143C90.671 46.9845 93.8591 36.194 100.235 27.2429C106.612 18.169 114.766 11.3637 124.698 6.82679C134.753 2.28988 144.991 0.02143 155.414 0.02143C167.063 0.02143 177.301 2.78036 186.13 8.29822C194.959 13.6935 201.703 20.8667 206.362 29.8179C211.144 38.769 213.535 48.272 213.535 58.3268C213.535 69.4851 210.592 79.7238 204.707 89.0429C198.821 98.3619 190.912 105.719 180.98 111.114C171.17 116.51 160.503 119.207 148.976 119.207ZM155.046 114.609C161.913 114.609 168.044 112.647 173.439 108.723C178.957 104.677 183.248 98.8524 186.314 91.25C189.379 83.525 190.912 74.3286 190.912 63.6607C190.912 52.3798 189.195 42.325 185.762 33.4964C182.329 24.5452 177.363 17.556 170.864 12.5286C164.365 7.50119 156.763 4.9875 148.057 4.9875C136.898 4.9875 128.315 9.21786 122.307 17.6786C116.298 26.0167 113.294 37.7268 113.294 52.8089C113.294 64.703 115.072 75.3708 118.628 84.8125C122.307 94.1315 127.273 101.427 133.526 106.7C139.903 111.973 147.076 114.609 155.046 114.609ZM344.607 114.793C344.975 114.793 345.159 115.161 345.159 115.896C345.159 116.632 344.975 117 344.607 117H324.007C322.046 117 320.39 117.061 319.041 117.184C317.693 117.307 316.589 117.368 315.731 117.368C313.769 117.368 312.052 116.939 310.581 116.08C309.232 115.099 307.515 113.383 305.431 110.93C303.469 108.478 299.913 103.757 294.763 96.7679C294.15 95.9095 293.414 94.9899 292.556 94.0089C291.82 92.9054 290.962 91.6792 289.981 90.3304L265.886 57.9589L261.84 62.0054V102.102C261.84 105.903 262.146 108.662 262.759 110.379C263.372 112.095 264.537 113.26 266.254 113.873C268.093 114.486 270.975 114.793 274.898 114.793C275.389 114.793 275.634 115.161 275.634 115.896C275.634 116.632 275.389 117 274.898 117C270.852 117 267.664 116.939 265.334 116.816L251.54 116.632L237.929 116.816C235.476 116.939 232.166 117 227.997 117C227.751 117 227.629 116.632 227.629 115.896C227.629 115.161 227.751 114.793 227.997 114.793C231.921 114.793 234.802 114.486 236.641 113.873C238.481 113.26 239.707 112.095 240.32 110.379C241.056 108.539 241.423 105.78 241.423 102.102V16.9429C241.423 13.2643 241.056 10.5667 240.32 8.85001C239.707 7.13333 238.481 5.96845 236.641 5.35536C234.925 4.61964 232.166 4.25179 228.365 4.25179C227.997 4.25179 227.813 3.88393 227.813 3.14822C227.813 2.41251 227.997 2.04465 228.365 2.04465L238.113 2.22858C243.753 2.47381 248.229 2.59643 251.54 2.59643C255.218 2.59643 259.878 2.47381 265.518 2.22858L274.898 2.04465C275.266 2.04465 275.45 2.41251 275.45 3.14822C275.45 3.88393 275.266 4.25179 274.898 4.25179C271.097 4.25179 268.277 4.61964 266.438 5.35536C264.721 6.09107 263.495 7.37858 262.759 9.21786C262.146 10.9345 261.84 13.6321 261.84 17.3107V56.3036L296.418 20.9893C299.974 17.4333 301.752 14.1839 301.752 11.2411C301.752 9.03393 300.771 7.31726 298.809 6.09107C296.847 4.86488 294.088 4.25179 290.532 4.25179C290.165 4.25179 289.981 3.88393 289.981 3.14822C289.981 2.41251 290.165 2.04465 290.532 2.04465L299.177 2.22858C304.572 2.47381 309.6 2.59643 314.259 2.59643C319.287 2.59643 324.498 2.47381 329.893 2.22858L338.17 2.04465C338.538 2.04465 338.722 2.41251 338.722 3.14822C338.722 3.88393 338.538 4.25179 338.17 4.25179C332.529 4.25179 326.337 5.90714 319.593 9.21786C312.849 12.406 306.718 16.6976 301.2 22.0929L280.416 43.2446L307.638 80.0304C315.608 91.4339 321.555 99.5268 325.479 104.309C329.525 108.968 332.775 111.911 335.227 113.137C337.679 114.241 340.806 114.793 344.607 114.793ZM473.224 114.793C473.469 114.793 473.592 115.161 473.592 115.896C473.592 116.632 473.469 117 473.224 117H440.484C437.787 117 432.759 112.157 425.402 102.47C418.045 92.6601 409.155 78.9881 398.733 61.4536C397.752 61.5762 396.342 61.6375 394.502 61.6375C389.72 61.6375 386.348 61.5762 384.386 61.4536V102.102C384.386 105.903 384.693 108.662 385.306 110.379C385.919 112.095 387.084 113.26 388.801 113.873C390.64 114.486 393.521 114.793 397.445 114.793C397.69 114.793 397.813 115.161 397.813 115.896C397.813 116.632 397.69 117 397.445 117C393.399 117 390.211 116.939 387.881 116.816L373.902 116.632L360.476 116.816C358.023 116.939 354.712 117 350.543 117C350.176 117 349.992 116.632 349.992 115.896C349.992 115.161 350.176 114.793 350.543 114.793C354.467 114.793 357.287 114.486 359.004 113.873C360.843 113.26 362.07 112.095 362.683 110.379C363.418 108.539 363.786 105.78 363.786 102.102V16.9429C363.786 13.2643 363.48 10.5667 362.867 8.85001C362.254 7.13333 361.027 5.96845 359.188 5.35536C357.349 4.61964 354.529 4.25179 350.727 4.25179C350.482 4.25179 350.359 3.88393 350.359 3.14822C350.359 2.41251 350.482 2.04465 350.727 2.04465L360.476 2.22858C366.116 2.47381 370.592 2.59643 373.902 2.59643C378.071 2.59643 382.424 2.4125 386.961 2.04465C388.555 1.92203 390.517 1.79941 392.847 1.67679C395.299 1.55417 397.997 1.49286 400.94 1.49286C412.098 1.49286 420.743 3.57738 426.874 7.74643C433.005 11.7929 436.07 17.4946 436.07 24.8518C436.07 31.5958 434.231 37.7268 430.552 43.2446C426.874 48.6399 421.969 52.9929 415.838 56.3036C425.648 71.0179 433.863 82.544 440.484 90.8821C447.106 99.2202 452.992 105.29 458.142 109.091C463.292 112.892 468.319 114.793 473.224 114.793ZM384.386 56.3036C387.329 56.7941 390.885 57.0393 395.054 57.0393C402.166 57.0393 407.255 55.0774 410.32 51.1536C413.508 47.1071 415.102 40.6696 415.102 31.8411C415.102 21.7863 413.631 14.8583 410.688 11.0571C407.745 7.25595 403.515 5.35536 397.997 5.35536C393.092 5.35536 389.598 6.275 387.513 8.11429C385.429 9.95358 384.386 13.019 384.386 17.3107V56.3036ZM530.125 119.207C518.722 119.207 508.544 116.571 499.593 111.298C490.765 105.903 483.898 98.6685 478.993 89.5946C474.211 80.3982 471.82 70.4048 471.82 59.6143C471.82 46.9845 475.008 36.194 481.384 27.2429C487.76 18.169 495.915 11.3637 505.847 6.82679C515.901 2.28988 526.14 0.02143 536.563 0.02143C548.212 0.02143 558.45 2.78036 567.279 8.29822C576.107 13.6935 582.851 20.8667 587.511 29.8179C592.293 38.769 594.684 48.272 594.684 58.3268C594.684 69.4851 591.741 79.7238 585.856 89.0429C579.97 98.3619 572.061 105.719 562.129 111.114C552.319 116.51 541.651 119.207 530.125 119.207ZM536.195 114.609C543.062 114.609 549.192 112.647 554.588 108.723C560.106 104.677 564.397 98.8524 567.463 91.25C570.528 83.525 572.061 74.3286 572.061 63.6607C572.061 52.3798 570.344 42.325 566.911 33.4964C563.478 24.5452 558.512 17.556 552.013 12.5286C545.514 7.50119 537.912 4.9875 529.206 4.9875C518.047 4.9875 509.464 9.21786 503.456 17.6786C497.447 26.0167 494.443 37.7268 494.443 52.8089C494.443 64.703 496.221 75.3708 499.777 84.8125C503.456 94.1315 508.422 101.427 514.675 106.7C521.051 111.973 528.225 114.609 536.195 114.609ZM756.84 114.793C757.085 114.793 757.208 115.161 757.208 115.896C757.208 116.632 757.085 117 756.84 117C752.671 117 749.36 116.939 746.908 116.816L733.297 116.632L719.503 116.816C717.173 116.939 713.985 117 709.938 117C709.571 117 709.387 116.632 709.387 115.896C709.387 115.161 709.571 114.793 709.938 114.793C715.088 114.793 718.583 114.18 720.422 112.954C722.262 111.727 723.181 109.152 723.181 105.229L722.997 102.102L719.135 26.875L681.246 115.713C681 116.203 680.51 116.448 679.774 116.448C679.038 116.448 678.548 116.203 678.303 115.713L631.769 27.2429L630.297 93.6411C630.175 100.263 631.462 105.474 634.16 109.275C636.98 112.954 640.904 114.793 645.931 114.793C646.299 114.793 646.483 115.161 646.483 115.896C646.483 116.632 646.299 117 645.931 117C642.621 117 640.046 116.939 638.206 116.816L628.09 116.632L616.503 116.816C614.541 116.939 611.904 117 608.594 117C608.226 117 608.042 116.632 608.042 115.896C608.042 115.161 608.226 114.793 608.594 114.793C613.621 114.793 617.606 112.892 620.549 109.091C623.492 105.29 625.025 100.14 625.147 93.6411L626.803 17.4946L626.619 17.3107C624.166 12.7738 621.591 9.4631 618.894 7.37858C616.319 5.29405 613.315 4.25179 609.881 4.25179C609.513 4.25179 609.329 3.88393 609.329 3.14822C609.329 2.41251 609.513 2.04465 609.881 2.04465L618.526 2.22858C620.243 2.35119 622.45 2.4125 625.147 2.4125L634.896 2.22858C635.999 2.10596 637.409 2.04465 639.126 2.04465C640.72 2.04465 641.946 2.59643 642.804 3.7C643.663 4.80357 645.257 7.43988 647.587 11.6089L687.683 86.8357L722.629 6.64286C723.365 4.92619 724.101 3.76131 724.837 3.14822C725.695 2.41251 726.799 2.04465 728.147 2.04465C729.251 2.04465 730.477 2.10596 731.826 2.22858C733.297 2.35119 734.953 2.4125 736.792 2.4125L747.644 2.22858C749.36 2.10596 751.813 2.04465 755.001 2.04465C755.369 2.04465 755.553 2.41251 755.553 3.14822C755.553 3.88393 755.369 4.25179 755.001 4.25179C749.238 4.25179 745.069 5.41667 742.494 7.74643C739.919 10.0762 738.754 13.6935 738.999 18.5982L743.413 102.102C743.659 105.903 744.088 108.662 744.701 110.379C745.437 112.095 746.663 113.26 748.379 113.873C750.219 114.486 753.039 114.793 756.84 114.793ZM893.209 114.793C893.822 114.793 894.128 115.161 894.128 115.896C894.128 116.632 893.822 117 893.209 117C890.756 117 886.955 116.877 881.805 116.632C876.41 116.387 872.548 116.264 870.218 116.264C867.152 116.264 863.412 116.387 858.998 116.632C854.829 116.877 851.518 117 849.066 117C848.575 117 848.33 116.632 848.33 115.896C848.33 115.161 848.575 114.793 849.066 114.793C852.254 114.793 854.523 114.486 855.871 113.873C857.343 113.137 858.078 111.911 858.078 110.195C858.078 108.11 856.852 104.615 854.4 99.7107L841.893 74.8804H796.646L789.473 90.8821C787.879 94.4381 787.082 97.7488 787.082 100.814C787.082 105.229 788.615 108.662 791.68 111.114C794.868 113.567 799.099 114.793 804.371 114.793C804.984 114.793 805.291 115.161 805.291 115.896C805.291 116.632 804.984 117 804.371 117C802.164 117 798.976 116.877 794.807 116.632C790.148 116.387 786.101 116.264 782.668 116.264C779.357 116.264 775.372 116.387 770.712 116.632C766.543 116.877 763.171 117 760.596 117C760.106 117 759.861 116.632 759.861 115.896C759.861 115.161 760.106 114.793 760.596 114.793C764.03 114.793 766.911 114.118 769.241 112.77C771.571 111.298 773.9 108.785 776.23 105.229C778.56 101.55 781.319 96.1548 784.507 89.0429L824.42 1.30894C824.665 0.941076 825.217 0.757146 826.075 0.757146C827.056 0.757146 827.608 0.941076 827.73 1.30894L873.712 91.8018C878.004 100.508 881.56 106.516 884.38 109.827C887.2 113.138 890.143 114.793 893.209 114.793ZM799.037 69.7304H839.134L817.982 27.7946L799.037 69.7304Z" fill="#E4C592"/>
</svg>
