<svg width="56" height="56" viewBox="0 0 56 56" fill="none" xmlns="http://www.w3.org/2000/svg">
<path d="M22.1225 31.8557V29.8656C22.1225 28.8101 22.5354 27.7977 23.2702 27.0513C24.005 26.3049 25.0017 25.8855 26.0409 25.8855H29.9593C30.9985 25.8855 31.9951 26.3049 32.73 27.0513C33.4648 27.7977 33.8776 28.8101 33.8776 29.8656V31.8557M19.4286 6.56555H13.7143C12.1988 6.56555 10.7453 7.17707 9.67368 8.26559C8.60204 9.35411 8 10.8305 8 12.3699V47.1957C8 48.7351 8.60204 50.2114 9.67368 51.3C10.7453 52.3885 12.1988 53 13.7143 53H42.2857C43.8012 53 45.2547 52.3885 46.3263 51.3C47.398 50.2114 48 48.7351 48 47.1957V12.3699C48 10.8305 47.398 9.35411 46.3263 8.26559C45.2547 7.17707 43.8012 6.56555 42.2857 6.56555H36.5714M14.2857 37.8258H42.6939M14.2857 42.801H41.7143M14.2849 47.7761H22.8563M30.9389 18.9204C30.9389 20.569 29.6231 21.9055 28.0001 21.9055C26.377 21.9055 25.0613 20.569 25.0613 18.9204C25.0613 17.2718 26.377 15.9353 28.0001 15.9353C29.6231 15.9353 30.9389 17.2718 30.9389 18.9204ZM23.4286 3H33.0612C34.8646 3 36.3265 4.55921 36.3265 6.48258C36.3265 8.40596 34.8646 9.96517 33.0612 9.96517H23.4286C21.6252 9.96517 20.1633 8.40596 20.1633 6.48258C20.1633 4.55921 21.6252 3 23.4286 3Z" stroke="#D0B07C" stroke-width="2.7" stroke-linecap="round" stroke-linejoin="round"/>
</svg>
