<svg width="56" height="56" viewBox="0 0 56 56" fill="none" xmlns="http://www.w3.org/2000/svg">
<path d="M35.392 19.6667C34.8888 18.7938 34.1577 18.0742 33.277 17.5849C32.3962 17.0956 31.399 16.8551 30.392 16.889H24.8365C23.3631 16.889 21.95 17.4743 20.9081 18.5161C19.8662 19.558 19.2809 20.9711 19.2809 22.4445C19.2809 23.9179 19.8662 25.331 20.9081 26.3729C21.95 27.4147 23.3631 28.0001 24.8365 28.0001H30.392C31.8655 28.0001 33.2785 28.5854 34.3204 29.6273C35.3623 30.6691 35.9476 32.0822 35.9476 33.5556C35.9476 35.029 35.3623 36.4421 34.3204 37.484C33.2785 38.5259 31.8655 39.1112 30.392 39.1112H24.8365C23.8295 39.1451 22.8323 38.9045 21.9515 38.4152C21.0708 37.9259 20.3397 37.2063 19.8365 36.3334M27.6143 11.3333V16.8889M27.6143 39.1111V44.6667M52.6143 28C52.6143 41.8071 41.4214 53 27.6143 53C13.8071 53 2.61426 41.8071 2.61426 28C2.61426 14.1929 13.8071 3 27.6143 3C41.4214 3 52.6143 14.1929 52.6143 28Z" stroke="#D0B07C" stroke-width="2.7" stroke-linecap="round" stroke-linejoin="round"/>
</svg>
