<svg width="44" height="54" viewBox="0 0 44 54" fill="none" xmlns="http://www.w3.org/2000/svg">
<path d="M16.1225 30.8567V28.8666C16.1225 27.811 16.5354 26.7987 17.2702 26.0523C18.005 25.3059 19.0017 24.8865 20.0409 24.8865H23.9593C24.9985 24.8865 25.9951 25.3059 26.73 26.0523C27.4648 26.7987 27.8776 27.811 27.8776 28.8666V30.8567M13.4286 5.56653H7.71429C6.19876 5.56653 4.74531 6.17805 3.67368 7.26657C2.60204 8.35509 2 9.83143 2 11.3708V46.1967C2 47.7361 2.60204 49.2124 3.67368 50.3009C4.74531 51.3895 6.19876 52.001 7.71429 52.001H36.2857C37.8012 52.001 39.2547 51.3895 40.3263 50.3009C41.398 49.2124 42 47.7361 42 46.1967V11.3708C42 9.83143 41.398 8.35509 40.3263 7.26657C39.2547 6.17805 37.8012 5.56653 36.2857 5.56653H30.5714M8.28574 36.8268H36.6939M8.28574 41.8019H35.7143M8.2849 46.7771H16.8563M24.9389 17.9214C24.9389 19.57 23.6231 20.9064 22.0001 20.9064C20.377 20.9064 19.0613 19.57 19.0613 17.9214C19.0613 16.2727 20.377 14.9363 22.0001 14.9363C23.6231 14.9363 24.9389 16.2727 24.9389 17.9214ZM17.4286 2.00098H27.0612C28.8646 2.00098 30.3265 3.56018 30.3265 5.48356C30.3265 7.40694 28.8646 8.96614 27.0612 8.96614H17.4286C15.6252 8.96614 14.1633 7.40694 14.1633 5.48356C14.1633 3.56018 15.6252 2.00098 17.4286 2.00098Z" stroke="#D0B07C" stroke-width="2.7" stroke-linecap="round" stroke-linejoin="round"/>
</svg>
