<svg width="54" height="54" viewBox="0 0 54 54" fill="none" xmlns="http://www.w3.org/2000/svg">
<path d="M2 51.9998V46.4443C2 43.4975 3.17063 40.6713 5.25436 38.5876C7.33809 36.5039 10.1642 35.3332 13.1111 35.3332H24.2222C27.169 35.3332 29.9951 36.5039 32.0789 38.5876C34.1626 40.6713 35.3332 43.4975 35.3332 46.4443V51.9998M38.111 2.36109C40.501 2.97303 42.6194 4.36303 44.1322 6.31194C45.645 8.26085 46.4661 10.6578 46.4661 13.1249C46.4661 15.5921 45.645 17.989 44.1322 19.9379C42.6194 21.8869 40.501 23.2769 38.111 23.8888M51.9998 52V46.4445C51.9857 43.9921 51.1607 41.6134 49.6534 39.6789C48.146 37.7445 46.041 36.3631 43.6665 35.75M29.7777 13.1111C29.7777 19.2476 24.8031 24.2221 18.6666 24.2221C12.5301 24.2221 7.55552 19.2476 7.55552 13.1111C7.55552 6.9746 12.5301 2 18.6666 2C24.8031 2 29.7777 6.9746 29.7777 13.1111Z" stroke="#D0B07C" stroke-width="2.7" stroke-linecap="round" stroke-linejoin="round"/>
</svg>
