<svg width="78" height="48" viewBox="0 0 78 48" fill="none" xmlns="http://www.w3.org/2000/svg">
<path d="M2.20144 26.7147L3.55139 26.7027L3.55139 26.7026L2.20144 26.7147ZM2.03205 7.87894L0.682102 7.89106L0.682102 7.89108L2.03205 7.87894ZM5.4386 2.07005L5.30857 3.41378L5.32263 3.41513L5.33671 3.4162L5.4386 2.07005ZM13.0265 3.29867L12.6828 4.60417L12.6828 4.60417L13.0265 3.29867ZM16.7178 11.1315L18.0428 11.39L18.0428 11.3899L16.7178 11.1315ZM12.6823 26.1364L11.4002 25.7138L11.4002 25.7138L12.6823 26.1364ZM13.4323 25.6564C12.8843 25.1509 12.0302 25.1853 11.5247 25.7334C11.0192 26.2814 11.0536 27.1355 11.6017 27.641L13.4323 25.6564ZM38.5407 45.984L38.4309 47.3295L38.5407 45.984ZM34.7472 35.3889C34.2123 34.8695 33.3576 34.882 32.8382 35.4169C32.3188 35.9518 32.3313 36.8065 32.8662 37.3259L34.7472 35.3889ZM43.477 44.9607L43.7024 43.6297L43.6891 43.6274L43.6758 43.6255L43.477 44.9607ZM41.1987 32.408C40.6638 31.8886 39.8091 31.9011 39.2897 32.436C38.7703 32.9709 38.7828 33.8256 39.3177 34.345L41.1987 32.408ZM49.9285 41.9798L50.1539 40.6488L50.1406 40.6465L50.1273 40.6446L49.9285 41.9798ZM45.9882 27.9063C45.4813 27.3595 44.6272 27.3271 44.0804 27.834C43.5336 28.3408 43.5012 29.195 44.008 29.7418L45.9882 27.9063ZM56.2423 38.6392L56.4676 37.3082L56.4234 37.3007L56.3788 37.2962L56.2423 38.6392ZM59.4879 33.4241L58.3473 34.1462L58.3475 34.1464L59.4879 33.4241ZM57.0923 30.5573L58.1025 29.6617L58.1023 29.6615L57.0923 30.5573ZM40.5238 15.994L41.3645 14.9377L40.6998 14.4088L39.9353 14.7791L40.5238 15.994ZM35.537 17.4718L35.5666 16.1221L34.9478 16.1086L34.5337 16.5685L35.537 17.4718ZM25.915 17.2327L24.5653 17.2604V17.2605L25.915 17.2327ZM37.4064 5.64674L37.6705 6.97067L37.6705 6.97066L37.4064 5.64674ZM56.3575 11.0421L56.1331 12.3733L56.3575 11.0421ZM75.7846 28.9268L74.438 29.0227V29.0227L75.7846 28.9268ZM74.4458 10.1362L75.7924 10.0403V10.0403L74.4458 10.1362ZM70.5851 4.60961L70.7911 5.94379L70.8051 5.94164L70.819 5.93919L70.5851 4.60961ZM63.1193 6.4229L62.6751 5.14808L62.6751 5.14809L63.1193 6.4229ZM60.0665 14.5179L61.3667 14.1545L61.3666 14.1544L60.0665 14.5179ZM65.2901 29.1632L66.5345 28.6397L66.5345 28.6397L65.2901 29.1632ZM70.7076 32.839L70.6033 31.493L70.6029 31.4931L70.7076 32.839ZM72.4325 32.7047L72.3277 31.3588L72.3275 31.3588L72.4325 32.7047ZM17.3855 9.44732H32.4322V6.74732H17.3855V9.44732ZM3.55139 26.7026C3.52315 23.5634 3.49492 20.424 3.46669 17.2847C3.43846 14.1453 3.41023 11.006 3.38199 7.8668L0.682102 7.89108C0.710334 11.0303 0.738566 14.1696 0.766798 17.309C0.79503 20.4483 0.823262 23.5877 0.851494 26.7269L3.55139 26.7026ZM3.38199 7.86683C3.36991 6.52076 3.33785 5.54882 3.35466 4.75733C3.37198 3.94164 3.44432 3.5894 3.51224 3.43664C3.51421 3.43218 3.46105 3.43616 3.59782 3.4031C3.86062 3.33959 4.35608 3.32161 5.30857 3.41378L5.56862 0.726327C4.60219 0.632812 3.70654 0.59909 2.96353 0.778667C2.09449 0.988703 1.42082 1.4946 1.04507 2.33978C0.735255 3.03665 0.672642 3.88176 0.655268 4.70002C0.637379 5.54248 0.670883 6.64109 0.682102 7.89106L3.38199 7.86683ZM5.33671 3.4162C7.97455 3.61586 10.4252 4.00972 12.6828 4.60417L13.3703 1.99317C10.9326 1.3513 8.31774 0.934115 5.54049 0.723902L5.33671 3.4162ZM12.6828 4.60417C14.1949 5.0023 15.1245 5.28777 15.7095 5.56685C16.2565 5.82784 16.2625 5.96956 16.2644 5.97541C16.309 6.11679 16.3277 6.44481 16.1486 7.35163C16.0651 7.77509 15.9544 8.25819 15.8213 8.85181C15.69 9.43714 15.5419 10.1087 15.3928 10.873L18.0428 11.3899C18.1846 10.6633 18.3261 10.021 18.4558 9.44263C18.5837 8.8725 18.7053 8.3419 18.7975 7.87453C18.9702 6.9997 19.1151 6.03762 18.8393 5.16319C18.5207 4.15323 17.7597 3.55343 16.872 3.12996C16.0223 2.72458 14.8495 2.38264 13.3703 1.99316L12.6828 4.60417ZM15.3928 10.873C14.4013 15.9554 12.9985 20.8651 11.4002 25.7138L13.9645 26.5591C15.5846 21.6444 17.0227 16.6194 18.0428 11.39L15.3928 10.873ZM11.4002 25.7138C11.0383 26.8118 10.7674 27.8025 10.6174 28.2783C10.4202 28.9039 10.3479 28.9186 10.4059 28.867C10.5181 28.7674 10.5772 28.8442 10.0454 28.8711C9.50999 28.8982 8.80696 28.8711 7.57607 28.8711V31.5711C8.65578 31.5711 9.55984 31.5992 10.182 31.5676C10.8077 31.536 11.5749 31.4403 12.1995 30.8853C12.7699 30.3783 13.0145 29.6547 13.1925 29.0901C13.4177 28.3757 13.5804 27.7242 13.9645 26.559L11.4002 25.7138ZM7.57607 28.8711C7.57494 28.8711 7.57381 28.8711 7.57269 28.8711C7.57156 28.8711 7.57043 28.8711 7.56931 28.8711C7.56818 28.8711 7.56705 28.8711 7.56593 28.8711C7.5648 28.8711 7.56367 28.8711 7.56255 28.8711C7.56142 28.8711 7.56029 28.8711 7.55917 28.8711C7.55804 28.8711 7.55691 28.8711 7.55579 28.8711C7.55466 28.8711 7.55353 28.8711 7.5524 28.8711C7.55128 28.8711 7.55015 28.8711 7.54902 28.8711C7.5479 28.8711 7.54677 28.8711 7.54564 28.8711C7.54452 28.8711 7.54339 28.8711 7.54226 28.8711C7.54114 28.8711 7.54001 28.8711 7.53888 28.8711C7.53776 28.8711 7.53663 28.8711 7.5355 28.8711C7.53438 28.8711 7.53325 28.8711 7.53212 28.8711C7.531 28.8711 7.52987 28.8711 7.52874 28.8711C7.52762 28.8711 7.52649 28.8711 7.52536 28.8711C7.52424 28.8711 7.52311 28.8711 7.52198 28.8711C7.52086 28.8711 7.51973 28.8711 7.5186 28.8711C7.51748 28.8711 7.51635 28.8711 7.51522 28.8711C7.5141 28.8711 7.51297 28.8711 7.51184 28.8711C7.51072 28.8711 7.50959 28.8711 7.50846 28.8711C7.50734 28.8711 7.50621 28.8711 7.50508 28.8711C7.50396 28.8711 7.50283 28.8711 7.5017 28.8711C7.50058 28.8711 7.49945 28.8711 7.49832 28.8711C7.4972 28.8711 7.49607 28.8711 7.49494 28.8711C7.49382 28.8711 7.49269 28.8711 7.49156 28.8711C7.49044 28.8711 7.48931 28.8711 7.48818 28.8711C7.48706 28.8711 7.48593 28.8711 7.4848 28.8711C7.48368 28.8711 7.48255 28.8711 7.48142 28.8711C7.4803 28.8711 7.47917 28.8711 7.47804 28.8711C7.47692 28.8711 7.47579 28.8711 7.47466 28.8711C7.47354 28.8711 7.47241 28.8711 7.47128 28.8711C7.47016 28.8711 7.46903 28.8711 7.4679 28.8711C7.46678 28.8711 7.46565 28.8711 7.46452 28.8711C7.4634 28.8711 7.46227 28.8711 7.46114 28.8711C7.46002 28.8711 7.45889 28.8711 7.45776 28.8711C7.45664 28.8711 7.45551 28.8711 7.45438 28.8711C7.45326 28.8711 7.45213 28.8711 7.451 28.8711C7.44988 28.8711 7.44875 28.8711 7.44762 28.8711C7.4465 28.8711 7.44537 28.8711 7.44424 28.8711C7.44312 28.8711 7.44199 28.8711 7.44086 28.8711C7.43974 28.8711 7.43861 28.8711 7.43748 28.8711C7.43636 28.8711 7.43523 28.8711 7.4341 28.8711C7.43298 28.8711 7.43185 28.8711 7.43073 28.8711C7.4296 28.8711 7.42847 28.8711 7.42735 28.8711C7.42622 28.8711 7.42509 28.8711 7.42397 28.8711C7.42284 28.8711 7.42171 28.8711 7.42059 28.8711C7.41946 28.8711 7.41833 28.8711 7.41721 28.8711C7.41608 28.8711 7.41495 28.8711 7.41383 28.8711C7.4127 28.8711 7.41157 28.8711 7.41045 28.8711C7.40932 28.8711 7.40819 28.8711 7.40707 28.8711C7.40594 28.8711 7.40481 28.8711 7.40369 28.8711C7.40256 28.8711 7.40143 28.8711 7.40031 28.8711C7.39918 28.8711 7.39805 28.8711 7.39693 28.8711C7.3958 28.8711 7.39467 28.8711 7.39355 28.8711C7.39242 28.8711 7.39129 28.8711 7.39017 28.8711C7.38904 28.8711 7.38791 28.8711 7.38679 28.8711C7.38566 28.8711 7.38453 28.8711 7.38341 28.8711C7.38228 28.8711 7.38115 28.8711 7.38003 28.8711C7.3789 28.8711 7.37777 28.8711 7.37665 28.8711C7.37552 28.8711 7.37439 28.8711 7.37327 28.8711C7.37214 28.8711 7.37102 28.8711 7.36989 28.8711C7.36876 28.8711 7.36764 28.8711 7.36651 28.8711C7.36538 28.8711 7.36426 28.8711 7.36313 28.8711C7.362 28.8711 7.36088 28.8711 7.35975 28.8711C7.35862 28.8711 7.3575 28.8711 7.35637 28.8711C7.35524 28.8711 7.35412 28.8711 7.35299 28.8711C7.35186 28.8711 7.35074 28.8711 7.34961 28.8711C7.34848 28.8711 7.34736 28.8711 7.34623 28.8711C7.3451 28.8711 7.34398 28.8711 7.34285 28.8711C7.34172 28.8711 7.3406 28.8711 7.33947 28.8711C7.33834 28.8711 7.33722 28.8711 7.33609 28.8711C7.33496 28.8711 7.33384 28.8711 7.33271 28.8711C7.33159 28.8711 7.33046 28.8711 7.32933 28.8711C7.32821 28.8711 7.32708 28.8711 7.32595 28.8711C7.32483 28.8711 7.3237 28.8711 7.32257 28.8711C7.32145 28.8711 7.32032 28.8711 7.31919 28.8711C7.31807 28.8711 7.31694 28.8711 7.31581 28.8711C7.31469 28.8711 7.31356 28.8711 7.31243 28.8711C7.31131 28.8711 7.31018 28.8711 7.30905 28.8711C7.30793 28.8711 7.3068 28.8711 7.30567 28.8711C7.30455 28.8711 7.30342 28.8711 7.3023 28.8711C7.30117 28.8711 7.30004 28.8711 7.29892 28.8711C7.29779 28.8711 7.29666 28.8711 7.29554 28.8711C7.29441 28.8711 7.29328 28.8711 7.29216 28.8711C7.29103 28.8711 7.2899 28.8711 7.28878 28.8711C7.28765 28.8711 7.28652 28.8711 7.2854 28.8711C7.28427 28.8711 7.28314 28.8711 7.28202 28.8711C7.28089 28.8711 7.27976 28.8711 7.27864 28.8711C7.27751 28.8711 7.27638 28.8711 7.27526 28.8711C7.27413 28.8711 7.27301 28.8711 7.27188 28.8711C7.27075 28.8711 7.26963 28.8711 7.2685 28.8711C7.26737 28.8711 7.26625 28.8711 7.26512 28.8711C7.26399 28.8711 7.26287 28.8711 7.26174 28.8711C7.26061 28.8711 7.25949 28.8711 7.25836 28.8711C7.25723 28.8711 7.25611 28.8711 7.25498 28.8711C7.25385 28.8711 7.25273 28.8711 7.2516 28.8711C7.25047 28.8711 7.24935 28.8711 7.24822 28.8711C7.2471 28.8711 7.24597 28.8711 7.24484 28.8711C7.24372 28.8711 7.24259 28.8711 7.24146 28.8711C7.24034 28.8711 7.23921 28.8711 7.23808 28.8711C7.23696 28.8711 7.23583 28.8711 7.2347 28.8711C7.23358 28.8711 7.23245 28.8711 7.23132 28.8711C7.2302 28.8711 7.22907 28.8711 7.22795 28.8711C7.22682 28.8711 7.22569 28.8711 7.22457 28.8711C7.22344 28.8711 7.22231 28.8711 7.22119 28.8711C7.22006 28.8711 7.21893 28.8711 7.21781 28.8711C7.21668 28.8711 7.21555 28.8711 7.21443 28.8711C7.2133 28.8711 7.21217 28.8711 7.21105 28.8711C7.20992 28.8711 7.2088 28.8711 7.20767 28.8711C7.20654 28.8711 7.20542 28.8711 7.20429 28.8711C7.20316 28.8711 7.20204 28.8711 7.20091 28.8711C7.19978 28.8711 7.19866 28.8711 7.19753 28.8711C7.1964 28.8711 7.19528 28.8711 7.19415 28.8711C7.19302 28.8711 7.1919 28.8711 7.19077 28.8711C7.18964 28.8711 7.18852 28.8711 7.18739 28.8711C7.18627 28.8711 7.18514 28.8711 7.18401 28.8711C7.18289 28.8711 7.18176 28.8711 7.18063 28.8711C7.17951 28.8711 7.17838 28.8711 7.17725 28.8711C7.17613 28.8711 7.175 28.8711 7.17387 28.8711C7.17275 28.8711 7.17162 28.8711 7.1705 28.8711C7.16937 28.8711 7.16824 28.8711 7.16712 28.8711C7.16599 28.8711 7.16486 28.8711 7.16374 28.8711C7.16261 28.8711 7.16148 28.8711 7.16036 28.8711C7.15923 28.8711 7.1581 28.8711 7.15698 28.8711C7.15585 28.8711 7.15473 28.8711 7.1536 28.8711C7.15247 28.8711 7.15135 28.8711 7.15022 28.8711C7.14909 28.8711 7.14797 28.8711 7.14684 28.8711C7.14571 28.8711 7.14459 28.8711 7.14346 28.8711C7.14233 28.8711 7.14121 28.8711 7.14008 28.8711C7.13895 28.8711 7.13783 28.8711 7.1367 28.8711C7.13558 28.8711 7.13445 28.8711 7.13332 28.8711C7.1322 28.8711 7.13107 28.8711 7.12994 28.8711C7.12882 28.8711 7.12769 28.8711 7.12656 28.8711C7.12544 28.8711 7.12431 28.8711 7.12318 28.8711C7.12206 28.8711 7.12093 28.8711 7.11981 28.8711C7.11868 28.8711 7.11755 28.8711 7.11643 28.8711C7.1153 28.8711 7.11417 28.8711 7.11305 28.8711C7.11192 28.8711 7.11079 28.8711 7.10967 28.8711C7.10854 28.8711 7.10741 28.8711 7.10629 28.8711C7.10516 28.8711 7.10404 28.8711 7.10291 28.8711C7.10178 28.8711 7.10066 28.8711 7.09953 28.8711C7.0984 28.8711 7.09728 28.8711 7.09615 28.8711C7.09502 28.8711 7.0939 28.8711 7.09277 28.8711C7.09164 28.8711 7.09052 28.8711 7.08939 28.8711C7.08827 28.8711 7.08714 28.8711 7.08601 28.8711C7.08489 28.8711 7.08376 28.8711 7.08263 28.8711C7.08151 28.8711 7.08038 28.8711 7.07925 28.8711C7.07813 28.8711 7.077 28.8711 7.07588 28.8711C7.07475 28.8711 7.07362 28.8711 7.0725 28.8711C7.07137 28.8711 7.07024 28.8711 7.06912 28.8711C7.06799 28.8711 7.06686 28.8711 7.06574 28.8711C7.06461 28.8711 7.06349 28.8711 7.06236 28.8711C7.06123 28.8711 7.06011 28.8711 7.05898 28.8711C7.05785 28.8711 7.05673 28.8711 7.0556 28.8711C7.05447 28.8711 7.05335 28.8711 7.05222 28.8711C7.05109 28.8711 7.04997 28.8711 7.04884 28.8711C7.04772 28.8711 7.04659 28.8711 7.04546 28.8711C7.04434 28.8711 7.04321 28.8711 7.04208 28.8711C7.04096 28.8711 7.03983 28.8711 7.0387 28.8711C7.03758 28.8711 7.03645 28.8711 7.03533 28.8711C7.0342 28.8711 7.03307 28.8711 7.03195 28.8711C7.03082 28.8711 7.02969 28.8711 7.02857 28.8711C7.02744 28.8711 7.02631 28.8711 7.02519 28.8711C7.02406 28.8711 7.02293 28.8711 7.02181 28.8711C7.02068 28.8711 7.01956 28.8711 7.01843 28.8711C7.0173 28.8711 7.01618 28.8711 7.01505 28.8711C7.01392 28.8711 7.0128 28.8711 7.01167 28.8711C7.01055 28.8711 7.00942 28.8711 7.00829 28.8711C7.00717 28.8711 7.00604 28.8711 7.00491 28.8711C7.00379 28.8711 7.00266 28.8711 7.00153 28.8711C7.00041 28.8711 6.99928 28.8711 6.99816 28.8711C6.99703 28.8711 6.9959 28.8711 6.99478 28.8711C6.99365 28.8711 6.99252 28.8711 6.9914 28.8711C6.99027 28.8711 6.98914 28.8711 6.98802 28.8711C6.98689 28.8711 6.98576 28.8711 6.98464 28.8711C6.98351 28.8711 6.98239 28.8711 6.98126 28.8711C6.98013 28.8711 6.97901 28.8711 6.97788 28.8711C6.97675 28.8711 6.97563 28.8711 6.9745 28.8711C6.97338 28.8711 6.97225 28.8711 6.97112 28.8711C6.97 28.8711 6.96887 28.8711 6.96774 28.8711C6.96662 28.8711 6.96549 28.8711 6.96436 28.8711C6.96324 28.8711 6.96211 28.8711 6.96099 28.8711C6.95986 28.8711 6.95873 28.8711 6.95761 28.8711C6.95648 28.8711 6.95535 28.8711 6.95423 28.8711C6.9531 28.8711 6.95197 28.8711 6.95085 28.8711C6.94972 28.8711 6.9486 28.8711 6.94747 28.8711C6.94634 28.8711 6.94522 28.8711 6.94409 28.8711C6.94296 28.8711 6.94184 28.8711 6.94071 28.8711C6.93959 28.8711 6.93846 28.8711 6.93733 28.8711C6.93621 28.8711 6.93508 28.8711 6.93395 28.8711C6.93283 28.8711 6.9317 28.8711 6.93057 28.8711C6.92945 28.8711 6.92832 28.8711 6.9272 28.8711C6.92607 28.8711 6.92494 28.8711 6.92382 28.8711C6.92269 28.8711 6.92156 28.8711 6.92044 28.8711C6.91931 28.8711 6.91819 28.8711 6.91706 28.8711C6.91593 28.8711 6.91481 28.8711 6.91368 28.8711C6.91255 28.8711 6.91143 28.8711 6.9103 28.8711C6.90917 28.8711 6.90805 28.8711 6.90692 28.8711C6.9058 28.8711 6.90467 28.8711 6.90354 28.8711C6.90242 28.8711 6.90129 28.8711 6.90016 28.8711C6.89904 28.8711 6.89791 28.8711 6.89679 28.8711C6.89566 28.8711 6.89453 28.8711 6.89341 28.8711C6.89228 28.8711 6.89115 28.8711 6.89003 28.8711C6.8889 28.8711 6.88777 28.8711 6.88665 28.8711C6.88552 28.8711 6.8844 28.8711 6.88327 28.8711C6.88214 28.8711 6.88102 28.8711 6.87989 28.8711C6.87876 28.8711 6.87764 28.8711 6.87651 28.8711C6.87539 28.8711 6.87426 28.8711 6.87313 28.8711C6.87201 28.8711 6.87088 28.8711 6.86975 28.8711C6.86863 28.8711 6.8675 28.8711 6.86637 28.8711C6.86525 28.8711 6.86412 28.8711 6.863 28.8711C6.86187 28.8711 6.86074 28.8711 6.85962 28.8711C6.85849 28.8711 6.85736 28.8711 6.85624 28.8711C6.85511 28.8711 6.85399 28.8711 6.85286 28.8711C6.85173 28.8711 6.85061 28.8711 6.84948 28.8711C6.84835 28.8711 6.84723 28.8711 6.8461 28.8711C6.84498 28.8711 6.84385 28.8711 6.84272 28.8711C6.8416 28.8711 6.84047 28.8711 6.83934 28.8711C6.83822 28.8711 6.83709 28.8711 6.83597 28.8711C6.83484 28.8711 6.83371 28.8711 6.83259 28.8711C6.83146 28.8711 6.83033 28.8711 6.82921 28.8711C6.82808 28.8711 6.82695 28.8711 6.82583 28.8711C6.8247 28.8711 6.82358 28.8711 6.82245 28.8711C6.82132 28.8711 6.8202 28.8711 6.81907 28.8711C6.81794 28.8711 6.81682 28.8711 6.81569 28.8711C6.81457 28.8711 6.81344 28.8711 6.81231 28.8711C6.81119 28.8711 6.81006 28.8711 6.80893 28.8711C6.80781 28.8711 6.80668 28.8711 6.80556 28.8711C6.80443 28.8711 6.8033 28.8711 6.80218 28.8711C6.80105 28.8711 6.79992 28.8711 6.7988 28.8711C6.79767 28.8711 6.79655 28.8711 6.79542 28.8711C6.79429 28.8711 6.79317 28.8711 6.79204 28.8711C6.79091 28.8711 6.78979 28.8711 6.78866 28.8711C6.78754 28.8711 6.78641 28.8711 6.78528 28.8711C6.78416 28.8711 6.78303 28.8711 6.7819 28.8711C6.78078 28.8711 6.77965 28.8711 6.77853 28.8711C6.7774 28.8711 6.77627 28.8711 6.77515 28.8711C6.77402 28.8711 6.77289 28.8711 6.77177 28.8711C6.77064 28.8711 6.76952 28.8711 6.76839 28.8711C6.76726 28.8711 6.76614 28.8711 6.76501 28.8711C6.76388 28.8711 6.76276 28.8711 6.76163 28.8711C6.76051 28.8711 6.75938 28.8711 6.75825 28.8711C6.75713 28.8711 6.756 28.8711 6.75487 28.8711C6.75375 28.8711 6.75262 28.8711 6.7515 28.8711C6.75037 28.8711 6.74924 28.8711 6.74812 28.8711C6.74699 28.8711 6.74586 28.8711 6.74474 28.8711C6.74361 28.8711 6.74249 28.8711 6.74136 28.8711C6.74023 28.8711 6.73911 28.8711 6.73798 28.8711C6.73685 28.8711 6.73573 28.8711 6.7346 28.8711C6.73348 28.8711 6.73235 28.8711 6.73122 28.8711C6.7301 28.8711 6.72897 28.8711 6.72784 28.8711C6.72672 28.8711 6.72559 28.8711 6.72447 28.8711C6.72334 28.8711 6.72221 28.8711 6.72109 28.8711C6.71996 28.8711 6.71883 28.8711 6.71771 28.8711C6.71658 28.8711 6.71546 28.8711 6.71433 28.8711C6.7132 28.8711 6.71208 28.8711 6.71095 28.8711C6.70982 28.8711 6.7087 28.8711 6.70757 28.8711C6.70645 28.8711 6.70532 28.8711 6.70419 28.8711C6.70307 28.8711 6.70194 28.8711 6.70081 28.8711C6.69969 28.8711 6.69856 28.8711 6.69744 28.8711C6.69631 28.8711 6.69518 28.8711 6.69406 28.8711C6.69293 28.8711 6.6918 28.8711 6.69068 28.8711C6.68955 28.8711 6.68843 28.8711 6.6873 28.8711C6.68617 28.8711 6.68505 28.8711 6.68392 28.8711C6.6828 28.8711 6.68167 28.8711 6.68054 28.8711C6.67942 28.8711 6.67829 28.8711 6.67716 28.8711C6.67604 28.8711 6.67491 28.8711 6.67379 28.8711C6.67266 28.8711 6.67153 28.8711 6.67041 28.8711C6.66928 28.8711 6.66815 28.8711 6.66703 28.8711C6.6659 28.8711 6.66478 28.8711 6.66365 28.8711C6.66252 28.8711 6.6614 28.8711 6.66027 28.8711C6.65914 28.8711 6.65802 28.8711 6.65689 28.8711C6.65577 28.8711 6.65464 28.8711 6.65351 28.8711C6.65239 28.8711 6.65126 28.8711 6.65013 28.8711C6.64901 28.8711 6.64788 28.8711 6.64676 28.8711C6.64563 28.8711 6.6445 28.8711 6.64338 28.8711C6.64225 28.8711 6.64113 28.8711 6.64 28.8711C6.63887 28.8711 6.63775 28.8711 6.63662 28.8711C6.63549 28.8711 6.63437 28.8711 6.63324 28.8711C6.63212 28.8711 6.63099 28.8711 6.62986 28.8711C6.62874 28.8711 6.62761 28.8711 6.62648 28.8711C6.62536 28.8711 6.62423 28.8711 6.62311 28.8711C6.62198 28.8711 6.62085 28.8711 6.61973 28.8711C6.6186 28.8711 6.61748 28.8711 6.61635 28.8711C6.61522 28.8711 6.6141 28.8711 6.61297 28.8711C6.61184 28.8711 6.61072 28.8711 6.60959 28.8711C6.60847 28.8711 6.60734 28.8711 6.60621 28.8711C6.60509 28.8711 6.60396 28.8711 6.60283 28.8711C6.60171 28.8711 6.60058 28.8711 6.59946 28.8711C6.59833 28.8711 6.5972 28.8711 6.59608 28.8711C6.59495 28.8711 6.59382 28.8711 6.5927 28.8711C6.59157 28.8711 6.59045 28.8711 6.58932 28.8711C6.58819 28.8711 6.58707 28.8711 6.58594 28.8711C6.58482 28.8711 6.58369 28.8711 6.58256 28.8711C6.58144 28.8711 6.58031 28.8711 6.57918 28.8711C6.57806 28.8711 6.57693 28.8711 6.57581 28.8711C6.57468 28.8711 6.57355 28.8711 6.57243 28.8711C6.5713 28.8711 6.57018 28.8711 6.56905 28.8711C6.56792 28.8711 6.5668 28.8711 6.56567 28.8711C6.56454 28.8711 6.56342 28.8711 6.56229 28.8711C6.56117 28.8711 6.56004 28.8711 6.55891 28.8711C6.55779 28.8711 6.55666 28.8711 6.55553 28.8711C6.55441 28.8711 6.55328 28.8711 6.55216 28.8711C6.55103 28.8711 6.5499 28.8711 6.54878 28.8711C6.54765 28.8711 6.54653 28.8711 6.5454 28.8711C6.54427 28.8711 6.54315 28.8711 6.54202 28.8711C6.54089 28.8711 6.53977 28.8711 6.53864 28.8711C6.53752 28.8711 6.53639 28.8711 6.53526 28.8711C6.53414 28.8711 6.53301 28.8711 6.53189 28.8711C6.53076 28.8711 6.52963 28.8711 6.52851 28.8711C6.52738 28.8711 6.52625 28.8711 6.52513 28.8711C6.524 28.8711 6.52288 28.8711 6.52175 28.8711C6.52062 28.8711 6.5195 28.8711 6.51837 28.8711C6.51724 28.8711 6.51612 28.8711 6.51499 28.8711C6.51387 28.8711 6.51274 28.8711 6.51161 28.8711C6.51049 28.8711 6.50936 28.8711 6.50824 28.8711C6.50711 28.8711 6.50598 28.8711 6.50486 28.8711C6.50373 28.8711 6.5026 28.8711 6.50148 28.8711C6.50035 28.8711 6.49923 28.8711 6.4981 28.8711C6.49697 28.8711 6.49585 28.8711 6.49472 28.8711C6.4936 28.8711 6.49247 28.8711 6.49134 28.8711C6.49022 28.8711 6.48909 28.8711 6.48796 28.8711C6.48684 28.8711 6.48571 28.8711 6.48459 28.8711C6.48346 28.8711 6.48233 28.8711 6.48121 28.8711C6.48008 28.8711 6.47896 28.8711 6.47783 28.8711C6.4767 28.8711 6.47558 28.8711 6.47445 28.8711C6.47332 28.8711 6.4722 28.8711 6.47107 28.8711C6.46995 28.8711 6.46882 28.8711 6.46769 28.8711C6.46657 28.8711 6.46544 28.8711 6.46432 28.8711C6.46319 28.8711 6.46206 28.8711 6.46094 28.8711C6.45981 28.8711 6.45868 28.8711 6.45756 28.8711C6.45643 28.8711 6.45531 28.8711 6.45418 28.8711C6.45305 28.8711 6.45193 28.8711 6.4508 28.8711C6.44968 28.8711 6.44855 28.8711 6.44742 28.8711C6.4463 28.8711 6.44517 28.8711 6.44404 28.8711C6.44292 28.8711 6.44179 28.8711 6.44067 28.8711C6.43954 28.8711 6.43841 28.8711 6.43729 28.8711C6.43616 28.8711 6.43504 28.8711 6.43391 28.8711C6.43278 28.8711 6.43166 28.8711 6.43053 28.8711C6.4294 28.8711 6.42828 28.8711 6.42715 28.8711C6.42603 28.8711 6.4249 28.8711 6.42377 28.8711C6.42265 28.8711 6.42152 28.8711 6.4204 28.8711C6.41927 28.8711 6.41814 28.8711 6.41702 28.8711C6.41589 28.8711 6.41477 28.8711 6.41364 28.8711C6.41251 28.8711 6.41139 28.8711 6.41026 28.8711C6.40913 28.8711 6.40801 28.8711 6.40688 28.8711C6.40576 28.8711 6.40463 28.8711 6.4035 28.8711C6.40238 28.8711 6.40125 28.8711 6.40013 28.8711C6.399 28.8711 6.39787 28.8711 6.39675 28.8711C6.39562 28.8711 6.39449 28.8711 6.39337 28.8711C6.39224 28.8711 6.39112 28.8711 6.38999 28.8711C6.38886 28.8711 6.38774 28.8711 6.38661 28.8711C6.38549 28.8711 6.38436 28.8711 6.38323 28.8711C6.38211 28.8711 6.38098 28.8711 6.37986 28.8711C6.37873 28.8711 6.3776 28.8711 6.37648 28.8711C6.37535 28.8711 6.37422 28.8711 6.3731 28.8711C6.37197 28.8711 6.37085 28.8711 6.36972 28.8711C6.36859 28.8711 6.36747 28.8711 6.36634 28.8711C6.36522 28.8711 6.36409 28.8711 6.36296 28.8711C6.36184 28.8711 6.36071 28.8711 6.35958 28.8711C6.35846 28.8711 6.35733 28.8711 6.35621 28.8711C6.35508 28.8711 6.35395 28.8711 6.35283 28.8711C6.3517 28.8711 6.35058 28.8711 6.34945 28.8711C6.34832 28.8711 6.3472 28.8711 6.34607 28.8711C6.34495 28.8711 6.34382 28.8711 6.34269 28.8711C6.34157 28.8711 6.34044 28.8711 6.33931 28.8711C6.33819 28.8711 6.33706 28.8711 6.33594 28.8711C6.33481 28.8711 6.33368 28.8711 6.33256 28.8711C6.33143 28.8711 6.33031 28.8711 6.32918 28.8711C6.32805 28.8711 6.32693 28.8711 6.3258 28.8711C6.32468 28.8711 6.32355 28.8711 6.32242 28.8711C6.3213 28.8711 6.32017 28.8711 6.31904 28.8711C6.31792 28.8711 6.31679 28.8711 6.31567 28.8711C6.31454 28.8711 6.31341 28.8711 6.31229 28.8711C6.31116 28.8711 6.31004 28.8711 6.30891 28.8711C6.30778 28.8711 6.30666 28.8711 6.30553 28.8711C6.30441 28.8711 6.30328 28.8711 6.30215 28.8711C6.30103 28.8711 6.2999 28.8711 6.29877 28.8711C6.29765 28.8711 6.29652 28.8711 6.2954 28.8711C6.29427 28.8711 6.29314 28.8711 6.29202 28.8711C6.29089 28.8711 6.28977 28.8711 6.28864 28.8711C6.28751 28.8711 6.28639 28.8711 6.28526 28.8711C6.28413 28.8711 6.28301 28.8711 6.28188 28.8711C6.28076 28.8711 6.27963 28.8711 6.2785 28.8711C6.27738 28.8711 6.27625 28.8711 6.27513 28.8711C6.274 28.8711 6.27287 28.8711 6.27175 28.8711C6.27062 28.8711 6.2695 28.8711 6.26837 28.8711C6.26724 28.8711 6.26612 28.8711 6.26499 28.8711C6.26386 28.8711 6.26274 28.8711 6.26161 28.8711C6.26049 28.8711 6.25936 28.8711 6.25823 28.8711C6.25711 28.8711 6.25598 28.8711 6.25486 28.8711C6.25373 28.8711 6.2526 28.8711 6.25148 28.8711C6.25035 28.8711 6.24923 28.8711 6.2481 28.8711C6.24697 28.8711 6.24585 28.8711 6.24472 28.8711C6.2436 28.8711 6.24247 28.8711 6.24134 28.8711C6.24022 28.8711 6.23909 28.8711 6.23796 28.8711C6.23684 28.8711 6.23571 28.8711 6.23459 28.8711C6.23346 28.8711 6.23233 28.8711 6.23121 28.8711C6.23008 28.8711 6.22896 28.8711 6.22783 28.8711C6.2267 28.8711 6.22558 28.8711 6.22445 28.8711C6.22333 28.8711 6.2222 28.8711 6.22107 28.8711C6.21995 28.8711 6.21882 28.8711 6.2177 28.8711C6.21657 28.8711 6.21544 28.8711 6.21432 28.8711C6.21319 28.8711 6.21206 28.8711 6.21094 28.8711C6.20981 28.8711 6.20869 28.8711 6.20756 28.8711C6.20643 28.8711 6.20531 28.8711 6.20418 28.8711C6.20306 28.8711 6.20193 28.8711 6.2008 28.8711C6.19968 28.8711 6.19855 28.8711 6.19743 28.8711C6.1963 28.8711 6.19517 28.8711 6.19405 28.8711C6.19292 28.8711 6.19179 28.8711 6.19067 28.8711C6.18954 28.8711 6.18842 28.8711 6.18729 28.8711C6.18616 28.8711 6.18504 28.8711 6.18391 28.8711C6.18279 28.8711 6.18166 28.8711 6.18053 28.8711C6.17941 28.8711 6.17828 28.8711 6.17716 28.8711C6.17603 28.8711 6.1749 28.8711 6.17378 28.8711C6.17265 28.8711 6.17153 28.8711 6.1704 28.8711C6.16927 28.8711 6.16815 28.8711 6.16702 28.8711C6.16589 28.8711 6.16477 28.8711 6.16364 28.8711C6.16252 28.8711 6.16139 28.8711 6.16026 28.8711C6.15914 28.8711 6.15801 28.8711 6.15689 28.8711C6.15576 28.8711 6.15463 28.8711 6.15351 28.8711C6.15238 28.8711 6.15126 28.8711 6.15013 28.8711C6.149 28.8711 6.14788 28.8711 6.14675 28.8711C6.14563 28.8711 6.1445 28.8711 6.14337 28.8711C6.14225 28.8711 6.14112 28.8711 6.14 28.8711C6.13887 28.8711 6.13774 28.8711 6.13662 28.8711C6.13549 28.8711 6.13436 28.8711 6.13324 28.8711C6.13211 28.8711 6.13099 28.8711 6.12986 28.8711C6.12873 28.8711 6.12761 28.8711 6.12648 28.8711C6.12536 28.8711 6.12423 28.8711 6.1231 28.8711C6.12198 28.8711 6.12085 28.8711 6.11973 28.8711C6.1186 28.8711 6.11747 28.8711 6.11635 28.8711C6.11522 28.8711 6.1141 28.8711 6.11297 28.8711C6.11184 28.8711 6.11072 28.8711 6.10959 28.8711C6.10846 28.8711 6.10734 28.8711 6.10621 28.8711C6.10509 28.8711 6.10396 28.8711 6.10283 28.8711C6.10171 28.8711 6.10058 28.8711 6.09946 28.8711C6.09833 28.8711 6.0972 28.8711 6.09608 28.8711C6.09495 28.8711 6.09383 28.8711 6.0927 28.8711C6.09157 28.8711 6.09045 28.8711 6.08932 28.8711C6.0882 28.8711 6.08707 28.8711 6.08594 28.8711C6.08482 28.8711 6.08369 28.8711 6.08256 28.8711C6.08144 28.8711 6.08031 28.8711 6.07919 28.8711C6.07806 28.8711 6.07693 28.8711 6.07581 28.8711C6.07468 28.8711 6.07356 28.8711 6.07243 28.8711C6.0713 28.8711 6.07018 28.8711 6.06905 28.8711C6.06793 28.8711 6.0668 28.8711 6.06567 28.8711C6.06455 28.8711 6.06342 28.8711 6.0623 28.8711C6.06117 28.8711 6.06004 28.8711 6.05892 28.8711C6.05779 28.8711 6.05666 28.8711 6.05554 28.8711C6.05441 28.8711 6.05329 28.8711 6.05216 28.8711C6.05103 28.8711 6.04991 28.8711 6.04878 28.8711C6.04766 28.8711 6.04653 28.8711 6.0454 28.8711C6.04428 28.8711 6.04315 28.8711 6.04203 28.8711C6.0409 28.8711 6.03977 28.8711 6.03865 28.8711C6.03752 28.8711 6.0364 28.8711 6.03527 28.8711C6.03414 28.8711 6.03302 28.8711 6.03189 28.8711C6.03077 28.8711 6.02964 28.8711 6.02851 28.8711C6.02739 28.8711 6.02626 28.8711 6.02514 28.8711C6.02401 28.8711 6.02288 28.8711 6.02176 28.8711C6.02063 28.8711 6.0195 28.8711 6.01838 28.8711C6.01725 28.8711 6.01613 28.8711 6.015 28.8711C6.01387 28.8711 6.01275 28.8711 6.01162 28.8711C6.0105 28.8711 6.00937 28.8711 6.00824 28.8711C6.00712 28.8711 6.00599 28.8711 6.00487 28.8711C6.00374 28.8711 6.00261 28.8711 6.00149 28.8711C6.00036 28.8711 5.99924 28.8711 5.99811 28.8711C5.99698 28.8711 5.99586 28.8711 5.99473 28.8711C5.99361 28.8711 5.99248 28.8711 5.99135 28.8711C5.99023 28.8711 5.9891 28.8711 5.98797 28.8711C5.98685 28.8711 5.98572 28.8711 5.9846 28.8711C5.98347 28.8711 5.98234 28.8711 5.98122 28.8711C5.98009 28.8711 5.97897 28.8711 5.97784 28.8711C5.97671 28.8711 5.97559 28.8711 5.97446 28.8711C5.97334 28.8711 5.97221 28.8711 5.97108 28.8711C5.96996 28.8711 5.96883 28.8711 5.96771 28.8711C5.96658 28.8711 5.96545 28.8711 5.96433 28.8711C5.9632 28.8711 5.96207 28.8711 5.96095 28.8711C5.95982 28.8711 5.9587 28.8711 5.95757 28.8711C5.95644 28.8711 5.95532 28.8711 5.95419 28.8711C5.95307 28.8711 5.95194 28.8711 5.95081 28.8711C5.94969 28.8711 5.94856 28.8711 5.94744 28.8711C5.94631 28.8711 5.94518 28.8711 5.94406 28.8711C5.94293 28.8711 5.94181 28.8711 5.94068 28.8711C5.93955 28.8711 5.93843 28.8711 5.9373 28.8711C5.93618 28.8711 5.93505 28.8711 5.93392 28.8711C5.9328 28.8711 5.93167 28.8711 5.93055 28.8711C5.92942 28.8711 5.92829 28.8711 5.92717 28.8711C5.92604 28.8711 5.92491 28.8711 5.92379 28.8711C5.92266 28.8711 5.92154 28.8711 5.92041 28.8711C5.91928 28.8711 5.91816 28.8711 5.91703 28.8711C5.91591 28.8711 5.91478 28.8711 5.91365 28.8711C5.91253 28.8711 5.9114 28.8711 5.91028 28.8711C5.90915 28.8711 5.90802 28.8711 5.9069 28.8711C5.90577 28.8711 5.90465 28.8711 5.90352 28.8711C5.90239 28.8711 5.90127 28.8711 5.90014 28.8711C5.89902 28.8711 5.89789 28.8711 5.89676 28.8711C5.89564 28.8711 5.89451 28.8711 5.89339 28.8711C5.89226 28.8711 5.89113 28.8711 5.89001 28.8711C5.88888 28.8711 5.88775 28.8711 5.88663 28.8711C5.8855 28.8711 5.88438 28.8711 5.88325 28.8711C5.88212 28.8711 5.881 28.8711 5.87987 28.8711C5.87875 28.8711 5.87762 28.8711 5.87649 28.8711C5.87537 28.8711 5.87424 28.8711 5.87312 28.8711C5.87199 28.8711 5.87086 28.8711 5.86974 28.8711C5.86861 28.8711 5.86749 28.8711 5.86636 28.8711C5.86523 28.8711 5.86411 28.8711 5.86298 28.8711C5.86186 28.8711 5.86073 28.8711 5.8596 28.8711C5.85848 28.8711 5.85735 28.8711 5.85623 28.8711C5.8551 28.8711 5.85397 28.8711 5.85285 28.8711C5.85172 28.8711 5.85059 28.8711 5.84947 28.8711C5.84834 28.8711 5.84722 28.8711 5.84609 28.8711V31.5711C5.84722 31.5711 5.84834 31.5711 5.84947 31.5711C5.85059 31.5711 5.85172 31.5711 5.85285 31.5711C5.85397 31.5711 5.8551 31.5711 5.85623 31.5711C5.85735 31.5711 5.85848 31.5711 5.8596 31.5711C5.86073 31.5711 5.86186 31.5711 5.86298 31.5711C5.86411 31.5711 5.86523 31.5711 5.86636 31.5711C5.86749 31.5711 5.86861 31.5711 5.86974 31.5711C5.87086 31.5711 5.87199 31.5711 5.87312 31.5711C5.87424 31.5711 5.87537 31.5711 5.87649 31.5711C5.87762 31.5711 5.87875 31.5711 5.87987 31.5711C5.881 31.5711 5.88212 31.5711 5.88325 31.5711C5.88438 31.5711 5.8855 31.5711 5.88663 31.5711C5.88775 31.5711 5.88888 31.5711 5.89001 31.5711C5.89113 31.5711 5.89226 31.5711 5.89339 31.5711C5.89451 31.5711 5.89564 31.5711 5.89676 31.5711C5.89789 31.5711 5.89902 31.5711 5.90014 31.5711C5.90127 31.5711 5.90239 31.5711 5.90352 31.5711C5.90465 31.5711 5.90577 31.5711 5.9069 31.5711C5.90802 31.5711 5.90915 31.5711 5.91028 31.5711C5.9114 31.5711 5.91253 31.5711 5.91365 31.5711C5.91478 31.5711 5.91591 31.5711 5.91703 31.5711C5.91816 31.5711 5.91928 31.5711 5.92041 31.5711C5.92154 31.5711 5.92266 31.5711 5.92379 31.5711C5.92491 31.5711 5.92604 31.5711 5.92717 31.5711C5.92829 31.5711 5.92942 31.5711 5.93055 31.5711C5.93167 31.5711 5.9328 31.5711 5.93392 31.5711C5.93505 31.5711 5.93618 31.5711 5.9373 31.5711C5.93843 31.5711 5.93955 31.5711 5.94068 31.5711C5.94181 31.5711 5.94293 31.5711 5.94406 31.5711C5.94518 31.5711 5.94631 31.5711 5.94744 31.5711C5.94856 31.5711 5.94969 31.5711 5.95081 31.5711C5.95194 31.5711 5.95307 31.5711 5.95419 31.5711C5.95532 31.5711 5.95644 31.5711 5.95757 31.5711C5.9587 31.5711 5.95982 31.5711 5.96095 31.5711C5.96207 31.5711 5.9632 31.5711 5.96433 31.5711C5.96545 31.5711 5.96658 31.5711 5.96771 31.5711C5.96883 31.5711 5.96996 31.5711 5.97108 31.5711C5.97221 31.5711 5.97334 31.5711 5.97446 31.5711C5.97559 31.5711 5.97671 31.5711 5.97784 31.5711C5.97897 31.5711 5.98009 31.5711 5.98122 31.5711C5.98234 31.5711 5.98347 31.5711 5.9846 31.5711C5.98572 31.5711 5.98685 31.5711 5.98797 31.5711C5.9891 31.5711 5.99023 31.5711 5.99135 31.5711C5.99248 31.5711 5.99361 31.5711 5.99473 31.5711C5.99586 31.5711 5.99698 31.5711 5.99811 31.5711C5.99924 31.5711 6.00036 31.5711 6.00149 31.5711C6.00261 31.5711 6.00374 31.5711 6.00487 31.5711C6.00599 31.5711 6.00712 31.5711 6.00824 31.5711C6.00937 31.5711 6.0105 31.5711 6.01162 31.5711C6.01275 31.5711 6.01387 31.5711 6.015 31.5711C6.01613 31.5711 6.01725 31.5711 6.01838 31.5711C6.0195 31.5711 6.02063 31.5711 6.02176 31.5711C6.02288 31.5711 6.02401 31.5711 6.02514 31.5711C6.02626 31.5711 6.02739 31.5711 6.02851 31.5711C6.02964 31.5711 6.03077 31.5711 6.03189 31.5711C6.03302 31.5711 6.03414 31.5711 6.03527 31.5711C6.0364 31.5711 6.03752 31.5711 6.03865 31.5711C6.03977 31.5711 6.0409 31.5711 6.04203 31.5711C6.04315 31.5711 6.04428 31.5711 6.0454 31.5711C6.04653 31.5711 6.04766 31.5711 6.04878 31.5711C6.04991 31.5711 6.05103 31.5711 6.05216 31.5711C6.05329 31.5711 6.05441 31.5711 6.05554 31.5711C6.05666 31.5711 6.05779 31.5711 6.05892 31.5711C6.06004 31.5711 6.06117 31.5711 6.0623 31.5711C6.06342 31.5711 6.06455 31.5711 6.06567 31.5711C6.0668 31.5711 6.06793 31.5711 6.06905 31.5711C6.07018 31.5711 6.0713 31.5711 6.07243 31.5711C6.07356 31.5711 6.07468 31.5711 6.07581 31.5711C6.07693 31.5711 6.07806 31.5711 6.07919 31.5711C6.08031 31.5711 6.08144 31.5711 6.08256 31.5711C6.08369 31.5711 6.08482 31.5711 6.08594 31.5711C6.08707 31.5711 6.0882 31.5711 6.08932 31.5711C6.09045 31.5711 6.09157 31.5711 6.0927 31.5711C6.09383 31.5711 6.09495 31.5711 6.09608 31.5711C6.0972 31.5711 6.09833 31.5711 6.09946 31.5711C6.10058 31.5711 6.10171 31.5711 6.10283 31.5711C6.10396 31.5711 6.10509 31.5711 6.10621 31.5711C6.10734 31.5711 6.10846 31.5711 6.10959 31.5711C6.11072 31.5711 6.11184 31.5711 6.11297 31.5711C6.1141 31.5711 6.11522 31.5711 6.11635 31.5711C6.11747 31.5711 6.1186 31.5711 6.11973 31.5711C6.12085 31.5711 6.12198 31.5711 6.1231 31.5711C6.12423 31.5711 6.12536 31.5711 6.12648 31.5711C6.12761 31.5711 6.12873 31.5711 6.12986 31.5711C6.13099 31.5711 6.13211 31.5711 6.13324 31.5711C6.13436 31.5711 6.13549 31.5711 6.13662 31.5711C6.13774 31.5711 6.13887 31.5711 6.14 31.5711C6.14112 31.5711 6.14225 31.5711 6.14337 31.5711C6.1445 31.5711 6.14563 31.5711 6.14675 31.5711C6.14788 31.5711 6.149 31.5711 6.15013 31.5711C6.15126 31.5711 6.15238 31.5711 6.15351 31.5711C6.15463 31.5711 6.15576 31.5711 6.15689 31.5711C6.15801 31.5711 6.15914 31.5711 6.16026 31.5711C6.16139 31.5711 6.16252 31.5711 6.16364 31.5711C6.16477 31.5711 6.16589 31.5711 6.16702 31.5711C6.16815 31.5711 6.16927 31.5711 6.1704 31.5711C6.17153 31.5711 6.17265 31.5711 6.17378 31.5711C6.1749 31.5711 6.17603 31.5711 6.17716 31.5711C6.17828 31.5711 6.17941 31.5711 6.18053 31.5711C6.18166 31.5711 6.18279 31.5711 6.18391 31.5711C6.18504 31.5711 6.18616 31.5711 6.18729 31.5711C6.18842 31.5711 6.18954 31.5711 6.19067 31.5711C6.19179 31.5711 6.19292 31.5711 6.19405 31.5711C6.19517 31.5711 6.1963 31.5711 6.19743 31.5711C6.19855 31.5711 6.19968 31.5711 6.2008 31.5711C6.20193 31.5711 6.20306 31.5711 6.20418 31.5711C6.20531 31.5711 6.20643 31.5711 6.20756 31.5711C6.20869 31.5711 6.20981 31.5711 6.21094 31.5711C6.21206 31.5711 6.21319 31.5711 6.21432 31.5711C6.21544 31.5711 6.21657 31.5711 6.2177 31.5711C6.21882 31.5711 6.21995 31.5711 6.22107 31.5711C6.2222 31.5711 6.22333 31.5711 6.22445 31.5711C6.22558 31.5711 6.2267 31.5711 6.22783 31.5711C6.22896 31.5711 6.23008 31.5711 6.23121 31.5711C6.23233 31.5711 6.23346 31.5711 6.23459 31.5711C6.23571 31.5711 6.23684 31.5711 6.23796 31.5711C6.23909 31.5711 6.24022 31.5711 6.24134 31.5711C6.24247 31.5711 6.2436 31.5711 6.24472 31.5711C6.24585 31.5711 6.24697 31.5711 6.2481 31.5711C6.24923 31.5711 6.25035 31.5711 6.25148 31.5711C6.2526 31.5711 6.25373 31.5711 6.25486 31.5711C6.25598 31.5711 6.25711 31.5711 6.25823 31.5711C6.25936 31.5711 6.26049 31.5711 6.26161 31.5711C6.26274 31.5711 6.26386 31.5711 6.26499 31.5711C6.26612 31.5711 6.26724 31.5711 6.26837 31.5711C6.2695 31.5711 6.27062 31.5711 6.27175 31.5711C6.27287 31.5711 6.274 31.5711 6.27513 31.5711C6.27625 31.5711 6.27738 31.5711 6.2785 31.5711C6.27963 31.5711 6.28076 31.5711 6.28188 31.5711C6.28301 31.5711 6.28413 31.5711 6.28526 31.5711C6.28639 31.5711 6.28751 31.5711 6.28864 31.5711C6.28977 31.5711 6.29089 31.5711 6.29202 31.5711C6.29314 31.5711 6.29427 31.5711 6.2954 31.5711C6.29652 31.5711 6.29765 31.5711 6.29877 31.5711C6.2999 31.5711 6.30103 31.5711 6.30215 31.5711C6.30328 31.5711 6.30441 31.5711 6.30553 31.5711C6.30666 31.5711 6.30778 31.5711 6.30891 31.5711C6.31004 31.5711 6.31116 31.5711 6.31229 31.5711C6.31341 31.5711 6.31454 31.5711 6.31567 31.5711C6.31679 31.5711 6.31792 31.5711 6.31904 31.5711C6.32017 31.5711 6.3213 31.5711 6.32242 31.5711C6.32355 31.5711 6.32468 31.5711 6.3258 31.5711C6.32693 31.5711 6.32805 31.5711 6.32918 31.5711C6.33031 31.5711 6.33143 31.5711 6.33256 31.5711C6.33368 31.5711 6.33481 31.5711 6.33594 31.5711C6.33706 31.5711 6.33819 31.5711 6.33931 31.5711C6.34044 31.5711 6.34157 31.5711 6.34269 31.5711C6.34382 31.5711 6.34495 31.5711 6.34607 31.5711C6.3472 31.5711 6.34832 31.5711 6.34945 31.5711C6.35058 31.5711 6.3517 31.5711 6.35283 31.5711C6.35395 31.5711 6.35508 31.5711 6.35621 31.5711C6.35733 31.5711 6.35846 31.5711 6.35958 31.5711C6.36071 31.5711 6.36184 31.5711 6.36296 31.5711C6.36409 31.5711 6.36522 31.5711 6.36634 31.5711C6.36747 31.5711 6.36859 31.5711 6.36972 31.5711C6.37085 31.5711 6.37197 31.5711 6.3731 31.5711C6.37422 31.5711 6.37535 31.5711 6.37648 31.5711C6.3776 31.5711 6.37873 31.5711 6.37986 31.5711C6.38098 31.5711 6.38211 31.5711 6.38323 31.5711C6.38436 31.5711 6.38549 31.5711 6.38661 31.5711C6.38774 31.5711 6.38886 31.5711 6.38999 31.5711C6.39112 31.5711 6.39224 31.5711 6.39337 31.5711C6.39449 31.5711 6.39562 31.5711 6.39675 31.5711C6.39787 31.5711 6.399 31.5711 6.40013 31.5711C6.40125 31.5711 6.40238 31.5711 6.4035 31.5711C6.40463 31.5711 6.40576 31.5711 6.40688 31.5711C6.40801 31.5711 6.40913 31.5711 6.41026 31.5711C6.41139 31.5711 6.41251 31.5711 6.41364 31.5711C6.41477 31.5711 6.41589 31.5711 6.41702 31.5711C6.41814 31.5711 6.41927 31.5711 6.4204 31.5711C6.42152 31.5711 6.42265 31.5711 6.42377 31.5711C6.4249 31.5711 6.42603 31.5711 6.42715 31.5711C6.42828 31.5711 6.4294 31.5711 6.43053 31.5711C6.43166 31.5711 6.43278 31.5711 6.43391 31.5711C6.43504 31.5711 6.43616 31.5711 6.43729 31.5711C6.43841 31.5711 6.43954 31.5711 6.44067 31.5711C6.44179 31.5711 6.44292 31.5711 6.44404 31.5711C6.44517 31.5711 6.4463 31.5711 6.44742 31.5711C6.44855 31.5711 6.44968 31.5711 6.4508 31.5711C6.45193 31.5711 6.45305 31.5711 6.45418 31.5711C6.45531 31.5711 6.45643 31.5711 6.45756 31.5711C6.45868 31.5711 6.45981 31.5711 6.46094 31.5711C6.46206 31.5711 6.46319 31.5711 6.46432 31.5711C6.46544 31.5711 6.46657 31.5711 6.46769 31.5711C6.46882 31.5711 6.46995 31.5711 6.47107 31.5711C6.4722 31.5711 6.47332 31.5711 6.47445 31.5711C6.47558 31.5711 6.4767 31.5711 6.47783 31.5711C6.47896 31.5711 6.48008 31.5711 6.48121 31.5711C6.48233 31.5711 6.48346 31.5711 6.48459 31.5711C6.48571 31.5711 6.48684 31.5711 6.48796 31.5711C6.48909 31.5711 6.49022 31.5711 6.49134 31.5711C6.49247 31.5711 6.4936 31.5711 6.49472 31.5711C6.49585 31.5711 6.49697 31.5711 6.4981 31.5711C6.49923 31.5711 6.50035 31.5711 6.50148 31.5711C6.5026 31.5711 6.50373 31.5711 6.50486 31.5711C6.50598 31.5711 6.50711 31.5711 6.50824 31.5711C6.50936 31.5711 6.51049 31.5711 6.51161 31.5711C6.51274 31.5711 6.51387 31.5711 6.51499 31.5711C6.51612 31.5711 6.51724 31.5711 6.51837 31.5711C6.5195 31.5711 6.52062 31.5711 6.52175 31.5711C6.52288 31.5711 6.524 31.5711 6.52513 31.5711C6.52625 31.5711 6.52738 31.5711 6.52851 31.5711C6.52963 31.5711 6.53076 31.5711 6.53189 31.5711C6.53301 31.5711 6.53414 31.5711 6.53526 31.5711C6.53639 31.5711 6.53752 31.5711 6.53864 31.5711C6.53977 31.5711 6.54089 31.5711 6.54202 31.5711C6.54315 31.5711 6.54427 31.5711 6.5454 31.5711C6.54653 31.5711 6.54765 31.5711 6.54878 31.5711C6.5499 31.5711 6.55103 31.5711 6.55216 31.5711C6.55328 31.5711 6.55441 31.5711 6.55553 31.5711C6.55666 31.5711 6.55779 31.5711 6.55891 31.5711C6.56004 31.5711 6.56117 31.5711 6.56229 31.5711C6.56342 31.5711 6.56454 31.5711 6.56567 31.5711C6.5668 31.5711 6.56792 31.5711 6.56905 31.5711C6.57018 31.5711 6.5713 31.5711 6.57243 31.5711C6.57355 31.5711 6.57468 31.5711 6.57581 31.5711C6.57693 31.5711 6.57806 31.5711 6.57918 31.5711C6.58031 31.5711 6.58144 31.5711 6.58256 31.5711C6.58369 31.5711 6.58482 31.5711 6.58594 31.5711C6.58707 31.5711 6.58819 31.5711 6.58932 31.5711C6.59045 31.5711 6.59157 31.5711 6.5927 31.5711C6.59382 31.5711 6.59495 31.5711 6.59608 31.5711C6.5972 31.5711 6.59833 31.5711 6.59946 31.5711C6.60058 31.5711 6.60171 31.5711 6.60283 31.5711C6.60396 31.5711 6.60509 31.5711 6.60621 31.5711C6.60734 31.5711 6.60847 31.5711 6.60959 31.5711C6.61072 31.5711 6.61184 31.5711 6.61297 31.5711C6.6141 31.5711 6.61522 31.5711 6.61635 31.5711C6.61748 31.5711 6.6186 31.5711 6.61973 31.5711C6.62085 31.5711 6.62198 31.5711 6.62311 31.5711C6.62423 31.5711 6.62536 31.5711 6.62648 31.5711C6.62761 31.5711 6.62874 31.5711 6.62986 31.5711C6.63099 31.5711 6.63212 31.5711 6.63324 31.5711C6.63437 31.5711 6.63549 31.5711 6.63662 31.5711C6.63775 31.5711 6.63887 31.5711 6.64 31.5711C6.64113 31.5711 6.64225 31.5711 6.64338 31.5711C6.6445 31.5711 6.64563 31.5711 6.64676 31.5711C6.64788 31.5711 6.64901 31.5711 6.65013 31.5711C6.65126 31.5711 6.65239 31.5711 6.65351 31.5711C6.65464 31.5711 6.65577 31.5711 6.65689 31.5711C6.65802 31.5711 6.65914 31.5711 6.66027 31.5711C6.6614 31.5711 6.66252 31.5711 6.66365 31.5711C6.66478 31.5711 6.6659 31.5711 6.66703 31.5711C6.66815 31.5711 6.66928 31.5711 6.67041 31.5711C6.67153 31.5711 6.67266 31.5711 6.67379 31.5711C6.67491 31.5711 6.67604 31.5711 6.67716 31.5711C6.67829 31.5711 6.67942 31.5711 6.68054 31.5711C6.68167 31.5711 6.6828 31.5711 6.68392 31.5711C6.68505 31.5711 6.68617 31.5711 6.6873 31.5711C6.68843 31.5711 6.68955 31.5711 6.69068 31.5711C6.6918 31.5711 6.69293 31.5711 6.69406 31.5711C6.69518 31.5711 6.69631 31.5711 6.69744 31.5711C6.69856 31.5711 6.69969 31.5711 6.70081 31.5711C6.70194 31.5711 6.70307 31.5711 6.70419 31.5711C6.70532 31.5711 6.70645 31.5711 6.70757 31.5711C6.7087 31.5711 6.70982 31.5711 6.71095 31.5711C6.71208 31.5711 6.7132 31.5711 6.71433 31.5711C6.71546 31.5711 6.71658 31.5711 6.71771 31.5711C6.71883 31.5711 6.71996 31.5711 6.72109 31.5711C6.72221 31.5711 6.72334 31.5711 6.72447 31.5711C6.72559 31.5711 6.72672 31.5711 6.72784 31.5711C6.72897 31.5711 6.7301 31.5711 6.73122 31.5711C6.73235 31.5711 6.73348 31.5711 6.7346 31.5711C6.73573 31.5711 6.73685 31.5711 6.73798 31.5711C6.73911 31.5711 6.74023 31.5711 6.74136 31.5711C6.74249 31.5711 6.74361 31.5711 6.74474 31.5711C6.74586 31.5711 6.74699 31.5711 6.74812 31.5711C6.74924 31.5711 6.75037 31.5711 6.7515 31.5711C6.75262 31.5711 6.75375 31.5711 6.75487 31.5711C6.756 31.5711 6.75713 31.5711 6.75825 31.5711C6.75938 31.5711 6.76051 31.5711 6.76163 31.5711C6.76276 31.5711 6.76388 31.5711 6.76501 31.5711C6.76614 31.5711 6.76726 31.5711 6.76839 31.5711C6.76952 31.5711 6.77064 31.5711 6.77177 31.5711C6.77289 31.5711 6.77402 31.5711 6.77515 31.5711C6.77627 31.5711 6.7774 31.5711 6.77853 31.5711C6.77965 31.5711 6.78078 31.5711 6.7819 31.5711C6.78303 31.5711 6.78416 31.5711 6.78528 31.5711C6.78641 31.5711 6.78754 31.5711 6.78866 31.5711C6.78979 31.5711 6.79091 31.5711 6.79204 31.5711C6.79317 31.5711 6.79429 31.5711 6.79542 31.5711C6.79655 31.5711 6.79767 31.5711 6.7988 31.5711C6.79992 31.5711 6.80105 31.5711 6.80218 31.5711C6.8033 31.5711 6.80443 31.5711 6.80556 31.5711C6.80668 31.5711 6.80781 31.5711 6.80893 31.5711C6.81006 31.5711 6.81119 31.5711 6.81231 31.5711C6.81344 31.5711 6.81457 31.5711 6.81569 31.5711C6.81682 31.5711 6.81794 31.5711 6.81907 31.5711C6.8202 31.5711 6.82132 31.5711 6.82245 31.5711C6.82358 31.5711 6.8247 31.5711 6.82583 31.5711C6.82695 31.5711 6.82808 31.5711 6.82921 31.5711C6.83033 31.5711 6.83146 31.5711 6.83259 31.5711C6.83371 31.5711 6.83484 31.5711 6.83597 31.5711C6.83709 31.5711 6.83822 31.5711 6.83934 31.5711C6.84047 31.5711 6.8416 31.5711 6.84272 31.5711C6.84385 31.5711 6.84498 31.5711 6.8461 31.5711C6.84723 31.5711 6.84835 31.5711 6.84948 31.5711C6.85061 31.5711 6.85173 31.5711 6.85286 31.5711C6.85399 31.5711 6.85511 31.5711 6.85624 31.5711C6.85736 31.5711 6.85849 31.5711 6.85962 31.5711C6.86074 31.5711 6.86187 31.5711 6.863 31.5711C6.86412 31.5711 6.86525 31.5711 6.86637 31.5711C6.8675 31.5711 6.86863 31.5711 6.86975 31.5711C6.87088 31.5711 6.87201 31.5711 6.87313 31.5711C6.87426 31.5711 6.87539 31.5711 6.87651 31.5711C6.87764 31.5711 6.87876 31.5711 6.87989 31.5711C6.88102 31.5711 6.88214 31.5711 6.88327 31.5711C6.8844 31.5711 6.88552 31.5711 6.88665 31.5711C6.88777 31.5711 6.8889 31.5711 6.89003 31.5711C6.89115 31.5711 6.89228 31.5711 6.89341 31.5711C6.89453 31.5711 6.89566 31.5711 6.89679 31.5711C6.89791 31.5711 6.89904 31.5711 6.90016 31.5711C6.90129 31.5711 6.90242 31.5711 6.90354 31.5711C6.90467 31.5711 6.9058 31.5711 6.90692 31.5711C6.90805 31.5711 6.90917 31.5711 6.9103 31.5711C6.91143 31.5711 6.91255 31.5711 6.91368 31.5711C6.91481 31.5711 6.91593 31.5711 6.91706 31.5711C6.91819 31.5711 6.91931 31.5711 6.92044 31.5711C6.92156 31.5711 6.92269 31.5711 6.92382 31.5711C6.92494 31.5711 6.92607 31.5711 6.9272 31.5711C6.92832 31.5711 6.92945 31.5711 6.93057 31.5711C6.9317 31.5711 6.93283 31.5711 6.93395 31.5711C6.93508 31.5711 6.93621 31.5711 6.93733 31.5711C6.93846 31.5711 6.93959 31.5711 6.94071 31.5711C6.94184 31.5711 6.94296 31.5711 6.94409 31.5711C6.94522 31.5711 6.94634 31.5711 6.94747 31.5711C6.9486 31.5711 6.94972 31.5711 6.95085 31.5711C6.95197 31.5711 6.9531 31.5711 6.95423 31.5711C6.95535 31.5711 6.95648 31.5711 6.95761 31.5711C6.95873 31.5711 6.95986 31.5711 6.96099 31.5711C6.96211 31.5711 6.96324 31.5711 6.96436 31.5711C6.96549 31.5711 6.96662 31.5711 6.96774 31.5711C6.96887 31.5711 6.97 31.5711 6.97112 31.5711C6.97225 31.5711 6.97338 31.5711 6.9745 31.5711C6.97563 31.5711 6.97675 31.5711 6.97788 31.5711C6.97901 31.5711 6.98013 31.5711 6.98126 31.5711C6.98239 31.5711 6.98351 31.5711 6.98464 31.5711C6.98576 31.5711 6.98689 31.5711 6.98802 31.5711C6.98914 31.5711 6.99027 31.5711 6.9914 31.5711C6.99252 31.5711 6.99365 31.5711 6.99478 31.5711C6.9959 31.5711 6.99703 31.5711 6.99816 31.5711C6.99928 31.5711 7.00041 31.5711 7.00153 31.5711C7.00266 31.5711 7.00379 31.5711 7.00491 31.5711C7.00604 31.5711 7.00717 31.5711 7.00829 31.5711C7.00942 31.5711 7.01055 31.5711 7.01167 31.5711C7.0128 31.5711 7.01392 31.5711 7.01505 31.5711C7.01618 31.5711 7.0173 31.5711 7.01843 31.5711C7.01956 31.5711 7.02068 31.5711 7.02181 31.5711C7.02293 31.5711 7.02406 31.5711 7.02519 31.5711C7.02631 31.5711 7.02744 31.5711 7.02857 31.5711C7.02969 31.5711 7.03082 31.5711 7.03195 31.5711C7.03307 31.5711 7.0342 31.5711 7.03533 31.5711C7.03645 31.5711 7.03758 31.5711 7.0387 31.5711C7.03983 31.5711 7.04096 31.5711 7.04208 31.5711C7.04321 31.5711 7.04434 31.5711 7.04546 31.5711C7.04659 31.5711 7.04772 31.5711 7.04884 31.5711C7.04997 31.5711 7.05109 31.5711 7.05222 31.5711C7.05335 31.5711 7.05447 31.5711 7.0556 31.5711C7.05673 31.5711 7.05785 31.5711 7.05898 31.5711C7.06011 31.5711 7.06123 31.5711 7.06236 31.5711C7.06349 31.5711 7.06461 31.5711 7.06574 31.5711C7.06686 31.5711 7.06799 31.5711 7.06912 31.5711C7.07024 31.5711 7.07137 31.5711 7.0725 31.5711C7.07362 31.5711 7.07475 31.5711 7.07588 31.5711C7.077 31.5711 7.07813 31.5711 7.07925 31.5711C7.08038 31.5711 7.08151 31.5711 7.08263 31.5711C7.08376 31.5711 7.08489 31.5711 7.08601 31.5711C7.08714 31.5711 7.08827 31.5711 7.08939 31.5711C7.09052 31.5711 7.09164 31.5711 7.09277 31.5711C7.0939 31.5711 7.09502 31.5711 7.09615 31.5711C7.09728 31.5711 7.0984 31.5711 7.09953 31.5711C7.10066 31.5711 7.10178 31.5711 7.10291 31.5711C7.10404 31.5711 7.10516 31.5711 7.10629 31.5711C7.10741 31.5711 7.10854 31.5711 7.10967 31.5711C7.11079 31.5711 7.11192 31.5711 7.11305 31.5711C7.11417 31.5711 7.1153 31.5711 7.11643 31.5711C7.11755 31.5711 7.11868 31.5711 7.11981 31.5711C7.12093 31.5711 7.12206 31.5711 7.12318 31.5711C7.12431 31.5711 7.12544 31.5711 7.12656 31.5711C7.12769 31.5711 7.12882 31.5711 7.12994 31.5711C7.13107 31.5711 7.1322 31.5711 7.13332 31.5711C7.13445 31.5711 7.13558 31.5711 7.1367 31.5711C7.13783 31.5711 7.13895 31.5711 7.14008 31.5711C7.14121 31.5711 7.14233 31.5711 7.14346 31.5711C7.14459 31.5711 7.14571 31.5711 7.14684 31.5711C7.14797 31.5711 7.14909 31.5711 7.15022 31.5711C7.15135 31.5711 7.15247 31.5711 7.1536 31.5711C7.15473 31.5711 7.15585 31.5711 7.15698 31.5711C7.1581 31.5711 7.15923 31.5711 7.16036 31.5711C7.16148 31.5711 7.16261 31.5711 7.16374 31.5711C7.16486 31.5711 7.16599 31.5711 7.16712 31.5711C7.16824 31.5711 7.16937 31.5711 7.1705 31.5711C7.17162 31.5711 7.17275 31.5711 7.17387 31.5711C7.175 31.5711 7.17613 31.5711 7.17725 31.5711C7.17838 31.5711 7.17951 31.5711 7.18063 31.5711C7.18176 31.5711 7.18289 31.5711 7.18401 31.5711C7.18514 31.5711 7.18627 31.5711 7.18739 31.5711C7.18852 31.5711 7.18964 31.5711 7.19077 31.5711C7.1919 31.5711 7.19302 31.5711 7.19415 31.5711C7.19528 31.5711 7.1964 31.5711 7.19753 31.5711C7.19866 31.5711 7.19978 31.5711 7.20091 31.5711C7.20204 31.5711 7.20316 31.5711 7.20429 31.5711C7.20542 31.5711 7.20654 31.5711 7.20767 31.5711C7.2088 31.5711 7.20992 31.5711 7.21105 31.5711C7.21217 31.5711 7.2133 31.5711 7.21443 31.5711C7.21555 31.5711 7.21668 31.5711 7.21781 31.5711C7.21893 31.5711 7.22006 31.5711 7.22119 31.5711C7.22231 31.5711 7.22344 31.5711 7.22457 31.5711C7.22569 31.5711 7.22682 31.5711 7.22795 31.5711C7.22907 31.5711 7.2302 31.5711 7.23132 31.5711C7.23245 31.5711 7.23358 31.5711 7.2347 31.5711C7.23583 31.5711 7.23696 31.5711 7.23808 31.5711C7.23921 31.5711 7.24034 31.5711 7.24146 31.5711C7.24259 31.5711 7.24372 31.5711 7.24484 31.5711C7.24597 31.5711 7.2471 31.5711 7.24822 31.5711C7.24935 31.5711 7.25047 31.5711 7.2516 31.5711C7.25273 31.5711 7.25385 31.5711 7.25498 31.5711C7.25611 31.5711 7.25723 31.5711 7.25836 31.5711C7.25949 31.5711 7.26061 31.5711 7.26174 31.5711C7.26287 31.5711 7.26399 31.5711 7.26512 31.5711C7.26625 31.5711 7.26737 31.5711 7.2685 31.5711C7.26963 31.5711 7.27075 31.5711 7.27188 31.5711C7.27301 31.5711 7.27413 31.5711 7.27526 31.5711C7.27638 31.5711 7.27751 31.5711 7.27864 31.5711C7.27976 31.5711 7.28089 31.5711 7.28202 31.5711C7.28314 31.5711 7.28427 31.5711 7.2854 31.5711C7.28652 31.5711 7.28765 31.5711 7.28878 31.5711C7.2899 31.5711 7.29103 31.5711 7.29216 31.5711C7.29328 31.5711 7.29441 31.5711 7.29554 31.5711C7.29666 31.5711 7.29779 31.5711 7.29892 31.5711C7.30004 31.5711 7.30117 31.5711 7.3023 31.5711C7.30342 31.5711 7.30455 31.5711 7.30567 31.5711C7.3068 31.5711 7.30793 31.5711 7.30905 31.5711C7.31018 31.5711 7.31131 31.5711 7.31243 31.5711C7.31356 31.5711 7.31469 31.5711 7.31581 31.5711C7.31694 31.5711 7.31807 31.5711 7.31919 31.5711C7.32032 31.5711 7.32145 31.5711 7.32257 31.5711C7.3237 31.5711 7.32483 31.5711 7.32595 31.5711C7.32708 31.5711 7.32821 31.5711 7.32933 31.5711C7.33046 31.5711 7.33159 31.5711 7.33271 31.5711C7.33384 31.5711 7.33496 31.5711 7.33609 31.5711C7.33722 31.5711 7.33834 31.5711 7.33947 31.5711C7.3406 31.5711 7.34172 31.5711 7.34285 31.5711C7.34398 31.5711 7.3451 31.5711 7.34623 31.5711C7.34736 31.5711 7.34848 31.5711 7.34961 31.5711C7.35074 31.5711 7.35186 31.5711 7.35299 31.5711C7.35412 31.5711 7.35524 31.5711 7.35637 31.5711C7.3575 31.5711 7.35862 31.5711 7.35975 31.5711C7.36088 31.5711 7.362 31.5711 7.36313 31.5711C7.36426 31.5711 7.36538 31.5711 7.36651 31.5711C7.36764 31.5711 7.36876 31.5711 7.36989 31.5711C7.37102 31.5711 7.37214 31.5711 7.37327 31.5711C7.37439 31.5711 7.37552 31.5711 7.37665 31.5711C7.37777 31.5711 7.3789 31.5711 7.38003 31.5711C7.38115 31.5711 7.38228 31.5711 7.38341 31.5711C7.38453 31.5711 7.38566 31.5711 7.38679 31.5711C7.38791 31.5711 7.38904 31.5711 7.39017 31.5711C7.39129 31.5711 7.39242 31.5711 7.39355 31.5711C7.39467 31.5711 7.3958 31.5711 7.39693 31.5711C7.39805 31.5711 7.39918 31.5711 7.40031 31.5711C7.40143 31.5711 7.40256 31.5711 7.40369 31.5711C7.40481 31.5711 7.40594 31.5711 7.40707 31.5711C7.40819 31.5711 7.40932 31.5711 7.41045 31.5711C7.41157 31.5711 7.4127 31.5711 7.41383 31.5711C7.41495 31.5711 7.41608 31.5711 7.41721 31.5711C7.41833 31.5711 7.41946 31.5711 7.42059 31.5711C7.42171 31.5711 7.42284 31.5711 7.42397 31.5711C7.42509 31.5711 7.42622 31.5711 7.42735 31.5711C7.42847 31.5711 7.4296 31.5711 7.43073 31.5711C7.43185 31.5711 7.43298 31.5711 7.4341 31.5711C7.43523 31.5711 7.43636 31.5711 7.43748 31.5711C7.43861 31.5711 7.43974 31.5711 7.44086 31.5711C7.44199 31.5711 7.44312 31.5711 7.44424 31.5711C7.44537 31.5711 7.4465 31.5711 7.44762 31.5711C7.44875 31.5711 7.44988 31.5711 7.451 31.5711C7.45213 31.5711 7.45326 31.5711 7.45438 31.5711C7.45551 31.5711 7.45664 31.5711 7.45776 31.5711C7.45889 31.5711 7.46002 31.5711 7.46114 31.5711C7.46227 31.5711 7.4634 31.5711 7.46452 31.5711C7.46565 31.5711 7.46678 31.5711 7.4679 31.5711C7.46903 31.5711 7.47016 31.5711 7.47128 31.5711C7.47241 31.5711 7.47354 31.5711 7.47466 31.5711C7.47579 31.5711 7.47692 31.5711 7.47804 31.5711C7.47917 31.5711 7.4803 31.5711 7.48142 31.5711C7.48255 31.5711 7.48368 31.5711 7.4848 31.5711C7.48593 31.5711 7.48706 31.5711 7.48818 31.5711C7.48931 31.5711 7.49044 31.5711 7.49156 31.5711C7.49269 31.5711 7.49382 31.5711 7.49494 31.5711C7.49607 31.5711 7.4972 31.5711 7.49832 31.5711C7.49945 31.5711 7.50058 31.5711 7.5017 31.5711C7.50283 31.5711 7.50396 31.5711 7.50508 31.5711C7.50621 31.5711 7.50734 31.5711 7.50846 31.5711C7.50959 31.5711 7.51072 31.5711 7.51184 31.5711C7.51297 31.5711 7.5141 31.5711 7.51522 31.5711C7.51635 31.5711 7.51748 31.5711 7.5186 31.5711C7.51973 31.5711 7.52086 31.5711 7.52198 31.5711C7.52311 31.5711 7.52424 31.5711 7.52536 31.5711C7.52649 31.5711 7.52762 31.5711 7.52874 31.5711C7.52987 31.5711 7.531 31.5711 7.53212 31.5711C7.53325 31.5711 7.53438 31.5711 7.5355 31.5711C7.53663 31.5711 7.53776 31.5711 7.53888 31.5711C7.54001 31.5711 7.54114 31.5711 7.54226 31.5711C7.54339 31.5711 7.54452 31.5711 7.54564 31.5711C7.54677 31.5711 7.5479 31.5711 7.54902 31.5711C7.55015 31.5711 7.55128 31.5711 7.5524 31.5711C7.55353 31.5711 7.55466 31.5711 7.55579 31.5711C7.55691 31.5711 7.55804 31.5711 7.55917 31.5711C7.56029 31.5711 7.56142 31.5711 7.56255 31.5711C7.56367 31.5711 7.5648 31.5711 7.56593 31.5711C7.56705 31.5711 7.56818 31.5711 7.56931 31.5711C7.57043 31.5711 7.57156 31.5711 7.57269 31.5711C7.57381 31.5711 7.57494 31.5711 7.57607 31.5711V28.8711ZM5.84609 28.8711C5.29204 28.8711 4.81957 28.8823 4.42342 28.8933C4.01688 28.9045 3.72001 28.9142 3.47519 28.914C3.22302 28.9138 3.11527 28.9016 3.07753 28.8943C3.05185 28.8893 3.19991 28.9124 3.35941 29.0635C3.52356 29.2191 3.55855 29.3756 3.55746 29.3708C3.55232 29.3482 3.53785 29.255 3.53387 29.0128C3.53003 28.7789 3.53599 28.4915 3.54282 28.0948C3.54947 27.7086 3.55622 27.2458 3.55139 26.7027L0.851493 26.7267C0.85601 27.2339 0.849757 27.6685 0.843216 28.0484C0.836856 28.4178 0.829443 28.7654 0.834237 29.0572C0.838894 29.3406 0.855073 29.6637 0.924764 29.9699C0.998504 30.294 1.15252 30.6919 1.50207 31.0232C1.84697 31.3501 2.2468 31.4832 2.56147 31.5445C2.86406 31.6034 3.18521 31.6137 3.47268 31.614C3.76751 31.6143 4.12103 31.6026 4.49781 31.5922C4.88498 31.5816 5.32877 31.5711 5.84609 31.5711V28.8711ZM11.6017 27.641C14.3538 30.1796 19.1246 34.9368 24.0512 39.0732C26.5237 41.1492 29.0807 43.1087 31.5017 44.5935C33.8874 46.0566 36.2923 47.155 38.4309 47.3295L38.6505 44.6385C37.1652 44.5173 35.208 43.6992 32.9133 42.2918C30.6538 40.9061 28.2119 39.0411 25.7873 37.0054C20.9195 32.9184 16.3023 28.3037 13.4323 25.6564L11.6017 27.641ZM38.4309 47.3295C38.9834 47.3746 39.8087 47.3577 40.6405 47.1489C41.4537 46.9448 42.4708 46.5054 43.1202 45.5464L40.8846 44.0325C40.7647 44.2095 40.4893 44.4031 39.9832 44.5302C39.4956 44.6525 38.9747 44.6649 38.6505 44.6385L38.4309 47.3295ZM32.8662 37.3259C33.0862 37.5396 33.5955 38.1168 34.3727 38.9789C35.1181 39.8057 36.0527 40.8286 37.0456 41.8363C38.034 42.8394 39.105 43.853 40.1243 44.6508C41.0814 45.3999 42.2089 46.1368 43.2782 46.296L43.6758 43.6255C43.3733 43.5804 42.7375 43.2674 41.7885 42.5246C40.9017 41.8305 39.9237 40.9103 38.9689 39.9412C38.0186 38.9768 37.1158 37.9893 36.3781 37.171C35.6722 36.3881 35.0528 35.6858 34.7472 35.3889L32.8662 37.3259ZM43.2516 46.2918C44.4421 46.4934 45.6748 46.3378 46.8528 45.6668C48.0069 45.0094 49.0139 43.9118 49.8871 42.3887L47.5447 41.0458C46.8295 42.2934 46.1287 42.9719 45.5164 43.3207C44.9279 43.656 44.3354 43.7369 43.7024 43.6297L43.2516 46.2918ZM39.3177 34.345C39.5377 34.5587 40.047 35.1359 40.8242 35.998C41.5696 36.8248 42.5042 37.8477 43.4971 38.8554C44.4855 39.8585 45.5565 40.8721 46.5758 41.6699C47.5329 42.419 48.6604 43.1559 49.7297 43.3151L50.1273 40.6446C49.8248 40.5995 49.189 40.2865 48.24 39.5437C47.3532 38.8496 46.3752 37.9294 45.4204 36.9603C44.4701 35.9959 43.5673 35.0084 42.8296 34.1901C42.1238 33.4072 41.5044 32.7049 41.1987 32.408L39.3177 34.345ZM49.7031 43.3109C50.8936 43.5125 52.1263 43.3569 53.3043 42.6859C54.4584 42.0285 55.4654 40.9309 56.3386 39.4078L53.9962 38.0649C53.281 39.3125 52.5802 39.991 51.9679 40.3399C51.3794 40.6751 50.7869 40.756 50.1539 40.6488L49.7031 43.3109ZM44.008 29.7418C45.6041 31.4636 47.9911 33.8991 50.2162 35.9353C51.3265 36.9514 52.4184 37.8883 53.3637 38.5907C53.8352 38.941 54.2938 39.2507 54.7162 39.485C55.1041 39.7002 55.5975 39.9307 56.1058 39.9823L56.3788 37.2962C56.4365 37.302 56.3392 37.2978 56.0261 37.124C55.7474 36.9694 55.3945 36.7359 54.9739 36.4234C54.135 35.8001 53.1201 34.9329 52.039 33.9435C49.8813 31.9689 47.5473 29.5884 45.9882 27.9063L44.008 29.7418ZM56.017 39.9703C57.8368 40.2783 59.5258 39.2532 60.4605 37.9134C61.4313 36.5219 61.7838 34.5259 60.6284 32.7017L58.3475 34.1464C58.8142 34.8833 58.7171 35.6935 58.2461 36.3685C57.739 37.0954 56.9941 37.3973 56.4676 37.3082L56.017 39.9703ZM60.6285 32.7019C59.9728 31.6662 58.9328 30.5983 58.1025 29.6617L56.0821 31.4529C57.0634 32.5597 57.8459 33.3543 58.3473 34.1462L60.6285 32.7019ZM58.1023 29.6615C54.2292 25.2948 47.8707 20.1156 41.3645 14.9377L39.6832 17.0504C46.2386 22.2674 52.3953 27.2962 56.0823 31.4531L58.1023 29.6615ZM39.9353 14.7791C38.4438 15.5015 37.1543 16.1569 35.5666 16.1221L35.5074 18.8215C37.8606 18.8731 39.7487 17.8696 41.1124 17.209L39.9353 14.7791ZM34.5337 16.5685C31.9711 19.4149 30.021 19.9345 28.9828 19.7521C28.0721 19.592 27.2967 18.7613 27.2647 17.2049L24.5653 17.2605C24.6155 19.7024 25.9743 21.9647 28.5155 22.4113C30.9293 22.8355 33.749 21.4755 36.5403 18.3751L34.5337 16.5685ZM27.2647 17.205C27.2483 16.4099 27.5603 15.4206 28.2323 14.302C28.8952 13.1984 29.8502 12.0671 30.9623 11.0199C33.2284 8.88599 35.9033 7.32311 37.6705 6.97067L37.1424 4.32281C34.6734 4.81523 31.5554 6.75269 29.1113 9.05423C27.8683 10.2247 26.7388 11.5449 25.9178 12.9116C25.1059 14.2632 24.5345 15.7629 24.5653 17.2604L27.2647 17.205ZM37.6705 6.97066C40.6786 6.37068 43.7937 7.34244 46.9946 8.74066C47.7847 9.0858 48.5646 9.44944 49.3428 9.81379C50.1156 10.1756 50.8911 10.5402 51.6474 10.8744C53.1459 11.5366 54.6713 12.1269 56.1331 12.3733L56.5819 9.71088C55.4691 9.5233 54.1996 9.05037 52.7387 8.40482C52.0153 8.08514 51.2699 7.73476 50.4877 7.36853C49.7109 7.00482 48.9016 6.62735 48.0754 6.26642C44.8107 4.84036 41.0249 3.54842 37.1424 4.32282L37.6705 6.97066ZM56.1331 12.3733C57.3194 12.5733 58.7413 12.4399 58.9395 12.438L58.9135 9.73808C58.3118 9.74388 57.4565 9.8583 56.5819 9.71088L56.1331 12.3733ZM77.1312 28.8308C76.6849 22.5675 76.2386 16.3039 75.7924 10.0403L73.0992 10.2321C73.5455 16.4958 73.9917 22.7594 74.438 29.0227L77.1312 28.8308ZM75.7924 10.0403C75.7035 8.79334 75.649 7.6956 75.5638 6.85718C75.4809 6.04264 75.3509 5.20549 74.9866 4.53547C74.5453 3.72357 73.8347 3.27213 72.9523 3.13022C72.1974 3.00883 71.3073 3.11185 70.3513 3.28002L70.819 5.93919C71.761 5.7735 72.2563 5.753 72.5236 5.79597C72.6632 5.81843 72.6114 5.81924 72.6145 5.82504C72.6948 5.97272 72.7951 6.3187 72.8776 7.1303C72.9577 7.91801 73.0035 8.8894 73.0992 10.2322L75.7924 10.0403ZM70.3791 3.27542C67.6272 3.70032 65.054 4.31909 62.6751 5.14808L63.5635 7.69771C65.7664 6.93007 68.1776 6.34734 70.7911 5.94379L70.3791 3.27542ZM62.6751 5.14809C61.2318 5.65105 60.0897 6.08298 59.2747 6.55322C58.4231 7.04458 57.7112 7.70252 57.4741 8.73546C57.269 9.62896 57.4905 10.5768 57.7326 11.4353C57.862 11.894 58.0256 12.4135 58.1987 12.972C58.3743 13.5386 58.5669 14.1679 58.7664 14.8814L61.3666 14.1544C61.1568 13.404 60.9554 12.746 60.7777 12.1727C60.5975 11.5912 60.4485 11.1182 60.3313 10.7025C60.0802 9.81202 60.0726 9.48352 60.1057 9.33948C60.1067 9.33489 60.1002 9.19412 60.624 8.89186C61.1845 8.56848 62.0881 8.2119 63.5636 7.69771L62.6751 5.14809ZM58.7663 14.8814C60.2015 20.0153 62.0373 24.9131 64.0458 29.6867L66.5345 28.6397C64.553 23.93 62.7615 19.1442 61.3667 14.1545L58.7663 14.8814ZM64.0457 29.6866C64.5219 30.8186 64.7362 31.4553 65.0179 32.15C65.2407 32.6993 65.5421 33.4005 66.1501 33.8606C66.8159 34.3645 67.5873 34.4005 68.2141 34.3836C68.8369 34.3667 69.7359 34.2686 70.8123 34.1849L70.6029 31.4931C69.3758 31.5885 68.6771 31.6701 68.1412 31.6846C67.6092 31.6989 67.6609 31.618 67.7794 31.7076C67.8401 31.7536 67.7666 31.7434 67.52 31.1354C67.3324 30.6727 66.983 29.706 66.5345 28.6397L64.0457 29.6866ZM70.8119 34.185C71.3872 34.1404 71.9624 34.0955 72.5375 34.0506L72.3275 31.3588C71.7522 31.4037 71.1777 31.4485 70.6033 31.493L70.8119 34.185ZM72.5372 34.0507C73.0529 34.0105 73.4962 33.9865 73.8829 33.9671C74.2593 33.9483 74.6127 33.9325 74.9065 33.9094C75.193 33.8868 75.5124 33.8516 75.8094 33.7694C76.1183 33.6839 76.5072 33.5199 76.8258 33.1662C77.1486 32.8077 77.2703 32.3981 77.3178 32.0694C77.3627 31.7586 77.3529 31.4352 77.3349 31.1524C77.3163 30.8613 77.2811 30.5154 77.2451 30.1476C77.2082 29.7695 77.1672 29.3368 77.1312 28.8308L74.438 29.0227C74.4766 29.5646 74.5204 30.0254 74.5579 30.41C74.5965 30.8049 74.6254 31.091 74.6403 31.3245C74.6558 31.5664 74.6488 31.6604 74.6455 31.6832C74.6449 31.688 74.6673 31.5283 74.8194 31.3593C74.9673 31.1951 75.1141 31.1603 75.0891 31.1673C75.0523 31.1774 74.946 31.1979 74.6946 31.2177C74.4506 31.2369 74.1539 31.2502 73.7477 31.2705C73.352 31.2904 72.8801 31.3158 72.3277 31.3588L72.5372 34.0507ZM60.1906 34.5768L66.5309 30.7121L65.1255 28.4066L58.7853 32.2713L60.1906 34.5768Z" fill="#D0B07C"/>
</svg>
