<svg width="54" height="48" viewBox="0 0 54 48" fill="none" xmlns="http://www.w3.org/2000/svg">
<path d="M27 23.619V23.647M15.8889 9.63055V7.59581C15.8889 6.11182 16.4742 4.68861 17.5161 3.63928C18.5579 2.58994 19.971 2.00043 21.4444 2.00043H32.5555C34.029 2.00043 35.442 2.58994 36.4839 3.63928C37.5258 4.68861 38.1111 6.11182 38.1111 7.59581V9.63055M2 26.4166C9.75439 30.3521 18.3167 32.4021 27 32.4021C35.6833 32.4021 44.2456 30.3521 52 26.4166M7.55556 9.63051H46.4444C49.5127 9.63051 52 12.1356 52 15.2259V40.4051C52 43.4953 49.5127 46.0005 46.4444 46.0005H7.55556C4.48731 46.0005 2 43.4953 2 40.4051V15.2259C2 12.1356 4.48731 9.63051 7.55556 9.63051Z" stroke="#D0B07C" stroke-width="2.7" stroke-linecap="round" stroke-linejoin="round"/>
</svg>
