<svg width="45" height="54" viewBox="0 0 45 54" fill="none" xmlns="http://www.w3.org/2000/svg">
<path d="M25.0312 2V12.5263C25.0312 13.2243 25.3078 13.8936 25.8001 14.3871C26.2924 14.8806 26.9601 15.1579 27.6562 15.1579H38.1562M25.0312 2H6.65625C5.26386 2 3.92851 2.55451 2.94394 3.54154C1.95937 4.52858 1.40625 5.86728 1.40625 7.26316V44.1053C1.40625 45.5011 1.95937 46.8398 2.94394 47.8269C3.92851 48.8139 5.26386 49.3684 6.65625 49.3684H19.7813M25.0312 2L38.1562 15.1579M38.1562 15.1579L38.1563 27M36.8438 45.4211L43.4062 52M38.1562 40.1579C38.1562 43.7914 35.2181 46.7368 31.5937 46.7368C27.9694 46.7368 25.0312 43.7914 25.0312 40.1579C25.0312 36.5244 27.9694 33.5789 31.5937 33.5789C35.2181 33.5789 38.1562 36.5244 38.1562 40.1579Z" stroke="#D0B07C" stroke-width="2.7" stroke-linecap="round" stroke-linejoin="round"/>
</svg>
