<svg width="51" height="54" viewBox="0 0 51 54" fill="none" xmlns="http://www.w3.org/2000/svg">
<path d="M17.5823 27L22.9233 32.5556L33.6052 21.4444M25.5938 2C31.8315 7.74049 39.9729 10.7294 48.2929 10.3333C49.5042 14.6195 49.8748 19.1152 49.3827 23.5533C48.8907 27.9914 47.546 32.2813 45.4285 36.1681C43.311 40.055 40.464 43.4594 37.0567 46.1791C33.6493 48.8988 29.7511 50.8783 25.5938 52C21.4364 50.8783 17.5382 48.8988 14.1308 46.1791C10.7235 43.4594 7.87646 40.055 5.75899 36.1681C3.64153 32.2813 2.29682 27.9914 1.80476 23.5533C1.3127 19.1152 1.68334 14.6195 2.89465 10.3333C11.2146 10.7294 19.356 7.74049 25.5938 2Z" stroke="#D0B07C" stroke-width="2.7" stroke-linecap="round" stroke-linejoin="round"/>
</svg>
