<svg width="42" height="54" viewBox="0 0 42 54" fill="none" xmlns="http://www.w3.org/2000/svg">
<path fill-rule="evenodd" clip-rule="evenodd" d="M11.7398 15.0011C12.5022 15.287 13.8174 15.3251 14.618 15.3442C16.6385 15.4014 18.6971 15.3442 20.7175 15.3442C22.7571 15.3442 24.8157 15.4014 26.8552 15.3442C27.6558 15.3251 28.971 15.287 29.7144 14.982C30.5912 14.6389 30.5531 13.1522 29.6381 12.8281C28.8376 12.5422 27.5605 12.5232 26.7218 12.5041C24.7204 12.466 22.719 12.5041 20.7175 12.5041C18.7352 12.5041 16.7529 12.466 14.7705 12.5041C13.9128 12.5232 12.6357 12.5422 11.816 12.8281C10.863 13.1522 10.8439 14.6389 11.7398 15.0011ZM11.168 10.8267C8.28975 11.7607 8.27068 15.9351 10.9964 16.9644L11.0155 16.9834L10.8058 17.3075L2.74298 29.945C-0.383036 34.8436 -0.573644 40.7907 2.20927 45.88C4.99218 50.9693 10.1387 54 15.9332 54H25.54C31.3346 54 36.4811 50.9693 39.264 45.88C42.0469 40.7907 41.8563 34.8246 38.7302 29.945L30.6674 17.3075L30.4578 16.9834C30.4768 16.9834 30.4959 16.9644 30.5149 16.9644C33.1835 15.916 33.1454 11.837 30.3625 10.8648L30.3243 10.8458V10.8267L32.7641 2.24925C32.8785 1.88709 32.7641 1.4868 32.4973 1.21995C30.8771 -0.40024 28.2276 -0.40024 26.6074 1.21995C26.2262 1.60117 25.6925 1.8299 25.1588 1.8299C24.606 1.8299 24.0914 1.62023 23.6911 1.21995C22.0518 -0.419302 19.4023 -0.400241 17.7822 1.23901C16.9816 2.03957 15.6664 2.03957 14.8849 1.23901C13.2647 -0.38118 10.6152 -0.38118 8.995 1.23901C8.72815 1.50586 8.61379 1.90615 8.72815 2.26831L11.168 10.8077V10.8267ZM30.5531 2.36361C29.7716 1.94427 28.7613 2.05863 28.1132 2.70671C27.3317 3.48821 26.2834 3.92662 25.1588 3.92662C24.0342 3.92662 22.9858 3.48821 22.2043 2.68765C21.3847 1.86802 20.0885 1.90615 19.2689 2.70671C17.6487 4.3269 15.0183 4.3269 13.379 2.70671C12.7119 2.03957 11.7207 1.92521 10.9392 2.34455L13.2266 10.3121L13.2647 10.4455C14.9992 10.3121 17.4009 10.3883 20.7366 10.3883C24.1104 10.3883 26.5121 10.3121 28.2467 10.4455L28.2657 10.3693L30.5531 2.36361ZM13.2647 17.3837C14.9992 17.5171 17.4009 17.4409 20.7366 17.4409C24.0914 17.4409 26.4931 17.5171 28.2276 17.3837L36.9576 31.0886C39.6642 35.3202 39.8358 40.4667 37.415 44.8698C34.9943 49.2729 30.5721 51.9033 25.54 51.9033H15.9332C10.9011 51.9033 6.47895 49.2919 4.05819 44.8698C1.63744 40.4667 1.80898 35.3202 4.51565 31.0886L12.5975 18.4321L13.2647 17.3837ZM22.6046 33.3759C22.3377 33.2806 22.0709 33.1853 21.804 33.09V28.3057C22.5284 28.5154 23.0049 28.8585 23.0239 28.8775C23.4814 29.2206 24.1485 29.1253 24.4916 28.6679C24.8347 28.2104 24.7585 27.5433 24.282 27.1811C24.2248 27.143 23.2336 26.3996 21.804 26.1327V25.0844C21.804 24.4935 21.3275 24.036 20.7557 24.036C20.1648 24.036 19.7073 24.5126 19.7073 25.0844V26.1327C19.5358 26.1709 19.3452 26.209 19.1546 26.2662C17.6678 26.7046 16.5622 27.9817 16.2573 29.5828C15.9904 31.0505 16.4479 32.442 17.4772 33.2616C18.0299 33.7 18.7352 34.1003 19.7073 34.5196V40.6382C18.8686 40.581 18.3159 40.3904 17.4009 39.7995C16.9053 39.4755 16.2573 39.6089 15.9332 40.1045C15.6092 40.6001 15.7426 41.2482 16.2382 41.5722C17.5915 42.449 18.5065 42.7159 19.7073 42.773V43.8595C19.7073 44.4504 20.1838 44.9079 20.7557 44.9079C21.3466 44.9079 21.804 44.4314 21.804 43.8595V42.6587C24.0723 42.1631 25.3875 40.276 25.6734 38.5224C26.0737 36.1779 24.8538 34.1765 22.6046 33.3759ZM18.7733 31.5842C18.373 31.2602 18.2015 30.6502 18.3159 29.964C18.4302 29.335 18.8496 28.5726 19.6883 28.3057V32.1751C19.3452 31.9845 19.0211 31.7939 18.7733 31.5842ZM23.5958 38.1412C23.4433 39.0371 22.8333 40.0092 21.804 40.4285V35.3392C21.8422 35.3583 21.8803 35.3583 21.8993 35.3774C23.7864 36.0445 23.672 37.6647 23.5958 38.1412Z" fill="#D0B07C"/>
</svg>
