<svg width="56" height="56" viewBox="0 0 56 56" fill="none" xmlns="http://www.w3.org/2000/svg">
<path d="M36.6718 30.5994C39.7142 31.2185 42.875 30.8409 45.6859 29.5226C48.4967 28.2043 50.8081 26.0154 52.2773 23.2804C53.7465 20.5454 54.2954 17.4098 53.8426 14.3383C53.3899 11.2668 51.9596 8.42293 49.7637 6.22817C47.5678 4.0334 44.7232 2.60454 41.6515 2.15336C38.5798 1.70218 35.4444 2.25269 32.7102 3.72331C29.9759 5.19392 27.7882 7.50637 26.4713 10.3179C25.1545 13.1295 24.7785 16.2905 25.3992 19.3325M36.6718 30.5994L25.3992 19.3354L3.69452 44.1341C2.61035 45.2171 2.00081 46.6865 2 48.2189C1.9996 48.9777 2.14865 49.7291 2.43866 50.4303C2.72866 51.1315 3.15393 51.7687 3.69018 52.3055C4.22644 52.8423 4.86318 53.2683 5.56405 53.559C6.26492 53.8497 7.0162 53.9996 7.77498 54C9.30741 54.0008 10.7774 53.3928 11.8616 52.3098L36.6718 30.5994Z" stroke="#E4C592" stroke-width="2.7" stroke-linecap="round" stroke-linejoin="round"/>
</svg>
