<svg width="56" height="50" viewBox="0 0 56 50" fill="none" xmlns="http://www.w3.org/2000/svg">
<path d="M54 25.1116V33.7783C54 34.5444 53.6956 35.2792 53.1539 35.821C52.6121 36.3628 51.8773 36.6672 51.1111 36.6672H4.88889C4.12271 36.6672 3.38791 36.3628 2.84614 35.821C2.30436 35.2792 2 34.5444 2 33.7783V4.88938C2 4.1232 2.30436 3.3884 2.84614 2.84662C3.38791 2.30485 4.12271 2.00049 4.88889 2.00049H30.8889M13.5556 48.2227H42.4444M19.3333 36.6672V48.2227M36.6667 36.6672V48.2227M42.4444 2.00049H54M54 2.00049V13.556M54 2.00049L39.5556 16.4449" stroke="#E4C592" stroke-width="2.7" stroke-linecap="round" stroke-linejoin="round"/>
</svg>
