<svg width="53" height="54" viewBox="0 0 53 54" fill="none" xmlns="http://www.w3.org/2000/svg">
<path d="M34.392 18.6667C33.8888 17.7938 33.1577 17.0742 32.277 16.5849C31.3962 16.0956 30.399 15.8551 29.392 15.889H23.8365C22.3631 15.889 20.95 16.4743 19.9081 17.5161C18.8662 18.558 18.2809 19.9711 18.2809 21.4445C18.2809 22.9179 18.8662 24.331 19.9081 25.3729C20.95 26.4147 22.3631 27.0001 23.8365 27.0001H29.392C30.8655 27.0001 32.2785 27.5854 33.3204 28.6273C34.3623 29.6691 34.9476 31.0822 34.9476 32.5556C34.9476 34.029 34.3623 35.4421 33.3204 36.484C32.2785 37.5259 30.8655 38.1112 29.392 38.1112H23.8365C22.8295 38.1451 21.8323 37.9045 20.9515 37.4152C20.0708 36.9259 19.3397 36.2063 18.8365 35.3334M26.6143 10.3333V15.8889M26.6143 38.1111V43.6667M51.6143 27C51.6143 40.8071 40.4214 52 26.6143 52C12.8071 52 1.61426 40.8071 1.61426 27C1.61426 13.1929 12.8071 2 26.6143 2C40.4214 2 51.6143 13.1929 51.6143 27Z" stroke="#D0B07C" stroke-width="2.7" stroke-linecap="round" stroke-linejoin="round"/>
</svg>
