<svg width="56" height="56" viewBox="0 0 56 56" fill="none" xmlns="http://www.w3.org/2000/svg">
<path d="M5.05467 5.05938H11.1725M8.11357 2.00049V8.11827M27.9964 2.00049L26.4669 8.11827M47.8792 5.05938H53.9969M50.938 2.00049V8.11827M38.7025 17.2949L35.6436 20.3538M47.8792 29.5305L53.9969 28.0011M47.8792 47.8839H53.9969M50.938 44.825V50.9428M35.6436 40.2917L15.7057 20.3538L2.2772 49.658C2.0174 50.227 1.9377 50.8617 2.04876 51.4772C2.15983 52.0927 2.45636 52.6596 2.89862 53.1019C3.34088 53.5441 3.90775 53.8407 4.52326 53.9517C5.13877 54.0628 5.77352 53.9831 6.34247 53.7233L35.6436 40.2947V40.2917Z" stroke="#E4C592" stroke-width="2.7" stroke-linecap="round" stroke-linejoin="round"/>
</svg>
