<svg width="44" height="56" viewBox="0 0 44 56" fill="none" xmlns="http://www.w3.org/2000/svg">
<path d="M22.2222 25.1111V7.77778C22.2222 6.24542 22.831 4.77582 23.9145 3.69227C24.998 2.60873 26.4676 2 28 2H33.7778V4.88889C33.7778 6.42125 33.1691 7.89085 32.0855 8.9744C31.002 10.0579 29.5324 10.6667 28 10.6667H22.2222M16.4444 23.6667C20.2953 25.5936 24.1491 25.5936 28 23.6667M42.4444 33.7778C42.4444 44.9462 33.3906 54 22.2222 54C11.0538 54 2 44.9462 2 33.7778C2 22.6094 11.0538 13.5556 22.2222 13.5556C33.3906 13.5556 42.4444 22.6094 42.4444 33.7778Z" stroke="#E4C592" stroke-width="2.7" stroke-linecap="round" stroke-linejoin="round"/>
</svg>
