<svg width="50" height="56" viewBox="0 0 50 56" fill="none" xmlns="http://www.w3.org/2000/svg">
<path d="M9.60205 9.61831C12.1895 7.03037 15.2941 5.01765 18.7127 3.71174C22.1314 2.40582 25.7872 1.83611 29.4411 2.03985C33.095 2.24359 36.6648 3.21618 39.917 4.89406C43.1693 6.57194 46.0309 8.91732 48.3146 11.7769L32.0777 28.008L48.3146 44.2391C46.106 46.9999 43.3577 49.2813 40.2376 50.944C37.1175 52.6067 33.6912 53.6158 30.1679 53.9096C26.6447 54.2034 23.0986 53.7757 19.7462 52.6527C16.3938 51.5297 13.3056 49.735 10.6703 47.3782C8.03491 45.0214 5.90778 42.152 4.41883 38.9454C2.92988 35.7387 2.11038 32.2622 2.0104 28.7281C1.91042 25.1941 2.53207 21.6768 3.83736 18.3911C5.14264 15.1054 7.10416 12.1203 9.60205 9.61831Z" stroke="#E4C592" stroke-width="2.7" stroke-linecap="round" stroke-linejoin="round"/>
<path d="M26.5469 17.8943C28.1428 17.8943 29.4366 16.6005 29.4366 15.0046C29.4366 13.4087 28.1428 12.115 26.5469 12.115C24.951 12.115 23.6573 13.4087 23.6573 15.0046C23.6573 16.6005 24.951 17.8943 26.5469 17.8943Z" stroke="#E4C592" stroke-width="2.7" stroke-linecap="round" stroke-linejoin="round"/>
</svg>
