<svg width="759" height="89" viewBox="0 0 759 89" fill="none" xmlns="http://www.w3.org/2000/svg">
<path d="M25.0184 76.8014C25.0184 79.6674 25.3319 81.7722 25.9588 83.1156C26.5858 84.3695 27.7501 85.2651 29.4518 85.8025C31.2431 86.3399 34.0643 86.6086 37.9155 86.6086C38.1842 86.6086 38.3185 86.8773 38.3185 87.4146C38.3185 87.952 38.1842 88.2207 37.9155 88.2207C34.2434 88.2207 31.3774 88.1759 29.3174 88.0864L17.6295 87.952L7.82232 88.0864C6.03106 88.1759 3.61286 88.2207 0.567714 88.2207C0.299025 88.2207 0.164681 87.952 0.164681 87.4146C0.164681 86.8773 0.299025 86.6086 0.567714 86.6086C3.43373 86.6086 5.49368 86.3847 6.74756 85.9368C8.09101 85.489 8.98664 84.6382 9.43445 83.3843C9.88227 82.0409 10.1062 80.0257 10.1062 77.3388V15.1373C10.1062 12.4504 9.88227 10.48 9.43445 9.22612C8.98664 7.97223 8.09101 7.12138 6.74756 6.67357C5.40412 6.13619 3.34417 5.8675 0.567714 5.8675C0.299025 5.8675 0.164681 5.59881 0.164681 5.06144C0.164681 4.52406 0.299025 4.25537 0.567714 4.25537L7.68797 4.38972C11.8079 4.56884 15.0769 4.6584 17.4951 4.6584C19.6446 4.6584 22.1972 4.52406 25.1528 4.25537C26.3171 4.16581 27.7949 4.07624 29.5861 3.98668C31.3774 3.89712 33.4373 3.85234 35.766 3.85234C44.9014 3.85234 52.1112 5.77794 57.3955 9.62915C62.6797 13.3908 65.3218 19.2572 65.3218 27.2283C65.3218 32.7812 63.8888 37.4833 61.0228 41.3345C58.1567 45.1857 54.4399 48.0965 49.8722 50.0669C45.394 52.0372 40.7815 53.0224 36.0347 53.0224C33.6165 53.0224 31.5117 52.7985 29.7205 52.3507C29.5414 52.3507 29.4518 52.1268 29.4518 51.679C29.4518 51.4103 29.4966 51.1416 29.5861 50.8729C29.7653 50.6042 29.9444 50.5147 30.1235 50.6042C31.467 50.9625 32.9895 51.1416 34.6912 51.1416C38.8111 51.1416 42.2145 49.216 44.9014 45.3648C47.6779 41.5136 49.0661 36.0502 49.0661 28.9748C49.0661 21.8993 47.5435 16.4359 44.4984 12.5847C41.5428 8.73352 37.199 6.80792 31.467 6.80792C28.9592 6.80792 27.2575 7.39008 26.3619 8.55439C25.4662 9.71871 25.0184 12.0026 25.0184 15.406V76.8014ZM158.841 86.6086C159.289 86.6086 159.513 86.8773 159.513 87.4146C159.513 87.952 159.289 88.2207 158.841 88.2207C157.05 88.2207 154.274 88.1311 150.512 87.952C146.571 87.7729 143.75 87.6833 142.048 87.6833C139.809 87.6833 137.078 87.7729 133.853 87.952C130.808 88.1311 128.39 88.2207 126.599 88.2207C126.24 88.2207 126.061 87.952 126.061 87.4146C126.061 86.8773 126.24 86.6086 126.599 86.6086C128.927 86.6086 130.584 86.3847 131.569 85.9368C132.644 85.3995 133.182 84.5038 133.182 83.25C133.182 81.7274 132.286 79.1748 130.495 75.5923L121.359 57.4558H88.3104L83.071 69.1438C81.9067 71.7411 81.3245 74.1593 81.3245 76.3984C81.3245 79.6227 82.4441 82.1304 84.6831 83.9217C87.0118 85.7129 90.1017 86.6086 93.9529 86.6086C94.4007 86.6086 94.6246 86.8773 94.6246 87.4146C94.6246 87.952 94.4007 88.2207 93.9529 88.2207C92.3408 88.2207 90.0121 88.1311 86.967 87.952C83.5636 87.7729 80.608 87.6833 78.1003 87.6833C75.6821 87.6833 72.7713 87.7729 69.3679 87.952C66.3227 88.1311 63.8597 88.2207 61.9789 88.2207C61.6207 88.2207 61.4415 87.952 61.4415 87.4146C61.4415 86.8773 61.6207 86.6086 61.9789 86.6086C64.4867 86.6086 66.5914 86.116 68.2931 85.1308C69.9948 84.056 71.6965 82.22 73.3982 79.6227C75.0999 76.9358 77.1151 72.995 79.4437 67.8003L108.596 3.71799C108.776 3.4493 109.179 3.31496 109.806 3.31496C110.522 3.31496 110.925 3.4493 111.015 3.71799L144.601 69.8155C147.736 76.1745 150.333 80.5631 152.393 82.9813C154.453 85.3995 156.602 86.6086 158.841 86.6086ZM90.0569 53.6942H119.344L103.894 23.0636L90.0569 53.6942ZM253.799 86.6086C253.978 86.6086 254.067 86.8773 254.067 87.4146C254.067 87.952 253.978 88.2207 253.799 88.2207H229.885C227.915 88.2207 224.243 84.683 218.869 77.6075C213.495 70.4424 207.002 60.4562 199.389 47.6487C198.673 47.7382 197.643 47.783 196.299 47.783C192.806 47.783 190.343 47.7382 188.91 47.6487V77.3388C188.91 80.1152 189.134 82.1304 189.582 83.3843C190.03 84.6382 190.881 85.489 192.135 85.9368C193.478 86.3847 195.583 86.6086 198.449 86.6086C198.628 86.6086 198.718 86.8773 198.718 87.4146C198.718 87.952 198.628 88.2207 198.449 88.2207C195.493 88.2207 193.165 88.1759 191.463 88.0864L181.253 87.952L171.446 88.0864C169.654 88.1759 167.236 88.2207 164.191 88.2207C163.922 88.2207 163.788 87.952 163.788 87.4146C163.788 86.8773 163.922 86.6086 164.191 86.6086C167.057 86.6086 169.117 86.3847 170.371 85.9368C171.714 85.489 172.61 84.6382 173.058 83.3843C173.595 82.0409 173.864 80.0257 173.864 77.3388V15.1373C173.864 12.4504 173.64 10.48 173.192 9.22612C172.744 7.97223 171.849 7.12138 170.505 6.67357C169.162 6.13619 167.102 5.8675 164.325 5.8675C164.146 5.8675 164.057 5.59881 164.057 5.06144C164.057 4.52406 164.146 4.25537 164.325 4.25537L171.446 4.38972C175.565 4.56884 178.835 4.6584 181.253 4.6584C184.298 4.6584 187.477 4.52406 190.791 4.25537C191.955 4.16581 193.389 4.07624 195.09 3.98668C196.881 3.89712 198.852 3.85234 201.001 3.85234C209.152 3.85234 215.466 5.37491 219.944 8.42005C224.422 11.3756 226.661 15.5403 226.661 20.9141C226.661 25.8401 225.318 30.3182 222.631 34.3485C219.944 38.2893 216.361 41.4688 211.883 43.887C219.048 54.6346 225.049 63.0535 229.885 69.1438C234.722 75.2341 239.021 79.6674 242.783 82.4439C246.544 85.2203 250.216 86.6086 253.799 86.6086ZM188.91 43.887C191.06 44.2453 193.657 44.4244 196.702 44.4244C201.897 44.4244 205.614 42.9914 207.853 40.1254C210.182 37.1698 211.346 32.4677 211.346 26.0192C211.346 18.675 210.271 13.6147 208.122 10.8383C205.972 8.0618 202.882 6.67357 198.852 6.67357C195.269 6.67357 192.717 7.34529 191.194 8.68874C189.672 10.0322 188.91 12.2713 188.91 15.406V43.887ZM271.292 7.34529C260.634 7.34529 252.976 14.2864 248.319 28.1687C248.229 28.4374 247.961 28.5717 247.513 28.5717C247.065 28.4822 246.841 28.303 246.841 28.0344C247.199 24.4518 247.602 19.8393 248.05 14.1969C248.498 8.46483 248.722 4.16581 248.722 1.29979C248.722 0.851977 248.946 0.628069 249.394 0.628069C249.931 0.628069 250.2 0.851977 250.2 1.29979C250.2 3.27018 252.752 4.25537 257.857 4.25537C265.56 4.52406 274.561 4.6584 284.861 4.6584C290.145 4.6584 295.743 4.56884 301.654 4.38972L310.789 4.25537C314.193 4.25537 316.656 4.03146 318.178 3.58364C319.79 3.13583 320.82 2.2402 321.268 0.896755C321.358 0.538502 321.626 0.359376 322.074 0.359376C322.612 0.359376 322.88 0.538502 322.88 0.896755C322.612 3.58365 322.298 7.88267 321.94 13.7938C321.671 19.705 321.537 24.4518 321.537 28.0344C321.537 28.303 321.313 28.4374 320.865 28.4374C320.417 28.4374 320.149 28.303 320.059 28.0344C318.716 21.138 316.208 15.9881 312.536 12.5847C308.864 9.09177 304.341 7.34529 298.967 7.34529C296.37 7.34529 294.623 7.92745 293.727 9.09177C292.921 10.1665 292.518 12.2713 292.518 15.406V77.3388C292.518 80.1152 292.787 82.1304 293.324 83.3843C293.862 84.6382 294.892 85.489 296.414 85.9368C297.937 86.3847 300.355 86.6086 303.669 86.6086C303.938 86.6086 304.072 86.8773 304.072 87.4146C304.072 87.952 303.938 88.2207 303.669 88.2207C300.445 88.2207 297.892 88.1759 296.011 88.0864L284.861 87.952L273.979 88.0864C272.098 88.1759 269.501 88.2207 266.187 88.2207C265.918 88.2207 265.784 87.952 265.784 87.4146C265.784 86.8773 265.918 86.6086 266.187 86.6086C269.411 86.6086 271.784 86.3847 273.307 85.9368C274.919 85.489 275.994 84.6382 276.531 83.3843C277.158 82.0409 277.472 80.0257 277.472 77.3388V15.1373C277.472 12.0921 277.069 10.0322 276.263 8.95743C275.457 7.88267 273.8 7.34529 271.292 7.34529ZM411.76 4.25537C411.939 4.25537 412.028 4.52406 412.028 5.06144C412.028 5.59881 411.939 5.8675 411.76 5.8675C408.983 5.8675 405.58 7.61398 401.549 11.1069C397.519 14.5103 393.937 18.8094 390.802 24.004L376.83 47.38V77.3388C376.83 80.1152 377.054 82.1304 377.502 83.3843C377.95 84.6382 378.8 85.489 380.054 85.9368C381.398 86.3847 383.502 86.6086 386.368 86.6086C386.637 86.6086 386.771 86.8773 386.771 87.4146C386.771 87.952 386.637 88.2207 386.368 88.2207C383.413 88.2207 381.084 88.1759 379.383 88.0864L369.307 87.952L359.365 88.0864C357.574 88.1759 355.156 88.2207 352.111 88.2207C351.931 88.2207 351.842 87.952 351.842 87.4146C351.842 86.8773 351.931 86.6086 352.111 86.6086C354.977 86.6086 357.081 86.3847 358.425 85.9368C359.768 85.489 360.664 84.6382 361.112 83.3843C361.649 82.0409 361.918 80.0257 361.918 77.3388V50.2012L342.303 19.705C338.99 14.5103 336.213 10.9278 333.974 8.95743C331.825 6.89748 329.989 5.8675 328.466 5.8675C328.197 5.8675 328.063 5.59881 328.063 5.06144C328.063 4.52406 328.197 4.25537 328.466 4.25537L332.631 4.38972C334.601 4.56884 335.989 4.6584 336.795 4.6584C339.93 4.6584 344.453 4.56884 350.364 4.38972L359.231 4.25537C359.41 4.25537 359.5 4.52406 359.5 5.06144C359.5 5.59881 359.41 5.8675 359.231 5.8675C357.708 5.8675 356.499 6.22576 355.604 6.94226C354.798 7.65877 354.394 8.59918 354.394 9.76349C354.394 11.1965 355.021 12.8982 356.275 14.8686L374.68 43.887L387.04 22.7949C389.458 18.7646 390.667 15.3164 390.667 12.4504C390.667 10.3009 389.996 8.68874 388.652 7.61398C387.398 6.44966 385.562 5.8675 383.144 5.8675C382.876 5.8675 382.741 5.59881 382.741 5.06144C382.741 4.52406 382.876 4.25537 383.144 4.25537L390.264 4.38972C394.384 4.56884 398.056 4.6584 401.281 4.6584C402.803 4.6584 404.639 4.56884 406.789 4.38972L411.76 4.25537ZM472.284 7.34529C461.626 7.34529 453.968 14.2864 449.311 28.1687C449.221 28.4374 448.953 28.5717 448.505 28.5717C448.057 28.4822 447.833 28.303 447.833 28.0344C448.191 24.4518 448.594 19.8393 449.042 14.1969C449.49 8.46483 449.714 4.16581 449.714 1.29979C449.714 0.851977 449.938 0.628069 450.386 0.628069C450.923 0.628069 451.192 0.851977 451.192 1.29979C451.192 3.27018 453.744 4.25537 458.849 4.25537C466.552 4.52406 475.553 4.6584 485.853 4.6584C491.137 4.6584 496.735 4.56884 502.646 4.38972L511.781 4.25537C515.185 4.25537 517.648 4.03146 519.17 3.58364C520.782 3.13583 521.812 2.2402 522.26 0.896755C522.35 0.538502 522.618 0.359376 523.066 0.359376C523.604 0.359376 523.872 0.538502 523.872 0.896755C523.604 3.58365 523.29 7.88267 522.932 13.7938C522.663 19.705 522.529 24.4518 522.529 28.0344C522.529 28.303 522.305 28.4374 521.857 28.4374C521.409 28.4374 521.141 28.303 521.051 28.0344C519.708 21.138 517.2 15.9881 513.528 12.5847C509.856 9.09177 505.333 7.34529 499.959 7.34529C497.362 7.34529 495.615 7.92745 494.719 9.09177C493.913 10.1665 493.51 12.2713 493.51 15.406V77.3388C493.51 80.1152 493.779 82.1304 494.316 83.3843C494.854 84.6382 495.884 85.489 497.406 85.9368C498.929 86.3847 501.347 86.6086 504.661 86.6086C504.93 86.6086 505.064 86.8773 505.064 87.4146C505.064 87.952 504.93 88.2207 504.661 88.2207C501.437 88.2207 498.884 88.1759 497.003 88.0864L485.853 87.952L474.971 88.0864C473.09 88.1759 470.493 88.2207 467.179 88.2207C466.91 88.2207 466.776 87.952 466.776 87.4146C466.776 86.8773 466.91 86.6086 467.179 86.6086C470.403 86.6086 472.776 86.3847 474.299 85.9368C475.911 85.489 476.986 84.6382 477.523 83.3843C478.15 82.0409 478.464 80.0257 478.464 77.3388V15.1373C478.464 12.0921 478.061 10.0322 477.255 8.95743C476.449 7.88267 474.792 7.34529 472.284 7.34529ZM559.282 77.3388C559.282 80.1152 559.506 82.1304 559.954 83.3843C560.402 84.6382 561.253 85.489 562.507 85.9368C563.85 86.3847 565.955 86.6086 568.821 86.6086C569.09 86.6086 569.224 86.8773 569.224 87.4146C569.224 87.952 569.09 88.2207 568.821 88.2207C565.865 88.2207 563.537 88.1759 561.835 88.0864L551.625 87.952L541.683 88.0864C539.892 88.1759 537.474 88.2207 534.429 88.2207C534.25 88.2207 534.16 87.952 534.16 87.4146C534.16 86.8773 534.25 86.6086 534.429 86.6086C537.295 86.6086 539.399 86.3847 540.743 85.9368C542.086 85.489 542.982 84.6382 543.43 83.3843C543.967 82.0409 544.236 80.0257 544.236 77.3388V15.1373C544.236 12.4504 543.967 10.48 543.43 9.22612C542.982 7.97223 542.086 7.12138 540.743 6.67357C539.399 6.13619 537.295 5.8675 534.429 5.8675C534.25 5.8675 534.16 5.59881 534.16 5.06144C534.16 4.52406 534.25 4.25537 534.429 4.25537L541.683 4.38972C545.803 4.56884 549.117 4.6584 551.625 4.6584C554.401 4.6584 557.849 4.56884 561.969 4.38972L568.821 4.25537C569.09 4.25537 569.224 4.52406 569.224 5.06144C569.224 5.59881 569.09 5.8675 568.821 5.8675C566.044 5.8675 563.985 6.13619 562.641 6.67357C561.298 7.21095 560.402 8.15136 559.954 9.49481C559.506 10.7487 559.282 12.7191 559.282 15.406V77.3388ZM686.614 86.6086C686.793 86.6086 686.883 86.8773 686.883 87.4146C686.883 87.952 686.793 88.2207 686.614 88.2207C683.569 88.2207 681.15 88.1759 679.359 88.0864L669.418 87.952L659.342 88.0864C657.64 88.1759 655.312 88.2207 652.356 88.2207C652.087 88.2207 651.953 87.952 651.953 87.4146C651.953 86.8773 652.087 86.6086 652.356 86.6086C656.118 86.6086 658.67 86.1608 660.014 85.2651C661.357 84.3695 662.029 82.4887 662.029 79.6227L661.894 77.3388L659.073 22.3919L631.398 87.2803C631.219 87.6385 630.861 87.8177 630.323 87.8177C629.786 87.8177 629.428 87.6385 629.249 87.2803L595.26 22.6606L594.185 71.1589C594.095 75.9954 595.036 79.8018 597.006 82.5782C599.066 85.2651 601.932 86.6086 605.604 86.6086C605.873 86.6086 606.007 86.8773 606.007 87.4146C606.007 87.952 605.873 88.2207 605.604 88.2207C603.186 88.2207 601.305 88.1759 599.962 88.0864L592.573 87.952L584.109 88.0864C582.676 88.1759 580.75 88.2207 578.332 88.2207C578.063 88.2207 577.929 87.952 577.929 87.4146C577.929 86.8773 578.063 86.6086 578.332 86.6086C582.004 86.6086 584.915 85.2203 587.065 82.4439C589.214 79.6674 590.334 75.9058 590.423 71.1589L591.632 15.5403L591.498 15.406C589.707 12.0921 587.826 9.67393 585.855 8.15136C583.975 6.62879 581.78 5.8675 579.273 5.8675C579.004 5.8675 578.87 5.59881 578.87 5.06144C578.87 4.52406 579.004 4.25537 579.273 4.25537L585.587 4.38972C586.841 4.47928 588.453 4.52406 590.423 4.52406L597.543 4.38972C598.349 4.30015 599.379 4.25537 600.633 4.25537C601.798 4.25537 602.693 4.6584 603.32 5.46447C603.947 6.27053 605.111 8.19614 606.813 11.2413L636.1 66.1882L661.626 7.61398C662.163 6.3601 662.701 5.50925 663.238 5.06144C663.865 4.52406 664.671 4.25537 665.656 4.25537C666.462 4.25537 667.358 4.30015 668.343 4.38972C669.418 4.47928 670.627 4.52406 671.97 4.52406L679.897 4.38972C681.15 4.30015 682.942 4.25537 685.27 4.25537C685.539 4.25537 685.673 4.52406 685.673 5.06144C685.673 5.59881 685.539 5.8675 685.27 5.8675C681.061 5.8675 678.016 6.71835 676.135 8.42005C674.254 10.1217 673.403 12.7639 673.582 16.3464L676.807 77.3388C676.986 80.1152 677.299 82.1304 677.747 83.3843C678.284 84.6382 679.18 85.489 680.434 85.9368C681.777 86.3847 683.837 86.6086 686.614 86.6086ZM756.53 66.8599C756.53 66.6808 756.709 66.5912 757.067 66.5912C757.336 66.5912 757.56 66.6808 757.739 66.8599C758.007 66.9495 758.142 67.039 758.142 67.1286C757.246 74.1145 756.798 80.4735 756.798 86.2055C756.798 86.922 756.664 87.4594 756.395 87.8177C756.127 88.0864 755.589 88.2207 754.783 88.2207H695.403C695.134 88.2207 695 87.952 695 87.4146C695 86.8773 695.134 86.6086 695.403 86.6086C698.269 86.6086 700.329 86.3847 701.583 85.9368C702.926 85.489 703.822 84.6382 704.27 83.3843C704.717 82.0409 704.941 80.0257 704.941 77.3388V15.1373C704.941 12.4504 704.717 10.48 704.27 9.22612C703.822 7.97223 702.926 7.12138 701.583 6.67357C700.239 6.13619 698.179 5.8675 695.403 5.8675C695.134 5.8675 695 5.59881 695 5.06144C695 4.52406 695.134 4.25537 695.403 4.25537H752.365C753.261 4.25537 753.708 4.6584 753.708 5.46447L753.977 23.3323C753.977 23.5114 753.708 23.6458 753.171 23.7353C752.723 23.8249 752.455 23.7353 752.365 23.4666C750.932 18.272 748.514 14.4208 745.11 11.913C741.707 9.40524 737.229 8.15136 731.676 8.15136H727.646C724.959 8.15136 722.988 8.73352 721.734 9.89784C720.481 11.0622 719.854 12.8534 719.854 15.2716V42.6779H731.004C736.199 42.6779 740.184 41.7823 742.961 39.991C745.737 38.1998 747.126 35.692 747.126 32.4677C747.126 32.199 747.349 32.0647 747.797 32.0647C748.335 32.0647 748.603 32.199 748.603 32.4677L748.469 44.5587L748.603 51.0073C748.782 54.0524 748.872 56.4706 748.872 58.2619C748.872 58.441 748.603 58.5306 748.066 58.5306C747.529 58.5306 747.26 58.441 747.26 58.2619C747.26 54.5898 745.827 51.7238 742.961 49.6638C740.184 47.5143 736.154 46.4396 730.87 46.4396H719.854V76.8014C719.854 79.3987 720.346 81.3244 721.331 82.5782C722.317 83.8321 723.884 84.4591 726.033 84.4591H730.467C737.453 84.4591 743.05 83.026 747.26 80.16C751.469 77.294 754.559 72.8606 756.53 66.8599Z" fill="#E4C592"/>
</svg>
