<svg width="1235" height="29" viewBox="0 0 1235 29" fill="none" xmlns="http://www.w3.org/2000/svg">
<path d="M0 13.4643C0 12.8923 0.447715 12.4286 1 12.4286C1.55228 12.4286 2 12.8923 2 13.4643V23.8214C2 24.3934 1.55228 24.8571 1 24.8571C0.447715 24.8571 0 24.3934 0 23.8214V13.4643Z" fill="#D0B07C"/>
<path d="M288 13.4643C288 12.8923 288.448 12.4286 289 12.4286C289.552 12.4286 290 12.8923 290 13.4643V23.8214C290 24.3934 289.552 24.8571 289 24.8571C288.448 24.8571 288 24.3934 288 23.8214V13.4643Z" fill="#D0B07C"/>
<path d="M612 13.4643C612 12.8923 612.448 12.4286 613 12.4286C613.552 12.4286 614 12.8923 614 13.4643V23.8214C614 24.3934 613.552 24.8571 613 24.8571C612.448 24.8571 612 24.3934 612 23.8214V13.4643Z" fill="#D0B07C"/>
<path d="M936 13.4643C936 12.8923 936.448 12.4286 937 12.4286C937.552 12.4286 938 12.8923 938 13.4643V23.8214C938 24.3934 937.552 24.8571 937 24.8571C936.448 24.8571 936 24.3934 936 23.8214V13.4643Z" fill="#D0B07C"/>
<path d="M324 13.4643C324 12.8923 324.448 12.4286 325 12.4286C325.552 12.4286 326 12.8923 326 13.4643V23.8214C326 24.3934 325.552 24.8571 325 24.8571C324.448 24.8571 324 24.3934 324 23.8214V13.4643Z" fill="#D0B07C"/>
<path d="M648 13.4643C648 12.8923 648.448 12.4286 649 12.4286C649.552 12.4286 650 12.8923 650 13.4643V23.8214C650 24.3934 649.552 24.8571 649 24.8571C648.448 24.8571 648 24.3934 648 23.8214V13.4643Z" fill="#D0B07C"/>
<path d="M972 13.4643C972 12.8923 972.448 12.4286 973 12.4286C973.552 12.4286 974 12.8923 974 13.4643V23.8214C974 24.3934 973.552 24.8571 973 24.8571C972.448 24.8571 972 24.3934 972 23.8214V13.4643Z" fill="#D0B07C"/>
<path d="M252 13.4643C252 12.8923 252.448 12.4286 253 12.4286C253.552 12.4286 254 12.8923 254 13.4643V23.8214C254 24.3934 253.552 24.8571 253 24.8571C252.448 24.8571 252 24.3934 252 23.8214V13.4643Z" fill="#D0B07C"/>
<path d="M576 13.4643C576 12.8923 576.448 12.4286 577 12.4286C577.552 12.4286 578 12.8923 578 13.4643V23.8214C578 24.3934 577.552 24.8571 577 24.8571C576.448 24.8571 576 24.3934 576 23.8214V13.4643Z" fill="#D0B07C"/>
<path d="M900 13.4643C900 12.8923 900.448 12.4286 901 12.4286C901.552 12.4286 902 12.8923 902 13.4643V23.8214C902 24.3934 901.552 24.8571 901 24.8571C900.448 24.8571 900 24.3934 900 23.8214V13.4643Z" fill="#D0B07C"/>
<path d="M1224 13.4643C1224 12.8923 1224.45 12.4286 1225 12.4286C1225.55 12.4286 1226 12.8923 1226 13.4643V23.8214C1226 24.3934 1225.55 24.8571 1225 24.8571C1224.45 24.8571 1224 24.3934 1224 23.8214V13.4643Z" fill="#D0B07C"/>
<path d="M216 13.4643C216 12.8923 216.448 12.4286 217 12.4286C217.552 12.4286 218 12.8923 218 13.4643V23.8214C218 24.3934 217.552 24.8571 217 24.8571C216.448 24.8571 216 24.3934 216 23.8214V13.4643Z" fill="#D0B07C"/>
<path d="M540 13.4643C540 12.8923 540.448 12.4286 541 12.4286C541.552 12.4286 542 12.8923 542 13.4643V23.8214C542 24.3934 541.552 24.8571 541 24.8571C540.448 24.8571 540 24.3934 540 23.8214V13.4643Z" fill="#D0B07C"/>
<path d="M864 13.4643C864 12.8923 864.448 12.4286 865 12.4286C865.552 12.4286 866 12.8923 866 13.4643V23.8214C866 24.3934 865.552 24.8571 865 24.8571C864.448 24.8571 864 24.3934 864 23.8214V13.4643Z" fill="#D0B07C"/>
<path d="M1188 13.4643C1188 12.8923 1188.45 12.4286 1189 12.4286C1189.55 12.4286 1190 12.8923 1190 13.4643V23.8214C1190 24.3934 1189.55 24.8571 1189 24.8571C1188.45 24.8571 1188 24.3934 1188 23.8214V13.4643Z" fill="#D0B07C"/>
<path d="M180 13.4643C180 12.8923 180.448 12.4286 181 12.4286C181.552 12.4286 182 12.8923 182 13.4643V23.8214C182 24.3934 181.552 24.8571 181 24.8571C180.448 24.8571 180 24.3934 180 23.8214V13.4643Z" fill="#D0B07C"/>
<path d="M504 13.4643C504 12.8923 504.448 12.4286 505 12.4286C505.552 12.4286 506 12.8923 506 13.4643V23.8214C506 24.3934 505.552 24.8571 505 24.8571C504.448 24.8571 504 24.3934 504 23.8214V13.4643Z" fill="#D0B07C"/>
<path d="M828 13.4643C828 12.8923 828.448 12.4286 829 12.4286C829.552 12.4286 830 12.8923 830 13.4643V23.8214C830 24.3934 829.552 24.8571 829 24.8571C828.448 24.8571 828 24.3934 828 23.8214V13.4643Z" fill="#D0B07C"/>
<path d="M1152 13.4643C1152 12.8923 1152.45 12.4286 1153 12.4286C1153.55 12.4286 1154 12.8923 1154 13.4643V23.8214C1154 24.3934 1153.55 24.8571 1153 24.8571C1152.45 24.8571 1152 24.3934 1152 23.8214V13.4643Z" fill="#D0B07C"/>
<path d="M144 13.4643C144 12.8923 144.448 12.4286 145 12.4286C145.552 12.4286 146 12.8923 146 13.4643V23.8214C146 24.3934 145.552 24.8571 145 24.8571C144.448 24.8571 144 24.3934 144 23.8214V13.4643Z" fill="#D0B07C"/>
<path d="M468 13.4643C468 12.8923 468.448 12.4286 469 12.4286C469.552 12.4286 470 12.8923 470 13.4643V23.8214C470 24.3934 469.552 24.8571 469 24.8571C468.448 24.8571 468 24.3934 468 23.8214V13.4643Z" fill="#D0B07C"/>
<path d="M792 13.4643C792 12.8923 792.448 12.4286 793 12.4286C793.552 12.4286 794 12.8923 794 13.4643V23.8214C794 24.3934 793.552 24.8571 793 24.8571C792.448 24.8571 792 24.3934 792 23.8214V13.4643Z" fill="#D0B07C"/>
<path d="M1116 13.4643C1116 12.8923 1116.45 12.4286 1117 12.4286C1117.55 12.4286 1118 12.8923 1118 13.4643V23.8214C1118 24.3934 1117.55 24.8571 1117 24.8571C1116.45 24.8571 1116 24.3934 1116 23.8214V13.4643Z" fill="#D0B07C"/>
<path d="M108 13.4643C108 12.8923 108.448 12.4286 109 12.4286C109.552 12.4286 110 12.8923 110 13.4643V23.8214C110 24.3934 109.552 24.8571 109 24.8571C108.448 24.8571 108 24.3934 108 23.8214V13.4643Z" fill="#D0B07C"/>
<path d="M432 13.4643C432 12.8923 432.448 12.4286 433 12.4286C433.552 12.4286 434 12.8923 434 13.4643V23.8214C434 24.3934 433.552 24.8571 433 24.8571C432.448 24.8571 432 24.3934 432 23.8214V13.4643Z" fill="#D0B07C"/>
<path d="M756 13.4643C756 12.8923 756.448 12.4286 757 12.4286C757.552 12.4286 758 12.8923 758 13.4643V23.8214C758 24.3934 757.552 24.8571 757 24.8571C756.448 24.8571 756 24.3934 756 23.8214V13.4643Z" fill="#D0B07C"/>
<path d="M1080 13.4643C1080 12.8923 1080.45 12.4286 1081 12.4286C1081.55 12.4286 1082 12.8923 1082 13.4643V23.8214C1082 24.3934 1081.55 24.8571 1081 24.8571C1080.45 24.8571 1080 24.3934 1080 23.8214V13.4643Z" fill="#D0B07C"/>
<path d="M72 13.4643C72 12.8923 72.4477 12.4286 73 12.4286C73.5523 12.4286 74 12.8923 74 13.4643V23.8214C74 24.3934 73.5523 24.8571 73 24.8571C72.4477 24.8571 72 24.3934 72 23.8214V13.4643Z" fill="#D0B07C"/>
<path d="M396 13.4643C396 12.8923 396.448 12.4286 397 12.4286C397.552 12.4286 398 12.8923 398 13.4643V23.8214C398 24.3934 397.552 24.8571 397 24.8571C396.448 24.8571 396 24.3934 396 23.8214V13.4643Z" fill="#D0B07C"/>
<path d="M720 13.4643C720 12.8923 720.448 12.4286 721 12.4286C721.552 12.4286 722 12.8923 722 13.4643V23.8214C722 24.3934 721.552 24.8571 721 24.8571C720.448 24.8571 720 24.3934 720 23.8214V13.4643Z" fill="#D0B07C"/>
<path d="M1044 13.4643C1044 12.8923 1044.45 12.4286 1045 12.4286C1045.55 12.4286 1046 12.8923 1046 13.4643V23.8214C1046 24.3934 1045.55 24.8571 1045 24.8571C1044.45 24.8571 1044 24.3934 1044 23.8214V13.4643Z" fill="#D0B07C"/>
<path d="M36 13.4643C36 12.8923 36.4477 12.4286 37 12.4286C37.5523 12.4286 38 12.8923 38 13.4643V23.8214C38 24.3934 37.5523 24.8571 37 24.8571C36.4477 24.8571 36 24.3934 36 23.8214V13.4643Z" fill="#D0B07C"/>
<path d="M360 13.4643C360 12.8923 360.448 12.4286 361 12.4286C361.552 12.4286 362 12.8923 362 13.4643V23.8214C362 24.3934 361.552 24.8571 361 24.8571C360.448 24.8571 360 24.3934 360 23.8214V13.4643Z" fill="#D0B07C"/>
<path d="M684 13.4643C684 12.8923 684.448 12.4286 685 12.4286C685.552 12.4286 686 12.8923 686 13.4643V23.8214C686 24.3934 685.552 24.8571 685 24.8571C684.448 24.8571 684 24.3934 684 23.8214V13.4643Z" fill="#D0B07C"/>
<path d="M1008 13.4643C1008 12.8923 1008.45 12.4286 1009 12.4286C1009.55 12.4286 1010 12.8923 1010 13.4643V23.8214C1010 24.3934 1009.55 24.8571 1009 24.8571C1008.45 24.8571 1008 24.3934 1008 23.8214V13.4643Z" fill="#D0B07C"/>
<path d="M9 5.17857C9 4.60656 9.44772 4.14286 10 4.14286C10.5523 4.14286 11 4.60656 11 5.17857V23.8214C11 24.3934 10.5523 24.8571 10 24.8571C9.44772 24.8571 9 24.3934 9 23.8214V5.17857Z" fill="#D0B07C"/>
<path d="M333 5.17857C333 4.60656 333.448 4.14286 334 4.14286C334.552 4.14286 335 4.60656 335 5.17857V23.8214C335 24.3934 334.552 24.8571 334 24.8571C333.448 24.8571 333 24.3934 333 23.8214V5.17857Z" fill="#D0B07C"/>
<path d="M657 5.17857C657 4.60656 657.448 4.14286 658 4.14286C658.552 4.14286 659 4.60656 659 5.17857V23.8214C659 24.3934 658.552 24.8571 658 24.8571C657.448 24.8571 657 24.3934 657 23.8214V5.17857Z" fill="#D0B07C"/>
<path d="M981 5.17857C981 4.60656 981.448 4.14286 982 4.14286C982.552 4.14286 983 4.60656 983 5.17857V23.8214C983 24.3934 982.552 24.8571 982 24.8571C981.448 24.8571 981 24.3934 981 23.8214V5.17857Z" fill="#D0B07C"/>
<path d="M261 5.17857C261 4.60656 261.448 4.14286 262 4.14286C262.552 4.14286 263 4.60656 263 5.17857V23.8214C263 24.3934 262.552 24.8571 262 24.8571C261.448 24.8571 261 24.3934 261 23.8214V5.17857Z" fill="#D0B07C"/>
<path d="M585 5.17857C585 4.60656 585.448 4.14286 586 4.14286C586.552 4.14286 587 4.60656 587 5.17857V23.8214C587 24.3934 586.552 24.8571 586 24.8571C585.448 24.8571 585 24.3934 585 23.8214V5.17857Z" fill="#D0B07C"/>
<path d="M909 5.17857C909 4.60656 909.448 4.14286 910 4.14286C910.552 4.14286 911 4.60656 911 5.17857V23.8214C911 24.3934 910.552 24.8571 910 24.8571C909.448 24.8571 909 24.3934 909 23.8214V5.17857Z" fill="#D0B07C"/>
<path d="M1233 5.17857C1233 4.60656 1233.45 4.14286 1234 4.14286C1234.55 4.14286 1235 4.60656 1235 5.17857V23.8214C1235 24.3934 1234.55 24.8571 1234 24.8571C1233.45 24.8571 1233 24.3934 1233 23.8214V5.17857Z" fill="#D0B07C"/>
<path d="M297 5.17857C297 4.60656 297.448 4.14286 298 4.14286C298.552 4.14286 299 4.60656 299 5.17857V23.8214C299 24.3934 298.552 24.8571 298 24.8571C297.448 24.8571 297 24.3934 297 23.8214V5.17857Z" fill="#D0B07C"/>
<path d="M621 5.17857C621 4.60656 621.448 4.14286 622 4.14286C622.552 4.14286 623 4.60656 623 5.17857V23.8214C623 24.3934 622.552 24.8571 622 24.8571C621.448 24.8571 621 24.3934 621 23.8214V5.17857Z" fill="#D0B07C"/>
<path d="M945 5.17857C945 4.60656 945.448 4.14286 946 4.14286C946.552 4.14286 947 4.60656 947 5.17857V23.8214C947 24.3934 946.552 24.8571 946 24.8571C945.448 24.8571 945 24.3934 945 23.8214V5.17857Z" fill="#D0B07C"/>
<path d="M225 5.17857C225 4.60656 225.448 4.14286 226 4.14286C226.552 4.14286 227 4.60656 227 5.17857V23.8214C227 24.3934 226.552 24.8571 226 24.8571C225.448 24.8571 225 24.3934 225 23.8214V5.17857Z" fill="#D0B07C"/>
<path d="M549 5.17857C549 4.60656 549.448 4.14286 550 4.14286C550.552 4.14286 551 4.60656 551 5.17857V23.8214C551 24.3934 550.552 24.8571 550 24.8571C549.448 24.8571 549 24.3934 549 23.8214V5.17857Z" fill="#D0B07C"/>
<path d="M873 5.17857C873 4.60656 873.448 4.14286 874 4.14286C874.552 4.14286 875 4.60656 875 5.17857V23.8214C875 24.3934 874.552 24.8571 874 24.8571C873.448 24.8571 873 24.3934 873 23.8214V5.17857Z" fill="#D0B07C"/>
<path d="M1197 5.17857C1197 4.60656 1197.45 4.14286 1198 4.14286C1198.55 4.14286 1199 4.60656 1199 5.17857V23.8214C1199 24.3934 1198.55 24.8571 1198 24.8571C1197.45 24.8571 1197 24.3934 1197 23.8214V5.17857Z" fill="#D0B07C"/>
<path d="M189 5.17857C189 4.60656 189.448 4.14286 190 4.14286C190.552 4.14286 191 4.60656 191 5.17857V23.8214C191 24.3934 190.552 24.8571 190 24.8571C189.448 24.8571 189 24.3934 189 23.8214V5.17857Z" fill="#D0B07C"/>
<path d="M513 5.17857C513 4.60656 513.448 4.14286 514 4.14286C514.552 4.14286 515 4.60656 515 5.17857V23.8214C515 24.3934 514.552 24.8571 514 24.8571C513.448 24.8571 513 24.3934 513 23.8214V5.17857Z" fill="#D0B07C"/>
<path d="M837 5.17857C837 4.60656 837.448 4.14286 838 4.14286C838.552 4.14286 839 4.60656 839 5.17857V23.8214C839 24.3934 838.552 24.8571 838 24.8571C837.448 24.8571 837 24.3934 837 23.8214V5.17857Z" fill="#D0B07C"/>
<path d="M1161 5.17857C1161 4.60656 1161.45 4.14286 1162 4.14286C1162.55 4.14286 1163 4.60656 1163 5.17857V23.8214C1163 24.3934 1162.55 24.8571 1162 24.8571C1161.45 24.8571 1161 24.3934 1161 23.8214V5.17857Z" fill="#D0B07C"/>
<path d="M153 5.17857C153 4.60656 153.448 4.14286 154 4.14286C154.552 4.14286 155 4.60656 155 5.17857V23.8214C155 24.3934 154.552 24.8571 154 24.8571C153.448 24.8571 153 24.3934 153 23.8214V5.17857Z" fill="#D0B07C"/>
<path d="M477 5.17857C477 4.60656 477.448 4.14286 478 4.14286C478.552 4.14286 479 4.60656 479 5.17857V23.8214C479 24.3934 478.552 24.8571 478 24.8571C477.448 24.8571 477 24.3934 477 23.8214V5.17857Z" fill="#D0B07C"/>
<path d="M801 5.17857C801 4.60656 801.448 4.14286 802 4.14286C802.552 4.14286 803 4.60656 803 5.17857V23.8214C803 24.3934 802.552 24.8571 802 24.8571C801.448 24.8571 801 24.3934 801 23.8214V5.17857Z" fill="#D0B07C"/>
<path d="M1125 5.17857C1125 4.60656 1125.45 4.14286 1126 4.14286C1126.55 4.14286 1127 4.60656 1127 5.17857V23.8214C1127 24.3934 1126.55 24.8571 1126 24.8571C1125.45 24.8571 1125 24.3934 1125 23.8214V5.17857Z" fill="#D0B07C"/>
<path d="M117 5.17857C117 4.60656 117.448 4.14286 118 4.14286C118.552 4.14286 119 4.60656 119 5.17857V23.8214C119 24.3934 118.552 24.8571 118 24.8571C117.448 24.8571 117 24.3934 117 23.8214V5.17857Z" fill="#D0B07C"/>
<path d="M441 5.17857C441 4.60656 441.448 4.14286 442 4.14286C442.552 4.14286 443 4.60656 443 5.17857V23.8214C443 24.3934 442.552 24.8571 442 24.8571C441.448 24.8571 441 24.3934 441 23.8214V5.17857Z" fill="#D0B07C"/>
<path d="M765 5.17857C765 4.60656 765.448 4.14286 766 4.14286C766.552 4.14286 767 4.60656 767 5.17857V23.8214C767 24.3934 766.552 24.8571 766 24.8571C765.448 24.8571 765 24.3934 765 23.8214V5.17857Z" fill="#D0B07C"/>
<path d="M1089 5.17857C1089 4.60656 1089.45 4.14286 1090 4.14286C1090.55 4.14286 1091 4.60656 1091 5.17857V23.8214C1091 24.3934 1090.55 24.8571 1090 24.8571C1089.45 24.8571 1089 24.3934 1089 23.8214V5.17857Z" fill="#D0B07C"/>
<path d="M81 5.17857C81 4.60656 81.4477 4.14286 82 4.14286C82.5523 4.14286 83 4.60656 83 5.17857V23.8214C83 24.3934 82.5523 24.8571 82 24.8571C81.4477 24.8571 81 24.3934 81 23.8214V5.17857Z" fill="#D0B07C"/>
<path d="M405 5.17857C405 4.60656 405.448 4.14286 406 4.14286C406.552 4.14286 407 4.60656 407 5.17857V23.8214C407 24.3934 406.552 24.8571 406 24.8571C405.448 24.8571 405 24.3934 405 23.8214V5.17857Z" fill="#D0B07C"/>
<path d="M729 5.17857C729 4.60656 729.448 4.14286 730 4.14286C730.552 4.14286 731 4.60656 731 5.17857V23.8214C731 24.3934 730.552 24.8571 730 24.8571C729.448 24.8571 729 24.3934 729 23.8214V5.17857Z" fill="#D0B07C"/>
<path d="M1053 5.17857C1053 4.60656 1053.45 4.14286 1054 4.14286C1054.55 4.14286 1055 4.60656 1055 5.17857V23.8214C1055 24.3934 1054.55 24.8571 1054 24.8571C1053.45 24.8571 1053 24.3934 1053 23.8214V5.17857Z" fill="#D0B07C"/>
<path d="M45 5.17857C45 4.60656 45.4477 4.14286 46 4.14286C46.5523 4.14286 47 4.60656 47 5.17857V23.8214C47 24.3934 46.5523 24.8571 46 24.8571C45.4477 24.8571 45 24.3934 45 23.8214V5.17857Z" fill="#D0B07C"/>
<path d="M369 5.17857C369 4.60656 369.448 4.14286 370 4.14286C370.552 4.14286 371 4.60656 371 5.17857V23.8214C371 24.3934 370.552 24.8571 370 24.8571C369.448 24.8571 369 24.3934 369 23.8214V5.17857Z" fill="#D0B07C"/>
<path d="M693 5.17857C693 4.60656 693.448 4.14286 694 4.14286C694.552 4.14286 695 4.60656 695 5.17857V23.8214C695 24.3934 694.552 24.8571 694 24.8571C693.448 24.8571 693 24.3934 693 23.8214V5.17857Z" fill="#D0B07C"/>
<path d="M1017 5.17857C1017 4.60656 1017.45 4.14286 1018 4.14286C1018.55 4.14286 1019 4.60656 1019 5.17857V23.8214C1019 24.3934 1018.55 24.8571 1018 24.8571C1017.45 24.8571 1017 24.3934 1017 23.8214V5.17857Z" fill="#D0B07C"/>
<path d="M27 5.17857C27 4.60656 27.4477 4.14286 28 4.14286C28.5523 4.14286 29 4.60656 29 5.17857V23.8214C29 24.3934 28.5523 24.8571 28 24.8571C27.4477 24.8571 27 24.3934 27 23.8214V5.17857Z" fill="#D0B07C"/>
<path d="M351 5.17857C351 4.60656 351.448 4.14286 352 4.14286C352.552 4.14286 353 4.60656 353 5.17857V23.8214C353 24.3934 352.552 24.8571 352 24.8571C351.448 24.8571 351 24.3934 351 23.8214V5.17857Z" fill="#D0B07C"/>
<path d="M675 5.17857C675 4.60656 675.448 4.14286 676 4.14286C676.552 4.14286 677 4.60656 677 5.17857V23.8214C677 24.3934 676.552 24.8571 676 24.8571C675.448 24.8571 675 24.3934 675 23.8214V5.17857Z" fill="#D0B07C"/>
<path d="M999 5.17857C999 4.60656 999.448 4.14286 1000 4.14286C1000.55 4.14286 1001 4.60656 1001 5.17857V23.8214C1001 24.3934 1000.55 24.8571 1000 24.8571C999.448 24.8571 999 24.3934 999 23.8214V5.17857Z" fill="#D0B07C"/>
<path d="M281 5.17857C281 4.60656 280.552 4.14286 280 4.14286C279.448 4.14286 279 4.60656 279 5.17857V23.8214C279 24.3934 279.448 24.8571 280 24.8571C280.552 24.8571 281 24.3934 281 23.8214V5.17857Z" fill="#D0B07C"/>
<path d="M605 5.17857C605 4.60656 604.552 4.14286 604 4.14286C603.448 4.14286 603 4.60656 603 5.17857V23.8214C603 24.3934 603.448 24.8571 604 24.8571C604.552 24.8571 605 24.3934 605 23.8214V5.17857Z" fill="#D0B07C"/>
<path d="M929 5.17857C929 4.60656 928.552 4.14286 928 4.14286C927.448 4.14286 927 4.60656 927 5.17857V23.8214C927 24.3934 927.448 24.8571 928 24.8571C928.552 24.8571 929 24.3934 929 23.8214V5.17857Z" fill="#D0B07C"/>
<path d="M317 5.17857C317 4.60656 316.552 4.14286 316 4.14286C315.448 4.14286 315 4.60656 315 5.17857V23.8214C315 24.3934 315.448 24.8571 316 24.8571C316.552 24.8571 317 24.3934 317 23.8214V5.17857Z" fill="#D0B07C"/>
<path d="M641 5.17857C641 4.60656 640.552 4.14286 640 4.14286C639.448 4.14286 639 4.60656 639 5.17857V23.8214C639 24.3934 639.448 24.8571 640 24.8571C640.552 24.8571 641 24.3934 641 23.8214V5.17857Z" fill="#D0B07C"/>
<path d="M965 5.17857C965 4.60656 964.552 4.14286 964 4.14286C963.448 4.14286 963 4.60656 963 5.17857V23.8214C963 24.3934 963.448 24.8571 964 24.8571C964.552 24.8571 965 24.3934 965 23.8214V5.17857Z" fill="#D0B07C"/>
<path d="M245 5.17857C245 4.60656 244.552 4.14286 244 4.14286C243.448 4.14286 243 4.60656 243 5.17857V23.8214C243 24.3934 243.448 24.8571 244 24.8571C244.552 24.8571 245 24.3934 245 23.8214V5.17857Z" fill="#D0B07C"/>
<path d="M569 5.17857C569 4.60656 568.552 4.14286 568 4.14286C567.448 4.14286 567 4.60656 567 5.17857V23.8214C567 24.3934 567.448 24.8571 568 24.8571C568.552 24.8571 569 24.3934 569 23.8214V5.17857Z" fill="#D0B07C"/>
<path d="M893 5.17857C893 4.60656 892.552 4.14286 892 4.14286C891.448 4.14286 891 4.60656 891 5.17857V23.8214C891 24.3934 891.448 24.8571 892 24.8571C892.552 24.8571 893 24.3934 893 23.8214V5.17857Z" fill="#D0B07C"/>
<path d="M1217 5.17857C1217 4.60656 1216.55 4.14286 1216 4.14286C1215.45 4.14286 1215 4.60656 1215 5.17857V23.8214C1215 24.3934 1215.45 24.8571 1216 24.8571C1216.55 24.8571 1217 24.3934 1217 23.8214V5.17857Z" fill="#D0B07C"/>
<path d="M209 5.17857C209 4.60656 208.552 4.14286 208 4.14286C207.448 4.14286 207 4.60656 207 5.17857V23.8214C207 24.3934 207.448 24.8571 208 24.8571C208.552 24.8571 209 24.3934 209 23.8214V5.17857Z" fill="#D0B07C"/>
<path d="M533 5.17857C533 4.60656 532.552 4.14286 532 4.14286C531.448 4.14286 531 4.60656 531 5.17857V23.8214C531 24.3934 531.448 24.8571 532 24.8571C532.552 24.8571 533 24.3934 533 23.8214V5.17857Z" fill="#D0B07C"/>
<path d="M857 5.17857C857 4.60656 856.552 4.14286 856 4.14286C855.448 4.14286 855 4.60656 855 5.17857V23.8214C855 24.3934 855.448 24.8571 856 24.8571C856.552 24.8571 857 24.3934 857 23.8214V5.17857Z" fill="#D0B07C"/>
<path d="M1181 5.17857C1181 4.60656 1180.55 4.14286 1180 4.14286C1179.45 4.14286 1179 4.60656 1179 5.17857V23.8214C1179 24.3934 1179.45 24.8571 1180 24.8571C1180.55 24.8571 1181 24.3934 1181 23.8214V5.17857Z" fill="#D0B07C"/>
<path d="M173 5.17857C173 4.60656 172.552 4.14286 172 4.14286C171.448 4.14286 171 4.60656 171 5.17857V23.8214C171 24.3934 171.448 24.8571 172 24.8571C172.552 24.8571 173 24.3934 173 23.8214V5.17857Z" fill="#D0B07C"/>
<path d="M497 5.17857C497 4.60656 496.552 4.14286 496 4.14286C495.448 4.14286 495 4.60656 495 5.17857V23.8214C495 24.3934 495.448 24.8571 496 24.8571C496.552 24.8571 497 24.3934 497 23.8214V5.17857Z" fill="#D0B07C"/>
<path d="M821 5.17857C821 4.60656 820.552 4.14286 820 4.14286C819.448 4.14286 819 4.60656 819 5.17857V23.8214C819 24.3934 819.448 24.8571 820 24.8571C820.552 24.8571 821 24.3934 821 23.8214V5.17857Z" fill="#D0B07C"/>
<path d="M1145 5.17857C1145 4.60656 1144.55 4.14286 1144 4.14286C1143.45 4.14286 1143 4.60656 1143 5.17857V23.8214C1143 24.3934 1143.45 24.8571 1144 24.8571C1144.55 24.8571 1145 24.3934 1145 23.8214V5.17857Z" fill="#D0B07C"/>
<path d="M137 5.17857C137 4.60656 136.552 4.14286 136 4.14286C135.448 4.14286 135 4.60656 135 5.17857V23.8214C135 24.3934 135.448 24.8571 136 24.8571C136.552 24.8571 137 24.3934 137 23.8214V5.17857Z" fill="#D0B07C"/>
<path d="M461 5.17857C461 4.60656 460.552 4.14286 460 4.14286C459.448 4.14286 459 4.60656 459 5.17857V23.8214C459 24.3934 459.448 24.8571 460 24.8571C460.552 24.8571 461 24.3934 461 23.8214V5.17857Z" fill="#D0B07C"/>
<path d="M785 5.17857C785 4.60656 784.552 4.14286 784 4.14286C783.448 4.14286 783 4.60656 783 5.17857V23.8214C783 24.3934 783.448 24.8571 784 24.8571C784.552 24.8571 785 24.3934 785 23.8214V5.17857Z" fill="#D0B07C"/>
<path d="M1109 5.17857C1109 4.60656 1108.55 4.14286 1108 4.14286C1107.45 4.14286 1107 4.60656 1107 5.17857V23.8214C1107 24.3934 1107.45 24.8571 1108 24.8571C1108.55 24.8571 1109 24.3934 1109 23.8214V5.17857Z" fill="#D0B07C"/>
<path d="M101 5.17857C101 4.60656 100.552 4.14286 100 4.14286C99.4477 4.14286 99 4.60656 99 5.17857V23.8214C99 24.3934 99.4477 24.8571 100 24.8571C100.552 24.8571 101 24.3934 101 23.8214V5.17857Z" fill="#D0B07C"/>
<path d="M425 5.17857C425 4.60656 424.552 4.14286 424 4.14286C423.448 4.14286 423 4.60656 423 5.17857V23.8214C423 24.3934 423.448 24.8571 424 24.8571C424.552 24.8571 425 24.3934 425 23.8214V5.17857Z" fill="#D0B07C"/>
<path d="M749 5.17857C749 4.60656 748.552 4.14286 748 4.14286C747.448 4.14286 747 4.60656 747 5.17857V23.8214C747 24.3934 747.448 24.8571 748 24.8571C748.552 24.8571 749 24.3934 749 23.8214V5.17857Z" fill="#D0B07C"/>
<path d="M1073 5.17857C1073 4.60656 1072.55 4.14286 1072 4.14286C1071.45 4.14286 1071 4.60656 1071 5.17857V23.8214C1071 24.3934 1071.45 24.8571 1072 24.8571C1072.55 24.8571 1073 24.3934 1073 23.8214V5.17857Z" fill="#D0B07C"/>
<path d="M65 5.17857C65 4.60656 64.5523 4.14286 64 4.14286C63.4477 4.14286 63 4.60656 63 5.17857V23.8214C63 24.3934 63.4477 24.8571 64 24.8571C64.5523 24.8571 65 24.3934 65 23.8214V5.17857Z" fill="#D0B07C"/>
<path d="M389 5.17857C389 4.60656 388.552 4.14286 388 4.14286C387.448 4.14286 387 4.60656 387 5.17857V23.8214C387 24.3934 387.448 24.8571 388 24.8571C388.552 24.8571 389 24.3934 389 23.8214V5.17857Z" fill="#D0B07C"/>
<path d="M713 5.17857C713 4.60656 712.552 4.14286 712 4.14286C711.448 4.14286 711 4.60656 711 5.17857V23.8214C711 24.3934 711.448 24.8571 712 24.8571C712.552 24.8571 713 24.3934 713 23.8214V5.17857Z" fill="#D0B07C"/>
<path d="M1037 5.17857C1037 4.60656 1036.55 4.14286 1036 4.14286C1035.45 4.14286 1035 4.60656 1035 5.17857V23.8214C1035 24.3934 1035.45 24.8571 1036 24.8571C1036.55 24.8571 1037 24.3934 1037 23.8214V5.17857Z" fill="#D0B07C"/>
<path d="M18 1.03571C18 0.463705 18.4477 0 19 0C19.5523 0 20 0.463705 20 1.03571V27.9643C20 28.5363 19.5523 29 19 29C18.4477 29 18 28.5363 18 27.9643V1.03571Z" fill="#D0B07C"/>
<path d="M342 1.03571C342 0.463705 342.448 0 343 0C343.552 0 344 0.463705 344 1.03571V27.9643C344 28.5363 343.552 29 343 29C342.448 29 342 28.5363 342 27.9643V1.03571Z" fill="#D0B07C"/>
<path d="M666 1.03571C666 0.463705 666.448 0 667 0C667.552 0 668 0.463705 668 1.03571V27.9643C668 28.5363 667.552 29 667 29C666.448 29 666 28.5363 666 27.9643V1.03571Z" fill="#D0B07C"/>
<path d="M990 1.03571C990 0.463705 990.448 0 991 0C991.552 0 992 0.463705 992 1.03571V27.9643C992 28.5363 991.552 29 991 29C990.448 29 990 28.5363 990 27.9643V1.03571Z" fill="#D0B07C"/>
<path d="M272 1.03571C272 0.463705 271.552 0 271 0C270.448 0 270 0.463705 270 1.03571V27.9643C270 28.5363 270.448 29 271 29C271.552 29 272 28.5363 272 27.9643V1.03571Z" fill="#D0B07C"/>
<path d="M596 1.03571C596 0.463705 595.552 0 595 0C594.448 0 594 0.463705 594 1.03571V27.9643C594 28.5363 594.448 29 595 29C595.552 29 596 28.5363 596 27.9643V1.03571Z" fill="#D0B07C"/>
<path d="M920 1.03571C920 0.463705 919.552 0 919 0C918.448 0 918 0.463705 918 1.03571V27.9643C918 28.5363 918.448 29 919 29C919.552 29 920 28.5363 920 27.9643V1.03571Z" fill="#D0B07C"/>
<path d="M308 1.03571C308 0.463705 307.552 0 307 0C306.448 0 306 0.463705 306 1.03571V27.9643C306 28.5363 306.448 29 307 29C307.552 29 308 28.5363 308 27.9643V1.03571Z" fill="#D0B07C"/>
<path d="M632 1.03571C632 0.463705 631.552 0 631 0C630.448 0 630 0.463705 630 1.03571V27.9643C630 28.5363 630.448 29 631 29C631.552 29 632 28.5363 632 27.9643V1.03571Z" fill="#D0B07C"/>
<path d="M956 1.03571C956 0.463705 955.552 0 955 0C954.448 0 954 0.463705 954 1.03571V27.9643C954 28.5363 954.448 29 955 29C955.552 29 956 28.5363 956 27.9643V1.03571Z" fill="#D0B07C"/>
<path d="M236 1.03571C236 0.463705 235.552 0 235 0C234.448 0 234 0.463705 234 1.03571V27.9643C234 28.5363 234.448 29 235 29C235.552 29 236 28.5363 236 27.9643V1.03571Z" fill="#D0B07C"/>
<path d="M560 1.03571C560 0.463705 559.552 0 559 0C558.448 0 558 0.463705 558 1.03571V27.9643C558 28.5363 558.448 29 559 29C559.552 29 560 28.5363 560 27.9643V1.03571Z" fill="#D0B07C"/>
<path d="M884 1.03571C884 0.463705 883.552 0 883 0C882.448 0 882 0.463705 882 1.03571V27.9643C882 28.5363 882.448 29 883 29C883.552 29 884 28.5363 884 27.9643V1.03571Z" fill="#D0B07C"/>
<path d="M1208 1.03571C1208 0.463705 1207.55 0 1207 0C1206.45 0 1206 0.463705 1206 1.03571V27.9643C1206 28.5363 1206.45 29 1207 29C1207.55 29 1208 28.5363 1208 27.9643V1.03571Z" fill="#D0B07C"/>
<path d="M200 1.03571C200 0.463705 199.552 0 199 0C198.448 0 198 0.463705 198 1.03571V27.9643C198 28.5363 198.448 29 199 29C199.552 29 200 28.5363 200 27.9643V1.03571Z" fill="#D0B07C"/>
<path d="M524 1.03571C524 0.463705 523.552 0 523 0C522.448 0 522 0.463705 522 1.03571V27.9643C522 28.5363 522.448 29 523 29C523.552 29 524 28.5363 524 27.9643V1.03571Z" fill="#D0B07C"/>
<path d="M848 1.03571C848 0.463705 847.552 0 847 0C846.448 0 846 0.463705 846 1.03571V27.9643C846 28.5363 846.448 29 847 29C847.552 29 848 28.5363 848 27.9643V1.03571Z" fill="#D0B07C"/>
<path d="M1172 1.03571C1172 0.463705 1171.55 0 1171 0C1170.45 0 1170 0.463705 1170 1.03571V27.9643C1170 28.5363 1170.45 29 1171 29C1171.55 29 1172 28.5363 1172 27.9643V1.03571Z" fill="#D0B07C"/>
<path d="M164 1.03571C164 0.463705 163.552 0 163 0C162.448 0 162 0.463705 162 1.03571V27.9643C162 28.5363 162.448 29 163 29C163.552 29 164 28.5363 164 27.9643V1.03571Z" fill="#D0B07C"/>
<path d="M488 1.03571C488 0.463705 487.552 0 487 0C486.448 0 486 0.463705 486 1.03571V27.9643C486 28.5363 486.448 29 487 29C487.552 29 488 28.5363 488 27.9643V1.03571Z" fill="#D0B07C"/>
<path d="M812 1.03571C812 0.463705 811.552 0 811 0C810.448 0 810 0.463705 810 1.03571V27.9643C810 28.5363 810.448 29 811 29C811.552 29 812 28.5363 812 27.9643V1.03571Z" fill="#D0B07C"/>
<path d="M1136 1.03571C1136 0.463705 1135.55 0 1135 0C1134.45 0 1134 0.463705 1134 1.03571V27.9643C1134 28.5363 1134.45 29 1135 29C1135.55 29 1136 28.5363 1136 27.9643V1.03571Z" fill="#D0B07C"/>
<path d="M128 1.03571C128 0.463705 127.552 0 127 0C126.448 0 126 0.463705 126 1.03571V27.9643C126 28.5363 126.448 29 127 29C127.552 29 128 28.5363 128 27.9643V1.03571Z" fill="#D0B07C"/>
<path d="M452 1.03571C452 0.463705 451.552 0 451 0C450.448 0 450 0.463705 450 1.03571V27.9643C450 28.5363 450.448 29 451 29C451.552 29 452 28.5363 452 27.9643V1.03571Z" fill="#D0B07C"/>
<path d="M776 1.03571C776 0.463705 775.552 0 775 0C774.448 0 774 0.463705 774 1.03571V27.9643C774 28.5363 774.448 29 775 29C775.552 29 776 28.5363 776 27.9643V1.03571Z" fill="#D0B07C"/>
<path d="M1100 1.03571C1100 0.463705 1099.55 0 1099 0C1098.45 0 1098 0.463705 1098 1.03571V27.9643C1098 28.5363 1098.45 29 1099 29C1099.55 29 1100 28.5363 1100 27.9643V1.03571Z" fill="#D0B07C"/>
<path d="M92 1.03571C92 0.463705 91.5523 0 91 0C90.4477 0 90 0.463705 90 1.03571V27.9643C90 28.5363 90.4477 29 91 29C91.5523 29 92 28.5363 92 27.9643V1.03571Z" fill="#D0B07C"/>
<path d="M416 1.03571C416 0.463705 415.552 0 415 0C414.448 0 414 0.463705 414 1.03571V27.9643C414 28.5363 414.448 29 415 29C415.552 29 416 28.5363 416 27.9643V1.03571Z" fill="#D0B07C"/>
<path d="M740 1.03571C740 0.463705 739.552 0 739 0C738.448 0 738 0.463705 738 1.03571V27.9643C738 28.5363 738.448 29 739 29C739.552 29 740 28.5363 740 27.9643V1.03571Z" fill="#D0B07C"/>
<path d="M1064 1.03571C1064 0.463705 1063.55 0 1063 0C1062.45 0 1062 0.463705 1062 1.03571V27.9643C1062 28.5363 1062.45 29 1063 29C1063.55 29 1064 28.5363 1064 27.9643V1.03571Z" fill="#D0B07C"/>
<path d="M56 1.03571C56 0.463705 55.5523 0 55 0C54.4477 0 54 0.463705 54 1.03571V27.9643C54 28.5363 54.4477 29 55 29C55.5523 29 56 28.5363 56 27.9643V1.03571Z" fill="#D0B07C"/>
<path d="M380 1.03571C380 0.463705 379.552 0 379 0C378.448 0 378 0.463705 378 1.03571V27.9643C378 28.5363 378.448 29 379 29C379.552 29 380 28.5363 380 27.9643V1.03571Z" fill="#D0B07C"/>
<path d="M704 1.03571C704 0.463705 703.552 0 703 0C702.448 0 702 0.463705 702 1.03571V27.9643C702 28.5363 702.448 29 703 29C703.552 29 704 28.5363 704 27.9643V1.03571Z" fill="#D0B07C"/>
<path d="M1028 1.03571C1028 0.463705 1027.55 0 1027 0C1026.45 0 1026 0.463705 1026 1.03571V27.9643C1026 28.5363 1026.45 29 1027 29C1027.55 29 1028 28.5363 1028 27.9643V1.03571Z" fill="#D0B07C"/>
</svg>
