<svg width="132" height="30" viewBox="0 0 132 30" fill="none" xmlns="http://www.w3.org/2000/svg">
<path d="M12.9757 4.98251V9.70111H11.0567H9.13779V6.22893V2.75675H6.48783H3.83787V6.22893V9.70111H1.91894H0V4.98251V0.263908H6.48783H12.9757V4.98251Z" fill="#F9F9F9"/>
<path fill-rule="evenodd" clip-rule="evenodd" d="M26.6389 0.697663C27.9278 1.2687 28.9045 2.20851 29.2406 3.20084C29.5388 4.08135 29.3994 6.58808 29.0121 7.30816C28.1179 8.97124 26.5405 9.67369 23.21 9.89288C19.9555 10.1069 17.9812 9.79637 16.4051 8.82256C15.3073 8.14415 14.6543 7.16909 14.4403 5.88812C14.1358 4.06532 14.6791 2.44942 15.9453 1.41133C17.2295 0.358636 18.6128 0.0863821 22.3876 0.14354C25.3618 0.188589 25.5432 0.212271 26.6389 0.697663ZM18.3244 5.12193C18.2114 3.94014 18.773 3.13923 20.016 2.70921C20.6593 2.48681 21.3075 2.41345 22.2301 2.45868C24.3312 2.56178 25.4243 3.41308 25.4482 4.96559C25.474 6.61977 24.2312 7.48088 21.8393 7.46663C19.615 7.45345 18.4746 6.6926 18.3244 5.12193Z" fill="#F9F9F9"/>
<path d="M34.5409 2.13354C34.5409 3.16184 34.6041 4.00318 34.6812 4.00318C34.7583 4.00318 35.6822 3.16184 36.7339 2.13354L38.6463 0.263908H40.8236H43.0008L40.7356 2.37624L38.4701 4.48875L41.0026 7.09484L43.535 9.70111L41.2767 9.70539L39.0184 9.70966L36.8789 7.52414L34.7393 5.33863L34.7315 7.51987L34.7236 9.70111H32.7133H30.703V4.98251V0.263908H32.6219H34.5409V2.13354Z" fill="#F9F9F9"/>
<path fill-rule="evenodd" clip-rule="evenodd" d="M54.093 0.3362C55.361 0.656709 56.5964 1.4327 57.1609 2.26335C57.5973 2.90543 57.6673 3.2044 57.7231 4.66449C57.7805 6.17071 57.7404 6.42391 57.3099 7.28145C56.7952 8.30654 56.0147 8.94524 54.644 9.46304C53.9744 9.71589 53.2103 9.77518 50.532 9.78195C46.3993 9.79228 45.5808 9.59267 44.1401 8.22339C43.0626 7.19936 42.7676 6.4889 42.766 4.91413C42.7629 2.09241 44.5511 0.45746 48.0648 0.0696443C49.5749 -0.0971983 52.9729 0.0530843 54.093 0.3362ZM46.7744 4.12533C47.0293 3.37231 47.4624 2.97488 48.3726 2.65864C49.3346 2.32424 51.2755 2.35594 52.2494 2.72185C53.3377 3.13086 53.8216 3.7993 53.8216 4.89348C53.8216 6.56084 52.5917 7.44117 50.2579 7.44437C47.6156 7.44793 46.1287 6.03128 46.7744 4.12533Z" fill="#F9F9F9"/>
<path d="M70.9093 4.98251V9.70111H68.9903H67.0714V6.22893V2.75675H65.0956H63.12L62.9331 5.22699C62.7198 8.04426 62.4809 8.64503 61.3458 9.21892C60.9335 9.42725 60.1263 9.60888 59.3812 9.66087L58.1164 9.74901V8.49796C58.1164 7.30727 58.1387 7.24138 58.5797 7.13348C59.2725 6.96414 59.4187 6.35304 59.5309 3.15739L59.6325 0.263908H65.2709H70.9093V4.98251Z" fill="#F9F9F9"/>
<path fill-rule="evenodd" clip-rule="evenodd" d="M83.3469 0.512836C85.2024 1.17077 86.4382 2.83118 86.4417 4.6709L86.4435 5.60572H81.2458C77.6632 5.60572 76.0094 5.66662 75.9237 5.80159C75.7318 6.10429 76.4289 6.90343 77.2173 7.28465C77.7261 7.53055 78.3191 7.6292 79.3071 7.63241C80.8357 7.63721 81.8461 7.37475 82.3377 6.84538C82.6208 6.54072 82.9067 6.49602 84.5758 6.49602H86.4892L86.3765 7.04516C86.057 8.60159 84.3142 9.58145 81.3262 9.88451C75.0867 10.5173 71.7141 8.55796 72.063 4.50281C72.2436 2.40491 73.2785 1.13267 75.2954 0.529396C75.8483 0.364156 76.3828 0.198204 76.4833 0.160989C76.5838 0.123597 77.9819 0.121104 79.5902 0.155291C81.7253 0.200697 82.7389 0.297205 83.3469 0.512836ZM76.0264 3.58224C76.0264 3.15045 76.9552 2.41951 77.7347 2.23789C78.7005 2.01264 80.5615 2.12963 81.392 2.46776C81.7599 2.61751 82.157 2.96224 82.324 3.27687L82.615 3.82512H79.3208C76.6608 3.82512 76.0264 3.77829 76.0264 3.58224Z" fill="#F9F9F9"/>
<path d="M91.3779 1.95548V3.64706H94.2107H97.0434V1.95548V0.263908H98.9623H100.881V4.98251V9.70111H98.9623H97.0434V7.92051V6.1399H94.2107H91.3779V7.92051V9.70111H89.459H87.5401V4.98251V0.263908H89.459H91.3779V1.95548Z" fill="#F9F9F9"/>
<path d="M106.181 3.33349V6.40325L109.336 3.33349L112.49 0.263908H114.453H116.415V4.98251V9.70111H114.497H112.578V6.63153V3.56177L109.423 6.63153L106.269 9.70111H104.306H102.343V4.98251V0.263908H104.262H106.181V3.33349Z" fill="#F9F9F9"/>
<path fill-rule="evenodd" clip-rule="evenodd" d="M127.545 0.283317C128.996 0.504468 129.89 0.938579 130.665 1.79843C131.412 2.62766 131.688 3.27562 131.849 4.58187L131.976 5.60572H126.674C123.758 5.60572 121.331 5.67036 121.28 5.74924C121.137 5.97484 121.579 6.69652 122.081 7.05691C123.289 7.92425 126.714 7.84483 127.605 6.92871C127.99 6.53324 128.157 6.5019 129.894 6.49905C131.74 6.49602 131.767 6.50208 131.767 6.91482C131.767 7.66695 130.996 8.51184 129.75 9.12544C128.777 9.60442 128.225 9.73993 126.621 9.89377C121.695 10.3658 118.378 9.15927 117.602 6.61265C116.785 3.93391 117.964 1.39103 120.413 0.549695C122.085 -0.0247279 124.847 -0.127825 127.545 0.283317ZM122.319 2.54718C122.54 2.43019 123.008 2.27866 123.36 2.21011C124.966 1.89726 126.658 2.20334 127.418 2.94372C127.699 3.21757 127.929 3.52793 127.929 3.63334C127.929 3.76315 126.867 3.82512 124.64 3.82512C122.83 3.82512 121.35 3.7628 121.35 3.68676C121.35 3.42626 121.917 2.75978 122.319 2.54718Z" fill="#F9F9F9"/>
<path fill-rule="evenodd" clip-rule="evenodd" d="M128.069 17.1773C130.179 17.6403 131.627 19.2802 131.882 21.4976L132 22.5215H126.584C123.605 22.5215 121.167 22.5654 121.167 22.6194C121.167 22.6732 121.296 22.9598 121.453 23.2565C121.875 24.0515 122.974 24.4718 124.64 24.4751C126.256 24.4787 127.201 24.2567 127.656 23.7668C127.945 23.4557 128.22 23.4118 129.876 23.4118C131.715 23.4118 131.767 23.4226 131.766 23.8124C131.763 24.7403 130.441 25.9114 128.859 26.387C127.655 26.7488 123.509 26.8962 122.054 26.6288C118.748 26.0211 117.023 23.9379 117.427 21.0407C117.737 18.815 119.226 17.48 121.92 17.0128C123.151 16.7995 126.79 16.8967 128.069 17.1773ZM121.354 20.5183C121.361 20.1269 121.97 19.5174 122.629 19.2418C123.37 18.9319 125.341 18.8799 126.318 19.1445C126.94 19.3126 127.929 20.1923 127.929 20.5765C127.929 20.6709 126.528 20.7409 124.64 20.7409C122.128 20.7409 121.351 20.6883 121.354 20.5183Z" fill="#F9F9F9"/>
<path fill-rule="evenodd" clip-rule="evenodd" d="M108.74 15.31V17.0016H109.62C111.747 17.0016 114.042 17.7434 115.098 18.7726C115.964 19.6162 116.277 20.3199 116.374 21.644C116.587 24.549 114.49 26.4224 110.548 26.8487L108.74 27.0442V28.5221V30H106.729H104.719V28.5128V27.0257L103.303 26.9167C101.488 26.7771 100.228 26.4044 99.1228 25.6804C96.2031 23.7677 96.4026 19.746 99.5051 17.9745C100.414 17.4558 102.373 17.0091 103.76 17.0046L104.719 17.0016V15.31V13.6184H106.729H108.74V15.31ZM101.064 21.9045C101.064 20.8107 101.873 19.9173 103.172 19.5776C103.231 19.5621 103.288 19.547 103.343 19.5324C103.383 19.5216 103.422 19.5111 103.46 19.5009C103.986 19.3593 104.294 19.2766 104.473 19.3886C104.724 19.5459 104.723 20.0877 104.72 21.3907C104.72 21.5485 104.719 21.7175 104.719 21.8982V24.4801L103.942 24.4762C102.875 24.4709 101.702 23.9187 101.35 23.2565C101.193 22.9598 101.064 22.3514 101.064 21.9045ZM108.74 24.4801V21.878V19.276L109.608 19.4022C111.649 19.6988 112.395 20.3936 112.395 21.9976C112.395 22.8441 112.311 23.1253 111.926 23.5709C111.424 24.1527 110.529 24.4775 109.425 24.4791L108.74 24.4801Z" fill="#F9F9F9"/>
<path fill-rule="evenodd" clip-rule="evenodd" d="M90.7944 17.0043C92.8223 17.2124 94.1571 17.7624 95.0985 18.7776C95.907 19.6495 96.1934 20.6565 96.0874 22.2544C95.9443 24.4091 94.9214 25.7184 92.8674 26.3756C91.379 26.8517 85.8839 26.8572 84.4913 26.3839C83.155 25.9297 81.9921 25.007 81.4949 24.0063C80.9238 22.8569 80.9095 20.8003 81.4651 19.7494C82.697 17.4197 85.8375 16.4955 90.7944 17.0043ZM85.3788 23.0556C84.4871 21.7629 85.2088 19.9467 86.7851 19.5169C87.1501 19.4173 88.0655 19.3545 88.8194 19.3771C91.1091 19.4456 92.109 20.185 92.109 21.8092C92.109 23.496 90.8774 24.3758 88.5302 24.3656C86.9684 24.3589 86.0002 23.9563 85.3788 23.0556Z" fill="#F9F9F9"/>
<path d="M72.9196 19.0493C72.9196 20.0776 72.9828 20.9189 73.06 20.9189C73.1371 20.9189 74.0609 20.0776 75.1127 19.0493L77.025 17.1796H79.1273H81.2293L79.0551 19.3034L76.881 21.4273L77.8109 22.4639C78.3224 23.0343 79.4047 24.1399 80.2163 24.9212C81.0279 25.7023 81.6919 26.4034 81.6919 26.4792C81.6919 26.5549 80.7118 26.6169 79.5138 26.6169H77.3357L75.2804 24.4801C74.1499 23.3049 73.1563 22.3434 73.0724 22.3434C72.9883 22.3434 72.9196 23.3049 72.9196 24.4801V26.6169H71.0007H69.0817V21.8982V17.1796H71.0007H72.9196V19.0493Z" fill="#F9F9F9"/>
<path d="M14.3463 17.422C16.0928 17.8773 17.1683 18.5749 19.4452 20.7302C22.2659 23.3998 22.4565 23.5008 24.672 23.5008C26.879 23.5008 27.0557 23.4078 29.8778 20.7619C31.0913 19.6241 32.4991 18.4754 33.0064 18.2094C35.5672 16.8659 38.6264 16.8659 41.1955 18.2094C41.7254 18.4864 43.0021 19.5543 44.1832 20.7081C46.772 23.2371 47.5874 23.6602 49.6758 23.5572C50.5609 23.5136 51.3506 23.361 51.8113 23.1443C52.2134 22.9552 53.5292 21.8703 54.7354 20.7332C55.9416 19.5961 57.2985 18.4558 57.7509 18.199C58.6292 17.7007 60.4233 17.1796 61.2616 17.1796H61.7715V18.6689V20.1582L60.9485 20.2681C59.6088 20.4471 58.6816 21.0425 56.6858 23.0053C55.6477 24.0264 54.4141 25.0992 53.9444 25.3895C51.4692 26.9197 47.8089 27.008 45.3235 25.5975C44.8711 25.3407 43.5142 24.2004 42.308 23.0633C41.1018 21.9262 39.786 20.8422 39.3839 20.6543C38.3502 20.1716 36.4567 20.0904 35.2602 20.4775C34.4681 20.7339 33.8923 21.1727 31.9039 23.0343C28.6092 26.119 27.165 26.763 23.9765 26.5693C21.59 26.4242 20.2097 25.6781 17.57 23.1067C14.9275 20.5324 14.4911 20.2982 12.336 20.2982C10.1802 20.2982 9.60601 20.5986 7.15891 23.0053C6.12086 24.0264 4.88726 25.0992 4.41757 25.3895C3.43088 25.9995 1.52089 26.6169 0.620456 26.6169H0V25.1265V23.6361L0.784023 23.5501C2.10772 23.4046 2.93012 22.8811 5.20854 20.7332C6.41473 19.5961 7.7737 18.4546 8.2284 18.1964C9.89587 17.25 12.4473 16.927 14.3463 17.422Z" fill="#F9F9F9"/>
</svg>
