<svg width="183" height="48" viewBox="0 0 183 48" fill="none" xmlns="http://www.w3.org/2000/svg">
<path fill-rule="evenodd" clip-rule="evenodd" d="M96.6721 41.3298C97.1031 41.1798 97.474 40.9898 97.6845 40.8398C97.9351 40.6598 98.0554 40.4698 98.0554 40.2598C98.0554 40.1098 97.9953 39.9798 97.875 39.9198C97.7848 39.8898 97.6945 39.8598 97.5943 39.8598C97.474 39.8298 97.3437 39.8298 97.1933 39.8298C97.1332 39.8298 97.073 39.8298 97.0129 39.8298C96.9828 39.8298 96.9227 39.8598 96.8625 39.8598C96.8024 39.8598 96.7723 39.8898 96.7422 39.8898C96.7422 39.9198 96.7122 39.9198 96.7122 39.9498C96.6821 39.9798 96.6821 40.0098 96.6821 40.0698C96.6821 40.1598 96.6821 40.2498 96.6821 40.3498V41.3298H96.6721ZM97.8449 39.2998C97.9652 39.2998 98.0654 39.2998 98.1556 39.2998C98.2459 39.2998 98.3361 39.3298 98.4363 39.3598C98.4965 39.3598 98.5867 39.3898 98.6569 39.4498C98.7471 39.4798 98.8072 39.5398 98.8774 39.5998C98.9375 39.6598 98.9676 39.7498 98.9977 39.8498C99.0277 39.9398 99.0277 40.0298 99.0277 40.1598C99.0277 40.3098 98.9977 40.4698 98.9375 40.5898C98.8473 40.7398 98.7571 40.8698 98.5967 40.9898C98.4464 41.1098 98.316 41.1998 98.1356 41.2998C97.9852 41.3898 97.8249 41.4798 97.6444 41.5498C97.4941 41.6098 97.3036 41.6698 97.1232 41.7298C97.0029 41.7898 96.8425 41.8198 96.6921 41.8798V42.9498C96.6921 43.0698 96.6921 43.1598 96.6921 43.2598C96.6921 43.3498 96.7222 43.4398 96.7523 43.5098C96.7523 43.5398 96.7823 43.5698 96.8425 43.5998C96.8726 43.6298 96.9327 43.6598 97.0229 43.6598H97.1131V43.7798V43.8098V43.9298H96.9928H95.389H95.2687V43.8098V43.7798V43.6898L95.3589 43.6598C95.4491 43.6598 95.5093 43.6298 95.5394 43.5998C95.5995 43.5698 95.6296 43.5398 95.6296 43.5098C95.6596 43.4498 95.6897 43.3898 95.6897 43.2998C95.6897 43.2098 95.6897 43.1198 95.6897 42.9898V40.2898C95.6897 40.1998 95.6897 40.1398 95.6897 40.0798C95.6897 40.0198 95.6897 39.9598 95.6897 39.8998C95.6897 39.8698 95.6596 39.8098 95.6596 39.7798C95.6296 39.7498 95.5995 39.7198 95.5995 39.6898C95.5694 39.6598 95.5394 39.6298 95.5093 39.6298C95.4792 39.5998 95.4191 39.5998 95.3589 39.5998L95.2687 39.5698V39.4798V39.4198V39.3298H95.389H97.8449V39.2998ZM90.7979 40.2898C90.7979 40.1998 90.7979 40.1098 90.7979 40.0398C90.7979 39.9698 90.7979 39.9198 90.7979 39.8898C90.7979 39.8298 90.7679 39.7998 90.7679 39.7698C90.7378 39.7398 90.7077 39.6798 90.7077 39.6498C90.6777 39.6498 90.6476 39.6198 90.6175 39.5898C90.5874 39.5898 90.5273 39.5898 90.4672 39.5598H90.407L90.3769 39.4698V39.4098V39.3198H90.4672H92.1312H92.2214V39.4098V39.4698V39.5598H92.1312C92.0409 39.5898 91.9808 39.5898 91.9206 39.6198C91.8906 39.6198 91.8605 39.6498 91.8605 39.6798C91.8304 39.7398 91.8304 39.7998 91.8004 39.8898C91.8004 39.9798 91.8004 40.0998 91.8004 40.2298V42.4098C91.8004 42.7498 91.8605 43.0198 92.051 43.1798C92.2013 43.3598 92.4519 43.4298 92.7928 43.4298C92.9732 43.4298 93.1636 43.4298 93.2839 43.3698C93.4343 43.3098 93.5646 43.2498 93.6548 43.1598C93.745 43.0698 93.8052 42.9798 93.8353 42.8498C93.8954 42.6998 93.9255 42.5698 93.9255 42.3898V40.2998C93.9255 40.1798 93.9255 40.1198 93.9255 40.0198C93.8954 39.9598 93.8954 39.8998 93.8954 39.8398C93.8954 39.8098 93.8954 39.7798 93.8653 39.7198C93.8653 39.6898 93.8353 39.6598 93.8052 39.6598C93.8052 39.6298 93.7751 39.5998 93.745 39.5998C93.6849 39.5998 93.6548 39.5998 93.5947 39.5998H93.5045V39.4798V39.4198V39.3298H93.5947H94.9179H95.0081V39.4198V39.4798V39.5698H94.9179C94.8577 39.5998 94.7675 39.5998 94.7374 39.6298C94.7073 39.6598 94.6773 39.6898 94.6472 39.7498C94.6171 39.8098 94.6171 39.8698 94.6171 39.9298C94.5871 40.0198 94.5871 40.1098 94.5871 40.2398V42.1098C94.5871 42.2898 94.5871 42.4498 94.557 42.5998C94.5269 42.7798 94.4969 42.9098 94.4367 43.0298C94.4066 43.1498 94.3465 43.2798 94.2863 43.3698C94.2262 43.4598 94.136 43.5498 94.0357 43.6498C93.9455 43.7098 93.8553 43.7698 93.7551 43.8298C93.6548 43.8898 93.5446 43.9198 93.4443 43.9498C93.324 43.9798 93.1937 44.0098 93.0734 44.0098C92.9531 44.0398 92.8228 44.0398 92.7025 44.0398C92.4519 44.0398 92.2414 44.0098 91.9908 43.9498C91.8705 43.9198 91.7703 43.8898 91.65 43.8298C91.5598 43.7998 91.4696 43.7398 91.3693 43.6798C91.249 43.6198 91.1889 43.5598 91.0886 43.4698C91.0285 43.3798 90.9684 43.2898 90.9383 43.1898C90.9082 43.0998 90.8781 42.9798 90.8481 42.8498C90.8481 42.7598 90.818 42.5998 90.818 42.4798V40.2898H90.7979ZM87.5301 43.4498C87.7506 43.4498 87.931 43.4198 88.0814 43.3298C88.1716 43.2998 88.2618 43.2398 88.332 43.1798C88.3922 43.1498 88.4523 43.0598 88.5125 42.9998C88.5726 42.9398 88.6027 42.8498 88.6628 42.7498C88.6929 42.6898 88.7229 42.5998 88.753 42.4998C88.7831 42.3998 88.8132 42.2898 88.8433 42.1898C88.8433 42.0998 88.8433 41.9798 88.8433 41.8798C88.8433 41.5698 88.8132 41.3298 88.7229 41.0498C88.6628 40.9298 88.6327 40.7998 88.5726 40.6798C88.5124 40.5898 88.4523 40.4698 88.3621 40.3698C88.3019 40.2798 88.2117 40.1898 88.1115 40.1198C88.0213 40.0298 87.931 39.9698 87.8308 39.9098C87.7406 39.8798 87.6103 39.8198 87.5201 39.7898C87.4298 39.7898 87.2995 39.7598 87.2093 39.7598C87.059 39.7598 86.9286 39.7898 86.8084 39.8198C86.6881 39.8498 86.5978 39.9098 86.4675 39.9698C86.3773 40.0598 86.2871 40.1498 86.2169 40.2498C86.1568 40.3398 86.0966 40.4598 86.0365 40.5898C85.9763 40.7098 85.9463 40.8398 85.9162 40.9598C85.9162 41.1098 85.8861 41.2398 85.8861 41.3898C85.8861 41.5098 85.9162 41.6398 85.9162 41.7598C85.9463 41.8798 85.9763 42.0098 86.0064 42.1298C86.0365 42.2498 86.0966 42.3798 86.1267 42.4998C86.1869 42.5898 86.247 42.7098 86.3071 42.8098C86.3974 42.8998 86.4575 42.9898 86.5578 43.0898C86.658 43.1898 86.7382 43.2398 86.8384 43.2998C86.9387 43.3598 87.059 43.3898 87.1492 43.4198C87.2795 43.4498 87.4098 43.4498 87.5301 43.4498ZM85.6255 43.3898C85.5654 43.2998 85.4751 43.2098 85.415 43.1398C85.3549 43.0498 85.2947 42.9598 85.2346 42.8598C85.1744 42.7698 85.1443 42.6798 85.0842 42.5798C85.0541 42.4598 85.024 42.3698 84.994 42.2398C84.9639 42.1498 84.9338 42.0598 84.9338 41.9298C84.9038 41.8398 84.9038 41.7198 84.9038 41.6198C84.9038 41.3698 84.9338 41.1598 84.994 40.9398C85.024 40.7598 85.1143 40.5398 85.2446 40.3598C85.3348 40.1798 85.4952 40.0198 85.6155 39.8698C85.7658 39.7198 85.9563 39.5898 86.1367 39.4998C86.3172 39.3798 86.5377 39.3198 86.7482 39.2498C86.9286 39.2198 87.1492 39.1898 87.3998 39.1898C87.6103 39.1898 87.8609 39.2198 88.0814 39.2498C88.2618 39.3098 88.4824 39.3998 88.6628 39.4998C88.8733 39.5898 89.0337 39.7498 89.1841 39.8698C89.3344 40.0198 89.4647 40.2098 89.585 40.3898C89.6752 40.5698 89.7655 40.7898 89.8356 40.9698C89.8958 41.1798 89.9259 41.4298 89.9259 41.6498C89.9259 41.8598 89.8958 42.0798 89.8356 42.2898C89.7755 42.4698 89.6853 42.6898 89.555 42.8698C89.4647 43.0198 89.3044 43.2098 89.154 43.3298C89.0036 43.4798 88.8132 43.6098 88.6327 43.6998C88.4523 43.7898 88.2318 43.8798 88.0513 43.9098C87.8308 43.9698 87.6203 43.9998 87.3998 43.9998C87.3096 43.9998 87.1893 43.9998 87.089 43.9698C86.9687 43.9698 86.8685 43.9398 86.7783 43.9398C86.658 43.9098 86.5678 43.8798 86.4675 43.8498C86.3773 43.8198 86.257 43.7598 86.1568 43.7298C86.0666 43.6698 85.9763 43.6098 85.9062 43.5498C85.816 43.4898 85.7257 43.4298 85.6556 43.3698H85.6255V43.3898ZM81.676 41.2698C81.7963 41.2398 81.9567 41.1798 82.077 41.1198C82.2574 41.0598 82.4478 40.9698 82.6283 40.8698C82.7786 40.7798 82.939 40.6598 82.9992 40.5598C83.0894 40.4698 83.1195 40.3498 83.1195 40.2498C83.1195 40.1498 83.0894 40.0698 83.0593 39.9998C83.0593 39.9698 82.9992 39.9398 82.9691 39.9098C82.909 39.8798 82.8188 39.8498 82.7185 39.8498C82.6283 39.8198 82.5381 39.8198 82.4078 39.8198C82.1973 39.8198 82.0369 39.8198 81.9166 39.8498C81.7963 39.8798 81.7361 39.8798 81.696 39.9098V39.9398C81.696 39.9398 81.666 39.9698 81.666 40.0298C81.666 40.0898 81.666 40.1498 81.666 40.2798V41.2698H81.676ZM82.9992 39.2998C83.1796 39.2998 83.34 39.2998 83.4603 39.3298C83.6106 39.3598 83.7109 39.4198 83.8011 39.4798C83.8913 39.5398 83.9515 39.6298 84.0116 39.7298C84.0417 39.8198 84.0718 39.9398 84.0718 40.0698C84.0718 40.2198 84.0417 40.3498 83.9815 40.4698C83.9515 40.5898 83.8613 40.6798 83.761 40.7798C83.6608 40.8798 83.5405 40.9598 83.4202 41.0598C83.33 41.1198 83.2398 41.1798 83.1395 41.2398C83.35 41.4498 83.5405 41.7298 83.6909 42.0398C83.9114 42.3798 84.0918 42.7498 84.2422 43.1798L84.3324 43.3298C84.3324 43.3898 84.3625 43.4198 84.3625 43.4498C84.3925 43.4798 84.3925 43.4798 84.4226 43.5098C84.4226 43.5398 84.4527 43.5698 84.4827 43.5998C84.4827 43.5998 84.5128 43.6298 84.5429 43.6298C84.573 43.6598 84.603 43.6598 84.6331 43.6598L84.7233 43.6898V43.7798V43.8098V43.9298H84.603H83.1896H83.0994V43.8098V43.7798V43.6898L83.1596 43.6598C83.2197 43.6598 83.2799 43.6298 83.3099 43.5998C83.3099 43.5698 83.34 43.5398 83.34 43.5098C83.34 43.4798 83.34 43.4498 83.3099 43.3898C83.3099 43.3598 83.3099 43.2998 83.2799 43.2698C83.2498 43.2098 83.2498 43.1498 83.2197 43.1198C83.1896 43.0598 83.1896 42.9998 83.1596 42.9398C83.1295 42.9098 83.0994 42.8498 83.0693 42.7898C83.0393 42.7598 83.0393 42.6998 82.9791 42.6398L82.2975 41.6598L82.2674 41.6298L81.656 41.8398V42.9798C81.656 43.0698 81.656 43.1298 81.656 43.1898C81.656 43.2798 81.656 43.3398 81.656 43.3698C81.656 43.3998 81.686 43.4598 81.686 43.4898C81.7161 43.5198 81.7161 43.5498 81.7462 43.5798C81.7762 43.6098 81.8063 43.6098 81.8364 43.6398C81.8665 43.6398 81.9266 43.6698 81.9867 43.6698L82.077 43.6998V43.7898V43.8198V43.9398H81.9567H80.3528H80.2325V43.8198V43.7898V43.6998L80.3228 43.6698C80.3829 43.6698 80.443 43.6398 80.4731 43.6398C80.5032 43.6098 80.5332 43.5798 80.5633 43.5798C80.5934 43.5498 80.5934 43.5198 80.6235 43.4898C80.6235 43.4598 80.6535 43.3998 80.6535 43.3698C80.6535 43.3398 80.6535 43.2798 80.6535 43.2198C80.6535 43.1598 80.6535 43.0998 80.6535 43.0098V40.3098C80.6535 40.2198 80.6535 40.1598 80.6535 40.0998C80.6535 40.0398 80.6535 39.9798 80.6535 39.9198C80.6535 39.8898 80.6235 39.8598 80.6235 39.7998C80.5934 39.7698 80.5633 39.7398 80.5633 39.7098C80.5332 39.6798 80.5032 39.6498 80.4731 39.6498C80.443 39.6198 80.3829 39.6198 80.3228 39.6198L80.2325 39.5898V39.4998V39.4398V39.3498H80.3528H82.9992V39.2998ZM69.7673 40.7798L69.7373 40.8098H69.6471L69.617 40.7198C69.5869 40.6298 69.5268 40.5398 69.4967 40.4698C69.4366 40.3798 69.3764 40.2898 69.3163 40.2198C69.226 40.1598 69.1659 40.0998 69.0657 40.0398C68.9654 39.9798 68.9153 39.9198 68.785 39.8898C68.6948 39.8598 68.6045 39.8298 68.5043 39.7998C68.4141 39.7698 68.3239 39.7698 68.1936 39.7698C68.1334 39.7698 68.1033 39.7698 68.0432 39.7998C67.9831 39.7998 67.9229 39.7998 67.8628 39.8298C67.8026 39.8298 67.7425 39.8598 67.7124 39.8898C67.6523 39.9198 67.6222 39.9498 67.562 39.9798C67.532 40.0098 67.532 40.0398 67.5019 40.0698C67.4718 40.1298 67.4718 40.1598 67.4718 40.2198C67.4718 40.2498 67.4718 40.2498 67.5019 40.2798C67.5019 40.3098 67.5019 40.3098 67.532 40.3398C67.532 40.3698 67.562 40.3698 67.5921 40.3998C67.5921 40.4298 67.6222 40.4298 67.6523 40.4598C67.6823 40.4598 67.7425 40.4898 67.7726 40.4898C67.8026 40.5198 67.8327 40.5198 67.8928 40.5498L68.0733 40.6098L69.0256 40.8898C69.1158 40.9198 69.206 40.9498 69.2762 40.9798C69.3664 41.0098 69.4566 41.0398 69.5268 41.0698C69.617 41.0998 69.6771 41.1298 69.7473 41.1898C69.8375 41.2198 69.8977 41.2798 69.9277 41.3398C70.0781 41.4598 70.1783 41.5898 70.2385 41.7698C70.2986 41.9198 70.3287 42.1098 70.3287 42.2898C70.3287 42.4098 70.3287 42.5398 70.2986 42.6598C70.2686 42.7798 70.2385 42.9098 70.1783 42.9998C70.1182 43.1198 70.058 43.2098 69.9578 43.3098C69.8977 43.3998 69.8074 43.4898 69.7072 43.5598C69.607 43.6298 69.4867 43.7098 69.3965 43.7398C69.2762 43.7998 69.1859 43.8598 69.0556 43.8898C68.9353 43.9198 68.805 43.9498 68.6847 43.9798C68.5645 43.9798 68.4341 44.0098 68.3139 44.0098C68.2537 44.0098 68.1635 44.0098 68.1033 44.0098C68.0432 43.9798 67.9831 43.9798 67.953 43.9798C67.8928 43.9498 67.8327 43.9498 67.7726 43.9198L67.4919 43.8598C67.4017 43.8298 67.3114 43.8298 67.2413 43.7998C67.1811 43.7998 67.121 43.7998 67.0909 43.7998C67.0608 43.7998 67.0608 43.7998 67.0308 43.7998C67.0007 43.8298 66.9706 43.8598 66.9405 43.8898L66.8203 44.0398L66.7601 43.8298L66.3591 42.1398V42.0498L66.4494 42.0198L66.5095 41.9898L66.5997 41.9598L66.6298 42.0798C66.6899 42.1998 66.72 42.3298 66.7802 42.4498C66.8403 42.5398 66.9004 42.6598 67.0007 42.7598C67.0608 42.8498 67.1511 42.9398 67.2513 43.0398C67.3415 43.0998 67.4317 43.1898 67.562 43.2198C67.6823 43.2798 67.7725 43.3398 67.9029 43.3698C68.0231 43.3998 68.1535 43.3998 68.2738 43.3998C68.4943 43.3998 68.7048 43.3698 68.8852 43.2798C68.9754 43.2498 69.0657 43.2198 69.1358 43.1598C69.196 43.0998 69.2561 43.0398 69.3163 42.9798C69.3463 42.9198 69.4065 42.8598 69.4065 42.7998C69.4366 42.7398 69.4666 42.6798 69.4666 42.5898C69.4666 42.4998 69.4366 42.3798 69.4065 42.3098C69.3764 42.2198 69.3163 42.1598 69.2561 42.1298C69.1659 42.0698 69.0757 42.0098 68.9454 41.9798C68.8251 41.9198 68.6948 41.8598 68.5444 41.8298L67.6523 41.5498C67.4718 41.4898 67.3415 41.4298 67.1911 41.3698C67.0709 41.3098 66.9806 41.2498 66.8804 41.1598C66.7802 41.0698 66.7 40.9798 66.6699 40.8498C66.6098 40.7298 66.5797 40.5698 66.5797 40.4198C66.5797 40.2998 66.6098 40.1698 66.6398 40.0498C66.7 39.9298 66.7601 39.7998 66.8503 39.7098C66.9105 39.6198 67.0308 39.5598 67.131 39.4998C67.2312 39.4398 67.3515 39.3798 67.4718 39.3498C67.5921 39.2898 67.7224 39.2598 67.8728 39.2598C67.9931 39.2298 68.1234 39.2298 68.2437 39.2298C68.3038 39.2298 68.364 39.2298 68.4241 39.2298C68.4843 39.2298 68.5444 39.2298 68.6046 39.2598C68.6346 39.2598 68.6948 39.2598 68.7549 39.2898L68.9353 39.3198C68.9955 39.3198 69.0556 39.3498 69.1158 39.3498C69.1458 39.3498 69.206 39.3798 69.2361 39.3798C69.2661 39.3798 69.2962 39.3498 69.3263 39.3498C69.3564 39.3198 69.3564 39.3198 69.3864 39.2898L69.5368 39.1098L69.5669 39.3198L69.8475 40.6698L69.8776 40.7598L69.7673 40.7798ZM63.793 43.0498C63.793 43.1698 63.823 43.2598 63.8832 43.3298C63.9133 43.3598 63.9433 43.3898 64.0035 43.3898C64.0636 43.4198 64.1238 43.4198 64.1839 43.4198C64.3042 43.4198 64.4646 43.3898 64.5849 43.3898C64.7052 43.3598 64.8355 43.3298 64.9558 43.2698C65.046 43.2098 65.1663 43.1498 65.2665 43.0898C65.3868 43.0298 65.487 42.9398 65.5773 42.8398C65.6675 42.7498 65.7276 42.6598 65.8279 42.5298C65.888 42.4098 65.9482 42.2798 66.0083 42.1598L66.0685 42.0698L66.1587 42.1298L66.2188 42.1598L66.309 42.1898L66.279 42.2798L65.6976 43.9398L65.6374 44.1198L65.5171 43.9998C65.5171 43.9698 65.487 43.9698 65.4269 43.9698C65.3668 43.9398 65.3066 43.9398 65.2164 43.9398H62.5099H62.4197V43.8198V43.7898V43.6998L62.5099 43.6698C62.57 43.6698 62.6602 43.6398 62.6903 43.6098C62.7204 43.5798 62.7505 43.5498 62.7805 43.5198C62.8106 43.4598 62.8106 43.3998 62.8106 43.3098C62.8407 43.2198 62.8407 43.1298 62.8407 42.9998V40.2998C62.8407 40.2098 62.8407 40.1498 62.8407 40.0898C62.8407 40.0298 62.8407 39.9698 62.8106 39.9098C62.8106 39.8798 62.8106 39.8498 62.7805 39.7898C62.7805 39.7598 62.7505 39.7298 62.7204 39.6998C62.7204 39.6698 62.6903 39.6398 62.6302 39.6398C62.6001 39.6098 62.57 39.6098 62.5099 39.6098L62.4197 39.5798V39.4898V39.4298V39.3398H62.5099H64.1438H64.234V39.4298V39.4898V39.5798L64.1438 39.6098C64.0837 39.6098 64.0235 39.6098 63.9634 39.6398C63.9333 39.6698 63.9032 39.6998 63.8732 39.7298C63.8732 39.7898 63.8431 39.8798 63.8431 39.9398C63.813 40.0298 63.813 40.1198 63.813 40.2498V43.0498H63.793ZM61.6979 40.7798H61.6378L61.5476 40.8398L61.5175 40.7498C61.4574 40.6298 61.4273 40.5398 61.3671 40.4698C61.307 40.3798 61.2168 40.2898 61.1566 40.2198C61.0664 40.1598 60.9762 40.0998 60.876 40.0398C60.7857 40.0098 60.6955 39.9498 60.5652 39.9198C60.475 39.8898 60.3547 39.8598 60.2545 39.8598C60.1342 39.8298 60.0039 39.8298 59.9136 39.8298C59.7933 39.8298 59.7031 39.8298 59.6029 39.8598C59.5427 39.8598 59.5127 39.8898 59.4826 39.8898C59.4525 39.9198 59.4225 39.9498 59.4225 40.0098C59.3924 40.0698 59.3924 40.1598 59.3924 40.2898V41.0898H59.7934H59.9437C60.0039 41.0898 60.064 41.0898 60.0941 41.0898C60.1542 41.0898 60.1843 41.0898 60.2144 41.0898C60.2444 41.0598 60.2745 41.0598 60.3046 41.0598C60.3347 41.0298 60.3647 41.0298 60.3647 40.9998C60.3948 40.9698 60.3948 40.9698 60.4249 40.9398C60.4249 40.9098 60.4249 40.8498 60.4249 40.8198V40.7298H60.5151L60.5752 40.6998L60.6955 40.6398V40.7598L60.9762 42.2998V42.3898L60.886 42.4198H60.8559L60.7356 42.4498L60.7055 42.3598C60.6755 42.2398 60.6454 42.1498 60.5853 42.0498C60.5552 41.9598 60.495 41.8998 60.465 41.8698C60.4048 41.8098 60.3447 41.7798 60.2845 41.7498C60.2244 41.7198 60.1642 41.6898 60.1041 41.6898C60.044 41.6898 59.9537 41.6598 59.8234 41.6598C59.7332 41.6598 59.6029 41.6598 59.4525 41.6598H59.3924V42.7998C59.3924 42.9198 59.3924 42.9798 59.3924 43.0798C59.3924 43.1398 59.4225 43.1998 59.4225 43.2298C59.4225 43.2598 59.4525 43.2898 59.4525 43.3198C59.4826 43.3498 59.5127 43.3498 59.5428 43.3798C59.5728 43.3798 59.633 43.4098 59.6931 43.4098C59.7833 43.4398 59.8735 43.4398 59.9738 43.4398C60.4048 43.4398 60.8058 43.3498 61.1165 43.1298C61.4574 42.9198 61.6979 42.6098 61.9185 42.2098L61.9485 42.1198L62.0388 42.1498H62.0989L62.2192 42.1798L62.159 42.2998L61.6077 43.9598L61.5476 44.1698L61.4273 43.9898H61.3972C61.3972 43.9898 61.3671 43.9898 61.3671 43.9598C61.3371 43.9598 61.3371 43.9598 61.307 43.9598C61.2769 43.9598 61.2468 43.9598 61.2168 43.9598H58.1093H58.0191V43.8398V43.8098V43.7198L58.1093 43.6898C58.1394 43.6898 58.1995 43.6598 58.2296 43.6598C58.2897 43.6298 58.2897 43.5998 58.3198 43.5998C58.3499 43.5698 58.3799 43.5398 58.3799 43.5098C58.41 43.4798 58.41 43.4198 58.41 43.3898C58.41 43.3598 58.4401 43.2998 58.4401 43.2398C58.4401 43.1798 58.4401 43.1198 58.4401 43.0298V40.3298C58.4401 40.2098 58.4401 40.0798 58.41 40.0198C58.41 39.9298 58.3799 39.8398 58.3799 39.7698C58.3499 39.7398 58.3198 39.7098 58.2897 39.6798C58.2296 39.6498 58.1694 39.6198 58.1093 39.6198L58.0191 39.5898V39.4998V39.4398V39.3498H58.1093H61.0063C61.0965 39.3498 61.1566 39.3198 61.2168 39.3198C61.2468 39.3198 61.2769 39.2898 61.307 39.2898L61.4273 39.1698L61.4574 39.3498L61.7681 40.6998L61.7982 40.7898L61.6979 40.7798ZM56.1546 42.9598C56.1546 43.0498 56.1546 43.1098 56.1546 43.2098C56.1847 43.2698 56.1847 43.3298 56.1847 43.3598C56.1847 43.4198 56.2147 43.4498 56.2147 43.4798C56.2448 43.5098 56.2448 43.5398 56.2749 43.5698C56.305 43.5998 56.305 43.6298 56.3651 43.6298C56.3952 43.6598 56.4252 43.6598 56.4854 43.6598H56.6057V43.7498V43.8098V43.9298H56.4854H54.8515H54.7612V43.8098V43.7498V43.6598H54.8515C54.9116 43.6598 54.9417 43.6598 55.0018 43.6298C55.0319 43.6298 55.062 43.5998 55.062 43.5998C55.092 43.5698 55.1221 43.5398 55.1221 43.5098C55.1522 43.4798 55.1522 43.4498 55.1522 43.3898C55.1522 43.3598 55.1823 43.2998 55.1823 43.2398C55.1823 43.1798 55.1823 43.0898 55.1823 42.9898V39.8598C55.0319 39.8598 54.8715 39.8898 54.7512 39.9198C54.6009 39.9498 54.4405 39.9798 54.3202 40.0398C54.1999 40.1298 54.1097 40.1898 54.0094 40.3198C53.9192 40.4098 53.8591 40.5698 53.7989 40.7198L53.7689 40.8098L53.6786 40.7798L53.6185 40.7498L53.4982 40.7198L53.5283 40.6298L53.8691 39.2798L53.9292 39.0698L54.0495 39.2498C54.0495 39.2498 54.0495 39.2498 54.0796 39.2798H54.1097C54.1398 39.2798 54.1698 39.2798 54.1999 39.2798C54.26 39.2798 54.2901 39.3098 54.3503 39.3098H56.9666C57.0568 39.3098 57.147 39.2798 57.2172 39.2798H57.2472C57.2472 39.2498 57.2773 39.2498 57.2773 39.2498L57.3976 39.0698L57.4577 39.2798L57.7986 40.6298V40.7198L57.7083 40.7498L57.6482 40.7798L57.558 40.8098L57.5279 40.7198C57.4678 40.5698 57.4076 40.4098 57.3074 40.3198C57.2172 40.1998 57.1269 40.1398 56.9966 40.0398C56.8763 39.9798 56.746 39.9498 56.5656 39.9198C56.4453 39.8898 56.2849 39.8598 56.1345 39.8598V42.9598H56.1546ZM50.9521 43.4498C51.1726 43.4498 51.353 43.4198 51.5034 43.3298C51.5936 43.2998 51.6538 43.2398 51.754 43.1798C51.8142 43.1498 51.8743 43.0598 51.9344 42.9998C51.9946 42.9398 52.0247 42.8498 52.0848 42.7498C52.1149 42.6898 52.145 42.5998 52.175 42.4998C52.2051 42.3998 52.2352 42.2898 52.2352 42.1898C52.2652 42.0998 52.2652 41.9798 52.2652 41.8798C52.2652 41.5698 52.2352 41.3298 52.1449 41.0498C52.0848 40.9298 52.0547 40.7998 51.9946 40.6798C51.9344 40.5898 51.8442 40.4698 51.7841 40.3698C51.6939 40.2798 51.6337 40.1898 51.5335 40.1198C51.4433 40.0298 51.353 39.9698 51.2528 39.9098C51.1626 39.8798 51.0423 39.8198 50.9421 39.7898C50.8518 39.7898 50.7215 39.7598 50.6313 39.7598C50.4809 39.7598 50.3506 39.7898 50.2303 39.8198C50.1101 39.8498 49.9797 39.9098 49.8895 39.9698C49.7993 40.0598 49.7091 40.1498 49.6389 40.2498C49.5788 40.3398 49.5186 40.4598 49.4585 40.5898C49.3983 40.7098 49.3683 40.8398 49.3382 40.9598C49.3382 41.1098 49.3081 41.2398 49.3081 41.3898C49.3081 41.5098 49.3081 41.6398 49.3382 41.7598C49.3683 41.8798 49.3983 42.0098 49.4284 42.1298C49.4585 42.2498 49.4886 42.3798 49.5487 42.4998C49.6088 42.5898 49.669 42.7098 49.7291 42.8098C49.8194 42.8998 49.8795 42.9898 49.9797 43.0898C50.08 43.1898 50.1602 43.2398 50.2604 43.2998C50.3607 43.3598 50.4709 43.3898 50.5712 43.4198C50.7015 43.4498 50.8218 43.4498 50.9521 43.4498ZM49.0375 43.3898C48.9773 43.2998 48.8871 43.2098 48.8169 43.1398C48.7568 43.0498 48.6967 42.9598 48.6365 42.8598C48.5764 42.7698 48.5463 42.6798 48.4862 42.5798C48.4561 42.4598 48.426 42.3698 48.3959 42.2398C48.3659 42.1498 48.3358 42.0598 48.3358 41.9298C48.3057 41.8398 48.3057 41.7198 48.3057 41.6198C48.3057 41.3698 48.3358 41.1598 48.3659 40.9398C48.426 40.7598 48.5162 40.5398 48.6465 40.3598C48.7367 40.1798 48.8671 40.0198 49.0174 39.8698C49.1678 39.7198 49.3582 39.5898 49.5387 39.4998C49.7191 39.3798 49.9396 39.3198 50.1201 39.2498C50.3406 39.2198 50.5511 39.1898 50.8017 39.1898C51.0122 39.1898 51.2328 39.2198 51.4533 39.2498C51.6738 39.3098 51.8843 39.3998 52.0648 39.4998C52.2452 39.5998 52.4356 39.7498 52.586 39.8698C52.7364 40.0198 52.8667 40.2098 52.987 40.3898C53.0772 40.5698 53.1674 40.7898 53.2376 40.9698C53.2977 41.1798 53.2977 41.4298 53.2977 41.6498C53.2977 41.8598 53.2677 42.0798 53.2376 42.2898C53.1774 42.4698 53.0872 42.6898 52.9569 42.8698C52.8366 43.0198 52.7063 43.2098 52.5559 43.3298C52.4056 43.4798 52.2151 43.6098 52.0347 43.6998C51.8543 43.7898 51.6337 43.8798 51.4232 43.9098C51.2428 43.9698 51.0223 43.9998 50.8117 43.9998C50.6915 43.9998 50.5912 43.9998 50.501 43.9698C50.3807 43.9698 50.2905 43.9398 50.1902 43.9398C50.07 43.9098 49.9697 43.8798 49.8795 43.8498C49.7592 43.8198 49.669 43.7598 49.5687 43.7298C49.4785 43.6698 49.3883 43.6098 49.2881 43.5498C49.2279 43.5098 49.1277 43.4498 49.0375 43.3898ZM77.8969 43.9398C77.8067 43.9398 77.6764 43.9398 77.5862 43.9398C77.4959 43.9398 77.4057 43.9098 77.3055 43.9098C77.2153 43.9098 77.1551 43.9098 77.0549 43.8798C76.9647 43.8798 76.8744 43.8498 76.8043 43.8498C76.7141 43.8198 76.6539 43.7898 76.5537 43.7598C76.4534 43.7298 76.4033 43.6998 76.3031 43.6698C76.2129 43.6398 76.1527 43.5798 76.0525 43.5498C75.9923 43.4898 75.9021 43.4298 75.842 43.3698C75.7217 43.2798 75.6615 43.2198 75.5613 43.1198C75.4711 43.0298 75.4109 42.9398 75.3508 42.8098C75.2606 42.7198 75.2004 42.5998 75.1704 42.4998C75.1102 42.3798 75.0801 42.2498 75.0501 42.1598C75.02 42.0398 74.9899 41.9098 74.9598 41.7898C74.9598 41.6698 74.9298 41.5098 74.9298 41.3898C74.9298 41.1798 74.9598 40.9598 75.02 40.7498C75.0801 40.5698 75.1403 40.3798 75.2305 40.1998C75.3508 40.0498 75.4811 39.8898 75.6014 39.7698C75.7517 39.6498 75.9121 39.5598 76.0926 39.4598C76.273 39.3598 76.4635 39.3098 76.674 39.2798C76.8544 39.2198 77.0749 39.2198 77.3255 39.2198L78.1575 39.2798C78.2177 39.2798 78.2477 39.3098 78.2778 39.3098C78.3079 39.3098 78.338 39.3098 78.338 39.3098C78.3981 39.3098 78.4282 39.3098 78.4583 39.2798C78.4883 39.2798 78.5184 39.2498 78.5485 39.1898L78.6988 39.0098L78.7289 39.2598L78.9795 40.4898L79.0096 40.6098H78.8893L78.8292 40.6398H78.7389L78.7089 40.5798C78.6487 40.4598 78.5886 40.3298 78.4984 40.2398C78.4081 40.1498 78.3179 40.0598 78.1876 39.9898C78.0673 39.9298 77.937 39.8698 77.7866 39.8398C77.6664 39.8098 77.506 39.7798 77.3857 39.7798C77.2353 39.7798 77.0749 39.8098 76.9546 39.8398C76.8344 39.8698 76.704 39.8998 76.6138 39.9598C76.4935 40.0198 76.3933 40.1098 76.3031 40.2098C76.2429 40.2998 76.1828 40.3898 76.1226 40.5198C76.0625 40.6098 76.0324 40.7298 76.0024 40.8898C75.9723 41.0098 75.9723 41.1698 75.9723 41.3198C75.9723 41.4998 75.9723 41.6598 76.0324 41.8398C76.0625 42.0198 76.1226 42.1798 76.1828 42.3598C76.2429 42.5098 76.3331 42.6698 76.4635 42.7898C76.5537 42.9098 76.7141 43.0398 76.8343 43.1298C76.9847 43.2198 77.115 43.3098 77.2955 43.3398C77.4458 43.3998 77.6363 43.4298 77.8167 43.4298C77.8769 43.4298 77.937 43.4298 77.9971 43.4298H78.0272C78.0573 43.3998 78.1174 43.3998 78.1475 43.3998C78.2077 43.3698 78.2377 43.3698 78.2678 43.3398C78.2979 43.3098 78.2979 43.3098 78.3279 43.2798C78.3279 43.2498 78.358 43.2498 78.358 43.2198C78.3881 43.1598 78.3881 43.1298 78.3881 43.0998C78.3881 43.0698 78.3881 43.0098 78.4182 42.9498C78.4182 42.8898 78.4182 42.8298 78.4182 42.7698V42.2498C78.4182 42.1298 78.4182 42.0398 78.3881 41.9398C78.3881 41.8498 78.358 41.7598 78.358 41.6898C78.3279 41.6598 78.2979 41.6298 78.2678 41.5998C78.2077 41.5698 78.1475 41.5398 78.0874 41.5398L77.9971 41.5098V41.4198V41.3598V41.2698H78.0874H79.6311H79.7213V41.3598V41.4198V41.5098L79.6311 41.5398C79.601 41.5398 79.5409 41.5398 79.5108 41.5698C79.4807 41.5698 79.4807 41.5998 79.4506 41.5998L79.4206 41.6298C79.4206 41.6598 79.3905 41.6898 79.3905 41.6898C79.3905 41.7198 79.3905 41.7498 79.3905 41.8098C79.3905 41.8398 79.3905 41.8998 79.3905 41.9598V43.1898C79.3905 43.2798 79.3905 43.3098 79.3905 43.3698C79.3905 43.3998 79.3905 43.4598 79.3905 43.4898C79.3905 43.4898 79.4206 43.5198 79.4206 43.5498C79.4206 43.5498 79.4506 43.5798 79.4506 43.6098C79.4807 43.6098 79.4807 43.6398 79.5108 43.6398C79.5409 43.6698 79.601 43.6698 79.6311 43.6698L79.7213 43.6998V43.7898V43.8198V43.9398H79.6311H77.8969ZM44.5467 42.9598C44.5467 43.1698 44.5767 43.3598 44.6068 43.5098C44.6369 43.5398 44.667 43.5698 44.697 43.5998C44.7572 43.6298 44.8173 43.6598 44.8775 43.6598H44.9677V43.7798V43.8098V43.9298H44.8775H43.2435H43.1533V43.8098V43.7798V43.6898L43.2435 43.6598C43.3037 43.6598 43.3638 43.6298 43.424 43.5998C43.454 43.5698 43.4841 43.5398 43.5142 43.5098C43.5142 43.4498 43.5443 43.3898 43.5443 43.2998C43.5743 43.2098 43.5743 43.1198 43.5743 42.9898V40.2898C43.5743 40.1998 43.5743 40.1398 43.5743 40.0798C43.5743 40.0198 43.5443 39.9598 43.5443 39.8998C43.5443 39.8698 43.5443 39.8398 43.5142 39.7798C43.5142 39.7498 43.4841 39.7198 43.454 39.6898C43.424 39.6598 43.424 39.6298 43.3638 39.6298C43.3338 39.5998 43.3037 39.5998 43.2435 39.5998L43.1533 39.5698V39.4798V39.4198V39.3298H43.2435H44.8775H44.9677V39.4198V39.4798V39.5698L44.8775 39.5998C44.8173 39.5998 44.7873 39.5998 44.7271 39.6298C44.697 39.6298 44.667 39.6598 44.667 39.6898C44.6369 39.6898 44.6068 39.7498 44.6068 39.7798C44.5767 39.8098 44.5767 39.8398 44.5767 39.8698C44.5767 39.9298 44.5467 39.9598 44.5467 40.0198C44.5467 40.0798 44.5467 40.1698 44.5467 40.2298V41.0598H46.331V40.2898C46.331 40.1698 46.331 40.0398 46.331 39.9498C46.3009 39.8598 46.3009 39.7698 46.2708 39.6998C46.2407 39.6698 46.2407 39.6398 46.1806 39.6098C46.1505 39.5798 46.0904 39.5798 46.0002 39.5798L45.91 39.5498V39.4598V39.3998V39.3098H46.0302H47.6341H47.7544V39.3998V39.4598V39.5498L47.6642 39.5798C47.604 39.5798 47.5439 39.5798 47.5138 39.6098C47.4837 39.6098 47.4537 39.6398 47.4236 39.6698C47.4236 39.6998 47.3935 39.7298 47.3634 39.7598C47.3634 39.7898 47.3634 39.8198 47.3334 39.8498C47.3334 39.8798 47.3334 39.9398 47.3334 39.9998C47.3334 40.0598 47.3334 40.1498 47.3334 40.2098V42.9398C47.3334 43.0298 47.3334 43.0898 47.3334 43.1498C47.3334 43.2398 47.3334 43.2998 47.3334 43.3298C47.3634 43.3598 47.3634 43.3898 47.3634 43.4198C47.3935 43.4498 47.4236 43.5098 47.4236 43.5398C47.4537 43.5398 47.4837 43.5698 47.5138 43.5998C47.574 43.5998 47.604 43.6298 47.6642 43.6298L47.7544 43.6598V43.7498V43.7798V43.8998H47.6341H46.0302H45.91V43.7798V43.7498V43.6298H46.0002C46.0603 43.6298 46.1205 43.6298 46.1505 43.5998C46.1806 43.5998 46.2107 43.5698 46.2407 43.5398C46.2407 43.5098 46.2708 43.4798 46.3009 43.4498C46.3009 43.4198 46.3009 43.3898 46.3009 43.3598C46.331 43.3298 46.331 43.2698 46.331 43.2098C46.331 43.1498 46.331 43.0598 46.331 42.9598V41.5798H44.5467V42.9598Z" fill="#F9F9F9"/>
<path d="M173.327 15.8892L170.811 22.5392C171.883 22.5392 172.926 22.7492 173.898 23.1092C174.9 23.4992 175.732 24.0392 176.444 24.7492L173.327 15.8892ZM168.766 28.3292C168.475 29.1492 168.335 29.8292 168.335 30.2992C168.335 30.7292 168.475 31.0892 168.766 31.3392C169.056 31.6292 169.417 31.7692 169.838 31.7992V32.0492H164.165V31.7992C164.525 31.7292 164.806 31.6192 165.027 31.4792C165.207 31.3692 165.418 31.1892 165.598 30.9092C166.029 30.3392 166.42 29.4792 166.851 28.3392L171.332 16.5792C171.442 16.3692 171.512 16.1492 171.552 15.9692C171.623 15.7892 171.663 15.6492 171.693 15.4692C171.723 15.2892 171.763 15.1492 171.763 14.9692C171.763 14.7192 171.693 14.5392 171.512 14.3992C171.372 14.2192 171.151 14.1492 170.901 14.1092V13.8192H177.076V14.1092C176.534 14.2492 176.254 14.5692 176.254 15.0692C176.254 15.3192 176.364 15.6792 176.544 16.1392L181.276 29.7892C181.637 30.5392 181.887 31.0392 182.028 31.2592C182.208 31.5092 182.499 31.6892 183 31.7992V32.0492H176.645V31.7992C177.577 31.5892 178.048 30.9392 178.048 29.8692C178.048 29.0092 177.687 28.1192 177.046 27.2292C176.364 26.2992 175.432 25.5092 174.279 24.9092C173.096 24.2992 171.803 23.9792 170.37 23.9492L168.766 28.3292ZM146.773 15.7492V28.4392C146.773 29.4392 146.883 30.2592 147.063 30.8292C147.284 31.3992 147.785 31.7192 148.567 31.7892V32.0392H143.144V31.7892C143.936 31.6792 144.437 31.3592 144.648 30.8592C144.828 30.3592 144.938 29.6092 144.938 28.6092V17.4592C144.938 16.7792 144.898 16.2092 144.868 15.8192C144.798 15.3892 144.618 14.9992 144.367 14.6792C144.116 14.3592 143.685 14.1792 143.144 14.1092V13.8192H150.181V14.1092C149.86 14.1792 149.71 14.3192 149.71 14.6092C149.71 14.8992 149.82 15.2192 150.071 15.6792L153.268 21.4692L156.466 16.3592C156.967 15.5692 157.188 14.9992 157.188 14.6792C157.188 14.3592 157.007 14.1792 156.646 14.1092V13.8192H163.393V14.1092C162.601 14.2192 162.1 14.5392 161.889 15.0692C161.709 15.5692 161.598 16.3192 161.598 17.2492V28.4392C161.598 29.3992 161.709 30.1892 161.889 30.7592C162.1 31.3292 162.611 31.6492 163.393 31.7992V32.0492H156.687V31.7992C157.258 31.7592 157.659 31.5892 157.94 31.2592C158.19 30.9692 158.331 30.6492 158.401 30.2192C158.471 29.8292 158.511 29.2892 158.511 28.6092V15.7492L152.406 25.5792L146.773 15.7492ZM131.556 30.9692C132.488 30.9692 133.31 30.7892 134.072 30.3992C134.834 30.0092 135.476 29.5092 135.977 28.8592C136.478 28.2192 136.869 27.4692 137.13 26.6392C137.39 25.8092 137.49 24.9192 137.49 23.9992C137.49 22.7792 137.31 21.6392 136.919 20.5292C136.558 19.3892 136.027 18.4192 135.345 17.5992C134.704 16.7392 133.912 16.0992 133.05 15.5992C132.188 15.1392 131.255 14.9192 130.283 14.9192C128.99 14.9192 127.917 15.2392 127.055 15.8792C126.163 16.5592 125.512 17.4192 125.081 18.5192C124.65 19.5892 124.439 20.7692 124.439 21.9892C124.439 23.0292 124.619 24.0592 124.94 25.1292C125.261 26.2392 125.732 27.1992 126.344 28.0992C126.915 28.9592 127.667 29.6692 128.569 30.1692C129.441 30.7192 130.443 30.9692 131.556 30.9692ZM124.058 29.8592C123.447 29.2492 122.905 28.5692 122.444 27.8592C122.013 27.1092 121.652 26.3192 121.442 25.4992C121.191 24.6392 121.081 23.8192 121.081 22.9992C121.081 21.1792 121.512 19.5692 122.374 18.0992C123.266 16.6292 124.459 15.4892 125.963 14.6692C127.466 13.8792 129.12 13.4492 130.874 13.4492C132.739 13.4492 134.423 13.8792 135.967 14.6992C137.47 15.5192 138.653 16.6992 139.555 18.1692C140.377 19.6692 140.848 21.3492 140.848 23.1692C140.848 24.9192 140.377 26.4892 139.445 27.8892C138.553 29.3192 137.33 30.4292 135.786 31.2092C134.283 31.9992 132.629 32.3892 130.905 32.3892C130.083 32.3892 129.251 32.3192 128.429 32.0992C127.607 31.9192 126.855 31.6692 126.093 31.2792C125.331 30.8892 124.67 30.3992 124.058 29.8592ZM107.839 22.1792C109.453 21.7192 110.997 21.0692 112.5 20.2092C113.974 19.3892 114.726 18.4192 114.726 17.2792C114.726 16.4192 114.435 15.8092 113.823 15.5592C113.252 15.2692 112.42 15.1292 111.388 15.1292C109.593 15.1292 108.521 15.3092 108.16 15.7392C107.949 15.9492 107.839 16.5292 107.839 17.4592V22.1792ZM113.723 13.8192C115.227 13.8192 116.239 14.0692 116.841 14.4992C117.452 14.9592 117.733 15.6792 117.733 16.6392C117.733 17.6392 117.372 18.4992 116.62 19.2092C115.898 19.9192 114.936 20.5692 113.713 21.2092C115.648 23.3192 117.262 26.0692 118.625 29.4692C118.836 30.0392 119.016 30.4292 119.126 30.6492C119.267 30.8992 119.447 31.1092 119.668 31.3592C119.878 31.5692 120.209 31.7192 120.56 31.7892V32.0392H114.676V31.7892C115.357 31.6492 115.718 31.2892 115.718 30.7192C115.718 30.3992 115.648 30.0092 115.467 29.5392C115.287 29.0692 115.107 28.6092 114.926 28.1792C114.716 27.7892 114.455 27.3192 114.204 26.8192L111.337 22.7092L111.047 22.3492L107.819 23.4592V28.4292C107.819 29.1792 107.859 29.7492 107.929 30.1792C107.969 30.5692 108.14 30.9292 108.4 31.2192C108.691 31.5392 109.082 31.7192 109.623 31.7892V32.0392H102.947V31.7892C103.519 31.7192 103.92 31.4992 104.2 31.2192C104.451 30.9292 104.591 30.5792 104.671 30.1792C104.752 29.7792 104.782 29.2492 104.782 28.5692V17.4592C104.782 16.7792 104.742 16.2092 104.671 15.8192C104.601 15.3892 104.461 14.9992 104.2 14.6792C103.91 14.3592 103.519 14.1792 102.947 14.1092V13.8192H113.723ZM84.1922 17.4592C84.1922 16.4192 84.122 15.6392 83.9015 15.0992C83.691 14.5292 83.1797 14.2092 82.3979 14.0992V13.8092H89.0739V14.0992C88.282 14.1692 87.7808 14.4592 87.5703 14.9892C87.3899 15.4892 87.2796 16.2792 87.2796 17.2392V20.6392L89.6453 18.7492C90.1465 18.3592 90.6477 17.9292 91.189 17.4592C91.7604 16.9592 92.2616 16.4592 92.7327 15.9592C93.1637 15.4592 93.4144 15.0692 93.4144 14.7392C93.4144 14.4892 93.3442 14.3492 93.2339 14.2792C93.0936 14.1692 92.9132 14.0992 92.6626 14.0992V13.8092H99.3687V14.0992C98.687 14.0992 98.0756 14.2792 97.5042 14.5292C96.8927 14.7792 96.3915 15.0692 95.9605 15.3892C95.4893 15.7092 94.918 16.1792 94.1662 16.7792L92.0812 18.5292C93.0134 19.4192 93.8755 20.3492 94.5972 21.3192C95.349 22.2792 96.0006 23.3192 96.602 24.4292C97.1734 25.4992 97.7147 26.6792 98.2159 27.8992L98.7572 29.1492C98.9677 29.7892 99.1882 30.2192 99.3286 30.5092C99.4388 30.7992 99.6494 31.0792 99.9 31.3292C100.191 31.6192 100.471 31.7592 100.872 31.7892V32.0392H94.7375V31.7892C95.3791 31.6792 95.7099 31.3292 95.7099 30.7192C95.7099 30.0792 95.4994 29.2192 95.0683 28.1492C94.6373 27.0792 94.1762 26.1092 93.665 25.2592C92.7327 23.6492 91.4797 22.0092 89.936 20.2892L87.2796 22.3992V28.4392C87.2796 29.4392 87.3899 30.2592 87.5703 30.8292C87.7808 31.3992 88.292 31.7192 89.0739 31.7892V32.0392H82.3979V31.7892C82.9692 31.7192 83.3702 31.4992 83.6208 31.2192C83.9115 30.9292 84.0518 30.5792 84.122 30.1792C84.1922 29.7892 84.1922 29.2492 84.1922 28.6092V17.4592ZM71.2711 30.9692C72.2033 30.9692 73.0654 30.7892 73.8172 30.3992C74.569 30.0092 75.1805 29.5092 75.6817 28.8592C76.1829 28.2192 76.5738 27.4692 76.8345 26.6392C77.0951 25.8092 77.2254 24.9192 77.2254 23.9992C77.2254 22.7792 77.0149 21.6392 76.654 20.5292C76.2631 19.3892 75.7619 18.4192 75.0702 17.5992C74.3886 16.7392 73.5967 16.0992 72.7346 15.5992C71.8725 15.1392 70.9403 14.9192 69.968 14.9192C68.7149 14.9192 67.6323 15.2392 66.7402 15.8792C65.8781 16.5592 65.2366 17.4192 64.7654 18.5192C64.3344 19.5892 64.1239 20.7692 64.1239 21.9892C64.1239 23.0292 64.3043 24.0592 64.6251 25.1292C64.9459 26.2392 65.417 27.1992 66.0285 28.0992C66.6399 28.9592 67.3917 29.6692 68.2939 30.1692C69.1861 30.7192 70.1584 30.9692 71.2711 30.9692ZM63.773 29.8592C63.1616 29.2492 62.6203 28.5692 62.1993 27.8592C61.7281 27.1092 61.4074 26.3192 61.1567 25.4992C60.9462 24.6392 60.7959 23.8192 60.7959 22.9992C60.7959 21.1792 61.2269 19.5692 62.1191 18.0992C62.9811 16.6292 64.164 15.4892 65.6676 14.6692C67.1712 13.8792 68.8252 13.4492 70.6195 13.4492C72.484 13.4492 74.1681 13.8792 75.6817 14.6992C77.2254 15.5192 78.4083 16.6992 79.2703 18.1692C80.1324 19.6692 80.5634 21.3492 80.5634 23.1692C80.5634 24.9192 80.0923 26.4892 79.2002 27.8892C78.2679 29.3192 77.045 30.4292 75.5414 31.2092C73.9976 31.9992 72.3838 32.3892 70.6295 32.3892C69.8076 32.3892 68.9756 32.3192 68.1937 32.0992C67.3717 31.9192 66.5798 31.6692 65.828 31.2792C65.0662 30.8992 64.3845 30.3992 63.773 29.8592ZM56.6359 19.1092L56.4254 19.1492C56.1347 18.3292 55.6736 17.5792 55.0621 16.9292C54.4205 16.2892 53.6988 15.7892 52.8367 15.4592C52.0148 15.0992 51.1527 14.9192 50.2505 14.9192C49.7493 14.9192 49.208 14.9892 48.6667 15.1292C48.1254 15.3092 47.6643 15.5592 47.3034 15.9192C46.9125 16.2392 46.732 16.6692 46.732 17.2092C46.732 17.4992 46.8423 17.7792 47.0227 18.0292C47.2032 18.2392 47.4538 18.4192 47.7746 18.5992C48.0653 18.7392 48.386 18.8892 48.7469 18.9892C49.1078 19.0992 49.3884 19.1692 49.609 19.2392L53.5184 20.4192C54.2401 20.6292 54.9217 20.8792 55.5232 21.1292C56.1347 21.4192 56.6359 21.7392 57.0669 22.1692C58.0693 23.0992 58.5705 24.3092 58.5705 25.8192C58.5705 26.8192 58.36 27.7092 57.8889 28.5392C57.4578 29.3592 56.8464 30.0392 56.1347 30.6092C55.3829 31.1792 54.5208 31.6492 53.5885 31.9292C52.6162 32.2492 51.6539 32.3892 50.6815 32.3892C50.1102 32.3892 49.639 32.3492 49.2481 32.2792C48.8572 32.1692 48.2457 32.0292 47.4137 31.8192C46.6218 31.6092 46.0103 31.4992 45.6595 31.4992C45.2986 31.4992 45.0179 31.6792 44.6871 31.9992L43.0732 25.0992L43.3238 24.9892C43.6847 26.0992 44.1859 27.0992 44.8676 27.9592C45.5492 28.8492 46.3411 29.5292 47.3435 30.0292C48.3159 30.5292 49.3483 30.7792 50.5011 30.7792C51.4734 30.7792 52.3355 30.5992 53.1575 30.2792C53.9795 29.9192 54.631 29.4592 55.0922 28.8892C55.5633 28.2792 55.7738 27.6392 55.7738 26.9592C55.7738 25.9192 55.4129 25.1392 54.7313 24.6392C54.0096 24.1792 53.0071 23.7492 51.684 23.3492L47.9851 22.2092C46.692 21.8192 45.6895 21.3192 45.0079 20.6692C44.2862 20.0592 43.9353 19.1692 43.9353 17.9892C43.9353 16.9892 44.2561 16.1292 44.9077 15.4192C45.5492 14.7392 46.3812 14.2392 47.3435 13.9192C48.3159 13.6292 49.3183 13.4592 50.3207 13.4592C50.9321 13.4592 51.3632 13.4992 51.7241 13.5692C52.0448 13.6392 52.516 13.7492 53.1274 13.8592C53.7389 13.9992 54.2 14.0692 54.5308 14.0692C54.9217 14.0692 55.2525 13.9292 55.5332 13.5692L56.6359 19.1092Z" fill="#F9F9F9"/>
<path fill-rule="evenodd" clip-rule="evenodd" d="M17.0498 0.0590675C16.8444 0.145036 16.6364 0.669412 16.7011 0.937876C16.7506 1.14288 16.7267 1.18781 16.568 1.18781C16.4617 1.18781 16.2593 1.33046 16.1183 1.50479C15.8189 1.87496 15.8378 2.16454 16.1971 2.71532C16.5728 3.29129 16.3087 3.9106 15.6874 3.9106C15.2528 3.9106 15.0171 3.62839 15.0171 3.1083C15.0171 2.54298 14.8867 2.29992 14.4909 2.12798C14.249 2.02279 14.1011 2.01472 13.8806 2.09471C13.633 2.18446 13.5576 2.16932 13.3756 1.9929C13.1134 1.73869 12.5137 1.71209 12.3269 1.94638C12.2174 2.08345 12.2269 2.13117 12.3909 2.27013C12.7676 2.5891 13.4644 3.56384 13.7272 4.13942C14.0328 4.80914 14.345 5.81705 14.346 6.13781C14.3465 6.25784 14.3791 6.37459 14.4186 6.39721C14.4582 6.41992 14.8351 6.38236 15.2565 6.31393C16.1756 6.1646 19.2605 6.19369 19.9307 6.35806C20.1843 6.42032 20.4278 6.44811 20.4717 6.41982C20.5157 6.39153 20.6028 6.13293 20.6655 5.84514C20.8735 4.88973 21.3725 3.57858 21.5281 3.57858C21.564 3.57858 21.639 3.47439 21.6948 3.34708C21.7505 3.21967 21.9837 2.9012 22.2128 2.63921C22.442 2.37722 22.6295 2.11165 22.6295 2.04889C22.6295 1.97776 22.4522 1.93772 22.1578 1.9423C21.7916 1.94798 21.6565 1.99589 21.5541 2.15617C21.4326 2.34654 21.401 2.35152 21.1472 2.21983C20.6102 1.9411 20.0958 2.30898 20.0487 3.0053C20.0136 3.5224 19.9139 3.73946 19.6548 3.86229C19.2868 4.03672 19.0536 4.00145 18.7951 3.73249C18.5005 3.42617 18.4973 3.12424 18.7839 2.68025C18.907 2.48949 19.0314 2.23597 19.0602 2.11693C19.1314 1.82316 18.8149 1.30775 18.5151 1.22945C18.3082 1.17546 18.2727 1.11001 18.2727 0.782476C18.2727 0.284597 17.9858 -0.010663 17.5125 0.000294679C17.325 0.00457815 17.1168 0.0310755 17.0498 0.0590675ZM15.6874 8.42548C15.503 8.44381 14.8567 8.53107 14.251 8.61933C12.4183 8.8863 9.28916 9.92041 9.03876 10.3418C8.98811 10.4272 9.57049 11.9602 9.74141 12.1913C9.78354 12.2483 9.98204 12.7113 10.1825 13.2203C10.383 13.7292 10.5852 14.1701 10.6318 14.2001C10.6785 14.2301 10.8227 14.1823 10.9524 14.0938C11.2543 13.888 12.5976 13.3719 13.3414 13.1758C14.5126 12.8671 16.2203 12.6488 17.4834 12.6462C18.5506 12.644 20.2817 12.8207 20.7738 12.9821C20.8465 13.0059 21.0164 13.0503 21.1513 13.0807L21.3966 13.1361L21.4161 14.5335C21.427 15.302 21.4031 15.9309 21.3632 15.9309C21.3233 15.9309 20.9887 15.7773 20.6196 15.5895C18.9121 14.7212 17.182 14.4899 15.3522 14.8854C14.6639 15.0342 13.32 15.5573 13.1978 15.7239C13.1714 15.7598 13.002 15.8845 12.8213 16.001C12.2678 16.3582 11.3146 17.415 11.0101 18.0091C10.4896 19.0251 10.3127 19.7467 10.3045 20.8864C10.2904 22.8781 10.9924 24.404 12.7319 26.1617C13.6303 27.0695 14.5582 27.8514 15.7817 28.7315C16.3147 29.115 16.8525 29.5185 16.9767 29.6281C17.1009 29.7376 17.4483 30.0066 17.7488 30.2257C18.6031 30.8489 20.4704 32.3613 21.131 32.9652C21.706 33.4907 22.6813 34.6422 23.1158 35.3081C23.3768 35.7083 23.8972 37.34 23.9729 37.9958C24.0686 38.825 23.8842 40.0493 23.5524 40.7868C22.4384 43.2635 18.5985 44.4603 14.4397 43.627C12.0326 43.1447 10.1399 41.9539 9.05188 40.2371C8.56363 39.4668 8.10181 38.1311 8.10468 37.4977C8.10823 36.7077 8.18799 36.3109 8.47497 35.6548C9.15319 34.1042 10.4401 33.2396 12.0487 33.2541C13.3365 33.2656 14.2614 33.9459 14.455 35.0238C14.5009 35.2794 14.5216 35.5062 14.501 35.5276C14.4804 35.5491 14.2298 35.4111 13.9442 35.2211C12.8109 34.4669 11.4349 34.4479 10.7185 35.1764C9.79302 36.1178 10.5409 37.6886 12.1923 38.2723C13.702 38.8058 15.1729 38.2559 15.863 36.9C16.0842 36.4655 16.116 36.2875 16.1128 35.5054C16.1085 34.4576 15.9568 34.042 15.2828 33.2318C13.852 31.5118 10.6354 31.3504 8.64943 32.899C7.30246 33.9494 6.51076 35.6485 6.54456 37.4162C6.55289 37.8551 6.53604 37.9073 6.43195 37.7649C6.36464 37.6727 6.30814 37.5468 6.30652 37.4849C6.30479 37.4232 6.24159 37.3193 6.16595 37.2539C6.0904 37.1887 6.00144 37.007 5.96831 36.8502C5.93518 36.6934 5.84862 36.5137 5.77594 36.4509C5.70317 36.3882 5.57428 36.1195 5.48954 35.854C5.4048 35.5886 5.27314 35.3175 5.19701 35.2518C5.12089 35.1861 5.05865 35.0649 5.05865 34.9825C5.05865 34.9001 4.92354 34.5582 4.75846 34.2227C4.59338 33.8872 4.26935 33.0748 4.03839 32.4173C3.80743 31.7598 3.5781 31.1322 3.52869 31.0227C3.42269 30.7876 3.30884 30.3187 3.09329 29.2296C2.63023 26.89 3.04637 23.659 4.10273 21.3901C4.25987 21.0527 4.38837 20.7386 4.38837 20.6918C4.38837 20.5544 5.44463 18.7863 5.64303 18.5917C5.74291 18.4937 5.82468 18.3712 5.82468 18.3194C5.82468 18.2677 6.2664 17.7623 6.80616 17.1964C7.77261 16.1832 8.7855 15.3359 9.67879 14.7935C9.92899 14.6417 10.1336 14.456 10.1336 14.3811C10.1336 14.2412 9.84741 13.4296 9.60649 12.8861C9.4508 12.5348 8.69731 10.6244 8.69731 10.5808C8.69731 10.3933 6.891 11.3913 6.44115 11.8275C6.33428 11.931 6.20013 12.0338 6.14316 12.0558C5.96774 12.1234 4.85632 13.1592 4.29654 13.7768C4.00468 14.0988 3.64742 14.4926 3.50264 14.6519C3.35786 14.8112 3.23932 14.9812 3.23932 15.0295C3.23932 15.0778 3.20676 15.1323 3.16702 15.1506C3.01286 15.2215 2.06135 16.8195 1.69414 17.6244C1.48166 18.0901 1.24725 18.5895 1.17323 18.734C1.00949 19.054 0.407868 21.2061 0.327722 21.7584C0.295931 21.9776 0.249012 22.269 0.22335 22.4059C0.127596 22.9183 0.080678 23.4902 0.0234171 24.8465C-0.0328864 26.1775 -0.00645874 26.5116 0.314796 28.5323C0.576588 30.1795 1.91695 33.5877 3.27264 36.0533C3.40813 36.2998 3.60759 36.6808 3.7157 36.9C3.8239 37.1191 4.01799 37.4778 4.14697 37.6969C4.27605 37.9161 4.44956 38.2299 4.53248 38.3942C4.6155 38.5586 4.78728 38.8724 4.91425 39.0915C5.04122 39.3107 5.20075 39.6021 5.26883 39.739C5.33681 39.876 5.425 40.0329 5.46484 40.0877C5.50477 40.1425 5.69283 40.5011 5.8829 40.8846C6.07297 41.2681 6.28708 41.694 6.3587 41.831C6.43033 41.9679 6.55404 42.2369 6.63371 42.4287C6.71328 42.6204 6.81918 42.8445 6.86907 42.9267C7.02879 43.19 7.4525 44.4163 7.4525 44.6154C7.4525 44.81 7.31663 44.9469 7.08777 44.983C7.01883 44.9939 6.81698 44.7934 6.63917 44.5375C6.23279 43.9528 6.02232 43.8198 5.39685 43.7526C5.00905 43.711 4.8341 43.7406 4.61856 43.8843C3.97768 44.3116 3.78033 44.7362 3.83184 45.5772C3.86603 46.1355 3.91228 46.2565 4.25479 46.6822C4.50222 46.9899 4.84205 47.2619 5.20802 47.4453C5.97348 47.8286 6.11855 47.8592 7.11736 47.8481C7.8427 47.8402 8.05585 47.798 8.46348 47.5823C9.28811 47.1456 9.67668 46.3852 9.67429 45.2121C9.67314 44.6163 9.61319 44.2994 9.38683 43.693C9.22951 43.2715 9.13327 42.9267 9.17301 42.9267C9.21275 42.9267 9.56369 43.1447 9.95274 43.4111C12.2993 45.0174 15.8736 45.689 19.4861 45.2023C20.1886 45.1077 20.2375 45.0992 21.1453 44.9141C22.3099 44.6766 24.3665 43.8724 25.3627 43.2649C25.6843 43.0689 25.9641 42.9258 25.9845 42.947C26.0049 42.9683 25.9651 43.0989 25.8962 43.2371C25.3148 44.4029 25.2216 45.8332 25.6745 46.6373C26.42 47.9606 27.9387 48.3581 29.5911 47.6623C30.9256 47.1003 31.4952 46.0841 31.1561 44.8704C30.9864 44.2631 30.7075 43.9805 30.1136 43.8141C29.8225 43.7326 29.6243 43.735 29.3361 43.8236C28.8772 43.9647 28.6694 44.1404 28.3574 44.6514C28.1855 44.9327 28.0709 45.023 27.915 45C27.3293 44.9133 27.923 43.3432 29.9984 39.49C30.1165 39.2708 30.5153 38.5312 30.8846 37.8463C32.8624 34.1789 34.0405 31.4605 34.5756 29.3292C34.9077 28.0069 34.9525 27.713 35.07 26.0917C35.1496 24.9927 34.8905 22.6232 34.5122 20.9916C34.2073 19.6761 33.2553 17.2534 32.9998 17.1429C32.9577 17.1246 32.9231 17.0614 32.9231 17.0022C32.9231 16.9431 32.7849 16.6667 32.616 16.3879C31.8017 15.0438 30.4514 13.5246 28.7972 12.0912C28.3473 11.7013 26.808 10.7033 26.751 10.7645C26.7324 10.7844 26.5241 11.249 26.2881 11.7969C26.0521 12.3448 25.7043 13.1405 25.5154 13.565C25.3264 13.9896 25.1976 14.3371 25.2291 14.3371C25.2605 14.3371 25.2388 14.3964 25.1809 14.4691C25.0985 14.5725 25.2154 14.6961 25.7198 15.039C27.2342 16.0685 28.2512 17.0484 29.1807 18.3738C29.9924 19.5309 29.9692 19.4913 30.5242 20.6781C31.6145 23.0098 32.1392 25.4323 32.0348 27.6536C31.9478 29.5076 31.5239 31.2207 30.5358 33.7123C30.4923 33.8219 30.012 34.8463 29.4684 35.9889C28.7458 37.5076 28.4627 38.0167 28.4155 37.8816C28.38 37.78 28.3678 37.6663 28.3884 37.629C28.4356 37.5435 28.1734 35.964 28.0212 35.4169C27.8156 34.6779 27.0666 33.2819 26.5 32.5816C25.4438 31.2762 24.3249 30.2829 22.1508 28.7208C21.0087 27.9001 20.5497 27.5872 20.18 27.3776C19.9474 27.2456 19.7224 27.0817 19.6803 27.0131C19.6382 26.9447 19.561 26.8886 19.5087 26.8886C19.4564 26.8886 19.3616 26.8426 19.2981 26.7864C19.2345 26.7301 18.9669 26.5405 18.7036 26.3649C18.4403 26.1893 18.1413 25.9664 18.0392 25.8695C17.9371 25.7725 17.8197 25.6932 17.7783 25.6932C17.5722 25.6932 14.8256 23.0619 14.8256 22.8644C14.8256 22.8127 14.7681 22.6995 14.6978 22.613C14.3927 22.2373 14.1267 21.1691 14.1253 20.314C14.1242 19.6052 14.1709 19.3434 14.412 18.7076C14.7194 17.897 14.7539 17.8416 15.3671 17.1745C16.2848 16.1759 17.8074 15.76 18.9398 16.1987C19.7642 16.5179 21.1508 17.6665 21.3529 18.1975C21.3893 18.2932 21.4222 18.8512 21.4259 19.4377C21.4296 20.0364 21.4828 20.6184 21.547 20.7651C21.7133 21.1446 22.109 21.3323 22.4684 21.202C23.0014 21.0086 23.0252 20.8433 23.0507 17.1525C23.0635 15.3041 23.0886 13.7765 23.1064 13.758C23.1242 13.7394 23.4544 13.8621 23.84 14.0306C24.2255 14.1992 24.5878 14.3371 24.645 14.3371C24.7394 14.3371 25.2074 13.3873 25.6046 12.3898C25.8205 11.8476 26.121 11.1542 26.2844 10.8213L26.4209 10.5432L25.6033 10.1502C23.1271 8.96002 20.3574 8.34987 17.5546 8.37717C16.7119 8.38533 15.8717 8.40705 15.6874 8.42548ZM18.0521 9.75037C18.2744 9.89142 18.3763 10.0454 18.4247 10.3138C18.5999 11.2857 17.586 11.8449 16.9146 11.1465C16.6613 10.8829 16.6325 10.7979 16.6868 10.4741C16.7588 10.0446 17.2094 9.55532 17.5322 9.55592C17.6498 9.55612 17.8838 9.64358 18.0521 9.75037ZM5.06324 16.6906C5.22698 17.1386 4.84512 17.5262 4.38856 17.3754C4.0111 17.2508 4.00736 16.5581 4.3832 16.3632C4.67209 16.2133 4.93512 16.3399 5.06324 16.6906ZM30.8462 16.6224C30.9709 16.7467 31.0013 16.8702 30.9549 17.0629C30.8755 17.3918 30.6133 17.5505 30.2893 17.4659C29.9911 17.388 29.8504 17.1389 29.924 16.8187C30.0378 16.3231 30.4564 16.2341 30.8462 16.6224ZM2.70587 21.1678C2.88445 21.3536 2.90255 21.7203 2.7414 21.8879C2.6782 21.9537 2.51006 22.0075 2.36777 22.0075C2.16927 22.0075 2.08682 21.9412 2.01367 21.723C1.90834 21.4085 1.94932 21.2983 2.2339 21.1303C2.48765 20.9806 2.52901 20.9839 2.70587 21.1678ZM32.8787 21.3503C33.0315 21.4665 33.0462 21.5378 32.9665 21.7737C32.8904 21.9988 32.8124 22.0573 32.588 22.0573C32.3635 22.0573 32.2856 21.9988 32.2094 21.7737C32.1297 21.5378 32.1444 21.4665 32.2973 21.3503C32.3983 21.2734 32.5291 21.2105 32.588 21.2105C32.6469 21.2105 32.7776 21.2734 32.8787 21.3503ZM1.94233 26.4761C2.0873 26.9514 1.60154 27.2697 1.30767 26.892C1.17697 26.7242 1.15906 26.6251 1.23327 26.4809C1.36483 26.225 1.86477 26.2217 1.94233 26.4761ZM33.5997 26.4937C33.8429 26.6291 33.8362 26.9527 33.5872 27.0912C33.3374 27.2303 33.1146 27.0626 33.1146 26.7353C33.1146 26.5443 33.1911 26.4486 33.3843 26.3984C33.4008 26.3941 33.4978 26.437 33.5997 26.4937ZM2.79521 31.6204C2.88398 31.8611 2.7571 32.0686 2.52116 32.0686C2.28522 32.0686 2.15835 31.8611 2.24711 31.6204C2.27747 31.5382 2.4008 31.4709 2.52116 31.4709C2.64153 31.4709 2.76486 31.5382 2.79521 31.6204ZM32.7215 31.7503C32.8406 31.9817 32.7115 32.198 32.4819 32.152C32.2643 32.1084 32.1845 31.7766 32.3631 31.6587C32.5529 31.5336 32.6188 31.5504 32.7215 31.7503Z" fill="#F9F9F9"/>
</svg>
