<svg width="94" height="76" viewBox="0 0 94 76" fill="none" xmlns="http://www.w3.org/2000/svg">
<path fill-rule="evenodd" clip-rule="evenodd" d="M58.7664 10.3455C72.8336 11.6056 83.8769 23.4101 83.8769 37.8674C83.8769 52.3246 72.8336 64.1292 58.7664 65.3892H51.2727V30.3735H56.2685V30.4398C56.3343 30.4398 56.4 30.4398 56.4 30.4398C60.5413 30.4398 63.8937 33.822 63.8937 38C63.8937 42.178 60.5413 45.5602 56.4 45.5602C56.3343 45.5602 56.2685 45.5602 56.2685 45.5602V55.6405C65.9972 55.6405 73.8196 47.7487 73.8196 38C73.8196 28.2513 65.9315 20.3595 56.2685 20.3595H41.8727V76H58.7664C77.8951 74.74 93.1455 59.2216 94 39.9895V36.3421C93.0797 17.0436 77.8294 1.59162 58.7664 0.331588H41.8727V10.4119H58.7664V10.3455Z" fill="#004F9F"/>
<path fill-rule="evenodd" clip-rule="evenodd" d="M24.3217 63.9302C24.8476 63.9302 25.3077 63.9302 25.7678 63.9965C28.3972 64.0628 30.5007 65.8534 30.5664 68.1745V71.6894H36.6797V75.8674H18.2084V68.6387C18.2084 68.5061 18.2084 68.4398 18.2084 68.3072C18.2084 65.986 20.2462 64.1292 22.8755 63.9965C23.3357 63.9302 23.7958 63.9302 24.3217 63.9302ZM26.4909 69.8325C26.4909 68.904 25.5706 68.1745 24.3874 68.1745C23.7301 68.1745 23.0727 68.4398 22.6783 68.8377C22.4811 69.103 22.3496 69.3682 22.2839 69.6335V71.6894H26.4252L26.4909 69.8325ZM31.158 27.9197C31.6182 28.6492 31.8811 29.644 31.8811 30.2408C31.8811 32.0314 29.8434 33.4241 27.2797 33.4241C24.7161 33.4241 22.6783 31.9651 22.6783 30.2408C22.6783 29.5777 22.8755 28.6492 23.3357 27.9197H18.7343C18.2741 28.8482 17.9455 30.0419 18.0112 31.6335C18.0112 35.8115 22.2182 38.199 27.4112 38.199C32.6042 38.199 36.8112 35.7452 36.8112 31.6335C36.8112 30.0419 36.5483 28.8482 36.0224 27.9197H31.158ZM31.158 38.8621C31.6182 39.5916 31.8811 40.5864 31.8811 41.1833C31.8811 42.9738 29.8434 44.3665 27.2797 44.3665C24.7161 44.3665 22.6783 42.9075 22.6783 41.1833C22.6783 40.5201 22.8755 39.5916 23.3357 38.8621H18.7343C18.2741 39.7906 17.9455 40.9843 18.0112 42.5096C18.0112 46.6876 22.2182 49.075 27.4112 49.075C32.6042 49.075 36.8112 46.6213 36.8112 42.5096C36.8112 40.918 36.5483 39.7243 36.0224 38.8621H31.158ZM11.5692 69.0367V71.6894C11.0434 71.4241 9.79441 71.2915 9.00559 71.0925C8.61119 71.0262 7.36224 70.8272 6.63916 70.8272H3.48392V69.0367H11.5692ZM11.5692 65.6545H0.197203V73.8115H6.83636C7.36224 73.8115 7.95385 73.8778 8.61119 74.0105C9.46573 74.2094 10.9776 74.541 11.5035 74.8726V75.801H16.7622V72.4188H14.8559V68.1082H16.7622V64.726H11.5692V65.6545ZM8.93986 60.4154V55.6405H5.71888V60.4154H3.48392V55.2426H0.197203V63.7976H14.9217V55.2426H11.5692V60.4154H8.93986ZM3.54965 52.3909L8.01958 52.4572C8.21678 52.4572 8.61119 52.4572 8.87413 52.4572C10.386 52.4572 11.5035 53.0541 11.5035 53.8499C11.5035 54.0489 11.4378 54.2478 11.3063 54.4468L14.7245 54.3805C15.1846 53.5846 15.0531 52.3909 15.0531 52.1257C15.0531 50.4677 12.4238 49.075 9.26853 49.075C9.2028 49.075 9.07133 49.075 9.00559 49.075H3.48392V47.3508H14.8559V43.9686H0.131469V52.3909H3.54965ZM8.67692 28.4503V26.9913C8.87413 26.4607 9.4 26.0628 9.99161 26.0628C10.7804 26.0628 11.4378 26.726 11.4378 27.5881V28.4503H8.67692ZM5.78462 27.2565V28.4503H2.95804V27.5881C3.02378 26.8586 3.61538 26.2618 4.4042 26.2618C5.06154 26.2618 5.58741 26.726 5.78462 27.2565ZM0.197203 26.1955V31.8325H14.8559V25.6649C14.8559 25.5986 14.8559 25.5986 14.8559 25.5323C14.8559 23.7417 13.1469 22.2164 11.0434 22.2164C9.4 22.2164 7.82238 22.8796 7.16504 24.2059C6.50769 23.2775 5.25874 22.6143 3.87832 22.6143C1.77483 22.6143 0.262937 23.9407 0.262937 25.7312C0.197203 25.8639 0.197203 26.0628 0.197203 26.1955ZM11.5692 18.5026L14.8559 19.2984V22.6143L0.197203 18.9668V13.993L14.8559 10.3455V13.6614L11.5692 14.4572V18.5026ZM8.21678 15.3194L3.41818 16.5131L8.21678 17.7068V15.3194ZM31.8811 7.62653L36.6797 8.22339V12.4677L30.8294 11.6056H30.5007C28.8573 11.274 27.6741 10.1466 27.7399 8.88656C27.0168 10.5445 25.242 11.7382 23.0727 11.7382C20.3119 11.7382 18.0769 9.81501 18.0769 7.36126C18.0769 7.1623 18.0769 7.02967 18.0769 6.89703V0H36.6797V4.11169H30.6322V6.63176C30.7636 7.1623 31.2238 7.49389 31.8811 7.62653ZM26.4909 4.11169H22.2839V5.90227C22.2839 6.83072 23.2042 7.56021 24.3874 7.56021C25.5706 7.56021 26.4909 6.83072 26.4909 5.90227H26.5566V4.24433L26.4909 4.11169ZM36.7455 21.2216V24.1396H36.6797V25.6649H18.2084V21.4869H28.6601L18.2741 18.171V17.3089H18.2084V13.1309H36.6797V17.3089H24.5846L36.7455 21.2216ZM11.0434 6.16754L14.9217 6.69808V10.0803L10.2545 9.4171H10.0573C8.74266 9.15183 7.82238 8.22339 7.88811 7.22862C7.36224 8.55497 5.85035 9.54974 4.14126 9.54974C1.97203 9.54974 0.328671 8.02443 0.328671 6.10122C0.328671 6.0349 0.328671 5.96859 0.328671 5.90227V3.3822L0.262937 0.729494V0H15.0531V3.3822H10.2545V5.637C10.2545 5.90227 10.5832 6.10122 11.0434 6.16754ZM6.83636 3.3822H3.48392V4.64223C3.48392 5.37173 4.07552 6.16754 4.9958 6.16754C5.85035 6.16754 6.7049 5.637 6.77063 4.97382V3.3822H6.83636ZM27.5427 53.9825C25.0448 53.9825 22.4154 53.9162 22.4154 56.5026C22.4154 59.1553 25.1105 59.1553 27.6084 59.1553C29.7776 59.1553 32.7357 59.2216 32.7357 56.5026C32.6699 53.7173 29.7119 53.9825 27.5427 53.9825ZM37.0084 56.5689C37.0084 63.267 29.449 63.3997 27.6084 63.3997C25.7021 63.3997 18.1427 63.267 18.1427 56.5689C18.1427 49.8709 25.7678 49.7382 27.6084 49.7382C29.449 49.7382 37.0084 49.8709 37.0084 56.5689ZM7.42797 35.7452C5.45594 35.7452 3.35245 35.6789 3.35245 37.801C3.35245 39.8569 5.45594 39.9232 7.49371 39.9232C9.2028 39.9232 11.5692 39.9895 11.5692 37.801C11.5692 35.6126 9.13706 35.7452 7.42797 35.7452ZM14.9874 37.801C14.9874 43.1065 9.0056 43.2391 7.49371 43.2391C5.98182 43.2391 0 43.1065 0 37.801C0 32.4956 6.04755 32.363 7.49371 32.363C9.0056 32.4293 14.9874 32.4956 14.9874 37.801Z" fill="#004F9F"/>
</svg>
